<?xml version="1.0" encoding="UTF-8" standalone="no"?>
<svg
   xmlns:dc="http://purl.org/dc/elements/1.1/"
   xmlns:cc="http://creativecommons.org/ns#"
   xmlns:rdf="http://www.w3.org/1999/02/22-rdf-syntax-ns#"
   xmlns:svg="http://www.w3.org/2000/svg"
   xmlns="http://www.w3.org/2000/svg"
   xmlns:sodipodi="http://sodipodi.sourceforge.net/DTD/sodipodi-0.dtd"
   xmlns:inkscape="http://www.inkscape.org/namespaces/inkscape"
   id="Layer_1"
   enable-background="new 0 0 124 124"
   height="512"
   viewBox="0 0 124 124"
   width="512"
   version="1.1"
   sodipodi:docname="007-analytics.svg"
   inkscape:version="0.92.4 (5da689c313, 2019-01-14)">
  <metadata
     id="metadata37">
    <rdf:RDF>
      <cc:Work
         rdf:about="">
        <dc:format>image/svg+xml</dc:format>
        <dc:type
           rdf:resource="http://purl.org/dc/dcmitype/StillImage" />
      </cc:Work>
    </rdf:RDF>
  </metadata>
  <defs
     id="defs35" />
  <sodipodi:namedview
     pagecolor="#ffffff"
     bordercolor="#666666"
     borderopacity="1"
     objecttolerance="10"
     gridtolerance="10"
     guidetolerance="10"
     inkscape:pageopacity="0"
     inkscape:pageshadow="2"
     inkscape:window-width="1364"
     inkscape:window-height="966"
     id="namedview33"
     showgrid="false"
     inkscape:zoom="0.16296602"
     inkscape:cx="-25.529538"
     inkscape:cy="948.98262"
     inkscape:window-x="0"
     inkscape:window-y="0"
     inkscape:window-maximized="0"
     inkscape:current-layer="Layer_1" />
  <path
     d="m18.554 93.399h-15.052v-25.251l15.052-5.158z"
     fill="#fff"
     id="path2" />
  <path
     d="m18.554 62.99-7.526 2.579v27.83h7.526z"
     fill="#d2edf8"
     id="path4"
     style="fill:#c8ef7b;fill-opacity:1" />
  <path
     d="m18.554 95.4h-15.052c-1.105 0-2-.896-2-2v-25.253c0-.855.543-1.615 1.352-1.892l15.052-5.157c1.277-.441 2.649.548 2.649 1.892v30.41c-.001 1.104-.897 2-2.001 2zm-13.052-4.001h11.051v-25.609l-11.051 3.786z"
     fill="#43484a"
     id="path6" />
  <path
     d="m41.916 93.852h-15.051v-35.252l15.051-5.158z"
     fill="#fff"
     id="path8" />
  <path
     d="m41.916 53.442-7.526 2.579v37.831h7.526z"
     fill="#d2edf8"
     id="path10"
     style="fill:#c8ef7b;fill-opacity:1" />
  <path
     d="m41.916 95.853h-15.052c-1.105 0-2-.896-2-2v-35.253c0-.855.543-1.615 1.352-1.892l15.052-5.158c1.276-.443 2.649.549 2.649 1.892v40.411c0 1.104-.896 2-2.001 2zm-13.051-4h11.051v-35.611l-11.051 3.787z"
     fill="#43484a"
     id="path12" />
  <path
     d="m65.279 93.399h-15.052v-45.252l15.052-5.158z"
     fill="#fff"
     id="path14" />
  <path
     d="m65.279 42.989-7.526 2.579v47.831h7.526z"
     fill="#d2edf8"
     id="path16"
     style="fill:#c8ef7b;fill-opacity:1" />
  <path
     d="m65.279 95.4h-15.052c-1.105 0-2-.896-2-2v-45.253c0-.855.543-1.615 1.352-1.892l15.052-5.157c1.276-.442 2.649.548 2.649 1.892v50.41c-.001 1.104-.896 2-2.001 2zm-13.051-4.001h11.051v-45.61l-11.051 3.786z"
     fill="#43484a"
     id="path18" />
  <path
     d="m88.568 93.399h-15.052v-56.252l15.052-5.159z"
     fill="#fff"
     id="path20" />
  <path
     d="m88.568 31.988-7.526 2.579v58.832h7.526z"
     fill="#d2edf8"
     id="path22"
     style="fill:#c8ef7b;fill-opacity:1" />
  <path
     d="m85.971 11.978-9.624-1.939c-1.082-.217-2.138.482-2.356 1.566-.218 1.082.483 2.137 1.567 2.356l5.267 1.061c-10.97 8.225-47.395 33.801-79.012 36.779-1.1.104-1.908 1.079-1.804 2.179.098 1.036.969 1.813 1.989 1.813.063 0 .126-.003.19-.009 20.142-1.898 42.05-12.726 56.882-21.477 8.428-4.972 15.463-9.781 19.88-12.939 1.433-1.025 2.619-1.883 3.601-2.606l-.904 4.43c-.221 1.082.478 2.139 1.561 2.359.135.027.269.04.401.04.931 0 1.765-.653 1.958-1.601l1.969-9.652c.201-1.556.007-1.994-1.565-2.36z"
     fill="#43484a"
     id="path24" />
  <ellipse
     cx="95.777"
     cy="85.867"
     fill="#f7f8fc"
     rx="13.943"
     ry="13.795"
     id="ellipse26" />
  <path
     d="m120.768 104.758-12.631-12.508c-1.356 2.565-3.502 4.654-6.12 5.953l12.682 12.559c1.676 1.658 4.393 1.658 6.068 0 1.677-1.659 1.677-4.346.001-6.004z"
     fill="#e29e9a"
     id="path28"
     style="fill:#c2e7ee;fill-opacity:1" />
  <path
     d="m122.175 103.336-11.637-11.523c.757-1.837 1.182-3.843 1.182-5.946 0-8.709-7.152-15.796-15.944-15.796-1.826 0-3.574.321-5.209.883v-38.965c0-1.344-1.372-2.332-2.649-1.892l-15.052 5.157c-.809.276-1.352 1.037-1.352 1.892v56.253c0 1.105.896 2 2 2h9.578c2.915 3.797 7.508 6.263 12.683 6.263 2.043 0 3.991-.397 5.788-1.094l11.728 11.615c1.224 1.211 2.832 1.816 4.44 1.816 1.609 0 3.216-.605 4.44-1.816 2.438-2.407 2.437-6.438.004-8.847zm-46.659-11.937v-52.824l11.051-3.786v38.208c-4.067 2.865-6.734 7.561-6.734 12.871 0 1.949.375 3.808 1.029 5.532h-5.346zm8.319-5.532c0-6.504 5.358-11.795 11.943-11.795s11.943 5.291 11.943 11.795-5.358 11.795-11.943 11.795-11.943-5.291-11.943-11.795zm35.526 23.473c-.899.889-2.357.888-3.254.001l-10.871-10.766c1.218-.894 2.322-1.973 3.243-3.171l10.881 10.775s0 .001.001.001c.87.859.871 2.299 0 3.16-.898.888.428-.423 0 0z"
     fill="#43484a"
     id="path30" />
  <rect
     style="fill:#ffffff;fill-opacity:0.19607843;stroke-width:0.47989684"
     id="rect853-0"
     width="72.07695"
     height="118.88982"
     x="-83.400826"
     y="-6.6196337" />
</svg>
