<svg xmlns="http://www.w3.org/2000/svg" viewBox="0 0 124 124"><path d="M18.554 93.399H3.502V68.148l15.052-5.158z" fill="#fff"/><path d="M18.554 62.99l-7.526 2.579v27.83h7.526z" fill="#c8ef7b"/><path d="M18.554 95.4H3.502c-1.105 0-2-.896-2-2V68.147c0-.855.543-1.615 1.352-1.892l15.052-5.157c1.277-.441 2.649.548 2.649 1.892V93.4c-.001 1.104-.897 2-2.001 2zM5.502 91.399h11.051V65.79L5.502 69.576z" fill="#43484a"/><path d="M41.916 93.852H26.865V58.6l15.051-5.158z" fill="#fff"/><path d="M41.916 53.442l-7.526 2.579v37.831h7.526z" fill="#c8ef7b"/><path d="M41.916 95.853H26.864c-1.105 0-2-.896-2-2V58.6c0-.855.543-1.615 1.352-1.892l15.052-5.158c1.276-.443 2.649.549 2.649 1.892v40.411c0 1.104-.896 2-2.001 2zm-13.051-4h11.051V56.242l-11.051 3.787z" fill="#43484a"/><path d="M65.279 93.399H50.227V48.147l15.052-5.158z" fill="#fff"/><path d="M65.279 42.989l-7.526 2.579v47.831h7.526z" fill="#c8ef7b"/><path d="M65.279 95.4H50.227c-1.105 0-2-.896-2-2V48.147c0-.855.543-1.615 1.352-1.892l15.052-5.157c1.276-.442 2.649.548 2.649 1.892V93.4c-.001 1.104-.896 2-2.001 2zm-13.051-4.001h11.051v-45.61l-11.051 3.786z" fill="#43484a"/><path d="M88.568 93.399H73.516V37.147l15.052-5.159z" fill="#fff"/><path d="M88.568 31.988l-7.526 2.579v58.832h7.526z" fill="#c8ef7b"/><path d="M85.971 11.978l-9.624-1.939c-1.082-.217-2.138.482-2.356 1.566-.218 1.082.483 2.137 1.567 2.356l5.267 1.061C69.855 23.247 33.43 48.823 1.813 51.801c-1.1.104-1.908 1.079-1.804 2.179.098 1.036.969 1.813 1.989 1.813.063 0 .126-.003.19-.009 20.142-1.898 42.05-12.726 56.882-21.477 8.428-4.972 15.463-9.781 19.88-12.939 1.433-1.025 2.619-1.883 3.601-2.606l-.904 4.43c-.221 1.082.478 2.139 1.561 2.359.135.027.269.04.401.04.931 0 1.765-.653 1.958-1.601l1.969-9.652c.201-1.556.007-1.994-1.565-2.36z" fill="#43484a"/><ellipse cx="95.777" cy="85.867" fill="#f7f8fc" rx="13.943" ry="13.795"/><path d="M120.768 104.758L108.137 92.25c-1.356 2.565-3.502 4.654-6.12 5.953l12.682 12.559c1.676 1.658 4.393 1.658 6.068 0 1.677-1.659 1.677-4.346.001-6.004z" fill="#c2e7ee"/><path d="M122.175 103.336l-11.637-11.523c.757-1.837 1.182-3.843 1.182-5.946 0-8.709-7.152-15.796-15.944-15.796-1.826 0-3.574.321-5.209.883V31.989c0-1.344-1.372-2.332-2.649-1.892l-15.052 5.157c-.809.276-1.352 1.037-1.352 1.892v56.253c0 1.105.896 2 2 2h9.578c2.915 3.797 7.508 6.263 12.683 6.263 2.043 0 3.991-.397 5.788-1.094l11.728 11.615c1.224 1.211 2.832 1.816 4.44 1.816 1.609 0 3.216-.605 4.44-1.816 2.438-2.407 2.437-6.438.004-8.847zM75.516 91.399V38.575l11.051-3.786v38.208c-4.067 2.865-6.734 7.561-6.734 12.871 0 1.949.375 3.808 1.029 5.532h-5.346zm8.319-5.532c0-6.504 5.358-11.795 11.943-11.795s11.943 5.291 11.943 11.795-5.358 11.795-11.943 11.795-11.943-5.291-11.943-11.795zm35.526 23.473c-.899.889-2.357.888-3.254.001l-10.871-10.766c1.218-.894 2.322-1.973 3.243-3.171l10.881 10.775s0 .001.001.001c.87.859.871 2.299 0 3.16-.898.888.428-.423 0 0z" fill="#43484a"/><path fill="#fff" fill-opacity=".19608" d="M-83.40083-6.61963h72.07695v118.88982h-72.07695z"/></svg>