<svg xmlns="http://www.w3.org/2000/svg" viewBox="0 -15 496 495"><path d="M368.2461 242.42969c0-70.5625-57.54297-127.76953-128.51954-127.76953-70.97265 0-128.52734 57.20703-128.52734 127.76953 0 54.6211 34.54297 109.2461 83.04687 127.51953V464.5h89.6836V362.26953c49.16797-17.9375 84.3164-64.7461 84.3164-119.83984zm0 0" fill="#d9e4ed"/><path d="M376.51953 242.42969c0-70.5625-57.54297-127.76953-128.51953-127.76953s-128.51953 57.19921-128.51953 127.76953c0 54.6211 34.54297 101.10156 83.04687 119.38281V464.5h89.6797V362.26953c49.16796-17.9375 84.3125-64.7461 84.3125-119.83984zm0 0" fill="#c8ef7b"/><path d="M247.99952 210.1958c-20.3672 0-36.8789 16.41358-36.8789 36.66358 0 17.51719 12.3604 32.15484 28.87939 35.78907v118.1792h-63.58594c-4.41407 0-7.99952 3.583-7.99952 8.00097 0 4.41407 3.58545 7.99952 7.99952 7.99952h143.17236c4.41407 0 7.99952-3.58545 7.99952-7.99952 0-4.41796-3.58545-8.00097-7.99952-8.00097H256.0005v-118.1792c16.51898-3.63423 28.87794-18.27188 28.87794-35.78907 0-20.25-16.51172-36.66358-36.8789-36.66358z" fill="#95e000"/><path d="M335.11328 254.85938c-4.41797 0-8-3.58204-8-8 0-43.33594-35.48828-78.59766-79.11328-78.59766-4.41406 0-8-3.58594-8-8 0-4.41797 3.58594-8 8-8 52.44922 0 95.11328 42.4375 95.11328 94.59766 0 4.41796-3.58594 8-8 8zm0 0" fill="#fff"/><g fill="#c8cbd4"><path d="M247.77734 63.01953c-4.41797 0-8-3.58203-8-8V8.5c0-4.41406 3.58203-8 8-8 4.41407 0 8 3.58594 8 8v46.51953c0 4.41797-3.58593 8-8 8zm0 0M111.22266 119.4375c-2.03907 0-4.07813-.77734-5.63672-2.32813L72.49609 84.21095c-3.13671-3.10938-3.15234-8.17578-.03125-11.3125 3.10938-3.125 8.17579-3.15235 11.3125-.03125l33.08594 32.89844c3.13672 3.10937 3.15234 8.17578.03125 11.30859-1.5586 1.57031-3.61328 2.36328-5.67187 2.36328zm0 0M54.79297 255.3086H8c-4.41406 0-8-3.58594-8-8 0-4.41798 3.58594-8 8-8h46.79297c4.41406 0 8 3.58202 8 8 0 4.41406-3.58594 8-8 8zm0 0M488 254.85938h-46.79297c-4.41406 0-8-3.58204-8-8 0-4.41407 3.58594-8 8-8H488c4.41406 0 8 3.58593 8 8 0 4.41796-3.58594 8-8 8zm0 0M384.45703 119.11719c-2.0586 0-4.11328-.78516-5.67187-2.35938-3.1211-3.13672-3.10547-8.20312.03125-11.3125l33.08593-32.89844c3.13672-3.125 8.19532-3.10156 11.3125.03126 3.1211 3.13671 3.10547 8.20312-.03125 11.3125l-33.08593 32.89843c-1.5625 1.55078-3.60157 2.32813-5.64063 2.32813zm0 0"/></g></svg>