<?xml version="1.0" encoding="UTF-8" standalone="no"?>
<svg
   xmlns:dc="http://purl.org/dc/elements/1.1/"
   xmlns:cc="http://creativecommons.org/ns#"
   xmlns:rdf="http://www.w3.org/1999/02/22-rdf-syntax-ns#"
   xmlns:svg="http://www.w3.org/2000/svg"
   xmlns="http://www.w3.org/2000/svg"
   xmlns:sodipodi="http://sodipodi.sourceforge.net/DTD/sodipodi-0.dtd"
   xmlns:inkscape="http://www.inkscape.org/namespaces/inkscape"
   height="496pt"
   viewBox="0 -15 496 495"
   width="496pt"
   version="1.1"
   id="svg26"
   sodipodi:docname="010-business-and-finance.svg"
   inkscape:version="0.92.4 (5da689c313, 2019-01-14)">
  <metadata
     id="metadata32">
    <rdf:RDF>
      <cc:Work
         rdf:about="">
        <dc:format>image/svg+xml</dc:format>
        <dc:type
           rdf:resource="http://purl.org/dc/dcmitype/StillImage" />
      </cc:Work>
    </rdf:RDF>
  </metadata>
  <defs
     id="defs30" />
  <sodipodi:namedview
     pagecolor="#ffffff"
     bordercolor="#666666"
     borderopacity="1"
     objecttolerance="10"
     gridtolerance="10"
     guidetolerance="10"
     inkscape:pageopacity="0"
     inkscape:pageshadow="2"
     inkscape:window-width="1477"
     inkscape:window-height="1077"
     id="namedview28"
     showgrid="false"
     inkscape:zoom="0.35685484"
     inkscape:cx="-377.43085"
     inkscape:cy="464.54109"
     inkscape:window-x="0"
     inkscape:window-y="0"
     inkscape:window-maximized="0"
     inkscape:current-layer="svg26" />
  <path
     d="m368.246094 242.429688c0-70.5625-57.542969-127.769532-128.519532-127.769532-70.972656 0-128.527343 57.207032-128.527343 127.769532 0 54.621093 34.542969 109.246093 83.046875 127.519531v94.550781h89.683594v-102.230469c49.167968-17.9375 84.316406-64.746093 84.316406-119.839843zm0 0"
     fill="#d9e4ed"
     id="path2" />
  <path
     d="m376.519531 242.429688c0-70.5625-57.542969-127.769532-128.519531-127.769532s-128.519531 57.199219-128.519531 127.769532c0 54.621093 34.542969 101.101562 83.046875 119.382812v102.6875h89.679687v-102.230469c49.167969-17.9375 84.3125-64.746093 84.3125-119.839843zm0 0"
     fill="#ffcd6a"
     id="path4"
     style="fill:#c8ef7b;fill-opacity:1" />
  <path
     style="fill:#95e000;fill-opacity:1;stroke-width:1.33333325"
     d="M 330.66602 300.92773 C 303.50976 300.92773 281.49414 322.8125 281.49414 349.8125 C 281.49414 373.16875 297.97469 392.68561 320 397.53125 L 320 555.10352 L 235.21875 555.10352 C 229.33333 555.10352 224.55273 559.88086 224.55273 565.77148 C 224.55273 571.6569 229.33333 576.4375 235.21875 576.4375 L 330.66602 576.4375 L 426.11523 576.4375 C 432.00065 576.4375 436.78125 571.6569 436.78125 565.77148 C 436.78125 559.88086 432.00065 555.10352 426.11523 555.10352 L 341.33398 555.10352 L 341.33398 397.53125 C 363.35929 392.68561 379.83789 373.16875 379.83789 349.8125 C 379.83789 322.8125 357.82227 300.92773 330.66602 300.92773 z "
     transform="matrix(0.75000002,0,0,0.75000002,0,-15.5)"
     id="path863" />
  <path
     style="fill:#ffffff;fill-opacity:1"
     d="M 248,416.82812"
     id="path6" />
  <path
     style="fill:#ffffff;fill-opacity:1"
     d="M 284.87891,246.85937"
     id="path8" />
  <path
     d="m335.113281 254.859375c-4.417969 0-8-3.582031-8-8 0-43.335937-35.488281-78.597656-79.113281-78.597656-4.414062 0-8-3.585938-8-8 0-4.417969 3.585938-8 8-8 52.449219 0 95.113281 42.4375 95.113281 94.597656 0 4.417969-3.585937 8-8 8zm0 0"
     fill="#fff"
     id="path10" />
  <g
     fill="#c8cbd4"
     id="g24">
    <path
       d="m247.777344 63.019531c-4.417969 0-8-3.582031-8-8v-46.519531c0-4.414062 3.582031-8 8-8 4.414062 0 8 3.585938 8 8v46.519531c0 4.417969-3.585938 8-8 8zm0 0"
       id="path14" />
    <path
       d="m111.222656 119.4375c-2.039062 0-4.078125-.777344-5.636718-2.328125l-33.089844-32.898437c-3.136719-3.109376-3.152344-8.175782-.03125-11.3125 3.109375-3.125 8.175781-3.152344 11.3125-.03125l33.085937 32.898437c3.136719 3.109375 3.152344 8.175781.03125 11.308594-1.558593 1.570312-3.613281 2.363281-5.671875 2.363281zm0 0"
       id="path16" />
    <path
       d="m54.792969 255.308594h-46.792969c-4.414062 0-8-3.585938-8-8 0-4.417969 3.585938-8 8-8h46.792969c4.414062 0 8 3.582031 8 8 0 4.414062-3.585938 8-8 8zm0 0"
       id="path18" />
    <path
       d="m488 254.859375h-46.792969c-4.414062 0-8-3.582031-8-8 0-4.414063 3.585938-8 8-8h46.792969c4.414062 0 8 3.585937 8 8 0 4.417969-3.585938 8-8 8zm0 0"
       id="path20" />
    <path
       d="m384.457031 119.117188c-2.058593 0-4.113281-.785157-5.671875-2.359376-3.121094-3.136718-3.105468-8.203124.03125-11.3125l33.085938-32.898437c3.136718-3.125 8.195312-3.101563 11.3125.03125 3.121094 3.136719 3.105468 8.203125-.03125 11.3125l-33.085938 32.898437c-1.5625 1.550782-3.601562 2.328126-5.640625 2.328126zm0 0"
       id="path22" />
  </g>
</svg>
