<?xml version="1.0" encoding="UTF-8" standalone="no"?>
<svg
   xmlns:dc="http://purl.org/dc/elements/1.1/"
   xmlns:cc="http://creativecommons.org/ns#"
   xmlns:rdf="http://www.w3.org/1999/02/22-rdf-syntax-ns#"
   xmlns:svg="http://www.w3.org/2000/svg"
   xmlns="http://www.w3.org/2000/svg"
   xmlns:sodipodi="http://sodipodi.sourceforge.net/DTD/sodipodi-0.dtd"
   xmlns:inkscape="http://www.inkscape.org/namespaces/inkscape"
   id="Layer_1"
   enable-background="new 0 0 60 60"
   height="512"
   viewBox="0 0 60 60"
   width="512"
   version="1.1"
   sodipodi:docname="011-content.svg"
   inkscape:version="0.92.4 (5da689c313, 2019-01-14)">
  <metadata
     id="metadata37">
    <rdf:RDF>
      <cc:Work
         rdf:about="">
        <dc:format>image/svg+xml</dc:format>
        <dc:type
           rdf:resource="http://purl.org/dc/dcmitype/StillImage" />
      </cc:Work>
    </rdf:RDF>
  </metadata>
  <defs
     id="defs35" />
  <sodipodi:namedview
     pagecolor="#ffffff"
     bordercolor="#666666"
     borderopacity="1"
     objecttolerance="10"
     gridtolerance="10"
     guidetolerance="10"
     inkscape:pageopacity="0"
     inkscape:pageshadow="2"
     inkscape:window-width="1382"
     inkscape:window-height="952"
     id="namedview33"
     showgrid="false"
     inkscape:zoom="0.92187498"
     inkscape:cx="91.503155"
     inkscape:cy="304.85844"
     inkscape:window-x="208"
     inkscape:window-y="208"
     inkscape:window-maximized="0"
     inkscape:current-layer="Layer_1" />
  <path
     d="m41.328 59h-22.656c-3.696 0-6.672-2.989-6.672-6.702v-44.596c0-3.713 2.976-6.702 6.672-6.702h22.656c3.696 0 6.672 2.989 6.672 6.702v44.645c-.048 3.664-3.024 6.653-6.672 6.653z"
     fill="#fff"
     id="path2" />
  <ellipse
     cx="30"
     cy="53.938"
     fill="#fff"
     rx="2.208"
     ry="2.218"
     id="ellipse8" />
  <path
     d="m30 57.155c-1.769 0-3.208-1.443-3.208-3.218s1.439-3.217 3.208-3.217 3.208 1.443 3.208 3.218-1.439 3.217-3.208 3.217zm0-4.435c-.666 0-1.208.546-1.208 1.218s.542 1.218 1.208 1.218 1.208-.546 1.208-1.218-.542-1.218-1.208-1.218z"
     fill="#145588"
     id="path10"
     style="fill:#43484a;fill-opacity:1" />
  <path
     d="m34.752 6.966h-9.504c-.552 0-1-.448-1-1s.448-1 1-1h9.504c.552 0 1 .448 1 1s-.448 1-1 1z"
     fill="#145588"
     id="path12"
     style="fill:#43484a;fill-opacity:1" />
  <path
     d="m41.328 0h-22.656c-4.231 0-7.672 3.455-7.672 7.702v44.597c0 4.246 3.441 7.701 7.672 7.701h22.656c4.175 0 7.617-3.428 7.672-7.653v-44.645c0-4.247-3.441-7.702-7.672-7.702zm-28.328 7.702c0-3.144 2.544-5.702 5.672-5.702h22.656c3.128 0 5.672 2.558 5.672 5.702v2.471h-34zm34 44.632c-.041 3.124-2.585 5.666-5.672 5.666h-22.656c-3.128 0-5.672-2.558-5.672-5.701v-2.52h34zm-34-4.555v-35.606h34v35.606z"
     fill="#145588"
     id="path18"
     style="fill:#43484a;fill-opacity:1" />
  <path
     style="color:#000000;font-style:normal;font-variant:normal;font-weight:normal;font-stretch:normal;font-size:medium;line-height:normal;font-family:sans-serif;font-variant-ligatures:normal;font-variant-position:normal;font-variant-caps:normal;font-variant-numeric:normal;font-variant-alternates:normal;font-feature-settings:normal;text-indent:0;text-align:start;text-decoration:none;text-decoration-line:none;text-decoration-style:solid;text-decoration-color:#000000;letter-spacing:normal;word-spacing:normal;text-transform:none;writing-mode:lr-tb;direction:ltr;text-orientation:mixed;dominant-baseline:auto;baseline-shift:baseline;text-anchor:start;white-space:normal;shape-padding:0;clip-rule:nonzero;display:inline;overflow:visible;visibility:visible;opacity:1;isolation:auto;mix-blend-mode:normal;color-interpolation:sRGB;color-interpolation-filters:linearRGB;solid-color:#000000;solid-opacity:1;vector-effect:none;fill:#ccf084;fill-opacity:1;fill-rule:nonzero;stroke:none;stroke-width:1.40625;stroke-linecap:round;stroke-linejoin:round;stroke-miterlimit:4;stroke-dasharray:none;stroke-dashoffset:0;stroke-opacity:1;color-rendering:auto;image-rendering:auto;shape-rendering:auto;text-rendering:auto;enable-background:accumulate"
     d="m 17.136719,16.539062 c -0.38831,3.9e-5 -0.703087,0.314816 -0.703125,0.703126 v 10.748046 c 3.9e-5,0.388309 0.314816,0.703086 0.703125,0.703125 h 25.679687 c 0.388309,-3.9e-5 0.703086,-0.314816 0.703125,-0.703125 V 17.242188 c -3.8e-5,-0.38831 -0.314815,-0.703087 -0.703125,-0.703126 z"
     id="path20"
     inkscape:connector-curvature="0"
     sodipodi:nodetypes="ccccccccc" />
  <path
     style="fill:#c2e7ee;fill-opacity:1"
     inkscape:connector-curvature="0"
     id="path24"
     d="M 42.816,35.036 H 31.315 c -0.552,0 -1,-0.447 -1,-1 0,-0.553 0.448,-1 1,-1 h 11.501 c 0.552,0 1,0.447 1,1 0,0.553 -0.448,1 -1,1 z" />
  <path
     style="fill:#c2e7ee;fill-opacity:1"
     inkscape:connector-curvature="0"
     id="path26"
     d="M 42.816,39.942 H 31.315 c -0.552,0 -1,-0.447 -1,-1 0,-0.553 0.448,-1 1,-1 h 11.501 c 0.552,0 1,0.447 1,1 0,0.553 -0.448,1 -1,1 z" />
  <path
     style="fill:#c2e7ee;fill-opacity:1"
     inkscape:connector-curvature="0"
     id="path28"
     d="M 42.816,44.85 H 31.315 c -0.552,0 -1,-0.447 -1,-1 0,-0.553 0.448,-1 1,-1 h 11.501 c 0.552,0 1,0.447 1,1 0,0.553 -0.448,1 -1,1 z" />
  <path
     style="color:#000000;font-style:normal;font-variant:normal;font-weight:normal;font-stretch:normal;font-size:medium;line-height:normal;font-family:sans-serif;font-variant-ligatures:normal;font-variant-position:normal;font-variant-caps:normal;font-variant-numeric:normal;font-variant-alternates:normal;font-feature-settings:normal;text-indent:0;text-align:start;text-decoration:none;text-decoration-line:none;text-decoration-style:solid;text-decoration-color:#000000;letter-spacing:normal;word-spacing:normal;text-transform:none;writing-mode:lr-tb;direction:ltr;text-orientation:mixed;dominant-baseline:auto;baseline-shift:baseline;text-anchor:start;white-space:normal;shape-padding:0;clip-rule:nonzero;display:inline;overflow:visible;visibility:visible;opacity:1;isolation:auto;mix-blend-mode:normal;color-interpolation:sRGB;color-interpolation-filters:linearRGB;solid-color:#000000;solid-opacity:1;vector-effect:none;fill:#f3aabb;fill-opacity:1;fill-rule:nonzero;stroke:none;stroke-width:1.875;stroke-linecap:round;stroke-linejoin:round;stroke-miterlimit:4;stroke-dasharray:none;stroke-dashoffset:0;stroke-opacity:1;color-rendering:auto;image-rendering:auto;shape-rendering:auto;text-rendering:auto;enable-background:accumulate"
     d="m 22.25,31.523438 c -0.360508,-0.0044 -0.691581,0.198388 -0.851562,0.521484 l -1.841797,3.734375 -4.121094,0.597656 c -0.769387,0.111596 -1.076515,1.057226 -0.519531,1.599609 l 2.982422,2.90625 -0.705079,4.103516 c -0.131835,0.766574 0.673285,1.351066 1.361329,0.988281 l 3.683593,-1.9375 3.685547,1.9375 c 0.688043,0.362783 1.493162,-0.221707 1.361328,-0.988281 l -0.705078,-4.103516 2.982422,-2.90625 c 0.556984,-0.542383 0.249856,-1.488013 -0.519531,-1.599609 L 24.921875,35.779297 23.080078,32.044922 C 22.92353,31.728771 22.602767,31.527257 22.25,31.523438 Z"
     id="path849"
     inkscape:connector-curvature="0"
     sodipodi:nodetypes="ccccccccccccccccc" />
</svg>
