<svg xmlns="http://www.w3.org/2000/svg" viewBox="0 0 60 60"><path d="M41.328 59H18.672C14.976 59 12 56.011 12 52.298V7.702C12 3.989 14.976 1 18.672 1h22.656C45.024 1 48 3.989 48 7.702v44.645C47.952 56.011 44.976 59 41.328 59z" fill="#fff"/><ellipse cx="30" cy="53.938" rx="2.208" ry="2.218" fill="#fff"/><path d="M30 57.155c-1.769 0-3.208-1.443-3.208-3.218S28.231 50.72 30 50.72s3.208 1.443 3.208 3.218-1.439 3.217-3.208 3.217zm0-4.435c-.666 0-1.208.546-1.208 1.218s.542 1.218 1.208 1.218 1.208-.546 1.208-1.218S30.666 52.72 30 52.72zM34.752 6.966h-9.504c-.552 0-1-.448-1-1s.448-1 1-1h9.504c.552 0 1 .448 1 1s-.448 1-1 1z" fill="#43484a"/><path d="M41.328 0H18.672C14.441 0 11 3.455 11 7.702v44.597C11 56.545 14.441 60 18.672 60h22.656c4.175 0 7.617-3.428 7.672-7.653V7.702C49 3.455 45.559 0 41.328 0zM13 7.702C13 4.558 15.544 2 18.672 2h22.656C44.456 2 47 4.558 47 7.702v2.471H13zm34 44.632C46.959 55.458 44.415 58 41.328 58H18.672C15.544 58 13 55.442 13 52.299v-2.52h34zm-34-4.555V12.173h34v35.606z" fill="#43484a"/><path d="M17.137 16.539c-.38831.00004-.70309.31482-.70312.70313v10.748c.00004.38831.31482.70309.70312.70312h25.68c.38831-.00004.70309-.31482.70312-.70312v-10.748c-.00004-.38831-.31482-.70309-.70312-.70313z" color="#000" fill="#ccf084" style="font-feature-settings:normal;font-variant-alternates:normal;font-variant-caps:normal;font-variant-ligatures:normal;font-variant-numeric:normal;font-variant-position:normal;isolation:auto;mix-blend-mode:normal;shape-padding:0;text-decoration-color:#000;text-decoration-line:none;text-decoration-style:solid;text-indent:0;text-orientation:mixed;text-transform:none;white-space:normal"/><path d="M42.816 35.036H31.315c-.552 0-1-.447-1-1s.448-1 1-1h11.501c.552 0 1 .447 1 1s-.448 1-1 1zM42.816 39.942H31.315c-.552 0-1-.447-1-1s.448-1 1-1h11.501c.552 0 1 .447 1 1s-.448 1-1 1zM42.816 44.85H31.315c-.552 0-1-.447-1-1s.448-1 1-1h11.501c.552 0 1 .447 1 1s-.448 1-1 1z" fill="#c2e7ee"/><path d="M22.7546 32.94418c-.29507-.0036-.56604.16237-.69698.42681l-1.50745 3.05648-3.37297.48916c-.62972.09134-.88108.86528-.42522 1.30922l2.44099 2.37862-.57708 3.35857c-.10791.6274.55105 1.10582 1.11417.80887l3.0149-1.58578 3.01645 1.58578c.56313.29692 1.22213-.18146 1.11417-.80887l-.57708-3.35857 2.44099-2.37862c.45587-.44393.2045-1.21788-.42522-1.30922l-3.37297-.48916-1.50745-3.05648a.76739.76739 0 00-.67939-.42681z" style="font-variant-ligatures:normal;font-variant-position:normal;font-variant-caps:normal;font-variant-numeric:normal;font-variant-alternates:normal;font-feature-settings:normal;text-indent:0;text-decoration-line:none;text-decoration-style:solid;text-decoration-color:#000;text-transform:none;text-orientation:mixed;white-space:normal;shape-padding:0;isolation:auto;mix-blend-mode:normal;solid-color:#000" color="#000" fill="#f3aabb"/></svg>