<?xml version="1.0" encoding="UTF-8" standalone="no"?>
<svg
   xmlns:dc="http://purl.org/dc/elements/1.1/"
   xmlns:cc="http://creativecommons.org/ns#"
   xmlns:rdf="http://www.w3.org/1999/02/22-rdf-syntax-ns#"
   xmlns:svg="http://www.w3.org/2000/svg"
   xmlns="http://www.w3.org/2000/svg"
   xmlns:sodipodi="http://sodipodi.sourceforge.net/DTD/sodipodi-0.dtd"
   xmlns:inkscape="http://www.inkscape.org/namespaces/inkscape"
   width="513.91296"
   height="470.30515"
   enable-background="new 0 0 124 124"
   version="1.1"
   viewBox="0 0 124.4633 113.90203"
   id="svg26"
   sodipodi:docname="003-devops.svg"
   inkscape:version="0.92.4 (5da689c313, 2019-01-14)">
  <defs
     id="defs30" />
  <sodipodi:namedview
     pagecolor="#ffffff"
     bordercolor="#666666"
     borderopacity="1"
     objecttolerance="10"
     gridtolerance="10"
     guidetolerance="10"
     inkscape:pageopacity="0"
     inkscape:pageshadow="2"
     inkscape:window-width="1481"
     inkscape:window-height="1017"
     id="namedview28"
     showgrid="false"
     inkscape:zoom="1.3037281"
     inkscape:cx="198.04549"
     inkscape:cy="279.34019"
     inkscape:window-x="0"
     inkscape:window-y="0"
     inkscape:window-maximized="0"
     inkscape:current-layer="svg26" />
  <metadata
     id="metadata2">
    <rdf:RDF>
      <cc:Work
         rdf:about="">
        <dc:format>image/svg+xml</dc:format>
        <dc:type
           rdf:resource="http://purl.org/dc/dcmitype/StillImage" />
      </cc:Work>
    </rdf:RDF>
  </metadata>
  <rect
     style="fill:none;stroke:#43484a;stroke-width:3.875;stroke-linecap:round;stroke-linejoin:round"
     x="1.9375"
     y="20.803518"
     width="105.35001"
     height="91.161011"
     id="rect22-6" />
  <path
     inkscape:connector-curvature="0"
     style="fill:#43484a;stroke:#43484a;stroke-width:3.875"
     d="M 1.7515021,40.145319 H 108.86151"
     id="path24-1" />
  <rect
     x="16.989796"
     y="21.279299"
     width="105.53"
     height="71.819"
     id="rect8"
     style="fill:#ffffff" />
  <rect
     x="17.175797"
     y="1.9375"
     width="105.35"
     height="18.455999"
     id="rect10"
     style="fill:#c8ef7b" />
  <path
     d="m 36.655797,13.1473 h -7.733 c -1.104,0 -2,-0.896 -2,-2 0,-1.104 0.896,-2.0000002 2,-2.0000002 h 7.733 c 1.104,0 2,0.8960002 2,2.0000002 0,1.104 -0.896,2 -2,2 z"
     id="path12"
     inkscape:connector-curvature="0"
     style="fill:#43484a" />
  <path
     d="m 54.265797,13.1473 h -7.734 c -1.104,0 -2,-0.896 -2,-2 0,-1.104 0.896,-2.0000002 2,-2.0000002 h 7.734 c 1.104,0 2,0.8960002 2,2.0000002 0,1.104 -0.896,2 -2,2 z"
     id="path14"
     inkscape:connector-curvature="0"
     style="fill:#43484a" />
  <g
     id="g879"
     transform="translate(6.3397561,-0.8678418)">
    <path
       id="path866"
       d="m 53.876953,49.933594 a 0.76302087,0.76302087 0 0 0 -0.328125,0.08594 l -15.542969,8.048828 a 0.76302087,0.76302087 0 0 0 -0.412109,0.675782 v 2.226562 a 0.76302087,0.76302087 0 0 0 0.412109,0.677735 l 15.542969,8.048828 a 0.76302087,0.76302087 0 0 0 1.115234,-0.677735 V 65.888672 A 0.76302087,0.76302087 0 0 0 54.244141,65.207031 L 43.630859,59.857422 54.244141,54.509766 a 0.76302087,0.76302087 0 0 0 0.419921,-0.681641 v -3.132813 a 0.76302087,0.76302087 0 0 0 -0.787109,-0.761718 z"
       style="color:#000000;font-style:normal;font-variant:normal;font-weight:normal;font-stretch:normal;font-size:medium;line-height:normal;font-family:sans-serif;font-variant-ligatures:normal;font-variant-position:normal;font-variant-caps:normal;font-variant-numeric:normal;font-variant-alternates:normal;font-feature-settings:normal;text-indent:0;text-align:start;text-decoration:none;text-decoration-line:none;text-decoration-style:solid;text-decoration-color:#000000;letter-spacing:normal;word-spacing:normal;text-transform:none;writing-mode:lr-tb;direction:ltr;text-orientation:mixed;dominant-baseline:auto;baseline-shift:baseline;text-anchor:start;white-space:normal;shape-padding:0;clip-rule:nonzero;display:inline;overflow:visible;visibility:visible;opacity:1;isolation:auto;mix-blend-mode:normal;color-interpolation:sRGB;color-interpolation-filters:linearRGB;solid-color:#000000;solid-opacity:1;vector-effect:none;fill:#43484a;fill-opacity:1;fill-rule:nonzero;stroke:none;stroke-width:1.52588916;stroke-linecap:round;stroke-linejoin:round;stroke-miterlimit:4;stroke-dasharray:none;stroke-dashoffset:0;stroke-opacity:1;color-rendering:auto;image-rendering:auto;shape-rendering:auto;text-rendering:auto;enable-background:accumulate"
       inkscape:connector-curvature="0" />
    <path
       id="path870"
       d="m 66.513672,45.316406 a 0.76302087,0.76302087 0 0 0 -0.710938,0.490235 l -9.169922,23.953125 a 0.76302087,0.76302087 0 0 0 0.712891,1.037109 h 3.005859 A 0.76302087,0.76302087 0 0 0 61.0625,70.306641 l 9.203125,-23.955079 a 0.76302087,0.76302087 0 0 0 -0.712891,-1.035156 z"
       style="color:#000000;font-style:normal;font-variant:normal;font-weight:normal;font-stretch:normal;font-size:medium;line-height:normal;font-family:sans-serif;font-variant-ligatures:normal;font-variant-position:normal;font-variant-caps:normal;font-variant-numeric:normal;font-variant-alternates:normal;font-feature-settings:normal;text-indent:0;text-align:start;text-decoration:none;text-decoration-line:none;text-decoration-style:solid;text-decoration-color:#000000;letter-spacing:normal;word-spacing:normal;text-transform:none;writing-mode:lr-tb;direction:ltr;text-orientation:mixed;dominant-baseline:auto;baseline-shift:baseline;text-anchor:start;white-space:normal;shape-padding:0;clip-rule:nonzero;display:inline;overflow:visible;visibility:visible;opacity:1;isolation:auto;mix-blend-mode:normal;color-interpolation:sRGB;color-interpolation-filters:linearRGB;solid-color:#000000;solid-opacity:1;vector-effect:none;fill:#43484a;fill-opacity:1;fill-rule:nonzero;stroke:none;stroke-width:1.52588916;stroke-linecap:round;stroke-linejoin:round;stroke-miterlimit:4;stroke-dasharray:none;stroke-dashoffset:0;stroke-opacity:1;color-rendering:auto;image-rendering:auto;shape-rendering:auto;text-rendering:auto;enable-background:accumulate"
       inkscape:connector-curvature="0" />
    <path
       id="path874"
       d="m 72.912109,49.933594 a 0.76302087,0.76302087 0 0 0 -0.74414,0.763672 v 3.132812 a 0.76302087,0.76302087 0 0 0 0.421875,0.681641 l 10.689453,5.347656 -10.689453,5.345703 a 0.76302087,0.76302087 0 0 0 -0.421875,0.681641 v 3.132812 a 0.76302087,0.76302087 0 0 0 1.113281,0.677735 l 15.542969,-8.015625 a 0.76302087,0.76302087 0 0 0 0.412109,-0.677735 V 58.712891 A 0.76302087,0.76302087 0 0 0 88.824219,58.035156 L 73.28125,50.019531 a 0.76302087,0.76302087 0 0 0 -0.369141,-0.08594 z"
       style="color:#000000;font-style:normal;font-variant:normal;font-weight:normal;font-stretch:normal;font-size:medium;line-height:normal;font-family:sans-serif;font-variant-ligatures:normal;font-variant-position:normal;font-variant-caps:normal;font-variant-numeric:normal;font-variant-alternates:normal;font-feature-settings:normal;text-indent:0;text-align:start;text-decoration:none;text-decoration-line:none;text-decoration-style:solid;text-decoration-color:#000000;letter-spacing:normal;word-spacing:normal;text-transform:none;writing-mode:lr-tb;direction:ltr;text-orientation:mixed;dominant-baseline:auto;baseline-shift:baseline;text-anchor:start;white-space:normal;shape-padding:0;clip-rule:nonzero;display:inline;overflow:visible;visibility:visible;opacity:1;isolation:auto;mix-blend-mode:normal;color-interpolation:sRGB;color-interpolation-filters:linearRGB;solid-color:#000000;solid-opacity:1;vector-effect:none;fill:#43484a;fill-opacity:1;fill-rule:nonzero;stroke:none;stroke-width:1.52588916;stroke-linecap:round;stroke-linejoin:round;stroke-miterlimit:4;stroke-dasharray:none;stroke-dashoffset:0;stroke-opacity:1;color-rendering:auto;image-rendering:auto;shape-rendering:auto;text-rendering:auto;enable-background:accumulate"
       inkscape:connector-curvature="0" />
  </g>
  <rect
     x="17.175797"
     y="1.9375"
     width="105.35"
     height="91.161003"
     id="rect22"
     style="fill:none;stroke:#43484a;stroke-width:3.875;stroke-linecap:round;stroke-linejoin:round" />
  <path
     d="M 16.989797,21.2793 H 124.0998"
     id="path24"
     inkscape:connector-curvature="0"
     style="fill:#43484a;stroke:#43484a;stroke-width:3.875" />
</svg>
