<svg xmlns="http://www.w3.org/2000/svg" viewBox="0 0 124.4633 113.90203"><path fill="none" stroke="#43484a" stroke-width="3.875" stroke-linecap="round" stroke-linejoin="round" d="M1.9375 20.80352h105.35001v91.16101H1.9375z"/><path d="M1.7515 40.14532h107.11001" fill="#43484a" stroke="#43484a" stroke-width="3.875"/><path fill="#fff" d="M16.9898 21.2793h105.53v71.819h-105.53z"/><path fill="#c8ef7b" d="M17.1758 1.9375h105.35v18.456h-105.35z"/><path d="M36.6558 13.1473h-7.733c-1.104 0-2-.896-2-2s.896-2 2-2h7.733c1.104 0 2 .896 2 2s-.896 2-2 2zM54.2658 13.1473h-7.734c-1.104 0-2-.896-2-2s.896-2 2-2h7.734c1.104 0 2 .896 2 2s-.896 2-2 2z" fill="#43484a"/><g color="#000" font-weight="400" font-family="sans-serif" fill="#43484a"><path d="M60.2167 49.06575a.76302.76302 0 00-.32812.08594l-15.54296 8.04883a.76302.76302 0 00-.41211.67578v2.22656a.76302.76302 0 00.4121.67774l15.54297 8.04883a.76302.76302 0 001.11524-.67774v-3.13086a.76302.76302 0 00-.41992-.68164l-10.61328-5.34961 10.61328-5.34766a.76302.76302 0 00.41992-.68164v-3.13281a.76302.76302 0 00-.78711-.76172zM72.85343 44.44856a.76302.76302 0 00-.71094.49024l-9.16992 23.95312a.76302.76302 0 00.71289 1.03711h3.00586a.76302.76302 0 00.71094-.49023l9.20312-23.95508a.76302.76302 0 00-.71289-1.03516zM79.25187 49.06575a.76302.76302 0 00-.74414.76367v3.13282a.76302.76302 0 00.42187.68164l10.68945 5.34765-10.68945 5.3457a.76302.76302 0 00-.42187.68165v3.1328a.76302.76302 0 001.11328.67774l15.54297-8.01562a.76302.76302 0 00.4121-.67774v-2.29101a.76302.76302 0 00-.4121-.67774L79.621 49.1517a.76302.76302 0 00-.36914-.08594z" style="line-height:normal;font-variant-ligatures:normal;font-variant-position:normal;font-variant-caps:normal;font-variant-numeric:normal;font-variant-alternates:normal;font-feature-settings:normal;text-indent:0;text-align:start;text-decoration-line:none;text-decoration-style:solid;text-decoration-color:#000;text-transform:none;text-orientation:mixed;white-space:normal;shape-padding:0;isolation:auto;mix-blend-mode:normal;solid-color:#000;solid-opacity:1" overflow="visible"/></g><path fill="none" stroke="#43484a" stroke-width="3.875" stroke-linecap="round" stroke-linejoin="round" d="M17.1758 1.9375h105.35v91.161h-105.35z"/><path d="M16.9898 21.2793h107.11" fill="#43484a" stroke="#43484a" stroke-width="3.875"/></svg>