<?xml version="1.0" encoding="UTF-8" standalone="no"?>
<svg
   xmlns:dc="http://purl.org/dc/elements/1.1/"
   xmlns:cc="http://creativecommons.org/ns#"
   xmlns:rdf="http://www.w3.org/1999/02/22-rdf-syntax-ns#"
   xmlns:svg="http://www.w3.org/2000/svg"
   xmlns="http://www.w3.org/2000/svg"
   xmlns:sodipodi="http://sodipodi.sourceforge.net/DTD/sodipodi-0.dtd"
   xmlns:inkscape="http://www.inkscape.org/namespaces/inkscape"
   id="Layer_1"
   enable-background="new 0 0 124 124"
   height="512"
   viewBox="0 0 124 124"
   width="512"
   version="1.1"
   sodipodi:docname="003-devops.svg"
   inkscape:version="0.92.4 (5da689c313, 2019-01-14)">
  <metadata
     id="metadata27">
    <rdf:RDF>
      <cc:Work
         rdf:about="">
        <dc:format>image/svg+xml</dc:format>
        <dc:type
           rdf:resource="http://purl.org/dc/dcmitype/StillImage" />
      </cc:Work>
    </rdf:RDF>
  </metadata>
  <defs
     id="defs25" />
  <sodipodi:namedview
     pagecolor="#ffffff"
     bordercolor="#666666"
     borderopacity="1"
     objecttolerance="10"
     gridtolerance="10"
     guidetolerance="10"
     inkscape:pageopacity="0"
     inkscape:pageshadow="2"
     inkscape:window-width="1692"
     inkscape:window-height="1154"
     id="namedview23"
     showgrid="false"
     inkscape:zoom="0.921875"
     inkscape:cx="-117.10469"
     inkscape:cy="371.00049"
     inkscape:window-x="0"
     inkscape:window-y="0"
     inkscape:window-maximized="0"
     inkscape:current-layer="g878" />
  <g
     id="g882">
    <path
       id="path2"
       fill="#e6e6e6"
       d="m0 114.09c0 1.607 1.296 2.91 2.894 2.91h101.322c1.599 0 2.894-1.303 2.894-2.91v-70.682h-107.11z" />
    <path
       id="path4"
       fill="#cdcdcd"
       d="m104.216 23.974h-101.322c-1.598 0-2.894 1.303-2.894 2.91v16.525h107.111v-16.525c0-1.607-1.296-2.91-2.895-2.91z" />
  </g>
  <g
     id="g878">
    <rect
       y="26.435001"
       x="16.889999"
       height="71.819237"
       width="105.53373"
       id="rect863"
       style="fill:#ffffff;fill-opacity:1;stroke:none;stroke-width:3.875;stroke-linecap:round;stroke-linejoin:round;stroke-miterlimit:4;stroke-dasharray:none;stroke-opacity:1" />
    <rect
       y="7.0932202"
       x="17.076271"
       height="18.455509"
       width="105.34746"
       id="rect861"
       style="fill:#c8ef7b;fill-opacity:1;stroke:none;stroke-width:4.02845192;stroke-linecap:round;stroke-linejoin:round;stroke-miterlimit:4;stroke-dasharray:none;stroke-opacity:1" />
    <path
       d="m 36.556,18.303 h -7.733 c -1.104,0 -2,-0.896 -2,-2 0,-1.104 0.896,-2 2,-2 h 7.733 c 1.104,0 2,0.896 2,2 0,1.104 -0.896,2 -2,2 z"
       id="path10"
       style="fill:#43484a;fill-opacity:1"
       inkscape:connector-curvature="0" />
    <path
       d="m 54.166,18.303 h -7.734 c -1.104,0 -2,-0.896 -2,-2 0,-1.104 0.896,-2 2,-2 h 7.734 c 1.104,0 2,0.896 2,2 0,1.104 -0.896,2 -2,2 z"
       id="path12"
       style="fill:#43484a;fill-opacity:1"
       inkscape:connector-curvature="0" />
    <path
       d="m 38.463,63.477 19.736,10.22 V 69.72 L 43.007,62.063 58.199,54.407 V 50.43 L 38.463,60.65 Z"
       id="path14"
       style="fill:#43484a;fill-opacity:1"
       inkscape:connector-curvature="0" />
    <path
       d="M 62.574,74.983 H 66.39 L 78.074,44.567 h -3.858 z"
       id="path16"
       style="fill:#43484a;fill-opacity:1"
       inkscape:connector-curvature="0" />
    <path
       d="m 82.363,50.431 v 3.977 l 15.307,7.655 -15.307,7.656 v 3.976 l 19.736,-10.178 v -2.908 z"
       id="path18"
       style="fill:#43484a;fill-opacity:1"
       inkscape:connector-curvature="0" />
    <rect
       y="7.0932202"
       x="17.076271"
       height="91.161011"
       width="105.34746"
       id="rect857"
       style="fill:none;fill-opacity:1;stroke:#43484a;stroke-width:3.875;stroke-linecap:round;stroke-linejoin:round;stroke-miterlimit:4;stroke-dasharray:none;stroke-opacity:1" />
  </g>
  <path
     style="fill:#43484a;stroke:#43484a;stroke-width:3.875;stroke-linecap:butt;stroke-linejoin:miter;stroke-opacity:1;stroke-miterlimit:4;stroke-dasharray:none;fill-opacity:1"
     d="M 16.89,26.435001 H 123.999"
     id="path859"
     inkscape:connector-curvature="0" />
</svg>
