<svg viewBox="0 0 124 124" xmlns="http://www.w3.org/2000/svg"><path fill="#f3aabb" d="M82.618 8.2378h9.1888v23.061H82.618z"/><path fill="#c2e7ee" d="M103.34 49.242h16.584V70.99H103.34z"/><g fill="#cccde1"><path d="M62 91.003c-1.104 0-2-.75529-2-1.6859v-15.312c0-.93062.896-1.6859 2-1.6859s2 .75529 2 1.6859v15.312c0 .93062-.896 1.6859-2 1.6859zM22.91 90.018c-1.104 0-2-.71476-2-1.5954v-13.904c0-.88069.896-1.5954 2-1.5954s2 .71476 2 1.5954v13.904c0 .88069-.896 1.5954-2 1.5954zM101.09 91.003c-1.104 0-2-.80573-2-1.7985v-16.335c0-.99278.896-1.7985 2-1.7985s2 .80573 2 1.7985v16.335c0 .99278-.895 1.7985-2 1.7985zM62 47.559c-1.104 0-2-.68186-2-1.522V34.024c0-.84015.896-1.522 2-1.522s2 .68186 2 1.522v12.013c0 .84091-.896 1.522-2 1.522z"/></g><path d="M30.559 5.0625A1.9377 1.9377 0 0028.6215 7v25.531a1.9377 1.9377 0 001.9375 1.9375h62.883a1.9377 1.9377 0 001.9375-1.9375V7a1.9377 1.9377 0 00-1.9375-1.9375zm1.9375 3.875h59.008v21.656h-59.008z" color="#000" fill="#43484a" style="font-feature-settings:normal;font-variant-alternates:normal;font-variant-caps:normal;font-variant-ligatures:normal;font-variant-numeric:normal;font-variant-position:normal;isolation:auto;mix-blend-mode:normal;shape-padding:0;text-decoration-color:#000;text-decoration-line:none;text-decoration-style:solid;text-indent:0;text-orientation:mixed;text-transform:none;white-space:normal"/><path d="M46.947 17.266c-1.3745 0-2.5 1.1255-2.5 2.5s1.1255 2.5 2.5 2.5h30.105c1.3753 0 2.5-1.1258 2.5-2.5 0-1.3745-1.1255-2.5-2.5-2.5zM2.0645 45.33A1.9377 1.9377 0 00.127 47.2675v25.5a1.9377 1.9377 0 001.9375 1.9375h119.85a1.9377 1.9377 0 001.9375-1.9375v-25.5a1.9377 1.9377 0 00-1.9375-1.9375zm1.9375 3.875h115.97V70.83H4.002z" color="#000" fill="#43484a" style="font-feature-settings:normal;font-variant-alternates:normal;font-variant-caps:normal;font-variant-ligatures:normal;font-variant-numeric:normal;font-variant-position:normal;isolation:auto;mix-blend-mode:normal;shape-padding:0;text-decoration-color:#000;text-decoration-line:none;text-decoration-style:solid;text-indent:0;text-orientation:mixed;text-transform:none;white-space:normal"/><path fill="#c8ef7b" d="M29.112 91.396h5.8125v24.391H29.112z"/><path d="M46.941 57.518c-1.3745 0-2.5 1.1255-2.5 2.5s1.1255 2.5 2.5 2.5h30.105c1.3753 0 2.5-1.1258 2.5-2.5 0-1.3745-1.1255-2.5-2.5-2.5z" color="#000" fill="#43484a" style="font-feature-settings:normal;font-variant-alternates:normal;font-variant-caps:normal;font-variant-ligatures:normal;font-variant-numeric:normal;font-variant-position:normal;isolation:auto;mix-blend-mode:normal;shape-padding:0;text-decoration-color:#000;text-decoration-line:none;text-decoration-style:solid;text-indent:0;text-orientation:mixed;text-transform:none;white-space:normal"/><path fill="#c8ef7b" d="M68.177 91.377h5.8125v24.412H68.177z"/><path d="M9.6875 88.248A1.9377 1.9377 0 007.75 90.1855v26.814a1.9377 1.9377 0 001.9375 1.9375h26.445a1.9377 1.9377 0 001.9375-1.9375v-26.814a1.9377 1.9377 0 00-1.9375-1.9375zm1.9375 3.875h22.57v22.939h-22.57z" color="#000" fill="#43484a" style="font-feature-settings:normal;font-variant-alternates:normal;font-variant-caps:normal;font-variant-ligatures:normal;font-variant-numeric:normal;font-variant-position:normal;isolation:auto;mix-blend-mode:normal;shape-padding:0;text-decoration-color:#000;text-decoration-line:none;text-decoration-style:solid;text-indent:0;text-orientation:mixed;text-transform:none;white-space:normal"/><path fill="#c8ef7b" d="M107.4 91.405h5.6811v24.379H107.4z"/><path d="M48.777 88.248a1.9377 1.9377 0 00-1.9375 1.9375v26.814a1.9377 1.9377 0 001.9375 1.9375h26.445a1.9377 1.9377 0 001.9375-1.9375v-26.814a1.9377 1.9377 0 00-1.9375-1.9375zm1.9375 3.875h22.57v22.939h-22.57zM87.867 88.248a1.9377 1.9377 0 00-1.9375 1.9375v26.814a1.9377 1.9377 0 001.9375 1.9375h26.445a1.9377 1.9377 0 001.9375-1.9375v-26.814a1.9377 1.9377 0 00-1.9375-1.9375zm1.9375 3.875h22.57v22.939h-22.57z" color="#000" fill="#43484a" style="font-feature-settings:normal;font-variant-alternates:normal;font-variant-caps:normal;font-variant-ligatures:normal;font-variant-numeric:normal;font-variant-position:normal;isolation:auto;mix-blend-mode:normal;shape-padding:0;text-decoration-color:#000;text-decoration-line:none;text-decoration-style:solid;text-indent:0;text-orientation:mixed;text-transform:none;white-space:normal"/></svg>