<?xml version="1.0" encoding="UTF-8"?>
<svg width="512" height="512" enable-background="new 0 0 124 124" version="1.1" viewBox="0 0 124 124" xmlns="http://www.w3.org/2000/svg" xmlns:cc="http://creativecommons.org/ns#" xmlns:dc="http://purl.org/dc/elements/1.1/" xmlns:rdf="http://www.w3.org/1999/02/22-rdf-syntax-ns#">
<metadata>
<rdf:RDF>
<cc:Work rdf:about="">
<dc:format>image/svg+xml</dc:format>
<dc:type rdf:resource="http://purl.org/dc/dcmitype/StillImage"/>
</cc:Work>
</rdf:RDF>
</metadata>
<g>
<rect x="82.618" y="8.2378" width="9.1888" height="23.061" fill="#f3aabb"/>
<rect x="103.34" y="49.242" width="16.584" height="21.748" fill="#c2e7ee"/>
<g fill="#cccde1">
<path d="m62 91.003c-1.104 0-2-0.75529-2-1.6859v-15.312c0-0.93062 0.896-1.6859 2-1.6859s2 0.75529 2 1.6859v15.312c0 0.93062-0.896 1.6859-2 1.6859z" stroke-width=".91813"/>
<path d="m22.91 90.018c-1.104 0-2-0.71476-2-1.5954v-13.904c0-0.88069 0.896-1.5954 2-1.5954s2 0.71476 2 1.5954v13.904c0 0.88069-0.896 1.5954-2 1.5954z" stroke-width=".89315"/>
<path d="m101.09 91.003c-1.104 0-2-0.80573-2-1.7985v-16.335c0-0.99278 0.896-1.7985 2-1.7985s2 0.80573 2 1.7985v16.335c0 0.99278-0.895 1.7985-2 1.7985z" stroke-width=".94829"/>
<path d="m62 47.559c-1.104 0-2-0.68186-2-1.522v-12.013c0-0.84015 0.896-1.522 2-1.522s2 0.68186 2 1.522v12.013c0 0.84091-0.896 1.522-2 1.522z" stroke-width=".87235"/>
</g>
<path d="m30.559 5.0625a1.9377 1.9377 0 0 0 -1.9375 1.9375v25.531a1.9377 1.9377 0 0 0 1.9375 1.9375h62.883a1.9377 1.9377 0 0 0 1.9375 -1.9375v-25.531a1.9377 1.9377 0 0 0 -1.9375 -1.9375zm1.9375 3.875h59.008v21.656h-59.008z" color="#000000" color-rendering="auto" dominant-baseline="auto" enable-background="accumulate" fill="#43484a" image-rendering="auto" shape-rendering="auto" solid-color="#000000" style="font-feature-settings:normal;font-variant-alternates:normal;font-variant-caps:normal;font-variant-ligatures:normal;font-variant-numeric:normal;font-variant-position:normal;isolation:auto;mix-blend-mode:normal;shape-padding:0;text-decoration-color:#000000;text-decoration-line:none;text-decoration-style:solid;text-indent:0;text-orientation:mixed;text-transform:none;white-space:normal"/>
<path d="m46.947 17.266c-1.3745 0-2.5 1.1255-2.5 2.5s1.1255 2.5 2.5 2.5h30.105c1.3753 0 2.5-1.1258 2.5-2.5 0-1.3745-1.1255-2.5-2.5-2.5z" color="#000000" color-rendering="auto" dominant-baseline="auto" enable-background="accumulate" fill="#43484a" image-rendering="auto" shape-rendering="auto" solid-color="#000000" style="font-feature-settings:normal;font-variant-alternates:normal;font-variant-caps:normal;font-variant-ligatures:normal;font-variant-numeric:normal;font-variant-position:normal;isolation:auto;mix-blend-mode:normal;shape-padding:0;text-decoration-color:#000000;text-decoration-line:none;text-decoration-style:solid;text-indent:0;text-orientation:mixed;text-transform:none;white-space:normal"/>
<path d="m2.0645 45.33a1.9377 1.9377 0 0 0 -1.9375 1.9375v25.5a1.9377 1.9377 0 0 0 1.9375 1.9375h119.85a1.9377 1.9377 0 0 0 1.9375 -1.9375v-25.5a1.9377 1.9377 0 0 0 -1.9375 -1.9375zm1.9375 3.875h115.97v21.625h-115.97z" color="#000000" color-rendering="auto" dominant-baseline="auto" enable-background="accumulate" fill="#43484a" image-rendering="auto" shape-rendering="auto" solid-color="#000000" style="font-feature-settings:normal;font-variant-alternates:normal;font-variant-caps:normal;font-variant-ligatures:normal;font-variant-numeric:normal;font-variant-position:normal;isolation:auto;mix-blend-mode:normal;shape-padding:0;text-decoration-color:#000000;text-decoration-line:none;text-decoration-style:solid;text-indent:0;text-orientation:mixed;text-transform:none;white-space:normal"/>
<rect x="29.112" y="91.396" width="5.8125" height="24.391" fill="#c8ef7b"/>
<path d="m46.941 57.518c-1.3745 0-2.5 1.1255-2.5 2.5 0 1.3745 1.1255 2.5 2.5 2.5h30.105c1.3753 0 2.5-1.1258 2.5-2.5 0-1.3745-1.1255-2.5-2.5-2.5z" color="#000000" color-rendering="auto" dominant-baseline="auto" enable-background="accumulate" fill="#43484a" image-rendering="auto" shape-rendering="auto" solid-color="#000000" style="font-feature-settings:normal;font-variant-alternates:normal;font-variant-caps:normal;font-variant-ligatures:normal;font-variant-numeric:normal;font-variant-position:normal;isolation:auto;mix-blend-mode:normal;shape-padding:0;text-decoration-color:#000000;text-decoration-line:none;text-decoration-style:solid;text-indent:0;text-orientation:mixed;text-transform:none;white-space:normal"/>
<rect x="68.177" y="91.377" width="5.8125" height="24.412" fill="#c8ef7b"/>
<path d="m9.6875 88.248a1.9377 1.9377 0 0 0 -1.9375 1.9375v26.814a1.9377 1.9377 0 0 0 1.9375 1.9375h26.445a1.9377 1.9377 0 0 0 1.9375 -1.9375v-26.814a1.9377 1.9377 0 0 0 -1.9375 -1.9375zm1.9375 3.875h22.57v22.939h-22.57z" color="#000000" color-rendering="auto" dominant-baseline="auto" enable-background="accumulate" fill="#43484a" image-rendering="auto" shape-rendering="auto" solid-color="#000000" style="font-feature-settings:normal;font-variant-alternates:normal;font-variant-caps:normal;font-variant-ligatures:normal;font-variant-numeric:normal;font-variant-position:normal;isolation:auto;mix-blend-mode:normal;shape-padding:0;text-decoration-color:#000000;text-decoration-line:none;text-decoration-style:solid;text-indent:0;text-orientation:mixed;text-transform:none;white-space:normal"/>
<rect x="107.4" y="91.405" width="5.6811" height="24.379" fill="#c8ef7b"/>
<path d="m48.777 88.248a1.9377 1.9377 0 0 0 -1.9375 1.9375v26.814a1.9377 1.9377 0 0 0 1.9375 1.9375h26.445a1.9377 1.9377 0 0 0 1.9375 -1.9375v-26.814a1.9377 1.9377 0 0 0 -1.9375 -1.9375zm1.9375 3.875h22.57v22.939h-22.57z" color="#000000" color-rendering="auto" dominant-baseline="auto" enable-background="accumulate" fill="#43484a" image-rendering="auto" shape-rendering="auto" solid-color="#000000" style="font-feature-settings:normal;font-variant-alternates:normal;font-variant-caps:normal;font-variant-ligatures:normal;font-variant-numeric:normal;font-variant-position:normal;isolation:auto;mix-blend-mode:normal;shape-padding:0;text-decoration-color:#000000;text-decoration-line:none;text-decoration-style:solid;text-indent:0;text-orientation:mixed;text-transform:none;white-space:normal"/>
<path d="m87.867 88.248a1.9377 1.9377 0 0 0 -1.9375 1.9375v26.814a1.9377 1.9377 0 0 0 1.9375 1.9375h26.445a1.9377 1.9377 0 0 0 1.9375 -1.9375v-26.814a1.9377 1.9377 0 0 0 -1.9375 -1.9375zm1.9375 3.875h22.57v22.939h-22.57z" color="#000000" color-rendering="auto" dominant-baseline="auto" enable-background="accumulate" fill="#43484a" image-rendering="auto" shape-rendering="auto" solid-color="#000000" style="font-feature-settings:normal;font-variant-alternates:normal;font-variant-caps:normal;font-variant-ligatures:normal;font-variant-numeric:normal;font-variant-position:normal;isolation:auto;mix-blend-mode:normal;shape-padding:0;text-decoration-color:#000000;text-decoration-line:none;text-decoration-style:solid;text-indent:0;text-orientation:mixed;text-transform:none;white-space:normal"/>
</g>
</svg>
