<svg xmlns="http://www.w3.org/2000/svg" viewBox="0 0 113.81332 138.03923"><g color="#000" font-weight="400" font-family="sans-serif"><path style="line-height:normal;font-variant-ligatures:normal;font-variant-position:normal;font-variant-caps:normal;font-variant-numeric:normal;font-variant-alternates:normal;font-feature-settings:normal;text-indent:0;text-align:start;text-decoration-line:none;text-decoration-style:solid;text-decoration-color:#000;text-transform:none;text-orientation:mixed;white-space:normal;shape-padding:0;isolation:auto;mix-blend-mode:normal;solid-color:#000;solid-opacity:1" d="M11.2679 36.43586c-.7942 1.30516-1.52208 2.6455-2.18436 4.01475-.66232 1.36924-1.25885 2.7671-1.7906 4.1894-.53173 1.42233-.99893 2.86924-1.40146 4.3336-.40254 1.46435-.74076 2.94674-1.01544 4.4421-.27468 1.49537-.4859 3.00323-.63407 4.51858-.14816 1.51536-.23279 3.03767-.2558 4.562-.023 1.52432.0154 3.05058.11627 4.57285.10075 1.52226.26406 3.04041.48731 4.54959.22325 1.50919.50729 3.00973.85163 4.49482.34435 1.48506.74874 2.95495 1.21285 4.4049.46412 1.44994.98743 2.87968 1.56993 4.28345.58252 1.4038 1.22382 2.78183 1.9234 4.12844.69955 1.34662 1.45797 2.66191 2.27324 3.94032.81527 1.27841 1.68779 2.51997 2.61741 3.71916.92962 1.19918 1.91637 2.35547 2.959 3.46438.83298.88597 1.70333 1.74001 2.60759 2.56212l7.82433-11.69696c-8.69366-11.0233-11.426-27.3492-7.17683-40.9453-1.0912-1.23053-2.17043-2.47333-3.18585-3.76153-1.24523-1.57975-2.43443-3.19602-3.56722-4.83123-1.1328-1.6352-2.20928-3.2892-3.23133-4.94544z" overflow="visible" fill="#c2e7ee"/><path style="line-height:normal;font-variant-ligatures:normal;font-variant-position:normal;font-variant-caps:normal;font-variant-numeric:normal;font-variant-alternates:normal;font-feature-settings:normal;text-indent:0;text-align:start;text-decoration-line:none;text-decoration-style:solid;text-decoration-color:#000;text-transform:none;text-orientation:mixed;white-space:normal;shape-padding:0;isolation:auto;mix-blend-mode:normal;solid-color:#000;solid-opacity:1" d="M11.05137 31.32713a2.0002 2.0002 0 00-1.74046.8692c-15.4323 22.56335-11.24294 55.42233 9.31985 73.3702l2.312-3.45612C3.17588 86.21516-.94577 57.79338 11.07049 37.28646c5.34057 8.5869 12.47997 17.38645 21.37544 23.4394l2.15336-3.29851c-9.19707-6.34008-16.60346-15.97138-21.9077-25.10596a2.0002 2.0002 0 00-1.64022-.99426z" overflow="visible" fill="#43484a"/><path style="line-height:normal;font-variant-ligatures:normal;font-variant-position:normal;font-variant-caps:normal;font-variant-numeric:normal;font-variant-alternates:normal;font-feature-settings:normal;text-indent:0;text-align:start;text-decoration-line:none;text-decoration-style:solid;text-decoration-color:#000;text-transform:none;text-orientation:mixed;white-space:normal;shape-padding:0;isolation:auto;mix-blend-mode:normal;solid-color:#000;solid-opacity:1" d="M96.241 27.58318L86.74546 39.2269c7.03348 10.55503 9.15533 24.8876 5.65392 37.19876.19325.21107.39973.40894.59066.62219 1.90792 2.13091 3.6993 4.36753 5.37745 6.66316 1.67818 2.2956 3.24312 4.65023 4.69635 7.01507.75491-1.24023 1.44866-2.512 2.08308-3.81062.6344-1.29862 1.20933-2.62443 1.72445-3.97185.51511-1.34742.97082-2.71649 1.36787-4.1031.39702-1.38661.73525-2.79027 1.01544-4.20647.28018-1.4162.50209-2.8447.66663-4.28088a54.61264 54.61264 0 00.32246-4.32635c.0502-1.44656.04304-2.8966-.02016-4.34392a56.03521 56.03521 0 00-.3576-4.33048 56.09702 56.09702 0 00-.69195-4.29018 55.61325 55.61325 0 00-1.02268-4.22041c-.39547-1.39201-.84495-2.7684-1.34875-4.12275-.50378-1.35435-1.06132-2.68698-1.67225-3.99407-.61093-1.3071-1.2753-2.58828-1.99213-3.83853-.71686-1.25023-1.48632-2.46976-2.30787-3.65352-.82154-1.18379-1.69497-2.33187-2.62-3.43958-.63187-.75667-1.28967-1.49277-1.96938-2.2102z" overflow="visible" fill="#f3aabb"/><path style="line-height:normal;font-variant-ligatures:normal;font-variant-position:normal;font-variant-caps:normal;font-variant-numeric:normal;font-variant-alternates:normal;font-feature-settings:normal;text-indent:0;text-align:start;text-decoration-line:none;text-decoration-style:solid;text-decoration-color:#000;text-transform:none;text-orientation:mixed;white-space:normal;shape-padding:0;isolation:auto;mix-blend-mode:normal;solid-color:#000;solid-opacity:1" d="M57.19894 6.5085c-2.02085-.0188-4.0452.07137-6.06371.27388a2.0002 2.0002 0 00-.00982 0c-14.1938 1.48955-27.75144 8.37203-37.09386 19.23655a2.0002 2.0002 0 00-.26923 2.20297c5.09366 10.11785 12.46447 20.4812 22.25445 27.03452l2.26757-3.47317c-8.5947-5.75541-15.34837-14.817-20.20962-24.1179 8.60183-9.44437 20.7513-15.5698 33.46875-16.9044 2.99078-.29947 6.00166-.3335 8.99222-.11162 1.43257.10628 2.85738.27825 4.2721.5085l2.39313-3.66542c-2.10484-.3958-4.23242-.6752-6.37067-.83302a56.46445 56.46445 0 00-3.6313-.1509zM98.59693 24.69343l-2.6236 3.21737c15.11486 16.28914 18.05396 42.5292 6.76909 61.78745-5.34447-8.60127-12.48174-17.38986-21.37027-23.43682l-2.84324 2.8329C88.0383 75.414 95.67795 85.2823 101.11926 94.6654a2.0002 2.0002 0 003.38119.12505c14.53847-21.25406 11.66634-51.63985-5.90352-70.09701z" overflow="visible" fill="#43484a"/><path style="line-height:normal;font-variant-ligatures:normal;font-variant-position:normal;font-variant-caps:normal;font-variant-numeric:normal;font-variant-alternates:normal;font-feature-settings:normal;text-indent:0;text-align:start;text-decoration-line:none;text-decoration-style:solid;text-decoration-color:#000;text-transform:none;text-orientation:mixed;white-space:normal;shape-padding:0;isolation:auto;mix-blend-mode:normal;solid-color:#000;solid-opacity:1" d="M76.6453 70.97123l-3.02049 3.00963c9.4368 5.6559 16.77667 15.31916 21.96145 25.24704-14.60995 16.46577-39.9425 21.30853-59.91365 12.57184l-3.19154 3.17965c22.27891 10.62209 51.10535 5.08034 67.15611-14.14436a2.0002 2.0002 0 00.25166-2.18177C94.6265 88.19744 86.93028 77.47676 76.6453 70.97123z" overflow="visible" fill="#43484a"/></g><g fill="#c8ef7b"><path d="M85.70004 54.89074l-18.19482.0194L110.65006 2H76.7572L35.82807 64.69247l16.15523.0115-47.72187 71.33662z" stroke="#43484a" stroke-width="4" stroke-linecap="round" stroke-linejoin="round"/></g></svg>