<?xml version="1.0" encoding="UTF-8" standalone="no"?>
<svg
   xmlns:dc="http://purl.org/dc/elements/1.1/"
   xmlns:cc="http://creativecommons.org/ns#"
   xmlns:rdf="http://www.w3.org/1999/02/22-rdf-syntax-ns#"
   xmlns:svg="http://www.w3.org/2000/svg"
   xmlns="http://www.w3.org/2000/svg"
   xmlns:sodipodi="http://sodipodi.sourceforge.net/DTD/sodipodi-0.dtd"
   xmlns:inkscape="http://www.inkscape.org/namespaces/inkscape"
   width="513.91296"
   height="470.30515"
   enable-background="new 0 0 124 124"
   version="1.1"
   viewBox="0 0 124.4633 113.90203"
   id="svg26"
   sodipodi:docname="research.svg"
   inkscape:version="0.92.4 (5da689c313, 2019-01-14)">
  <defs
     id="defs30" />
  <sodipodi:namedview
     pagecolor="#ffffff"
     bordercolor="#666666"
     borderopacity="1"
     objecttolerance="10"
     gridtolerance="10"
     guidetolerance="10"
     inkscape:pageopacity="0"
     inkscape:pageshadow="2"
     inkscape:window-width="1481"
     inkscape:window-height="1017"
     id="namedview28"
     showgrid="false"
     inkscape:zoom="1.3037281"
     inkscape:cx="157.14201"
     inkscape:cy="335.7137"
     inkscape:window-x="0"
     inkscape:window-y="0"
     inkscape:window-maximized="1"
     inkscape:current-layer="svg26"
     showguides="true"
     inkscape:guide-bbox="true">
    <sodipodi:guide
       position="55.172309,50.156644"
       orientation="1,0"
       id="guide2859"
       inkscape:locked="false" />
  </sodipodi:namedview>
  <metadata
     id="metadata2">
    <rdf:RDF>
      <cc:Work
         rdf:about="">
        <dc:format>image/svg+xml</dc:format>
        <dc:type
           rdf:resource="http://purl.org/dc/dcmitype/StillImage" />
        <dc:title></dc:title>
      </cc:Work>
    </rdf:RDF>
  </metadata>
  <rect
     style="fill:#ffffff;fill-opacity:1;stroke:#43484a;stroke-width:7.32283497;stroke-linecap:round;stroke-linejoin:round;stroke-miterlimit:4;stroke-dasharray:none;stroke-dashoffset:7.55905533;stroke-opacity:1;paint-order:stroke fill markers"
     id="rect842"
     width="57.587261"
     height="85.637833"
     x="38.824959"
     y="13.774507" />
  <path
     inkscape:connector-curvature="0"
     style="fill:#ffffff;stroke:#43484a;stroke-width:3.875;stroke-miterlimit:4;stroke-dasharray:none;stroke-opacity:1"
     d="m 28.633257,66.03531 0.46819,1.848354 c 0.539478,2.131582 2.672343,3.801396 4.856589,3.801396 h 5.609935 c 2.184238,0 4.317745,-1.669172 4.856582,-3.800754 l 0.468189,-1.848996 0.23827,-0.94216 H 28.394988 Z"
     id="path2229" />
  <path
     inkscape:connector-curvature="0"
     style="fill:#c8ef7b;fill-opacity:1;stroke:#43484a;stroke-width:3.875;stroke-linecap:round;stroke-linejoin:round;stroke-miterlimit:4;stroke-dasharray:none;stroke-opacity:1"
     d="m 56.865305,41.082516 c 0,-11.162704 -9.018277,-20.244564 -20.101983,-20.244564 -11.08435,0 -20.101986,9.08186 -20.101986,20.244564 0,7.281029 3.854058,13.953218 10.10173,17.564511 l 1.631922,6.446765 h 16.736666 l 1.631922,-6.446765 C 53.011247,55.035734 56.865305,48.363545 56.865305,41.082516 Z"
     id="path2231" />
  <path
     inkscape:connector-curvature="0"
     style="fill:#ffffff;stroke-width:0.64223593"
     d="m 45.048422,41.277754 c -0.522138,-0.346165 -1.20933,-0.303134 -1.684579,0.107254 L 41.00362,43.42218 38.643405,41.385008 c -0.525349,-0.453419 -1.299885,-0.453419 -1.825235,0 l -2.359576,2.036531 -2.359574,-2.036531 c -0.474612,-0.409746 -1.161805,-0.454062 -1.684585,-0.107254 -0.522137,0.346166 -0.753343,0.99932 -0.567094,1.601095 l 4.674836,16.515739 c 0.183037,0.589574 0.725084,0.990971 1.338419,0.990971 h 3.739741 c 0.613332,0 1.155386,-0.401397 1.338417,-0.990971 l 4.674842,-16.515739 c 0.188169,-0.601133 -0.04303,-1.254287 -0.565174,-1.601095 z"
     id="path2235" />
  <path
     inkscape:connector-curvature="0"
     style="fill:#43484a;fill-opacity:1;stroke-width:0.64223593"
     d="m 46.41163,45.99562 h -1.312729 l 0.774536,-2.735925 c 0.353872,-1.138684 -0.09184,-2.393614 -1.083452,-3.051906 -0.998035,-0.662788 -2.327463,-0.578011 -3.233658,0.204232 l -1.520815,1.31273 -1.52017,-1.312087 c -1.016018,-0.876652 -2.489307,-0.876652 -3.50404,0 L 33.490487,41.724751 31.9716,40.413305 c -0.90748,-0.78417 -2.236908,-0.867018 -3.233659,-0.205516 -0.991612,0.657007 -1.437323,1.911936 -1.093727,3.021079 l 0.783527,2.767394 h -1.312088 c -0.709028,0 -1.284472,0.575445 -1.284472,1.284472 0,0.709029 0.575444,1.284472 1.284472,1.284472 h 2.0391 l 3.173929,11.210871 c 0.351945,1.132905 1.382734,1.894596 2.565092,1.894596 h 3.739739 c 1.182997,0 2.213785,-0.761691 2.575364,-1.926065 l 3.163661,-11.179402 h 2.039735 c 0.709029,0 1.284478,-0.575443 1.284478,-1.284472 0,-0.709027 -0.575449,-1.285114 -1.285121,-1.285114 z M 30.106546,42.498645 c -0.0334,-0.108537 0.0867,-0.224782 0.185606,-0.141291 l 2.358934,2.03653 c 0.481676,0.416169 1.196484,0.416169 1.678162,0 l 2.360859,-2.03653 c 0.04239,-0.03725 0.102116,-0.03725 0.14643,0 l 2.360215,2.03653 c 0.481677,0.415526 1.196486,0.415526 1.678162,0 l 2.36086,-2.037173 c 0.145787,-0.128447 0.251757,0.07642 0.174695,0.17212 L 42.429126,45.99562 H 31.096231 Z m 8.638716,16.514457 c -0.01606,0.05266 -0.06166,0.08734 -0.112392,0.08734 h -3.739739 c -0.05073,0 -0.09505,-0.03532 -0.102116,-0.05652 l -2.96713,-10.479365 h 9.878229 z"
     id="path2237" />
  <g
     id="g2202">
    <rect
       y="74.519775"
       x="58.887619"
       height="7.6163793"
       width="46.441341"
       id="rect2136"
       style="fill:#ffffff;fill-opacity:1;stroke:#43484a;stroke-width:7.32283497;stroke-linecap:round;stroke-linejoin:round;stroke-miterlimit:4;stroke-dasharray:none;stroke-dashoffset:7.55905533;stroke-opacity:1;paint-order:stroke fill markers" />
    <path
       inkscape:connector-curvature="0"
       id="path2140"
       d="M 62.510042,77.213374 V 72.847889"
       style="fill:none;stroke:#43484a;stroke-width:3.66141743;stroke-linecap:round;stroke-linejoin:round;stroke-opacity:1;stroke-miterlimit:4;stroke-dasharray:none" />
    <path
       inkscape:connector-curvature="0"
       id="path2140-0"
       d="M 68.083001,77.213374 V 72.847889"
       style="fill:none;stroke:#43484a;stroke-width:3.66141748;stroke-linecap:round;stroke-linejoin:round;stroke-miterlimit:4;stroke-dasharray:none;stroke-opacity:1" />
    <path
       inkscape:connector-curvature="0"
       id="path2140-7"
       d="M 73.655962,77.213374 V 72.847889"
       style="fill:none;stroke:#43484a;stroke-width:3.66141748;stroke-linecap:round;stroke-linejoin:round;stroke-miterlimit:4;stroke-dasharray:none;stroke-opacity:1" />
    <path
       inkscape:connector-curvature="0"
       id="path2140-1"
       d="M 79.228931,77.213374 V 72.847889"
       style="fill:none;stroke:#43484a;stroke-width:3.66141748;stroke-linecap:round;stroke-linejoin:round;stroke-miterlimit:4;stroke-dasharray:none;stroke-opacity:1" />
    <path
       inkscape:connector-curvature="0"
       id="path2140-8"
       d="M 84.801891,77.213374 V 72.847889"
       style="fill:none;stroke:#43484a;stroke-width:3.66141748;stroke-linecap:round;stroke-linejoin:round;stroke-miterlimit:4;stroke-dasharray:none;stroke-opacity:1" />
    <path
       inkscape:connector-curvature="0"
       id="path2140-5"
       d="M 90.374845,77.213374 V 72.847889"
       style="fill:none;stroke:#43484a;stroke-width:3.66141748;stroke-linecap:round;stroke-linejoin:round;stroke-miterlimit:4;stroke-dasharray:none;stroke-opacity:1" />
    <path
       inkscape:connector-curvature="0"
       id="path2140-4"
       d="M 95.947806,77.213374 V 72.847889"
       style="fill:none;stroke:#43484a;stroke-width:3.66141748;stroke-linecap:round;stroke-linejoin:round;stroke-miterlimit:4;stroke-dasharray:none;stroke-opacity:1" />
    <path
       inkscape:connector-curvature="0"
       id="path2140-9"
       d="M 101.52076,77.213374 V 72.847889"
       style="fill:none;stroke:#43484a;stroke-width:3.66141748;stroke-linecap:round;stroke-linejoin:round;stroke-miterlimit:4;stroke-dasharray:none;stroke-opacity:1" />
  </g>
  <path
     inkscape:connector-curvature="0"
     style="fill:#f3aabb;fill-opacity:1;stroke-width:0.54939795"
     d="m 105.96213,66.20966 c 1.82566,0 3.30573,-1.799278 3.30573,-4.018847 0,-2.221216 -1.48117,-4.021593 -3.30738,-4.021593 h -3.56174 v 8.04044 z"
     id="path1483" />
  <path
     inkscape:connector-curvature="0"
     style="fill:#ffffff;fill-opacity:1;stroke-width:0.54939795"
     d="m 102.39819,58.16922 -38.066636,5.5e-4 -7.805851,4.020494 7.805851,4.020495 38.067186,-5.44e-4 z"
     id="path1485" />
  <path
     style="fill:#43484a;fill-opacity:1;stroke:#43484a;stroke-width:0.96875006;stroke-miterlimit:4;stroke-dasharray:none;stroke-opacity:1;paint-order:fill markers stroke"
     inkscape:connector-curvature="0"
     id="path1491"
     d="m 105.96158,67.260109 c 2.42889,0 4.40507,-2.284946 4.40507,-5.093469 0,-2.81017 -1.97673,-5.096216 -4.40672,-5.096216 l -41.628376,5.5e-4 c -0.174163,0 -0.345575,0.0412 -0.500502,0.120868 l -7.805849,3.995771 c -0.782338,0.399962 -0.782338,1.556445 0,1.956406 l 7.805849,3.995771 c 0.154927,0.07967 0.326889,0.120868 0.500502,0.120868 z m -40.532332,-7.991543 30.792652,-5.44e-4 5.3e-4,5.794501 -30.792104,5.43e-4 z m 32.990222,-5.49e-4 h 2.87993 v 5.7945 h -2.87938 z m 9.7496,2.898074 c 0,1.596551 -0.99057,2.895876 -2.20749,2.895876 h -2.4646 v -5.79395 h 2.46295 c 1.21802,0 2.20914,1.299875 2.20914,2.898074 z m -49.232055,-5.44e-4 4.295195,-2.198691 5.28e-4,4.397381 z" />
  <path
     inkscape:connector-curvature="0"
     style="fill:#c8ef7b;stroke-width:0.30212599;fill-opacity:1"
     d="M 88.435926,26.716984 H 86.87333 c -0.183692,-1.093999 -0.643528,-2.142376 -1.240831,-3.05389 l 1.103062,-1.093998 c 0.275841,-0.273424 0.275841,-0.683711 0.04592,-1.002756 l -1.332678,-1.367422 c -0.275841,-0.273424 -0.689451,-0.273424 -1.010913,-0.04562 l -1.103062,1.093998 c -0.873144,-0.592469 -1.930283,-1.048377 -3.033043,-1.27618 V 18.42151 c 0,-0.410287 -0.321764,-0.729332 -0.689451,-0.729332 h -1.930283 c -0.367688,0.04562 -0.689452,0.319045 -0.689452,0.729332 v 1.595226 c -1.103062,0.182182 -2.159898,0.63809 -3.078966,1.230559 L 72.810571,20.153297 C 72.53473,19.879873 72.12112,19.879873 71.799658,20.107677 l -1.378601,1.321801 c -0.275841,0.273424 -0.275841,0.683711 -0.04592,1.002756 l 1.103062,1.093998 c -0.597303,0.865893 -1.056837,1.914271 -1.286755,3.008268 h -1.562595 c -0.367688,0.04562 -0.689452,0.319046 -0.689452,0.729333 v 1.914271 c 0.04592,0.364665 0.321764,0.683711 0.735375,0.683711 h 1.562595 c 0.183693,1.093997 0.643529,2.142374 1.240832,3.053889 l -1.103062,1.093998 c -0.275841,0.273424 -0.275841,0.683711 -0.04592,1.002756 l 1.332677,1.367423 c 0.275841,0.273423 0.689452,0.273423 1.010914,0.04562 l 1.103062,-1.093997 c 0.873144,0.592469 1.930283,1.048377 3.033043,1.27618 v 1.549604 c 0.04623,0.364666 0.321764,0.683711 0.735374,0.683711 h 1.930283 c 0.367687,-0.04562 0.689452,-0.319045 0.689452,-0.729333 v -1.549604 c 1.103062,-0.182181 2.159898,-0.638089 3.078966,-1.230558 l 1.103061,1.093997 c 0.275841,0.273425 0.689452,0.273425 1.010914,0.04562 l 1.378601,-1.321802 c 0.275841,-0.273423 0.275841,-0.683711 0.04592,-1.002756 l -1.103062,-1.093998 c 0.597303,-0.865893 1.056837,-1.91427 1.286755,-3.008269 h 1.562595 c 0.367687,-0.04562 0.689452,-0.319045 0.689452,-0.729332 v -1.91427 c -0.04592,-0.364665 -0.321765,-0.68371 -0.781298,-0.68371 z"
     id="path1471" />
  <path
     style="fill:#2176b1;stroke-width:1.45312504;stroke-miterlimit:4;stroke-dasharray:none;stroke:#43484a;stroke-opacity:1"
     inkscape:connector-curvature="0"
     id="path1487"
     d="m 79.581218,39.44525 h -1.9185 c -0.682201,0 -1.335095,-0.583405 -1.335095,-1.287963 v -1.072245 c -0.818157,-0.218135 -1.608821,-0.551984 -2.327276,-0.983118 l -0.752898,0.750783 c -0.496393,0.496392 -1.382529,0.429925 -1.858377,-0.04532 L 70.0573,35.432412 c -0.484005,-0.504852 -0.426299,-1.372558 0.05287,-1.850823 l 0.758337,-0.756222 c -0.44473,-0.763774 -0.771026,-1.565315 -0.961667,-2.359604 h -1.059858 c -0.681899,0 -1.335095,-0.583707 -1.335095,-1.287963 v -1.914572 c 0,-0.682805 0.58552,-1.333282 1.289474,-1.333282 h 1.076172 c 0.218437,-0.815741 0.552589,-1.604289 0.984327,-2.32063 l -0.75169,-0.749273 c -0.493976,-0.50032 -0.433852,-1.379809 0.04592,-1.858075 l 1.377694,-1.32875 c 0.504248,-0.483401 1.373163,-0.424789 1.851428,0.05257 l 0.759243,0.758034 c 0.765587,-0.444125 1.569544,-0.770421 2.36625,-0.960458 V 18.42151 c 0,-0.682804 0.58552,-1.333584 1.289474,-1.333584 h 1.9185 c 0.711205,0 1.289776,0.59821 1.289776,1.333584 v 1.072246 c 0.818459,0.218135 1.609123,0.551984 2.327276,0.983118 l 0.752294,-0.751086 c 0.499414,-0.493069 1.380716,-0.430831 1.858679,0.04562 l 1.331771,1.374674 c 0.484006,0.504852 0.4263,1.372558 -0.05287,1.851126 l -0.758336,0.756221 c 0.444729,0.763774 0.771328,1.565617 0.961667,2.359604 h 1.059858 c 0.696098,0 1.380716,0.555006 1.380716,1.287963 v 1.914271 c 0,0.682502 -0.585521,1.333583 -1.289474,1.333583 h -1.076173 c -0.218437,0.816043 -0.552588,1.60429 -0.984326,2.32063 l 0.751085,0.749273 c 0.500018,0.493976 0.429623,1.384341 -0.04532,1.858377 l -1.377997,1.32875 c -0.504248,0.483402 -1.373162,0.424185 -1.851428,-0.05287 L 83.23664,36.095277 c -0.765889,0.444125 -1.569847,0.770421 -2.366251,0.960458 v 1.05593 c 2.93e-4,0.682805 -0.585218,1.333585 -1.289171,1.333585 z m -2.044789,-1.336606 c 0.01057,0.04622 0.04109,0.128102 0.126591,0.128102 h 1.869555 c 0.04653,-0.01057 0.129612,-0.04109 0.129612,-0.125081 v -1.549604 c 0,-0.295479 0.213603,-0.547754 0.505155,-0.596095 0.942029,-0.156802 1.920917,-0.551379 2.83092,-1.141431 0.23868,-0.155293 0.553797,-0.121757 0.755618,0.07916 l 1.096113,1.093696 c 0.06224,0.06254 0.152271,0.02629 0.199403,-9.07e-4 l 1.329354,-1.282222 c 0.05408,-0.05408 0.02206,-0.135353 -0.0057,-0.184298 l -1.052003,-1.049585 c -0.206352,-0.205748 -0.236263,-0.529325 -0.0716,-0.769515 0.559537,-0.815438 0.980399,-1.806411 1.185845,-2.790133 0.05831,-0.280071 0.305449,-0.480682 0.591562,-0.480682 h 1.504286 c 0.04653,-0.01057 0.129612,-0.04139 0.129612,-0.125081 v -1.866534 c -0.0284,-0.127196 -0.128102,-0.127196 -0.172212,-0.127196 h -1.55323 c -0.295479,0 -0.547452,-0.213602 -0.596094,-0.504852 -0.157106,-0.939612 -0.552287,-1.916083 -1.143547,-2.82367 -0.156196,-0.239584 -0.12266,-0.55591 0.07976,-0.75773 l 1.096415,-1.093696 c 0.06103,-0.06103 0.02538,-0.148948 -0.0012,-0.195476 L 85.0854,20.619482 c -0.05529,-0.05529 -0.141093,-0.02054 -0.188527,0.006 l -1.051398,1.049888 c -0.205144,0.205144 -0.52721,0.235658 -0.767702,0.071 -0.817251,-0.558027 -1.810641,-0.978285 -2.797083,-1.18373 -0.280373,-0.05831 -0.481286,-0.30545 -0.481286,-0.591563 v -1.549604 c 0,-0.08248 -0.0571,-0.12508 -0.08127,-0.12508 h -1.869556 c -0.04653,0.01057 -0.129612,0.04109 -0.129612,0.12508 v 1.595225 c 0,0.295479 -0.213603,0.547755 -0.505155,0.596095 -0.942633,0.157106 -1.921521,0.55138 -2.830618,1.141432 -0.239586,0.155595 -0.554099,0.121757 -0.755919,-0.07916 l -1.096113,-1.093998 c -0.06284,-0.06254 -0.151969,-0.02598 -0.199101,9.06e-4 l -1.329657,1.282525 c -0.05408,0.05408 -0.02024,0.137165 0.0063,0.184296 l 1.051701,1.049586 c 0.20605,0.20605 0.23596,0.529325 0.0713,0.769515 -0.559537,0.81574 -0.980398,1.806411 -1.185844,2.789832 -0.05831,0.280372 -0.305449,0.480984 -0.591563,0.480984 h -1.504285 c -0.04683,0.01057 -0.129612,0.04109 -0.129612,0.12508 v 1.865628 c 0.01057,0.04592 0.04139,0.128404 0.126591,0.128404 h 1.553229 c 0.29548,0 0.547453,0.213301 0.596095,0.504852 0.157105,0.939612 0.552286,1.916084 1.143547,2.823368 0.156199,0.239585 0.122965,0.555609 -0.07946,0.757731 l -1.096416,1.093998 c -0.06133,0.06103 -0.02749,0.146229 3e-4,0.194871 l 1.285848,1.327239 c 0.05499,0.05499 0.140488,0.02085 0.188526,-0.0063 l 1.052003,-1.049585 c 0.205144,-0.204842 0.52721,-0.235055 0.7674,-0.071 0.817855,0.558329 1.810943,0.978587 2.797082,1.183428 0.280373,0.05801 0.481287,0.305148 0.481287,0.591563 z" />
  <ellipse
     style="fill:#ffffff;stroke-width:0.30212599"
     cx="78.578461"
     cy="28.266588"
     rx="4.6636167"
     ry="4.6672421"
     id="ellipse1473" />
  <path
     inkscape:connector-curvature="0"
     style="fill:#43484a;stroke-width:0.96875003;stroke:#43484a;stroke-opacity:1;fill-opacity:1;stroke-miterlimit:4;stroke-dasharray:none"
     d="m 78.578462,33.538082 c -2.90464,0 -5.268171,-2.36474 -5.268171,-5.271493 0,-2.906755 2.363229,-5.271495 5.268171,-5.271495 2.904941,0 5.267566,2.36474 5.267566,5.271495 0,2.906753 -2.362927,5.271493 -5.267566,5.271493 z m 0,-9.334484 c -2.238452,0 -4.059667,1.822726 -4.059667,4.062991 0,2.240263 1.820913,4.062989 4.059667,4.062989 2.238149,0 4.059364,-1.822726 4.059364,-4.062989 0,-2.240265 -1.821215,-4.062991 -4.059364,-4.062991 z"
     id="path1475" />
  <path
     style="fill:none;stroke:#43484a;stroke-width:3.875;stroke-linecap:round;stroke-linejoin:round;stroke-miterlimit:4;stroke-dasharray:none;stroke-opacity:1"
     d="M 63.707631,51.50796 H 92.080513"
     id="path2823"
     inkscape:connector-curvature="0" />
  <path
     style="fill:none;stroke:#43484a;stroke-width:3.87499976;stroke-linecap:round;stroke-linejoin:round;stroke-miterlimit:4;stroke-dasharray:none;stroke-opacity:1"
     d="m 63.707632,44.414739 h 28.37288"
     id="path2823-1"
     inkscape:connector-curvature="0" />
  <g
     inkscape:groupmode="layer"
     id="layer1"
     inkscape:label="Layer 1"
     style="display:none" />
</svg>
