<svg xmlns="http://www.w3.org/2000/svg" viewBox="0 0 124.4633 113.90203"><path fill="#fff" stroke="#43484a" stroke-width="7.32283" stroke-linecap="round" stroke-linejoin="round" stroke-dashoffset="7.55906" paint-order="stroke fill markers" d="M38.82496 13.77451h57.58726v85.63783H38.82496z"/><path d="M28.63326 66.03531l.46819 1.84835c.53948 2.13159 2.67234 3.8014 4.85659 3.8014h5.60993c2.18424 0 4.31775-1.66917 4.85658-3.80075l.4682-1.849.23826-.94216H28.395z" fill="#fff" stroke="#43484a" stroke-width="3.875"/><path d="M56.8653 41.08252c0-11.1627-9.01827-20.24457-20.10198-20.24457-11.08435 0-20.10198 9.08186-20.10198 20.24457 0 7.28102 3.85405 13.95321 10.10173 17.5645l1.63192 6.44677h16.73666l1.63193-6.44676c6.24767-3.6113 10.10173-10.28348 10.10173-17.56451z" fill="#c8ef7b" stroke="#43484a" stroke-width="3.875" stroke-linecap="round" stroke-linejoin="round"/><path d="M45.04842 41.27775c-.52214-.34616-1.20933-.30313-1.68458.10726l-2.36022 2.03717-2.36021-2.03717c-.52535-.45342-1.29989-.45342-1.82524 0l-2.35958 2.03653-2.35957-2.03653c-.47461-.40975-1.1618-.45406-1.68458-.10726-.52214.34617-.75335.99932-.5671 1.6011l4.67484 16.51574c.18303.58957.72508.99097 1.33842.99097h3.73974c.61333 0 1.15538-.4014 1.33841-.99097l4.67485-16.51574c.18817-.60113-.04303-1.25429-.56518-1.6011z" fill="#fff"/><path d="M46.41163 45.99562H45.0989l.77454-2.73592c.35387-1.13869-.09184-2.39362-1.08345-3.05191-.99804-.66279-2.32747-.57801-3.23366.20423l-1.52082 1.31273-1.52017-1.31209c-1.01602-.87665-2.4893-.87665-3.50404 0l-1.52081 1.3121-1.51889-1.31146c-.90748-.78416-2.2369-.86701-3.23366-.20551-.99161.657-1.43732 1.91193-1.09373 3.02108l.78353 2.7674h-1.31209c-.70903 0-1.28447.57544-1.28447 1.28446 0 .70903.57544 1.28448 1.28447 1.28448h2.0391l3.17393 11.21087c.35195 1.1329 1.38274 1.8946 2.5651 1.8946h3.73973c1.183 0 2.21379-.7617 2.57537-1.92607l3.16366-11.1794h2.03973c.70903 0 1.28448-.57545 1.28448-1.28448 0-.70902-.57545-1.28511-1.28512-1.28511zm-16.30508-3.49697c-.0334-.10854.0867-.22479.1856-.1413l2.35894 2.03653c.48167.41617 1.19648.41617 1.67816 0l2.36086-2.03653c.04239-.03725.10211-.03725.14643 0l2.36021 2.03653c.48168.41553 1.19649.41553 1.67816 0l2.36086-2.03717c.1458-.12845.25176.07642.1747.17212l-.98134 3.46679h-11.3329zm8.63871 16.51445c-.01606.05266-.06166.08734-.11239.08734h-3.73974c-.05073 0-.09505-.03532-.10211-.05652l-2.96714-10.47936h9.87823z" fill="#43484a"/><g stroke="#43484a" stroke-linecap="round" stroke-linejoin="round"><path fill="#fff" stroke-width="7.32283" stroke-dashoffset="7.55906" paint-order="stroke fill markers" d="M58.88762 74.51977h46.44134v7.61638H58.88762z"/><path d="M62.51004 77.21337V72.8479M68.083 77.21337V72.8479M73.65596 77.21337V72.8479M79.22893 77.21337V72.8479M84.8019 77.21337V72.8479M90.37484 77.21337V72.8479M95.9478 77.21337V72.8479M101.52076 77.21337V72.8479" fill="none" stroke-width="3.66142"/></g><path d="M105.96213 66.20966c1.82566 0 3.30573-1.79928 3.30573-4.01885 0-2.22121-1.48117-4.02159-3.30738-4.02159h-3.56174v8.04044z" fill="#f3aabb"/><path d="M102.39819 58.16922l-38.06664.00055-7.80585 4.0205 7.80585 4.02049 38.06719-.00054z" fill="#fff"/><path d="M105.96158 67.2601c2.42889 0 4.40507-2.28494 4.40507-5.09346 0-2.81017-1.97673-5.09622-4.40672-5.09622l-41.62838.00055c-.17416 0-.34557.0412-.5005.12087l-7.80585 3.99577c-.78234.39996-.78234 1.55645 0 1.9564l7.80585 3.99578c.15493.07967.3269.12087.5005.12087zm-40.53233-7.99153l30.79265-.00055.00053 5.7945-30.7921.00055zm32.99022-.00055h2.87993v5.7945h-2.87938zm9.7496 2.89807c0 1.59655-.99057 2.89588-2.20749 2.89588h-2.4646v-5.79395h2.46295c1.21802 0 2.20914 1.29987 2.20914 2.89807zm-49.23206-.00054l4.2952-2.1987.00053 4.39739z" fill="#43484a" stroke="#43484a" stroke-width=".96875" paint-order="fill markers stroke"/><path d="M88.43593 26.71698h-1.5626c-.1837-1.094-.64353-2.14237-1.24083-3.05389l1.10306-1.094c.27584-.27342.27584-.6837.04592-1.00275l-1.33268-1.36742c-.27584-.27343-.68945-.27343-1.01091-.04562l-1.10306 1.094c-.87315-.59247-1.93029-1.04838-3.03305-1.27618V18.4215c0-.41029-.32176-.72933-.68945-.72933h-1.93028c-.36769.04562-.68945.31904-.68945.72933v1.59523c-1.10306.18218-2.1599.63809-3.07897 1.23056l-1.10306-1.094c-.27584-.27343-.68945-.27343-1.01091-.04562l-1.3786 1.3218c-.27584.27342-.27584.6837-.04592 1.00275l1.10306 1.094c-.5973.8659-1.05684 1.91427-1.28676 3.00827h-1.5626c-.36768.04562-.68944.31905-.68944.72933v1.91427c.04592.36467.32176.68372.73537.68372h1.5626c.18369 1.094.64353 2.14237 1.24083 3.05388l-1.10306 1.094c-.27584.27343-.27584.68371-.04592 1.00276l1.33267 1.36742c.27585.27342.68946.27342 1.01092.04562l1.10306-1.094c.87314.59247 1.93028 1.04838 3.03304 1.27618v1.5496c.04623.36467.32177.68372.73538.68372h1.93028c.36769-.04562.68945-.31905.68945-.72933v-1.5496c1.10306-.18219 2.1599-.6381 3.07897-1.23057l1.10306 1.094c.27584.27343.68945.27343 1.01091.04562l1.3786-1.3218c.27584-.27342.27584-.68371.04592-1.00276l-1.10306-1.094c.5973-.86589 1.05684-1.91426 1.28676-3.00826h1.5626c.36768-.04562.68944-.31905.68944-.72934V27.4007c-.04592-.36466-.32176-.6837-.7813-.6837z" fill="#c8ef7b"/><path d="M79.58122 39.44525h-1.9185c-.6822 0-1.3351-.5834-1.3351-1.28796v-1.07225c-.81815-.21813-1.60882-.55198-2.32727-.98312l-.7529.75079c-.4964.49639-1.38253.42992-1.85838-.04532L70.0573 35.4324c-.484-.50485-.4263-1.37256.05287-1.85082l.75834-.75622c-.44473-.76378-.77103-1.56532-.96167-2.3596h-1.05986c-.6819 0-1.3351-.58371-1.3351-1.28797v-1.91457c0-.6828.58553-1.33328 1.28948-1.33328h1.07617c.21844-.81575.5526-1.6043.98433-2.32063l-.75169-.74928c-.49398-.50032-.43385-1.3798.04592-1.85807l1.3777-1.32875c.50424-.4834 1.37316-.4248 1.85142.05257l.75924.75803c.7656-.44412 1.56955-.77042 2.36625-.96046v-1.10185c0-.6828.58552-1.33358 1.28948-1.33358h1.9185c.7112 0 1.28977.5982 1.28977 1.33358v1.07225c.81846.21813 1.60913.55198 2.32728.98311l.7523-.75108c.4994-.49307 1.38071-.43083 1.85867.04562l1.33177 1.37467c.48401.50485.4263 1.37256-.05287 1.85113l-.75833.75622c.44473.76377.77133 1.56562.96167 2.3596h1.05985c.6961 0 1.38072.555 1.38072 1.28797v1.91427c0 .6825-.58552 1.33358-1.28947 1.33358h-1.07618c-.21843.81604-.55259 1.60429-.98432 2.32063l.75108.74927c.50002.49398.42963 1.38434-.04532 1.85838l-1.378 1.32875c-.50424.4834-1.37316.42418-1.85142-.05287l-.75924-.75773c-.76589.44412-1.56985.77042-2.36625.96046v1.05593c.0003.6828-.58522 1.33358-1.28917 1.33358zm-2.0448-1.3366c.01058.04621.0411.1281.1266.1281h1.86956c.04653-.01057.1296-.0411.1296-.12509v-1.5496c0-.29548.21361-.54775.50516-.5961.94203-.1568 1.92092-.55137 2.83092-1.14143.23868-.15529.5538-.12175.75562.07916l1.09611 1.0937c.06224.06254.15227.0263.1994-.0009l1.32936-1.28223c.05408-.05408.02206-.13535-.0057-.1843l-1.052-1.04958c-.20635-.20575-.23627-.52933-.0716-.76952.55953-.81543.9804-1.8064 1.18584-2.79013.05831-.28007.30545-.48068.59156-.48068h1.50429c.04653-.01057.12961-.0414.12961-.12508v-1.86654c-.0284-.1272-.1281-.1272-.17221-.1272h-1.55323c-.29548 0-.54745-.2136-.5961-.50484-.1571-.93962-.55228-1.91609-1.14354-2.82367-.1562-.23959-.12266-.55591.07976-.75773l1.09641-1.0937c.06103-.06103.02538-.14895-.0012-.19548l-1.28524-1.32633c-.05529-.05529-.1411-.02054-.18853.006l-1.0514 1.04989c-.20514.20514-.5272.23566-.7677.071-.81725-.55803-1.81064-.97828-2.79708-1.18373-.28037-.05831-.48129-.30545-.48129-.59156v-1.5496c0-.08249-.0571-.12509-.08127-.12509h-1.86955c-.04653.01057-.12961.0411-.12961.12508v1.59523c0 .29548-.2136.54775-.50516.5961-.94263.1571-1.92152.55137-2.83062 1.14143-.23958.15559-.5541.12175-.75592-.07916l-1.0961-1.094c-.06285-.06254-.15198-.02598-.19911.0009L71.0024 21.8645c-.05408.05408-.02024.13716.0063.1843l1.0517 1.04958c.20605.20605.23596.52933.0713.76952-.55953.81574-.9804 1.8064-1.18584 2.78983-.05831.28037-.30545.48098-.59156.48098H68.85c-.04683.01057-.12961.0411-.12961.12508v1.86563c.01057.04592.04139.1284.1266.1284h1.55322c.29548 0 .54745.2133.5961.50486.1571.9396.55228 1.91608 1.14354 2.82336.1562.23959.12297.55561-.07946.75773l-1.09641 1.094c-.06133.06103-.0275.14623.0003.19487l1.28584 1.32724c.055.055.1405.02085.18853-.0063l1.052-1.04958c.20515-.20485.52721-.23506.7674-.071.81786.55833 1.81095.97858 2.79708 1.18343.28038.058.4813.30514.4813.59156z" fill="#2176b1" stroke-width="1.45313" stroke="#43484a"/><ellipse cx="78.57846" cy="28.26659" rx="4.66362" ry="4.66724" fill="#fff"/><path d="M78.57846 33.53808c-2.90464 0-5.26817-2.36474-5.26817-5.2715 0-2.90675 2.36323-5.27149 5.26817-5.27149 2.90494 0 5.26757 2.36474 5.26757 5.2715 0 2.90675-2.36293 5.2715-5.26757 5.2715zm0-9.33448c-2.23845 0-4.05967 1.82272-4.05967 4.06299 0 2.24026 1.82092 4.06299 4.05967 4.06299 2.23815 0 4.05937-1.82273 4.05937-4.063 0-2.24026-1.82122-4.06298-4.05937-4.06298z" fill="#43484a" stroke-width=".96875" stroke="#43484a"/><path d="M63.70763 51.50796h28.37288M63.70763 44.41474h28.37288" fill="none" stroke="#43484a" stroke-width="3.875" stroke-linecap="round" stroke-linejoin="round"/></svg>