<?xml version="1.0" encoding="UTF-8"?>
<svg width="512" height="512" enable-background="new 0 0 123.06 123.06" version="1.1" viewBox="0 0 123.06 123.06" xmlns="http://www.w3.org/2000/svg" xmlns:cc="http://creativecommons.org/ns#" xmlns:dc="http://purl.org/dc/elements/1.1/" xmlns:rdf="http://www.w3.org/1999/02/22-rdf-syntax-ns#">
<metadata>
<rdf:RDF>
<cc:Work rdf:about="">
<dc:format>image/svg+xml</dc:format>
<dc:type rdf:resource="http://purl.org/dc/dcmitype/StillImage"/>
</cc:Work>
</rdf:RDF>
</metadata>
<path d="m62.756 18.247c-7.239 7.674-12.605 18.553-17.374 28.335-5.451 11.132-8.942 20.999-11.071 27.998l12.008 11.891c7.069-2.108 17.033-5.566 28.275-10.963 9.794-4.638 20.951-9.951 28.616-17.204 17.97-16.951 17.8-44.78 16.948-56.924-12.179-.928-40.369-1.012-57.402 16.867z" fill="#fff"/>
<path d="m120.094 1.382c.522 7.446.78 20.789-3.23 33.905l-30.965-30.696c13.241-4.022 26.73-3.778 34.195-3.209z" fill="#c2e7ee"/>
<path d="m88.872 45.152c-3.571 3.54-9.36 3.54-12.931 0s-3.571-9.279 0-12.819 9.36-3.54 12.931 0 3.571 9.279 0 12.819z" fill="#c2e7ee"/>
<path d="m55.856 26.557s-.008.016-.01.019c-3.247 5.39-6.089 11.183-8.745 16.636-3.061 6.259-5.504 12.118-7.434 17.292l-21.011-1.592c2.014-6.425 11.297-21.946 37.2-32.355z" fill="#c8ef7b"/>
<path d="m94.891 65.253s-.016.008-.019.01c-5.437 3.219-11.281 6.036-16.782 8.669-6.314 3.035-12.224 5.456-17.443 7.369l1.606 20.828c6.481-1.995 22.137-11.198 32.638-36.876z" fill="#c8ef7b"/>
<g fill="#43484a">
<path d="m122.088 2.183c-.069-.986-.853-1.773-1.841-1.848-14.728-1.125-41.975-.347-58.941 17.482-.002.002-.005.004-.007.007-2.216 2.352-4.261 5.01-6.165 7.819-.008.003-.017.002-.025.006-30.944 12.436-37.692 31.479-38.36 33.61-.376 1.202.496 2.487 1.756 2.582l17.94 1.359c-1.479 3.904-2.826 7.828-4.019 11.756-.214.703-.016 1.467.507 1.985l12.183 12.078c.401.397.987.548 1.529.387 4.088-1.213 8.172-2.591 12.233-4.105l1.382 17.923c.097 1.253 1.377 2.122 2.581 1.752 2.148-.661 21.353-7.349 33.9-38.028.021-.051.021-.105.038-.157 2.805-1.88 5.445-3.901 7.76-6.093 17.666-16.685 18.578-43.823 17.549-58.515-.07-.987 1.029 14.692 0 0zm-100.575 55.887c2.377-5.124 9.733-16.963 29.643-26.352-1.27 2.346-2.456 4.679-3.567 6.912-1.422 2.765-7.902 16.425-9.624 20.686zm42.524 42.165-1.267-16.436c3.437-1.366 23.776-10.764 27.871-12.943-9.486 19.757-21.449 27.034-26.604 29.379zm37.752-42.432c-7.489 7.094-18.422 12.277-28.076 16.854-8.762 4.212-17.778 7.744-26.816 10.507l-10.293-10.205c1.937-6.225 4.258-12.438 6.915-18.567 2.392-4.785 5.497-11.255 8.163-16.985 3.516-6.738 7.626-13.649 12.524-18.85 15.198-15.964 39.661-17.236 54.004-16.366.781 14.302-.602 38.674-16.421 53.612z"/>
<path d="m3.715 121.868c-1.728 0-2.631-2.145-1.437-3.378l27.357-28.26c.768-.791 2.031-.813 2.825-.049.793.765.816 2.026.049 2.819l-27.357 28.259c-.392.405-.914.609-1.437.609z"/>
<path d="m22.965 123.06c-1.688 0-2.609-2.063-1.493-3.318l17.73-19.91c.735-.822 1.995-.897 2.82-.166s.899 1.991.167 2.814l-17.73 19.91c-.394.444-.943.67-1.494.67z"/>
<path d="m2.512 103.977c-1.688 0-2.609-2.063-1.493-3.318l17.731-19.91c.734-.822 1.995-.897 2.82-.166s.899 1.991.167 2.814l-17.731 19.91c-.395.444-.943.67-1.494.67z"/>
</g>
</svg>
