<svg xmlns="http://www.w3.org/2000/svg" viewBox="0 0 124 124"><path d="M3 2h118v120H3z" fill="#f7f8fc"/><path d="M3 2h118v26.227H3z" fill="#c8ef7b"/><g fill="#43484a"><path d="M121 0H3C1.896 0 1 .896 1 2v120c0 1.104.896 2 2 2h118c1.104 0 2-.896 2-2V2c0-1.104-.896-2-2-2zM5 4h114v22.227H5zm0 116V30.227h114V120z"/><path d="M25.574 17.141h-9.748c-1.104 0-2-.896-2-2s.896-2 2-2h9.748c1.104 0 2 .896 2 2s-.895 2-2 2zM45.007 17.141h-9.748c-1.104 0-2-.896-2-2s.896-2 2-2h9.748c1.104 0 2 .896 2 2s-.896 2-2 2zM105.608 17.141H61.743c-1.104 0-2-.896-2-2s.896-2 2-2h43.865c1.104 0 2 .896 2 2s-.895 2-2 2zM94.848 92.047H29.152c-1.104 0-2-.896-2-2V56.589c0-1.104.896-2 2-2h65.695c1.104 0 2 .896 2 2v33.458c.001 1.104-.895 2-1.999 2zm-63.696-4h61.695V58.589H31.152z"/></g><path d="M74.848 56.589h20v33.458h-20z" fill="#c2e7ee"/><path d="M94.848 92.047H29.152c-1.104 0-2-.896-2-2V56.589c0-1.104.896-2 2-2h65.695c1.104 0 2 .896 2 2v33.458c.001 1.104-.895 2-1.999 2zm-63.696-4h61.695V58.589H31.152z" fill="#43484a"/><path d="M38.028 66.531l13.609 6.771-13.609 6.77v4.227l18.54-9.511v-2.973l-18.54-9.51zM61.36 71.193h10.573v3.886H61.36zM75.398 71.193h10.573v3.886H75.398z" fill="#43484a"/></svg>