<?xml version="1.0" encoding="UTF-8" standalone="no"?>
<svg
   xmlns:dc="http://purl.org/dc/elements/1.1/"
   xmlns:cc="http://creativecommons.org/ns#"
   xmlns:rdf="http://www.w3.org/1999/02/22-rdf-syntax-ns#"
   xmlns:svg="http://www.w3.org/2000/svg"
   xmlns="http://www.w3.org/2000/svg"
   xmlns:sodipodi="http://sodipodi.sourceforge.net/DTD/sodipodi-0.dtd"
   xmlns:inkscape="http://www.inkscape.org/namespaces/inkscape"
   id="Layer_1"
   enable-background="new 0 0 124 124"
   height="512"
   viewBox="0 0 124 124"
   width="512"
   version="1.1"
   sodipodi:docname="014-search.svg"
   inkscape:version="0.92.4 (5da689c313, 2019-01-14)">
  <metadata
     id="metadata19">
    <rdf:RDF>
      <cc:Work
         rdf:about="">
        <dc:format>image/svg+xml</dc:format>
        <dc:type
           rdf:resource="http://purl.org/dc/dcmitype/StillImage" />
      </cc:Work>
    </rdf:RDF>
  </metadata>
  <defs
     id="defs17" />
  <sodipodi:namedview
     pagecolor="#ffffff"
     bordercolor="#666666"
     borderopacity="1"
     objecttolerance="10"
     gridtolerance="10"
     guidetolerance="10"
     inkscape:pageopacity="0"
     inkscape:pageshadow="2"
     inkscape:window-width="1282"
     inkscape:window-height="897"
     id="namedview15"
     showgrid="false"
     inkscape:zoom="0.11523438"
     inkscape:cx="1184.8507"
     inkscape:cy="-570.25008"
     inkscape:window-x="0"
     inkscape:window-y="0"
     inkscape:window-maximized="0"
     inkscape:current-layer="Layer_1" />
  <ellipse
     cx="43.631"
     cy="43.458"
     fill="#e29e9a"
     rx="41.631"
     ry="41.458"
     id="ellipse2"
     style="fill:#c8ef7b;fill-opacity:1" />
  <ellipse
     cx="43.631"
     cy="43.458"
     fill="#f7f8fc"
     rx="29.623"
     ry="29.5"
     id="ellipse4" />
  <path
     d="m43.631 74.958c-17.438 0-31.624-14.131-31.624-31.5s14.186-31.5 31.624-31.5 31.624 14.131 31.624 31.5-14.186 31.5-31.624 31.5zm0-59c-15.231 0-27.624 12.337-27.624 27.5s12.392 27.5 27.624 27.5 27.624-12.337 27.624-27.5-12.392-27.5-27.624-27.5z"
     fill="#43484a"
     id="path6" />
  <path
     d="m118.248 100.228-37.712-37.588c-4.048 7.707-10.455 13.986-18.272 17.889l37.865 37.741c5.003 4.982 13.115 4.982 18.118 0s5.004-13.059.001-18.042z"
     fill="#f7f8fc"
     id="path8" />
  <path
     d="m118.248 100.228-9.682-9.651c4.669 5.003 4.572 12.823-.318 17.692-5.003 4.982-13.115 4.982-18.118 0l10 10.001c5.003 4.982 13.115 4.982 18.118 0s5.003-13.059 0-18.042z"
     fill="#d2edf8"
     id="path10" />
  <path
     d="m119.659 98.812-36.688-36.569c2.749-5.689 4.291-12.061 4.291-18.785.001-23.963-19.572-43.458-43.631-43.458s-43.631 19.495-43.631 43.458 19.573 43.458 43.631 43.458c6.499 0 12.665-1.433 18.212-3.982l36.875 36.754c2.887 2.874 6.679 4.312 10.47 4.312 3.792 0 7.584-1.438 10.47-4.312 2.8-2.788 4.342-6.496 4.341-10.439.001-3.944-1.541-7.65-4.34-10.437zm-115.659-55.354c0-21.757 17.778-39.458 39.631-39.458s39.631 17.7 39.631 39.458-17.778 39.457-39.631 39.457-39.631-17.7-39.631-39.457zm112.836 73.396c-4.217 4.199-11.078 4.199-15.295 0l-35.961-35.844c6.197-3.613 11.498-8.779 15.262-14.887.045-.073.096-.142.14-.215l35.854 35.738c2.04 2.031 3.164 4.732 3.164 7.603 0 2.872-1.124 5.573-3.164 7.605-4.217 4.2 2.04-2.032 0 0z"
     fill="#43484a"
     id="path12" />
</svg>
