<svg xmlns="http://www.w3.org/2000/svg" viewBox="0 0 124 124"><ellipse cx="43.631" cy="43.458" fill="#c8ef7b" rx="41.631" ry="41.458"/><ellipse cx="43.631" cy="43.458" fill="#f7f8fc" rx="29.623" ry="29.5"/><path d="M43.631 74.958c-17.438 0-31.624-14.131-31.624-31.5s14.186-31.5 31.624-31.5 31.624 14.131 31.624 31.5-14.186 31.5-31.624 31.5zm0-59c-15.231 0-27.624 12.337-27.624 27.5s12.392 27.5 27.624 27.5 27.624-12.337 27.624-27.5-12.392-27.5-27.624-27.5z" fill="#43484a"/><path d="M118.248 100.228L80.536 62.64c-4.048 7.707-10.455 13.986-18.272 17.889l37.865 37.741c5.003 4.982 13.115 4.982 18.118 0s5.004-13.059.001-18.042z" fill="#f7f8fc"/><path d="M118.248 100.228l-9.682-9.651c4.669 5.003 4.572 12.823-.318 17.692-5.003 4.982-13.115 4.982-18.118 0l10 10.001c5.003 4.982 13.115 4.982 18.118 0s5.003-13.059 0-18.042z" fill="#d2edf8"/><path d="M119.659 98.812L82.971 62.243c2.749-5.689 4.291-12.061 4.291-18.785C87.263 19.495 67.69 0 43.631 0S0 19.495 0 43.458s19.573 43.458 43.631 43.458c6.499 0 12.665-1.433 18.212-3.982l36.875 36.754c2.887 2.874 6.679 4.312 10.47 4.312 3.792 0 7.584-1.438 10.47-4.312 2.8-2.788 4.342-6.496 4.341-10.439.001-3.944-1.541-7.65-4.34-10.437zM4 43.458C4 21.701 21.778 4 43.631 4s39.631 17.7 39.631 39.458-17.778 39.457-39.631 39.457S4 65.215 4 43.458zm112.836 73.396c-4.217 4.199-11.078 4.199-15.295 0L65.58 81.01c6.197-3.613 11.498-8.779 15.262-14.887.045-.073.096-.142.14-.215l35.854 35.738c2.04 2.031 3.164 4.732 3.164 7.603 0 2.872-1.124 5.573-3.164 7.605-4.217 4.2 2.04-2.032 0 0z" fill="#43484a"/></svg>