<svg xmlns="http://www.w3.org/2000/svg" viewBox="0 0 125 125"><path d="M123 73.148V51.852h-11.858c-1.291-5.848-3.59-11.334-6.695-16.254l8.389-8.389-15.044-15.045-8.389 8.51c-4.88-3.146-10.406-5.445-16.254-6.695V2H51.852v11.858c-5.848 1.291-11.334 3.59-16.254 6.695l-8.389-8.389-15.045 15.044 8.389 8.389c-3.146 4.88-5.445 10.406-6.695 16.254H2v21.296h11.858c1.291 5.848 3.59 11.334 6.695 16.254l-8.389 8.389 15.044 15.044 8.389-8.389c4.88 3.146 10.406 5.445 16.254 6.695V123h21.296v-11.858c5.848-1.291 11.334-3.59 16.254-6.695l8.389 8.389 15.044-15.044-8.389-8.389c3.146-4.88 5.445-10.406 6.695-16.254z" fill="#fff"/><path d="M73.148 124.5H51.852c-.828 0-1.5-.671-1.5-1.5v-10.659c-5.165-1.233-10.045-3.243-14.539-5.988l-7.544 7.543c-.586.586-1.535.586-2.121 0L11.104 98.852c-.281-.281-.439-.663-.439-1.061 0-.398.158-.779.439-1.061l7.552-7.551c-2.726-4.541-4.736-9.419-5.988-14.532H2c-.828 0-1.5-.671-1.5-1.5V51.852c0-.829.672-1.5 1.5-1.5h10.66c1.231-5.165 3.242-10.045 5.987-14.539l-7.544-7.544c-.281-.281-.439-.663-.439-1.061 0-.398.158-.779.439-1.061l15.044-15.044c.586-.586 1.535-.586 2.121 0l7.552 7.551c4.542-2.726 9.42-4.736 14.531-5.988V2c0-.829.672-1.5 1.5-1.5h21.297c.828 0 1.5.671 1.5 1.5v10.78c5.162 1.232 10.04 3.24 14.531 5.983l7.544-7.653c.28-.285.663-.445 1.063-.447h.005c.397 0 .779.158 1.061.439l15.044 15.044c.281.281.439.663.439 1.061 0 .398-.158.779-.439 1.061l-7.552 7.551c2.726 4.541 4.736 9.419 5.988 14.532H123c.828 0 1.5.671 1.5 1.5v21.296c0 .829-.672 1.5-1.5 1.5h-10.66c-1.231 5.165-3.241 10.045-5.987 14.539l7.544 7.544c.281.281.439.663.439 1.061 0 .398-.158.779-.439 1.061l-15.044 15.044c-.586.586-1.535.586-2.121 0l-7.552-7.551c-4.542 2.726-9.42 4.736-14.531 5.988V123c-.001.829-.672 1.5-1.501 1.5zm-19.796-3h18.297v-10.358c0-.704.489-1.313 1.177-1.465 5.59-1.233 10.897-3.42 15.776-6.499.595-.374 1.367-.288 1.861.208l7.329 7.329 12.923-12.923-7.329-7.329c-.5-.5-.583-1.28-.2-1.874 3.099-4.806 5.282-10.107 6.489-15.755.147-.692.759-1.187 1.467-1.187H121.5V53.352h-10.358c-.704 0-1.313-.489-1.465-1.177-1.233-5.591-3.42-10.899-6.499-15.777-.374-.593-.288-1.366.208-1.861l7.329-7.329L97.8 14.293l-7.329 7.435c-.498.505-1.284.593-1.881.208-4.806-3.098-10.106-5.281-15.755-6.489-.692-.148-1.187-.759-1.187-1.467V3.5H53.352v10.358c0 .704-.489 1.313-1.177 1.465-5.59 1.233-10.897 3.42-15.776 6.499-.596.374-1.367.287-1.861-.208l-7.329-7.329-12.924 12.923 7.329 7.329c.5.5.583 1.28.2 1.874-3.099 4.806-5.282 10.107-6.489 15.755-.147.692-.759 1.187-1.467 1.187H3.5v18.296h10.358c.704 0 1.313.489 1.465 1.177 1.233 5.591 3.42 10.899 6.499 15.777.374.593.288 1.366-.208 1.861l-7.329 7.329 12.923 12.923 7.329-7.329c.5-.499 1.28-.583 1.873-.2 4.806 3.098 10.106 5.281 15.755 6.489.692.148 1.187.759 1.187 1.467z" fill="#43484a" stroke="#43484a" stroke-width=".99999"/><path d="M62.137 98.234c-19.481 0-35.33-15.85-35.33-35.331s15.849-35.331 35.33-35.331c19.481 0 35.331 15.849 35.331 35.331 0 19.482-15.85 35.331-35.331 35.331zm0-67.661c-17.827 0-32.33 14.503-32.33 32.331 0 17.828 14.503 32.331 32.33 32.331 17.827 0 32.331-14.503 32.331-32.331 0-17.828-14.504-32.331-32.331-32.331z" fill="#43484a" stroke="#43484a" stroke-width=".99999"/><path d="M62.137 106.349c-4.714 0-9.351-.751-13.783-2.232-.785-.263-1.21-1.113-.947-1.898.263-.785 1.108-1.212 1.898-.947 4.125 1.379 8.442 2.078 12.832 2.078 22.302 0 40.446-18.144 40.446-40.446S84.438 22.458 62.137 22.458 21.691 40.602 21.691 62.903c0 9.255 3.041 17.963 8.795 25.185.517.648.41 1.591-.238 2.108-.647.516-1.591.41-2.107-.239-6.182-7.758-9.449-17.113-9.449-27.054 0-23.956 19.489-43.446 43.445-43.446s43.446 19.49 43.446 43.446-19.49 43.446-43.446 43.446z" fill="#43484a" stroke="#43484a" stroke-width=".99999"/><g fill="#c8ef7b"><path d="M49.419 57.165c-.136.75-.22 1.518-.22 2.306v7.893c0 7.241 6.005 13.111 13.413 13.111v-23.31zM75.805 57.165H62.612v23.31c7.408 0 13.413-5.87 13.413-13.111v-7.893c0-.788-.083-1.556-.22-2.306z"/><path d="M62.612 46.36c-6.602 0-12.077 4.666-13.193 10.805h26.386c-1.116-6.139-6.591-10.805-13.193-10.805z"/></g><path d="M77.525 62.281l3.276-.024c1.864 0 3.332-1.721 3.388-3.941l.861-5.246c.134-.817-.42-1.589-1.237-1.723-.822-.137-1.589.419-1.724 1.237 0 0-1.194 6.632-1.299 6.672l-3.275.024c-.011-.768-.083-1.549-.236-2.385v-.001c-.892-4.907-4.215-8.857-8.623-10.774.016-.016.039-.027.053-.045 1.228-1.524 1.435-3.193 1.448-4.053.013-.828-.647-1.511-1.476-1.524h-.024c-.817 0-1.486.656-1.5 1.476-.008.474-.119 1.393-.784 2.218-.23.285-.637.582-1.195.886-.836-.142-1.693-.22-2.567-.22-.841 0-1.665.075-2.471.207-.39-.206-.896-.512-1.187-.873-.666-.827-.776-1.743-.783-2.216-.012-.828-.722-1.472-1.521-1.479-.829.012-1.491.692-1.479 1.521.012.859.216 2.527 1.447 4.056.005.006.013.01.018.016-4.442 1.905-7.797 5.871-8.693 10.803v.003c-.15.829-.221 1.601-.234 2.358l-2.998.002c-.117-.044-1.312-6.676-1.312-6.676-.135-.818-.912-1.374-1.724-1.237-.817.134-1.371.905-1.237 1.723l.861 5.246c.056 2.221 1.523 3.941 3.387 3.941h3.012v5.108c0 1.456.225 2.861.632 4.189l-3.253.017c-1.864 0-3.332 1.721-3.388 3.941l-.86 5.246c-.312 1.905 2.646 2.395 2.961.485 0 0 1.193-6.632 1.295-6.672l4.555-.024c2.565 4.428 7.414 7.428 12.972 7.428 5.543 0 10.38-2.985 12.95-7.393l4.825-.014c.117.043 1.312 6.676 1.312 6.676.314 1.907 3.273 1.423 2.961-.485l-.861-5.246c-.056-2.221-1.523-3.941-3.392-3.941l-3.52.008c.412-1.336.639-2.749.639-4.214zM62.612 47.86c5.146 0 9.616 3.19 11.247 7.805H51.364c1.631-4.614 6.102-7.805 11.248-7.805zM50.699 67.364s.011-8.425.032-8.699h10.381v20.218c-5.863-.721-10.413-5.612-10.413-11.519zm13.413 11.519V58.665h10.381c.021.274.032 8.699.032 8.699 0 5.907-4.549 10.798-10.413 11.519z" fill="#43484a" stroke="#43484a" stroke-width=".99999"/></svg>