<?xml version="1.0" encoding="UTF-8" standalone="no"?>
<svg
   xmlns:dc="http://purl.org/dc/elements/1.1/"
   xmlns:cc="http://creativecommons.org/ns#"
   xmlns:rdf="http://www.w3.org/1999/02/22-rdf-syntax-ns#"
   xmlns:svg="http://www.w3.org/2000/svg"
   xmlns="http://www.w3.org/2000/svg"
   xmlns:sodipodi="http://sodipodi.sourceforge.net/DTD/sodipodi-0.dtd"
   xmlns:inkscape="http://www.inkscape.org/namespaces/inkscape"
   id="Layer_1"
   enable-background="new 0 0 124 124"
   height="516.12903"
   viewBox="0 0 125 125"
   width="516.12903"
   version="1.1"
   sodipodi:docname="settings.svg"
   inkscape:version="0.92.4 (5da689c313, 2019-01-14)">
  <metadata
     id="metadata27">
    <rdf:RDF>
      <cc:Work
         rdf:about="">
        <dc:format>image/svg+xml</dc:format>
        <dc:type
           rdf:resource="http://purl.org/dc/dcmitype/StillImage" />
      </cc:Work>
    </rdf:RDF>
  </metadata>
  <defs
     id="defs25" />
  <sodipodi:namedview
     pagecolor="#ffffff"
     bordercolor="#666666"
     borderopacity="1"
     objecttolerance="10"
     gridtolerance="10"
     guidetolerance="10"
     inkscape:pageopacity="0"
     inkscape:pageshadow="2"
     inkscape:window-width="1747"
     inkscape:window-height="1021"
     id="namedview23"
     showgrid="false"
     inkscape:zoom="1.3037281"
     inkscape:cx="186.96423"
     inkscape:cy="211.26841"
     inkscape:window-x="0"
     inkscape:window-y="0"
     inkscape:window-maximized="0"
     inkscape:current-layer="Layer_1" />
  <path
     d="m 123,73.147996 v -21.296 h -11.858 c -1.291,-5.848 -3.59,-11.334 -6.695,-16.254 l 8.389,-8.389 -15.044004,-15.045 -8.389,8.51 c -4.88,-3.146 -10.406,-5.445 -16.254,-6.695 V 1.9999961 h -21.297 V 13.857996 c -5.848,1.291 -11.334,3.59 -16.254,6.695 l -8.389,-8.389 -15.045,15.044 8.389,8.389 c -3.146,4.88 -5.445,10.406 -6.695,16.254 H 1.9999961 v 21.296 H 13.857996 c 1.291,5.848 3.59,11.334 6.695,16.254 l -8.389,8.389 15.044,15.044004 8.389,-8.389 c 4.88,3.146 10.406,5.445 16.254,6.695 V 123 h 21.296 v -11.858 c 5.848,-1.291 11.334,-3.59 16.254,-6.695 l 8.389,8.389 15.044004,-15.044004 -8.389,-8.389 c 3.146,-4.88 5.445,-10.406 6.695,-16.254 z"
     id="path2"
     inkscape:connector-curvature="0"
     style="fill:#ffffff" />
  <path
     d="m 73.147996,124.5 h -21.296 c -0.828,0 -1.5,-0.671 -1.5,-1.5 v -10.659 c -5.165,-1.233 -10.045,-3.243 -14.539,-5.988 l -7.544,7.543 c -0.586,0.586 -1.535,0.586 -2.121,0 l -15.044,-15.044004 c -0.281,-0.281 -0.439,-0.663 -0.439,-1.061 0,-0.398 0.158,-0.779 0.439,-1.061 l 7.552,-7.551 c -2.726,-4.541 -4.736,-9.419 -5.988,-14.532 H 1.9999961 c -0.828,0 -1.5,-0.671 -1.5,-1.5 v -21.295 c 0,-0.829 0.672,-1.5 1.5,-1.5 H 12.659996 c 1.231,-5.165 3.242,-10.045 5.987,-14.539 l -7.544,-7.544 c -0.281,-0.281 -0.439,-0.663 -0.439,-1.061 0,-0.398 0.158,-0.779 0.439,-1.061 l 15.044,-15.044 c 0.586,-0.586 1.535,-0.586 2.121,0 l 7.552,7.551 c 4.542,-2.726 9.42,-4.736 14.531,-5.988 V 1.9999961 c 0,-0.829 0.672,-1.5 1.5,-1.5 h 21.297 c 0.828,0 1.5,0.671 1.5,1.5 V 12.779996 c 5.162,1.232 10.04,3.24 14.531,5.983 l 7.544,-7.653 c 0.28,-0.285 0.663,-0.445 1.063,-0.447 h 0.005 c 0.397,0 0.779,0.158 1.061,0.439 l 15.044004,15.044 c 0.281,0.281 0.439,0.663 0.439,1.061 0,0.398 -0.158,0.779 -0.439,1.061 l -7.552,7.551 c 2.726,4.541 4.736,9.419 5.988,14.532 H 123 c 0.828,0 1.5,0.671 1.5,1.5 v 21.296 c 0,0.829 -0.672,1.5 -1.5,1.5 h -10.66 c -1.231,5.165 -3.241,10.045 -5.987,14.539 l 7.544,7.544 c 0.281,0.281 0.439,0.663 0.439,1.061 0,0.398 -0.158,0.779 -0.439,1.061 L 98.852996,113.896 c -0.586,0.586 -1.535,0.586 -2.121,0 l -7.552,-7.551 c -4.542,2.726 -9.42,4.736 -14.531,5.988 V 123 c -10e-4,0.829 -0.672,1.5 -1.501,1.5 z m -19.796,-3 h 18.297 v -10.358 c 0,-0.704 0.489,-1.313 1.177,-1.465 5.59,-1.233 10.897,-3.42 15.776,-6.499 0.595,-0.374 1.367,-0.288 1.861,0.208 l 7.329,7.329 12.923004,-12.923004 -7.329,-7.329 c -0.5,-0.5 -0.583,-1.28 -0.2,-1.874 3.099,-4.806 5.282,-10.107 6.489,-15.755 0.147,-0.692 0.759,-1.187 1.467,-1.187 H 121.5 v -18.295 h -10.358 c -0.704,0 -1.313,-0.489 -1.465,-1.177 -1.233,-5.591 -3.42,-10.899 -6.499,-15.777 -0.374,-0.593 -0.288,-1.366 0.208,-1.861 l 7.329,-7.329 -12.915004,-12.915 -7.329,7.435 c -0.498,0.505 -1.284,0.593 -1.881,0.208 -4.806,-3.098 -10.106,-5.281 -15.755,-6.489 -0.692,-0.148 -1.187,-0.759 -1.187,-1.467 V 3.4999961 h -18.296 V 13.857996 c 0,0.704 -0.489,1.313 -1.177,1.465 -5.59,1.233 -10.897,3.42 -15.776,6.499 -0.596,0.374 -1.367,0.287 -1.861,-0.208 l -7.329,-7.329 -12.924,12.923 7.329,7.329 c 0.5,0.5 0.583,1.28 0.2,1.874 -3.099,4.806 -5.282,10.107 -6.489,15.755 -0.147,0.692 -0.759,1.187 -1.467,1.187 H 3.4999961 v 18.296 H 13.857996 c 0.704,0 1.313,0.489 1.465,1.177 1.233,5.591 3.42,10.899 6.499,15.777 0.374,0.593 0.288,1.366 -0.208,1.861 l -7.329,7.329 12.923,12.923004 7.329,-7.329 c 0.5,-0.499 1.28,-0.583 1.873,-0.2 4.806,3.098 10.106,5.281 15.755,6.489 0.692,0.148 1.187,0.759 1.187,1.467 z"
     id="path6"
     style="fill:#43484a;fill-opacity:1;stroke:#43484a;stroke-width:0.99999219;stroke-miterlimit:4;stroke-dasharray:none;stroke-opacity:1"
     inkscape:connector-curvature="0" />
  <path
     d="m 62.136996,98.233996 c -19.481,0 -35.33,-15.85 -35.33,-35.331 0,-19.481 15.849,-35.331 35.33,-35.331 19.481,0 35.331,15.849 35.331,35.331 0,19.482 -15.85,35.331 -35.331,35.331 z m 0,-67.661 c -17.827,0 -32.33,14.503 -32.33,32.331 0,17.828 14.503,32.331 32.33,32.331 17.827,0 32.331,-14.503 32.331,-32.331 0,-17.828 -14.504,-32.331 -32.331,-32.331 z"
     id="path8"
     style="fill:#43484a;fill-opacity:1;stroke:#43484a;stroke-width:0.99999219;stroke-miterlimit:4;stroke-dasharray:none;stroke-opacity:1"
     inkscape:connector-curvature="0" />
  <path
     d="m 62.136996,106.349 c -4.714,0 -9.351,-0.751 -13.783,-2.232 -0.785,-0.263 -1.21,-1.113 -0.947,-1.898 0.263,-0.785 1.108,-1.212 1.898,-0.947 4.125,1.379 8.442,2.078 12.832,2.078 22.302,0 40.446004,-18.144004 40.446004,-40.446004 0,-22.302 -18.145004,-40.446 -40.446004,-40.446 -22.301,0 -40.446,18.144 -40.446,40.445 0,9.255 3.041,17.963 8.795,25.185 0.517,0.648 0.41,1.591 -0.238,2.108 -0.647,0.516 -1.591,0.41 -2.107,-0.239 -6.182,-7.758 -9.449,-17.113 -9.449,-27.054 0,-23.956 19.489,-43.446 43.445,-43.446 23.956,0 43.446004,19.49 43.446004,43.446 0,23.956 -19.490004,43.446004 -43.446004,43.446004 z"
     id="path10"
     style="fill:#43484a;fill-opacity:1;stroke:#43484a;stroke-width:0.99999219;stroke-miterlimit:4;stroke-dasharray:none;stroke-opacity:1"
     inkscape:connector-curvature="0" />
  <g
     id="g18"
     style="fill:#c8ef7b;fill-opacity:1"
     transform="translate(0.4999961,0.4999961)">
    <path
       d="m 48.919,56.665 c -0.136,0.75 -0.22,1.518 -0.22,2.306 v 7.893 c 0,7.241 6.005,13.111 13.413,13.111 v -23.31 z"
       id="path12"
       style="fill:#c8ef7b;fill-opacity:1"
       inkscape:connector-curvature="0" />
    <path
       d="M 75.305,56.665 H 62.112 v 23.31 c 7.408,0 13.413,-5.87 13.413,-13.111 v -7.893 c 0,-0.788 -0.083,-1.556 -0.22,-2.306 z"
       id="path14"
       style="fill:#c8ef7b;fill-opacity:1"
       inkscape:connector-curvature="0" />
    <path
       d="m 62.112,45.86 c -6.602,0 -12.077,4.666 -13.193,10.805 H 75.305 C 74.189,50.526 68.714,45.86 62.112,45.86 Z"
       id="path16"
       style="fill:#c8ef7b;fill-opacity:1"
       inkscape:connector-curvature="0" />
  </g>
  <path
     d="m 77.524996,62.280996 3.276,-0.024 c 1.864,0 3.332,-1.721 3.388,-3.941 l 0.861,-5.246 c 0.134,-0.817 -0.42,-1.589 -1.237,-1.723 -0.822,-0.137 -1.589,0.419 -1.724,1.237 0,0 -1.194,6.632 -1.299,6.672 l -3.275,0.024 c -0.011,-0.768 -0.083,-1.549 -0.236,-2.385 0,0 0,0 0,-10e-4 -0.892,-4.907 -4.215,-8.857 -8.623,-10.774 0.016,-0.016 0.039,-0.027 0.053,-0.045 1.228,-1.524 1.435,-3.193 1.448,-4.053 0.013,-0.828 -0.647,-1.511 -1.476,-1.524 -0.009,0 -0.017,0 -0.024,0 -0.817,0 -1.486,0.656 -1.5,1.476 -0.008,0.474 -0.119,1.393 -0.784,2.218 -0.23,0.285 -0.637,0.582 -1.195,0.886 -0.836,-0.142 -1.693,-0.22 -2.567,-0.22 -0.841,0 -1.665,0.075 -2.471,0.207 -0.39,-0.206 -0.896,-0.512 -1.187,-0.873 -0.666,-0.827 -0.776,-1.743 -0.783,-2.216 -0.012,-0.828 -0.722,-1.472 -1.521,-1.479 -0.829,0.012 -1.491,0.692 -1.479,1.521 0.012,0.859 0.216,2.527 1.447,4.056 0.005,0.006 0.013,0.01 0.018,0.016 -4.442,1.905 -7.797,5.871 -8.693,10.803 v 0.003 c -0.15,0.829 -0.221,1.601 -0.234,2.358 l -2.998,0.002 c -0.117,-0.044 -1.312,-6.676 -1.312,-6.676 -0.135,-0.818 -0.912,-1.374 -1.724,-1.237 -0.817,0.134 -1.371,0.905 -1.237,1.723 l 0.861,5.246 c 0.056,2.221 1.523,3.941 3.387,3.941 h 3.012 v 5.108 c 0,1.456 0.225,2.861 0.632,4.189 l -3.253,0.017 c -1.864,0 -3.332,1.721 -3.388,3.941 l -0.86,5.246 c -0.312,1.905 2.646,2.395 2.961,0.485 0,0 1.193,-6.632 1.295,-6.672 l 4.555,-0.024 c 2.565,4.428 7.414,7.428 12.972,7.428 5.543,0 10.38,-2.985 12.95,-7.393 l 4.825,-0.014 c 0.117,0.043 1.312,6.676 1.312,6.676 0.314,1.907 3.273,1.423 2.961,-0.485 l -0.861,-5.246 c -0.056,-2.221 -1.523,-3.941 -3.392,-3.941 l -3.52,0.008 c 0.412,-1.336 0.639,-2.749 0.639,-4.214 z m -14.913,-14.421 c 5.146,0 9.616,3.19 11.247,7.805 h -11.247 -11.248 c 1.631,-4.614 6.102,-7.805 11.248,-7.805 z m -11.913,19.504 c 0,0 0.011,-8.425 0.032,-8.699 h 10.381 v 20.218 c -5.863,-0.721 -10.413,-5.612 -10.413,-11.519 z m 13.413,11.519 v -20.218 h 10.381 c 0.021,0.274 0.032,8.699 0.032,8.699 0,5.907 -4.549,10.798 -10.413,11.519 z"
     id="path20"
     style="fill:#43484a;fill-opacity:1;stroke:#43484a;stroke-width:0.99999219;stroke-miterlimit:4;stroke-dasharray:none;stroke-opacity:1"
     inkscape:connector-curvature="0" />
</svg>
