<?xml version="1.0" encoding="UTF-8" standalone="no"?>
<svg
   xmlns:dc="http://purl.org/dc/elements/1.1/"
   xmlns:cc="http://creativecommons.org/ns#"
   xmlns:rdf="http://www.w3.org/1999/02/22-rdf-syntax-ns#"
   xmlns:svg="http://www.w3.org/2000/svg"
   xmlns="http://www.w3.org/2000/svg"
   xmlns:sodipodi="http://sodipodi.sourceforge.net/DTD/sodipodi-0.dtd"
   xmlns:inkscape="http://www.inkscape.org/namespaces/inkscape"
   id="Layer_1"
   enable-background="new 0 0 60 60"
   height="512"
   viewBox="0 0 60 60"
   width="512"
   version="1.1"
   sodipodi:docname="013-social-media.svg"
   inkscape:version="0.92.4 (5da689c313, 2019-01-14)">
  <metadata
     id="metadata43">
    <rdf:RDF>
      <cc:Work
         rdf:about="">
        <dc:format>image/svg+xml</dc:format>
        <dc:type
           rdf:resource="http://purl.org/dc/dcmitype/StillImage" />
      </cc:Work>
    </rdf:RDF>
  </metadata>
  <defs
     id="defs41" />
  <sodipodi:namedview
     pagecolor="#ffffff"
     bordercolor="#666666"
     borderopacity="1"
     objecttolerance="10"
     gridtolerance="10"
     guidetolerance="10"
     inkscape:pageopacity="0"
     inkscape:pageshadow="2"
     inkscape:window-width="1395"
     inkscape:window-height="954"
     id="namedview39"
     showgrid="false"
     inkscape:zoom="0.16296602"
     inkscape:cx="1489.5292"
     inkscape:cy="75.145825"
     inkscape:window-x="0"
     inkscape:window-y="0"
     inkscape:window-maximized="0"
     inkscape:current-layer="Layer_1" />
  <path
     d="m35.551 24.996h-11.88c-3.153 0-5.709-2.556-5.709-5.709v-10.578c0-3.153 2.556-5.709 5.709-5.709h11.88c3.153 0 5.709 2.556 5.709 5.709v10.578c0 3.153-2.556 5.709-5.709 5.709z"
     fill="#fff"
     id="path2" />
  <path
     d="m35.551 25.996h-11.881c-3.699 0-6.708-3.01-6.708-6.709v-10.578c.001-3.699 3.009-6.709 6.708-6.709h11.881c3.699 0 6.709 3.01 6.709 6.709v10.578c0 3.699-3.01 6.709-6.709 6.709zm-11.881-21.996c-2.596 0-4.708 2.112-4.708 4.709v10.578c0 2.597 2.112 4.709 4.708 4.709h11.881c2.597 0 4.709-2.112 4.709-4.709v-10.578c0-2.597-2.112-4.709-4.709-4.709z"
     fill="#145588"
     id="path4"
     style="fill:#43484a;fill-opacity:1" />
  <path
     d="m20.867 20.29v-12.583c0-.944.765-1.709 1.709-1.709h14.071c.944 0 1.709.765 1.709 1.709v12.582c0 .944-.765 1.709-1.709 1.709h-14.072c-.943 0-1.708-.765-1.708-1.708z"
     fill="#ff5576"
     id="path6"
     style="fill:#f3aabb;fill-opacity:1" />
  <ellipse
     cx="29.611"
     cy="13.998"
     fill="#d22e55"
     rx="4.206"
     ry="4.201"
     id="ellipse8"
     style="fill:#e75a7c;fill-opacity:1" />
  <circle
     cx="35.724"
     cy="8.406"
     fill="#fff"
     r="1.392"
     id="circle10" />
  <path
     d="m13.534 34.467c-6.92 0-12.522 4.554-12.522 10.168 0 2.324.974 4.459 2.584 6.175-.724 1.926-2.246 3.561-2.273 3.574-.677.733-.159 1.98.852 1.98 3.01 0 5.378-1.257 6.805-2.263 1.414.439 2.936.696 4.546.696 6.92 0 12.522-4.554 12.522-10.168s-5.593-10.162-12.514-10.162z"
     fill="#1fd4af"
     id="path12"
     style="fill:#95e000;fill-opacity:0.48235294" />
  <path
     d="m2.176 57.364c-1.829 0-2.954-2.409-1.536-3.709.251-.26 1.184-1.373 1.79-2.653-1.585-1.885-2.418-4.073-2.418-6.367 0-6.158 6.066-11.168 13.522-11.168 7.452 0 13.515 5.007 13.515 11.161 0 6.158-6.066 11.168-13.522 11.168-1.472 0-2.94-.203-4.375-.603-1.598 1.048-4.004 2.171-6.976 2.171zm-.126-2.309c-.055.09-.084.309.127.309 2.71 0 4.883-1.131 6.229-2.081.255-.179.575-.23.873-.138 1.39.432 2.819.651 4.249.651 6.353 0 11.522-4.113 11.522-9.168 0-5.051-5.166-9.161-11.515-9.161-6.353 0-11.522 4.113-11.522 9.168 0 1.979.8 3.877 2.314 5.491.261.278.341.68.206 1.036-.61 1.62-1.846 3.278-2.483 3.893z"
     fill="#145588"
     id="path14"
     style="fill:#43484a;fill-opacity:1" />
  <g
     fill="#fff"
     id="g22">
    <path
       d="m7.115 43.46c-.967 0-1.745.777-1.745 1.743s.778 1.743 1.745 1.743 1.745-.777 1.745-1.743c.007-.96-.778-1.743-1.745-1.743z"
       id="path16" />
    <path
       d="m13.237 43.46c-.967 0-1.745.777-1.745 1.743s.778 1.743 1.745 1.743 1.745-.777 1.745-1.743c0-.96-.778-1.743-1.745-1.743z"
       id="path18" />
    <path
       d="m19.352 43.46c-.967 0-1.745.777-1.745 1.743s.778 1.743 1.745 1.743 1.745-.777 1.745-1.743c.007-.96-.777-1.743-1.745-1.743z"
       id="path20" />
  </g>
  <ellipse
     cx="48.491"
     cy="46.505"
     fill="#ff5576"
     rx="10.509"
     ry="10.495"
     id="ellipse24"
     style="fill:#c2e7ee;fill-opacity:1" />
  <path
     d="m48.492 58c-6.346 0-11.509-5.157-11.509-11.495 0-6.339 5.163-11.496 11.509-11.496 6.345 0 11.508 5.157 11.508 11.496 0 6.338-5.163 11.495-11.508 11.495zm0-20.991c-5.244 0-9.509 4.26-9.509 9.496s4.265 9.495 9.509 9.495c5.243 0 9.508-4.259 9.508-9.495s-4.265-9.496-9.508-9.496z"
     fill="#145588"
     id="path26"
     style="fill:#43484a;fill-opacity:1" />
  <circle
     cx="48.492"
     cy="46.505"
     fill="#fff"
     r="7"
     id="circle28" />
  <path
     d="m45.27 41.664 7.51 4.841-7.51 4.84z"
     fill="#d22e55"
     id="path30"
     style="fill:#89d1df;fill-opacity:1" />
  <path
     d="m33.947 49.286h-4.606c-.553 0-1-.448-1-1s.447-1 1-1h4.606c.553 0 1 .448 1 1s-.447 1-1 1z"
     fill="#145588"
     id="path32"
     style="fill:#43484a;fill-opacity:1" />
  <path
     d="m42.602 33.505c.49-.259.667-.874.388-1.353l-2.68-4.606c-.276-.479-.889-.643-1.367-.365-.478.276-.642.888-.365 1.366l2.732 4.594c.264.447.833.607 1.292.364z"
     fill="#145588"
     id="path34"
     style="fill:#43484a;fill-opacity:1" />
  <path
     d="m18.017 32.452c.492.285 1.121.114 1.402-.379l2.006-3.525c.277-.478.113-1.09-.364-1.366-.481-.277-1.091-.112-1.366.365l-2.048 3.504c-.286.489-.12 1.117.37 1.401z"
     fill="#145588"
     id="path36"
     style="fill:#43484a;fill-opacity:1" />
</svg>
