<svg xmlns="http://www.w3.org/2000/svg" viewBox="0 0 60 60"><path d="M35.551 24.996h-11.88c-3.153 0-5.709-2.556-5.709-5.709V8.709C17.962 5.556 20.518 3 23.671 3h11.88c3.153 0 5.709 2.556 5.709 5.709v10.578c0 3.153-2.556 5.709-5.709 5.709z" fill="#fff"/><path d="M35.551 25.996H23.67c-3.699 0-6.708-3.01-6.708-6.709V8.709C16.963 5.01 19.971 2 23.67 2h11.881c3.699 0 6.709 3.01 6.709 6.709v10.578c0 3.699-3.01 6.709-6.709 6.709zM23.67 4c-2.596 0-4.708 2.112-4.708 4.709v10.578c0 2.597 2.112 4.709 4.708 4.709h11.881c2.597 0 4.709-2.112 4.709-4.709V8.709C40.26 6.112 38.148 4 35.551 4z" fill="#43484a"/><path d="M20.867 20.29V7.707c0-.944.765-1.709 1.709-1.709h14.071c.944 0 1.709.765 1.709 1.709v12.582c0 .944-.765 1.709-1.709 1.709H22.575c-.943 0-1.708-.765-1.708-1.708z" fill="#f3aabb"/><ellipse cx="29.611" cy="13.998" rx="4.206" ry="4.201" fill="#e75a7c"/><circle cx="35.724" cy="8.406" r="1.392" fill="#fff"/><path d="M13.534 34.467c-6.92 0-12.522 4.554-12.522 10.168 0 2.324.974 4.459 2.584 6.175-.724 1.926-2.246 3.561-2.273 3.574-.677.733-.159 1.98.852 1.98 3.01 0 5.378-1.257 6.805-2.263 1.414.439 2.936.696 4.546.696 6.92 0 12.522-4.554 12.522-10.168s-5.593-10.162-12.514-10.162z" fill="#95e000" fill-opacity=".48235"/><path d="M2.176 57.364c-1.829 0-2.954-2.409-1.536-3.709.251-.26 1.184-1.373 1.79-2.653C.845 49.117.012 46.929.012 44.635c0-6.158 6.066-11.168 13.522-11.168 7.452 0 13.515 5.007 13.515 11.161 0 6.158-6.066 11.168-13.522 11.168-1.472 0-2.94-.203-4.375-.603-1.598 1.048-4.004 2.171-6.976 2.171zm-.126-2.309c-.055.09-.084.309.127.309 2.71 0 4.883-1.131 6.229-2.081.255-.179.575-.23.873-.138 1.39.432 2.819.651 4.249.651 6.353 0 11.522-4.113 11.522-9.168 0-5.051-5.166-9.161-11.515-9.161-6.353 0-11.522 4.113-11.522 9.168 0 1.979.8 3.877 2.314 5.491.261.278.341.68.206 1.036-.61 1.62-1.846 3.278-2.483 3.893z" fill="#43484a"/><g fill="#fff"><path d="M7.115 43.46c-.967 0-1.745.777-1.745 1.743s.778 1.743 1.745 1.743 1.745-.777 1.745-1.743c.007-.96-.778-1.743-1.745-1.743zM13.237 43.46c-.967 0-1.745.777-1.745 1.743s.778 1.743 1.745 1.743 1.745-.777 1.745-1.743c0-.96-.778-1.743-1.745-1.743zM19.352 43.46c-.967 0-1.745.777-1.745 1.743s.778 1.743 1.745 1.743 1.745-.777 1.745-1.743c.007-.96-.777-1.743-1.745-1.743z"/></g><ellipse cx="48.491" cy="46.505" rx="10.509" ry="10.495" fill="#c2e7ee"/><path d="M48.492 58c-6.346 0-11.509-5.157-11.509-11.495 0-6.339 5.163-11.496 11.509-11.496C54.837 35.009 60 40.166 60 46.505 60 52.843 54.837 58 48.492 58zm0-20.991c-5.244 0-9.509 4.26-9.509 9.496S43.248 56 48.492 56C53.735 56 58 51.741 58 46.505s-4.265-9.496-9.508-9.496z" fill="#43484a"/><circle cx="48.492" cy="46.505" r="7" fill="#fff"/><path style="line-height:normal;font-variant-ligatures:normal;font-variant-position:normal;font-variant-caps:normal;font-variant-numeric:normal;font-variant-alternates:normal;font-feature-settings:normal;text-indent:0;text-align:start;text-decoration-line:none;text-decoration-style:solid;text-decoration-color:#000;text-transform:none;text-orientation:mixed;white-space:normal;shape-padding:0;isolation:auto;mix-blend-mode:normal;solid-color:#000;solid-opacity:1" d="M45.25781 41.19531a.4688.4688 0 00-.45703.46875v9.68164a.4688.4688 0 00.72266.39258l7.50976-4.83984a.4688.4688 0 000-.78711l-7.50976-4.8418a.4688.4688 0 00-.26563-.07422z" color="#000" font-weight="400" font-family="sans-serif" overflow="visible" fill="#89d1df"/><path d="M33.947 49.286h-4.606c-.553 0-1-.448-1-1s.447-1 1-1h4.606c.553 0 1 .448 1 1s-.447 1-1 1zM42.602 33.505c.49-.259.667-.874.388-1.353l-2.68-4.606c-.276-.479-.889-.643-1.367-.365-.478.276-.642.888-.365 1.366l2.732 4.594c.264.447.833.607 1.292.364zM18.017 32.452c.492.285 1.121.114 1.402-.379l2.006-3.525c.277-.478.113-1.09-.364-1.366-.481-.277-1.091-.112-1.366.365l-2.048 3.504c-.286.489-.12 1.117.37 1.401z" fill="#43484a"/></svg>