<?xml version="1.0" encoding="UTF-8" standalone="no"?>
<svg
   xmlns:dc="http://purl.org/dc/elements/1.1/"
   xmlns:cc="http://creativecommons.org/ns#"
   xmlns:rdf="http://www.w3.org/1999/02/22-rdf-syntax-ns#"
   xmlns:svg="http://www.w3.org/2000/svg"
   xmlns="http://www.w3.org/2000/svg"
   xmlns:sodipodi="http://sodipodi.sourceforge.net/DTD/sodipodi-0.dtd"
   xmlns:inkscape="http://www.inkscape.org/namespaces/inkscape"
   id="Layer_1"
   enable-background="new 0 0 60 60"
   height="512"
   viewBox="0 0 60 60"
   width="512"
   version="1.1"
   sodipodi:docname="012-startup.svg"
   inkscape:version="0.92.4 (5da689c313, 2019-01-14)">
  <metadata
     id="metadata33">
    <rdf:RDF>
      <cc:Work
         rdf:about="">
        <dc:format>image/svg+xml</dc:format>
        <dc:type
           rdf:resource="http://purl.org/dc/dcmitype/StillImage" />
      </cc:Work>
    </rdf:RDF>
  </metadata>
  <defs
     id="defs31" />
  <sodipodi:namedview
     pagecolor="#ffffff"
     bordercolor="#666666"
     borderopacity="1"
     objecttolerance="10"
     gridtolerance="10"
     guidetolerance="10"
     inkscape:pageopacity="0"
     inkscape:pageshadow="2"
     inkscape:window-width="1192"
     inkscape:window-height="755"
     id="namedview29"
     showgrid="false"
     inkscape:zoom="0.46093749"
     inkscape:cx="79.037527"
     inkscape:cy="206.88736"
     inkscape:window-x="0"
     inkscape:window-y="0"
     inkscape:window-maximized="0"
     inkscape:current-layer="Layer_1" />
  <path
     d="m4 44.469v5.237c0 .755.62 1.321 1.335 1.321h49.331c.763 0 1.335-.613 1.335-1.321v-5.237z"
     fill="#71c2ff"
     id="path2"
     style="fill:#c8ef7b;fill-opacity:1" />
  <path
     inkscape:connector-curvature="0"
     style="fill:#c2e7ee;fill-opacity:1"
     id="path4"
     d="m 56,18.614 c 0,-0.755 -0.667,-1.321 -1.382,-1.321 H 5.335 C 4.572,17.293 4,17.907 4,18.614 v 25.854 h 52 z" />
  <path
     style="fill:#ffffff"
     inkscape:connector-curvature="0"
     id="path6"
     d="m 51.907,30.447 c -1.617,0.984 -2.611,2.67 -2.778,4.477 -1.522,-0.241 -3.078,0.184 -4.124,1.215 -0.636,0.627 -1.05,1.449 -1.222,2.342 -2.004,-1.557 -4.732,-1.909 -6.829,-0.824 -1.538,0.796 -2.616,2.303 -3.032,4.029 -1.515,-1.151 -3.405,-1.651 -5.181,-1.289 -1.005,0.205 -1.926,0.686 -2.711,1.357 C 25.628,39.998 24.543,38.462 22.984,37.656 20.887,36.571 18.159,36.923 16.155,38.48 15.983,37.587 15.569,36.765 14.933,36.138 13.887,35.107 12.331,34.682 10.809,34.923 10.643,33.115 9.648,31.429 8.031,30.446 6.799,29.697 5.365,29.452 4,29.671 V 44.469 H 56 V 29.682 c -1.383,-0.237 -2.842,0.003 -4.093,0.765 z" />
  <path
     style="fill:#ffffff"
     inkscape:connector-curvature="0"
     id="path8"
     d="m 36.735,16.414 c -0.375,-0.4 -0.713,-0.611 -1.464,-0.754 -0.318,1.172 -0.722,2.316 -1.126,3.402 -0.231,0.658 -0.462,1.258 -0.693,1.83 2.316,0.028 3.753,3.008 3.869,3.323 -0.029,0.114 1.387,-6.007 -0.586,-7.801 z" />
  <path
     style="fill:#ffffff"
     inkscape:connector-curvature="0"
     id="path10"
     d="m 22.809,16.414 c 0.375,-0.4 1.158,-0.948 1.909,-1.091 0.318,1.172 0.722,2.316 1.126,3.402 0.231,0.658 0.462,1.258 0.693,1.83 -2.316,0.028 -4.198,3.345 -4.313,3.659 0.028,0.115 -1.388,-6.006 0.585,-7.8 z" />
  <path
     style="fill:#ffffff"
     inkscape:connector-curvature="0"
     id="path12"
     d="m 30.089,1 c -1.935,1.687 -6.123,5.775 -6.008,10.95 0.058,2.201 0.924,4.632 1.675,6.747 0.866,2.459 1.82,4.431 2.542,5.775 h 3.553 c 0.722,-1.344 1.704,-3.316 2.542,-5.775 0.751,-2.144 1.589,-4.546 1.675,-6.747 C 36.241,6.775 32.053,2.658 30.089,1 Z" />
  <path
     d="m31.851 25.472h-3.552c-.368 0-.707-.202-.881-.526-1-1.862-1.876-3.852-2.604-5.916-.789-2.221-1.67-4.705-1.731-7.054-.09-3.976 2.106-8.031 6.349-11.73.373-.324.925-.328 1.302-.01 2.443 2.063 6.514 6.332 6.333 11.747-.094 2.369-.963 4.853-1.731 7.045-.67 1.967-1.523 3.905-2.605 5.918-.174.324-.512.526-.88.526zm-2.95-2h2.347c.898-1.727 1.62-3.4 2.198-5.098.724-2.067 1.542-4.401 1.623-6.464.138-4.131-2.805-7.595-4.971-9.572-2.473 2.306-5.104 5.688-5.017 9.589.053 2.028.878 4.353 1.606 6.404.636 1.804 1.377 3.523 2.214 5.141z"
     fill="#145588"
     id="path16" />
  <path
     d="m27.081 11.95c-.058-2.659 1.011-5.032 2.34-6.947.697-1.011 1.46-1.878 2.17-2.602-.558-.565-1.084-1.05-1.502-1.401-.953.8-2.426 2.201-3.668 4.003-1.329 1.916-2.397 4.288-2.34 6.947.058 2.201.924 4.632 1.675 6.747.866 2.459 1.82 4.431 2.542 5.775h3c-.722-1.344-1.675-3.316-2.542-5.775-.75-2.116-1.617-4.546-1.675-6.747z"
     fill="#fcca3d"
     id="path18"
     style="fill:#c8ef7b;fill-opacity:1" />
  <path
     d="m 29.974,35.247 c -0.368,0 -0.706,-0.202 -0.88,-0.526 l -1.849,-3.43 c -0.548,-0.968 -0.543,-2.135 0.021,-3.104 0.564,-0.967 1.576,-1.544 2.708,-1.544 1.138,0 2.154,0.583 2.717,1.558 0.557,0.965 0.556,2.12 -0.003,3.087 l -1.832,3.43 c -0.169,0.317 -0.523,0.529 -0.882,0.529 z"
     id="path22"
     inkscape:connector-curvature="0"
     style="fill:#f3aabb;fill-opacity:1"
     sodipodi:nodetypes="scccscccs" />
  <ellipse
     cx="30.089"
     cy="10.835"
     fill="#ff5576"
     rx="1.935"
     ry="1.916"
     id="ellipse24"
     style="fill:#95e000;fill-opacity:0.48235294" />
  <path
     d="m54.618 16.293h-16.703c-.141-.217-.295-.421-.48-.594-.209-.214-.51-.434-.853-.635.256-1.025.444-2.06.484-3.071.109-2.508-.719-5.051-2.459-7.561-.001-.002-.003-.004-.005-.007-1.418-2.01-3.034-3.489-3.871-4.191-.372-.313-.914-.313-1.286 0-.844.708-2.467 2.197-3.847 4.198-1.725 2.487-2.572 5.024-2.517 7.543.024.926.179 1.873.402 2.817-.55.261-1.066.589-1.375.906-.185.173-.339.377-.48.594h-16.294c-1.287.001-2.334 1.042-2.334 2.322v31.091c0 1.28 1.047 2.321 2.334 2.321h18.637v5.974h-7.96c-.552 0-1 .448-1 1s.448 1 1 1h27.93c.552 0 1-.448 1-1s-.448-1-1-1h-8.771v-5.973h19.495c1.287 0 2.334-1.042 2.334-2.321v-31.092c.001-.141.001-2.321-2.381-2.321zm-18.622.797c.002.002.008.006.01.008.018.02.037.038.057.056.703.639.844 2.528.641 4.564-.507-.548-1.123-1.082-1.807-1.486.153-.401.303-.802.44-1.205.218-.624.444-1.274.659-1.937zm-5.907-14.759c.678.622 1.564 1.532 2.419 2.64h-4.818c.837-1.104 1.719-2.015 2.399-2.64zm-3.702 4.64h7.431c.896 1.669 1.321 3.325 1.251 4.939-.082 2.063-.899 4.397-1.623 6.464-.578 1.698-1.299 3.371-2.198 5.098h-2.347c-.837-1.619-1.578-3.337-2.214-5.141-.728-2.051-1.553-4.376-1.606-6.404-.035-1.627.407-3.289 1.306-4.956zm-2.905 10.183c.206-.155.347-.267.557-.392.247.775.515 1.537.775 2.268.11.313.247.611.364.92-.899.409-1.701 1.081-2.336 1.768-.205-2.036-.119-3.993.64-4.564zm9.688 40.846h-7.199v-5.973h7.199zm21.83-8.294c0 .158-.125.321-.334.321h-49.332c-.164 0-.334-.12-.334-.321v-4.237h50zm0-6.237h-50v-12.875c.889.006 1.758.249 2.512.707 1.3.791 2.16 2.179 2.301 3.714.051.564.594.986 1.152.896 1.246-.197 2.469.154 3.266.939.478.472.804 1.101.942 1.819.139.719 1.016 1.051 1.595.601 1.712-1.329 4.025-1.62 5.756-.725 1.258.65 2.181 1.902 2.531 3.432.164.72 1.063 1.017 1.625.537.679-.581 1.46-.974 2.262-1.137 1.46-.297 3.056.104 4.375 1.105.565.428 1.411.127 1.577-.562.363-1.504 1.281-2.735 2.52-3.375 1.732-.895 4.045-.604 5.756.725.579.45 1.457.119 1.596-.6s.465-1.348.943-1.819c.797-.786 2.016-1.137 3.265-.94.559.087 1.1-.333 1.152-.896.142-1.535 1.002-2.924 2.302-3.714.771-.471 1.648-.747 2.573-.707v12.875zm0-14.831c-1.275-.01-2.526.293-3.613.954-1.558.948-2.669 2.499-3.093 4.266-1.521.001-2.964.558-3.991 1.569-.441.435-.8.947-1.067 1.517-2.143-1.128-4.712-1.223-6.742-.175-1.373.71-2.463 1.911-3.112 3.392-1.525-.802-3.233-1.074-4.841-.743-.684.14-1.354.394-1.983.75-.645-1.484-1.735-2.686-3.114-3.399-2.027-1.048-4.597-.953-6.742.175-.267-.569-.626-1.082-1.067-1.518-1.027-1.012-2.469-1.568-3.991-1.569-.424-1.767-1.535-3.318-3.092-4.265-1.069-.649-2.298-.981-3.552-.987v-9.99c0-.158.125-.321.334-.321h15.567c-.391 2.276.113 5.053.341 6.116.201 1.021 1.531 1 1.92.15.19-.376 1.444-2.104 2.752-2.745.465 1.074.962 2.124 1.503 3.131.174.324.513.526.881.526h3.552c.368 0 .707-.202.881-.526.516-.961.977-1.904 1.394-2.842 1.114.771 2.09 2.128 2.256 2.455.402.825 1.715.892 1.92-.15.229-1.063.733-3.84.341-6.116h15.975c.507.04.352.521.382.614v9.731z"
     fill="#145588"
     id="path26"
     style="fill:#43484a;fill-opacity:1" />
  <rect
     style="fill:#ffffff;fill-opacity:0.48235294;stroke-width:0.10729115"
     id="rect853-0-5-1"
     width="34.875946"
     height="12.281378"
     x="-41.971874"
     y="97.26239" />
</svg>
