<?xml version="1.0" encoding="UTF-8" standalone="no"?>
<svg
   xmlns:dc="http://purl.org/dc/elements/1.1/"
   xmlns:cc="http://creativecommons.org/ns#"
   xmlns:rdf="http://www.w3.org/1999/02/22-rdf-syntax-ns#"
   xmlns:svg="http://www.w3.org/2000/svg"
   xmlns="http://www.w3.org/2000/svg"
   xmlns:sodipodi="http://sodipodi.sourceforge.net/DTD/sodipodi-0.dtd"
   xmlns:inkscape="http://www.inkscape.org/namespaces/inkscape"
   id="Layer_1"
   enable-background="new 0 0 124 124"
   height="512"
   viewBox="0 0 124 124"
   width="512"
   version="1.1"
   sodipodi:docname="009-study.svg"
   inkscape:version="0.92.4 (5da689c313, 2019-01-14)">
  <metadata
     id="metadata35">
    <rdf:RDF>
      <cc:Work
         rdf:about="">
        <dc:format>image/svg+xml</dc:format>
        <dc:type
           rdf:resource="http://purl.org/dc/dcmitype/StillImage" />
      </cc:Work>
    </rdf:RDF>
  </metadata>
  <defs
     id="defs33" />
  <sodipodi:namedview
     pagecolor="#ffffff"
     bordercolor="#666666"
     borderopacity="1"
     objecttolerance="10"
     gridtolerance="10"
     guidetolerance="10"
     inkscape:pageopacity="0"
     inkscape:pageshadow="2"
     inkscape:window-width="1508"
     inkscape:window-height="993"
     id="namedview31"
     showgrid="false"
     inkscape:zoom="0.65186406"
     inkscape:cx="294.24387"
     inkscape:cy="114.58573"
     inkscape:window-x="0"
     inkscape:window-y="0"
     inkscape:window-maximized="0"
     inkscape:current-layer="Layer_1" />
  <path
     style="color:#000000;font-style:normal;font-variant:normal;font-weight:normal;font-stretch:normal;font-size:medium;line-height:normal;font-family:sans-serif;font-variant-ligatures:normal;font-variant-position:normal;font-variant-caps:normal;font-variant-numeric:normal;font-variant-alternates:normal;font-feature-settings:normal;text-indent:0;text-align:start;text-decoration:none;text-decoration-line:none;text-decoration-style:solid;text-decoration-color:#000000;letter-spacing:normal;word-spacing:normal;text-transform:none;writing-mode:lr-tb;direction:ltr;text-orientation:mixed;dominant-baseline:auto;baseline-shift:baseline;text-anchor:start;white-space:normal;shape-padding:0;clip-rule:nonzero;display:inline;overflow:visible;visibility:visible;opacity:1;isolation:auto;mix-blend-mode:normal;color-interpolation:sRGB;color-interpolation-filters:linearRGB;solid-color:#000000;solid-opacity:1;vector-effect:none;fill:#43484a;fill-opacity:1;fill-rule:nonzero;stroke:none;stroke-width:3.875;stroke-linecap:butt;stroke-linejoin:round;stroke-miterlimit:4;stroke-dasharray:none;stroke-dashoffset:0;stroke-opacity:1;color-rendering:auto;image-rendering:auto;shape-rendering:auto;text-rendering:auto;enable-background:accumulate"
     d="m 60.519531,26.066406 a 1.9376937,1.9376937 0 0 0 -1.9375,1.9375 V 106 a 1.9376937,1.9376937 0 0 0 1.9375,1.9375 H 122.54688 A 1.9376937,1.9376937 0 0 0 124.48438,106 V 28.003906 a 1.9376937,1.9376937 0 0 0 -1.9375,-1.9375 z m 1.9375,3.875 H 120.60938 V 104.0625 H 62.457031 Z"
     id="path2"
     inkscape:connector-curvature="0" />
  <rect
     style="fill:#ffffff;fill-opacity:1;stroke:none;stroke-width:4.26017809;stroke-linecap:round;stroke-linejoin:round;stroke-miterlimit:4;stroke-dasharray:none;stroke-opacity:1"
     id="rect4620"
     width="60.033501"
     height="77.997002"
     x="-61.971001"
     y="-106"
     ry="0"
     transform="scale(-1)" />
  <rect
     style="fill:#c8ef7b;fill-opacity:1;stroke:none;stroke-width:3.40520501;stroke-linecap:round;stroke-linejoin:round;stroke-miterlimit:4;stroke-dasharray:none;stroke-opacity:1"
     id="rect875-9"
     width="47.626202"
     height="13.145658"
     x="67.329124"
     y="42.699955"
     transform="matrix(0.97778452,-0.20961257,0,1,0,0)" />
  <rect
     style="fill:#c8ef7b;fill-opacity:1;stroke:none;stroke-width:3.94440842;stroke-linecap:round;stroke-linejoin:round;stroke-miterlimit:4;stroke-dasharray:none;stroke-opacity:1"
     id="rect875"
     width="63.903278"
     height="13.145658"
     x="0"
     y="28.003" />
  <path
     style="color:#000000;font-style:normal;font-variant:normal;font-weight:normal;font-stretch:normal;font-size:medium;line-height:normal;font-family:sans-serif;font-variant-ligatures:normal;font-variant-position:normal;font-variant-caps:normal;font-variant-numeric:normal;font-variant-alternates:normal;font-feature-settings:normal;text-indent:0;text-align:start;text-decoration:none;text-decoration-line:none;text-decoration-style:solid;text-decoration-color:#000000;letter-spacing:normal;word-spacing:normal;text-transform:none;writing-mode:lr-tb;direction:ltr;text-orientation:mixed;dominant-baseline:auto;baseline-shift:baseline;text-anchor:start;white-space:normal;shape-padding:0;clip-rule:nonzero;display:inline;overflow:visible;visibility:visible;opacity:1;isolation:auto;mix-blend-mode:normal;color-interpolation:sRGB;color-interpolation-filters:linearRGB;solid-color:#000000;solid-opacity:1;vector-effect:none;fill:#43484a;fill-opacity:1;fill-rule:nonzero;stroke:none;stroke-width:3.875;stroke-linecap:butt;stroke-linejoin:round;stroke-miterlimit:4;stroke-dasharray:none;stroke-dashoffset:0;stroke-opacity:1;color-rendering:auto;image-rendering:auto;shape-rendering:auto;text-rendering:auto;enable-background:accumulate"
     d="M 1.9375,26.066406 A 1.9376937,1.9376937 0 0 0 0,28.003906 V 106 a 1.9376937,1.9376937 0 0 0 1.9375,1.9375 H 63.910156 A 1.9376937,1.9376937 0 0 0 65.847656,106 V 28.003906 a 1.9376937,1.9376937 0 0 0 -1.9375,-1.9375 z m 1.9375,3.875 H 61.972656 V 104.0625 H 3.875 Z"
     id="path4"
     inkscape:connector-curvature="0" />
  <path
     inkscape:connector-curvature="0"
     style="fill:#43484a;fill-opacity:1"
     id="path12"
     d="M 50.542,83.029 H 10.429 c -1.104,0 -2,-0.896 -2,-2 0,-1.104 0.896,-2 2,-2 h 40.113 c 1.104,0 2,0.896 2,2 0,1.104 -0.896,2 -2,2 z" />
  <path
     inkscape:connector-curvature="0"
     style="fill:#43484a;fill-opacity:1"
     id="path14"
     d="M 50.542,96.366 H 10.429 c -1.104,0 -2,-0.896 -2,-2 0,-1.104 0.896,-2 2,-2 h 40.113 c 1.104,0 2,0.896 2,2 0,1.104 -0.896,2 -2,2 z" />
  <path
     style="color:#000000;font-style:normal;font-variant:normal;font-weight:normal;font-stretch:normal;font-size:medium;line-height:normal;font-family:sans-serif;font-variant-ligatures:normal;font-variant-position:normal;font-variant-caps:normal;font-variant-numeric:normal;font-variant-alternates:normal;font-feature-settings:normal;text-indent:0;text-align:start;text-decoration:none;text-decoration-line:none;text-decoration-style:solid;text-decoration-color:#000000;letter-spacing:normal;word-spacing:normal;text-transform:none;writing-mode:lr-tb;direction:ltr;text-orientation:mixed;dominant-baseline:auto;baseline-shift:baseline;text-anchor:start;white-space:normal;shape-padding:0;clip-rule:nonzero;display:inline;overflow:visible;visibility:visible;opacity:1;isolation:auto;mix-blend-mode:normal;color-interpolation:sRGB;color-interpolation-filters:linearRGB;solid-color:#000000;solid-opacity:1;vector-effect:none;fill:#43484a;fill-opacity:1;fill-rule:nonzero;stroke:none;stroke-width:3.875;stroke-linecap:butt;stroke-linejoin:round;stroke-miterlimit:4;stroke-dasharray:none;stroke-dashoffset:0;stroke-opacity:1;color-rendering:auto;image-rendering:auto;shape-rendering:auto;text-rendering:auto;enable-background:accumulate"
     d="m 112.12695,16.0625 a 1.9376937,1.9376937 0 0 0 -0.33789,0.04102 L 63.515625,26.148438 a 1.9376937,1.9376937 0 0 0 -1.542969,1.896484 L 61.970703,106 a 1.9376937,1.9376937 0 0 0 2.314453,1.90039 l 48.275394,-9.591796 a 1.9376937,1.9376937 0 0 0 1.56054,-1.900391 V 28.003906 18 a 1.9376937,1.9376937 0 0 0 -1.99414,-1.9375 z m -1.88086,4.318359 v 7.623047 66.814453 l -44.400387,8.822261 0.002,-74.019526 z"
     id="path18"
     inkscape:connector-curvature="0" />
  <path
     d="m 72.3275,54.133 c -0.918,0 -1.745,-0.636 -1.951,-1.57 -0.238,-1.079 0.444,-2.146 1.522,-2.384 l 30.23203,-6.668 c 1.079,-0.237 2.146,0.444 2.384,1.522 0.238,1.079 -0.444,2.146 -1.522,2.384 L 72.7605,54.085 c -0.146,0.033 -0.291,0.048 -0.433,0.048 z"
     id="path22"
     style="fill:#43484a;fill-opacity:1"
     inkscape:connector-curvature="0" />
  <path
     d="m 72.3275,67.47 c -0.918,0 -1.745,-0.636 -1.951,-1.57 -0.238,-1.079 0.444,-2.146 1.522,-2.384 l 30.23203,-6.668 c 1.079,-0.237 2.146,0.444 2.384,1.522 0.238,1.079 -0.444,2.146 -1.522,2.384 L 72.7605,67.422 c -0.146,0.032 -0.291,0.048 -0.433,0.048 z"
     id="path24"
     style="fill:#43484a;fill-opacity:1"
     inkscape:connector-curvature="0" />
  <path
     d="m 72.3275,80.807 c -0.918,0 -1.745,-0.636 -1.951,-1.57 -0.238,-1.079 0.444,-2.146 1.522,-2.384 l 30.23203,-6.668 c 1.079,-0.237 2.146,0.443 2.384,1.522 0.238,1.079 -0.444,2.146 -1.522,2.384 L 72.7605,80.759 c -0.146,0.032 -0.291,0.048 -0.433,0.048 z"
     id="path26"
     style="fill:#43484a;fill-opacity:1"
     inkscape:connector-curvature="0" />
  <path
     d="m 72.3275,95.139 c -0.918,0 -1.745,-0.636 -1.951,-1.57 -0.238,-1.079 0.444,-2.146 1.522,-2.384 l 30.23203,-6.668 c 1.079,-0.237 2.146,0.444 2.384,1.522 0.238,1.079 -0.444,2.146 -1.522,2.384 L 72.7605,95.091 c -0.146,0.033 -0.291,0.048 -0.433,0.048 z"
     id="path28"
     style="fill:#43484a;fill-opacity:1"
     inkscape:connector-curvature="0" />
  <path
     style="color:#000000;font-style:normal;font-variant:normal;font-weight:normal;font-stretch:normal;font-size:medium;line-height:normal;font-family:sans-serif;font-variant-ligatures:normal;font-variant-position:normal;font-variant-caps:normal;font-variant-numeric:normal;font-variant-alternates:normal;font-feature-settings:normal;text-indent:0;text-align:start;text-decoration:none;text-decoration-line:none;text-decoration-style:solid;text-decoration-color:#000000;letter-spacing:normal;word-spacing:normal;text-transform:none;writing-mode:lr-tb;direction:ltr;text-orientation:mixed;dominant-baseline:auto;baseline-shift:baseline;text-anchor:start;white-space:normal;shape-padding:0;clip-rule:nonzero;display:inline;overflow:visible;visibility:visible;opacity:1;isolation:auto;mix-blend-mode:normal;color-interpolation:sRGB;color-interpolation-filters:linearRGB;solid-color:#000000;solid-opacity:1;vector-effect:none;fill:#43484a;fill-opacity:1;fill-rule:nonzero;stroke:none;stroke-width:3.875;stroke-linecap:round;stroke-linejoin:round;stroke-miterlimit:4;stroke-dasharray:none;stroke-dashoffset:0;stroke-opacity:1;color-rendering:auto;image-rendering:auto;shape-rendering:auto;text-rendering:auto;enable-background:accumulate"
     d="m 31.919922,52.443359 a 1.9376937,1.9376937 0 1 0 0,3.875 h 18.71875 a 1.9376937,1.9376937 0 1 0 0,-3.875 z"
     id="path879"
     inkscape:connector-curvature="0" />
  <path
     style="color:#000000;font-style:normal;font-variant:normal;font-weight:normal;font-stretch:normal;font-size:medium;line-height:normal;font-family:sans-serif;font-variant-ligatures:normal;font-variant-position:normal;font-variant-caps:normal;font-variant-numeric:normal;font-variant-alternates:normal;font-feature-settings:normal;text-indent:0;text-align:start;text-decoration:none;text-decoration-line:none;text-decoration-style:solid;text-decoration-color:#000000;letter-spacing:normal;word-spacing:normal;text-transform:none;writing-mode:lr-tb;direction:ltr;text-orientation:mixed;dominant-baseline:auto;baseline-shift:baseline;text-anchor:start;white-space:normal;shape-padding:0;clip-rule:nonzero;display:inline;overflow:visible;visibility:visible;opacity:1;isolation:auto;mix-blend-mode:normal;color-interpolation:sRGB;color-interpolation-filters:linearRGB;solid-color:#000000;solid-opacity:1;vector-effect:none;fill:#43484a;fill-opacity:1;fill-rule:nonzero;stroke:none;stroke-width:3.875;stroke-linecap:round;stroke-linejoin:round;stroke-miterlimit:4;stroke-dasharray:none;stroke-dashoffset:0;stroke-opacity:1;color-rendering:auto;image-rendering:auto;shape-rendering:auto;text-rendering:auto;enable-background:accumulate"
     d="m 31.787109,65.775391 a 1.9376937,1.9376937 0 1 0 0,3.875 h 18.71875 a 1.9376937,1.9376937 0 1 0 0,-3.875 z"
     id="path879-2"
     inkscape:connector-curvature="0" />
  <path
     style="color:#000000;font-style:normal;font-variant:normal;font-weight:normal;font-stretch:normal;font-size:medium;line-height:normal;font-family:sans-serif;font-variant-ligatures:normal;font-variant-position:normal;font-variant-caps:normal;font-variant-numeric:normal;font-variant-alternates:normal;font-feature-settings:normal;text-indent:0;text-align:start;text-decoration:none;text-decoration-line:none;text-decoration-style:solid;text-decoration-color:#000000;letter-spacing:normal;word-spacing:normal;text-transform:none;writing-mode:lr-tb;direction:ltr;text-orientation:mixed;dominant-baseline:auto;baseline-shift:baseline;text-anchor:start;white-space:normal;shape-padding:0;clip-rule:nonzero;display:inline;overflow:visible;visibility:visible;opacity:1;isolation:auto;mix-blend-mode:normal;color-interpolation:sRGB;color-interpolation-filters:linearRGB;solid-color:#000000;solid-opacity:1;vector-effect:none;fill:#f3aabb;fill-opacity:1;fill-rule:nonzero;stroke:none;stroke-width:3.875;stroke-linecap:round;stroke-linejoin:round;stroke-miterlimit:4;stroke-dasharray:none;stroke-dashoffset:0;stroke-opacity:1;color-rendering:auto;image-rendering:auto;shape-rendering:auto;text-rendering:auto;enable-background:accumulate"
     d="m 17.467796,51.152818 c -0.745708,-0.01452 -1.433556,0.400255 -1.768732,1.066549 l -1.91139,3.796625 -4.2112027,0.581156 c -1.5908633,0.218532 -2.24079,2.166234 -1.0999418,3.296308 l 3.0221995,2.989492 -0.751199,4.185447 c -0.283662,1.58099 1.368896,2.800823 2.796146,2.06397 l 3.779539,-1.949959 3.746803,2.007596 c 1.415677,0.758708 3.086772,-0.435409 2.827615,-2.020532 l -0.686483,-4.196477 3.066441,-2.944839 c 1.156794,-1.112324 0.53744,-3.068225 -1.04876,-3.311956 l -4.20195,-0.643607 -1.852776,-3.827387 c -0.317943,-0.656159 -0.977313,-1.078291 -1.706309,-1.092386 z"
     id="path898"
     inkscape:connector-curvature="0"
     sodipodi:nodetypes="ccccccccccccccccc" />
</svg>
