<svg xmlns="http://www.w3.org/2000/svg" viewBox="0 0 124 124"><path style="line-height:normal;font-variant-ligatures:normal;font-variant-position:normal;font-variant-caps:normal;font-variant-numeric:normal;font-variant-alternates:normal;font-feature-settings:normal;text-indent:0;text-align:start;text-decoration-line:none;text-decoration-style:solid;text-decoration-color:#000;text-transform:none;text-orientation:mixed;white-space:normal;shape-padding:0;isolation:auto;mix-blend-mode:normal;solid-color:#000;solid-opacity:1" d="M60.51953 26.0664a1.9377 1.9377 0 00-1.9375 1.9375V106a1.9377 1.9377 0 001.9375 1.9375h62.02735a1.9377 1.9377 0 001.9375-1.9375V28.0039a1.9377 1.9377 0 00-1.9375-1.9375zm1.9375 3.875h58.15235v74.1211H62.45703z" color="#000" font-weight="400" font-family="sans-serif" overflow="visible" fill="#43484a"/><rect width="60.0335" height="77.997" x="-61.971" y="-106" ry="0" transform="scale(-1)" fill="#fff"/><path fill="#c8ef7b" d="M65.83337 28.58693l46.56816-9.98305v13.14566l-46.56816 9.98305zM0 28.003h63.90328v13.14566H0z"/><path style="line-height:normal;font-variant-ligatures:normal;font-variant-position:normal;font-variant-caps:normal;font-variant-numeric:normal;font-variant-alternates:normal;font-feature-settings:normal;text-indent:0;text-align:start;text-decoration-line:none;text-decoration-style:solid;text-decoration-color:#000;text-transform:none;text-orientation:mixed;white-space:normal;shape-padding:0;isolation:auto;mix-blend-mode:normal;solid-color:#000;solid-opacity:1" d="M1.9375 26.0664A1.9377 1.9377 0 000 28.0039V106a1.9377 1.9377 0 001.9375 1.9375h61.97266A1.9377 1.9377 0 0065.84766 106V28.0039a1.9377 1.9377 0 00-1.9375-1.9375zm1.9375 3.875h58.09766v74.1211H3.875z" color="#000" font-weight="400" font-family="sans-serif" overflow="visible" fill="#43484a"/><path d="M50.542 83.029H10.429c-1.104 0-2-.896-2-2s.896-2 2-2h40.113c1.104 0 2 .896 2 2s-.896 2-2 2zM50.542 96.366H10.429c-1.104 0-2-.896-2-2s.896-2 2-2h40.113c1.104 0 2 .896 2 2s-.896 2-2 2z" fill="#43484a"/><path style="line-height:normal;font-variant-ligatures:normal;font-variant-position:normal;font-variant-caps:normal;font-variant-numeric:normal;font-variant-alternates:normal;font-feature-settings:normal;text-indent:0;text-align:start;text-decoration-line:none;text-decoration-style:solid;text-decoration-color:#000;text-transform:none;text-orientation:mixed;white-space:normal;shape-padding:0;isolation:auto;mix-blend-mode:normal;solid-color:#000;solid-opacity:1" d="M112.12695 16.0625a1.9377 1.9377 0 00-.33789.04102L63.51562 26.14844a1.9377 1.9377 0 00-1.54296 1.89648L61.9707 106a1.9377 1.9377 0 002.31446 1.90039l48.27539-9.5918a1.9377 1.9377 0 001.56054-1.90039V18a1.9377 1.9377 0 00-1.99414-1.9375zm-1.88086 4.31836v74.4375l-44.40039 8.82226.002-74.01953z" color="#000" font-weight="400" font-family="sans-serif" overflow="visible" fill="#43484a"/><path d="M72.3275 54.133c-.918 0-1.745-.636-1.951-1.57-.238-1.079.444-2.146 1.522-2.384l30.23203-6.668c1.079-.237 2.146.444 2.384 1.522.238 1.079-.444 2.146-1.522 2.384L72.7605 54.085c-.146.033-.291.048-.433.048zM72.3275 67.47c-.918 0-1.745-.636-1.951-1.57-.238-1.079.444-2.146 1.522-2.384l30.23203-6.668c1.079-.237 2.146.444 2.384 1.522.238 1.079-.444 2.146-1.522 2.384L72.7605 67.422c-.146.032-.291.048-.433.048zM72.3275 80.807c-.918 0-1.745-.636-1.951-1.57-.238-1.079.444-2.146 1.522-2.384l30.23203-6.668c1.079-.237 2.146.443 2.384 1.522s-.444 2.146-1.522 2.384L72.7605 80.759c-.146.032-.291.048-.433.048zM72.3275 95.139c-.918 0-1.745-.636-1.951-1.57-.238-1.079.444-2.146 1.522-2.384l30.23203-6.668c1.079-.237 2.146.444 2.384 1.522.238 1.079-.444 2.146-1.522 2.384L72.7605 95.091c-.146.033-.291.048-.433.048z" fill="#43484a"/><path style="line-height:normal;font-variant-ligatures:normal;font-variant-position:normal;font-variant-caps:normal;font-variant-numeric:normal;font-variant-alternates:normal;font-feature-settings:normal;text-indent:0;text-align:start;text-decoration-line:none;text-decoration-style:solid;text-decoration-color:#000;text-transform:none;text-orientation:mixed;white-space:normal;shape-padding:0;isolation:auto;mix-blend-mode:normal;solid-color:#000;solid-opacity:1" d="M31.91992 52.44336a1.9377 1.9377 0 100 3.875h18.71875a1.9377 1.9377 0 100-3.875zM31.7871 65.7754a1.9377 1.9377 0 100 3.875h18.71876a1.9377 1.9377 0 100-3.875z" color="#000" font-weight="400" font-family="sans-serif" overflow="visible" fill="#43484a"/><path style="line-height:normal;font-variant-ligatures:normal;font-variant-position:normal;font-variant-caps:normal;font-variant-numeric:normal;font-variant-alternates:normal;font-feature-settings:normal;text-indent:0;text-align:start;text-decoration-line:none;text-decoration-style:solid;text-decoration-color:#000;text-transform:none;text-orientation:mixed;white-space:normal;shape-padding:0;isolation:auto;mix-blend-mode:normal;solid-color:#000;solid-opacity:1" d="M17.4678 51.15282c-.74571-.01452-1.43356.40025-1.76874 1.06655l-1.91139 3.79662-4.2112.58116c-1.59086.21853-2.24079 2.16623-1.09994 3.2963l3.0222 2.9895-.7512 4.18544c-.28366 1.581 1.3689 2.80083 2.79615 2.06398l3.77953-1.94996 3.7468 2.0076c1.41568.7587 3.08678-.43542 2.82762-2.02054l-.68648-4.19648 3.06644-2.94484c1.1568-1.11232.53744-3.06822-1.04876-3.31195l-4.20195-.6436-1.85277-3.8274c-.31795-.65616-.97732-1.07829-1.70631-1.09238z" color="#000" font-weight="400" font-family="sans-serif" overflow="visible" fill="#f3aabb"/></svg>