<svg height="74" version="1.1" width="252" xmlns="http://www.w3.org/2000/svg" style="overflow: hidden; position: relative; left: -0.546875px;"><desc>Created with Raphaël 2.1.0</desc><defs><pattern id="FBA755DB-C5AA-419D-9770-3DEAF8293C16" x="0" y="0" patternUnits="userSpaceOnUse" height="500" width="500" patternTransform="matrix(1.3492,0,0,1.3492,0,0) translate(140.452,8.418999999999999)"><image x="0" y="0" xmlns:xlink="http://www.w3.org/1999/xlink" xlink:href="/wp-content/themes/gentle/images/bg-white-mezotint-tile.gif" width="500" height="500"></image></pattern><pattern id="B298C03D-3AC7-4ACA-9D0D-156FBAD81835" x="0" y="0" patternUnits="userSpaceOnUse" height="500" width="500" patternTransform="matrix(1.3492,0,0,1.3492,0,0) translate(6,25)"><image x="0" y="0" xmlns:xlink="http://www.w3.org/1999/xlink" xlink:href="/wp-content/themes/gentle/images/bg-white-mezotint-tile.gif" width="500" height="500"></image></pattern><pattern id="9379A598-3A4E-4C22-84FC-98B811A296A0" x="0" y="0" patternUnits="userSpaceOnUse" height="500" width="500" patternTransform="matrix(1.3492,0,0,1.3492,0,0) translate(51.653999999999996,6)"><image x="0" y="0" xmlns:xlink="http://www.w3.org/1999/xlink" xlink:href="/wp-content/themes/gentle/images/bg-white-mezotint-tile.gif" width="500" height="500"></image></pattern><pattern id="16E654FE-6EDD-4D21-966D-A5AF840E7234" x="0" y="0" patternUnits="userSpaceOnUse" height="500" width="500" patternTransform="matrix(1.3492,0,0,1.3492,0,0) translate(246.25700000000012,6)"><image x="0" y="0" xmlns:xlink="http://www.w3.org/1999/xlink" xlink:href="/wp-content/themes/gentle/images/bg-white-mezotint-tile.gif" width="500" height="500"></image></pattern><pattern id="8349B79C-604C-4EFB-B720-586FC041FEC9" x="0" y="0" patternUnits="userSpaceOnUse" height="500" width="500" patternTransform="matrix(1.3492,0,0,1.3492,0,0) translate(157.83499999999995,23.220000000000002)"><image x="0" y="0" xmlns:xlink="http://www.w3.org/1999/xlink" xlink:href="/wp-content/themes/gentle/images/bg-white-mezotint-tile.gif" width="500" height="500"></image></pattern><pattern id="5AB60777-E747-4341-8314-1EAB71EBA49B" x="0" y="0" patternUnits="userSpaceOnUse" height="500" width="500" patternTransform="matrix(1.3492,0,0,1.3492,0,0) translate(140.452,8.418999999999999)"><image x="0" y="0" xmlns:xlink="http://www.w3.org/1999/xlink" xlink:href="/wp-content/themes/gentle/images/bg-white-mezotint-tile.gif" width="500" height="500"></image></pattern><pattern id="0BC45523-F4AD-4F97-9A8C-6C2FAFB4FA76" x="0" y="0" patternUnits="userSpaceOnUse" height="500" width="500" patternTransform="matrix(1.3492,0,0,1.3492,0,0) translate(6,25)"><image x="0" y="0" xmlns:xlink="http://www.w3.org/1999/xlink" xlink:href="/wp-content/themes/gentle/images/bg-white-mezotint-tile.gif" width="500" height="500"></image></pattern><pattern id="5C4A5DEE-FDD8-4EC7-A733-596652FB692D" x="0" y="0" patternUnits="userSpaceOnUse" height="500" width="500" patternTransform="matrix(1.3492,0,0,1.3492,0,0) translate(51.653999999999996,6)"><image x="0" y="0" xmlns:xlink="http://www.w3.org/1999/xlink" xlink:href="/wp-content/themes/gentle/images/bg-white-mezotint-tile.gif" width="500" height="500"></image></pattern><pattern id="C823EA7C-AD54-42BD-AD86-6A70F92C219D" x="0" y="0" patternUnits="userSpaceOnUse" height="500" width="500" patternTransform="matrix(1.3492,0,0,1.3492,0,0) translate(246.25700000000012,6)"><image x="0" y="0" xmlns:xlink="http://www.w3.org/1999/xlink" xlink:href="/wp-content/themes/gentle/images/bg-white-mezotint-tile.gif" width="500" height="500"></image></pattern><pattern id="570C028E-F4D5-4C33-9411-2DB8A1FE2240" x="0" y="0" patternUnits="userSpaceOnUse" height="500" width="500" patternTransform="matrix(1.3492,0,0,1.3492,0,0) translate(157.83499999999995,23.220000000000002)"><image x="0" y="0" xmlns:xlink="http://www.w3.org/1999/xlink" xlink:href="/wp-content/themes/gentle/images/bg-white-mezotint-tile.gif" width="500" height="500"></image></pattern><pattern id="84D019D4-460E-455B-83E3-8C760A68EF00" x="0" y="0" patternUnits="userSpaceOnUse" height="500" width="500" patternTransform="matrix(1.3492,0,0,1.3492,0,0) translate(140.452,8.418999999999999)"><image x="0" y="0" xmlns:xlink="http://www.w3.org/1999/xlink" xlink:href="/wp-content/themes/gentle/images/bg-white-mezotint-tile.gif" width="500" height="500"></image></pattern><pattern id="A5A45A8E-366F-4797-BBDF-E09C249549BC" x="0" y="0" patternUnits="userSpaceOnUse" height="500" width="500" patternTransform="matrix(1.3492,0,0,1.3492,0,0) translate(6,25)"><image x="0" y="0" xmlns:xlink="http://www.w3.org/1999/xlink" xlink:href="/wp-content/themes/gentle/images/bg-white-mezotint-tile.gif" width="500" height="500"></image></pattern><pattern id="95F45778-4A54-4F0C-A0D2-147C399D8A81" x="0" y="0" patternUnits="userSpaceOnUse" height="500" width="500" patternTransform="matrix(1.3492,0,0,1.3492,0,0) translate(51.653999999999996,6)"><image x="0" y="0" xmlns:xlink="http://www.w3.org/1999/xlink" xlink:href="/wp-content/themes/gentle/images/bg-white-mezotint-tile.gif" width="500" height="500"></image></pattern><pattern id="3A4223A2-CDE7-4D38-95B5-372837B62FDB" x="0" y="0" patternUnits="userSpaceOnUse" height="500" width="500" patternTransform="matrix(1.3492,0,0,1.3492,0,0) translate(246.25700000000012,6)"><image x="0" y="0" xmlns:xlink="http://www.w3.org/1999/xlink" xlink:href="/wp-content/themes/gentle/images/bg-white-mezotint-tile.gif" width="500" height="500"></image></pattern><pattern id="740D6F28-DBF5-4A75-82A3-37843783592E" x="0" y="0" patternUnits="userSpaceOnUse" height="500" width="500" patternTransform="matrix(1.3492,0,0,1.3492,0,0) translate(157.83499999999995,23.220000000000002)"><image x="0" y="0" xmlns:xlink="http://www.w3.org/1999/xlink" xlink:href="/wp-content/themes/gentle/images/bg-white-mezotint-tile.gif" width="500" height="500"></image></pattern><pattern id="EA4DCCFB-4E8F-4AEE-BAB0-6AC7412310BF" x="0" y="0" patternUnits="userSpaceOnUse" height="500" width="500" patternTransform="matrix(1.3492,0,0,1.3492,0,0) translate(140.452,8.418999999999999)"><image x="0" y="0" xmlns:xlink="http://www.w3.org/1999/xlink" xlink:href="/wp-content/themes/gentle/images/bg-white-mezotint-tile.gif" width="500" height="500"></image></pattern><pattern id="A6EFF606-E64B-4659-82FF-ECBBC9D9EAAD" x="0" y="0" patternUnits="userSpaceOnUse" height="500" width="500" patternTransform="matrix(1.3492,0,0,1.3492,0,0) translate(6,25)"><image x="0" y="0" xmlns:xlink="http://www.w3.org/1999/xlink" xlink:href="/wp-content/themes/gentle/images/bg-white-mezotint-tile.gif" width="500" height="500"></image></pattern><pattern id="FA0C392D-C804-471D-8D61-5A48639A0ABD" x="0" y="0" patternUnits="userSpaceOnUse" height="500" width="500" patternTransform="matrix(1.3492,0,0,1.3492,0,0) translate(51.653999999999996,6)"><image x="0" y="0" xmlns:xlink="http://www.w3.org/1999/xlink" xlink:href="/wp-content/themes/gentle/images/bg-white-mezotint-tile.gif" width="500" height="500"></image></pattern><pattern id="BB994A0A-42EA-435A-B1C8-427CA6B4DEB2" x="0" y="0" patternUnits="userSpaceOnUse" height="500" width="500" patternTransform="matrix(1.3492,0,0,1.3492,0,0) translate(246.25700000000012,6)"><image x="0" y="0" xmlns:xlink="http://www.w3.org/1999/xlink" xlink:href="/wp-content/themes/gentle/images/bg-white-mezotint-tile.gif" width="500" height="500"></image></pattern><pattern id="A7E462B5-A191-48CB-A955-ABEF79B17A4F" x="0" y="0" patternUnits="userSpaceOnUse" height="500" width="500" patternTransform="matrix(1.3492,0,0,1.3492,0,0) translate(157.83499999999995,23.220000000000002)"><image x="0" y="0" xmlns:xlink="http://www.w3.org/1999/xlink" xlink:href="/wp-content/themes/gentle/images/bg-white-mezotint-tile.gif" width="500" height="500"></image></pattern><pattern id="CC306924-497A-4420-942C-CCC61697B043" x="0" y="0" patternUnits="userSpaceOnUse" height="500" width="500" patternTransform="matrix(1.3492,0,0,1.3492,0,0) translate(140.452,8.418999999999999)"><image x="0" y="0" xmlns:xlink="http://www.w3.org/1999/xlink" xlink:href="/wp-content/themes/gentle/images/bg-white-mezotint-tile.gif" width="500" height="500"></image></pattern><pattern id="6616304C-5D8A-4284-83EA-431E567C9D61" x="0" y="0" patternUnits="userSpaceOnUse" height="500" width="500" patternTransform="matrix(1.3492,0,0,1.3492,0,0) translate(6,25)"><image x="0" y="0" xmlns:xlink="http://www.w3.org/1999/xlink" xlink:href="/wp-content/themes/gentle/images/bg-white-mezotint-tile.gif" width="500" height="500"></image></pattern><pattern id="BF09B582-962E-45D9-9607-C69688B4A23C" x="0" y="0" patternUnits="userSpaceOnUse" height="500" width="500" patternTransform="matrix(1.3492,0,0,1.3492,0,0) translate(51.653999999999996,6)"><image x="0" y="0" xmlns:xlink="http://www.w3.org/1999/xlink" xlink:href="/wp-content/themes/gentle/images/bg-white-mezotint-tile.gif" width="500" height="500"></image></pattern><pattern id="688EEC74-98D1-434F-AF2C-3380CAD31BA2" x="0" y="0" patternUnits="userSpaceOnUse" height="500" width="500" patternTransform="matrix(1.3492,0,0,1.3492,0,0) translate(246.25700000000012,6)"><image x="0" y="0" xmlns:xlink="http://www.w3.org/1999/xlink" xlink:href="/wp-content/themes/gentle/images/bg-white-mezotint-tile.gif" width="500" height="500"></image></pattern><pattern id="029890E6-390B-4FEE-A539-5B907EEAE3A0" x="0" y="0" patternUnits="userSpaceOnUse" height="500" width="500" patternTransform="matrix(1.3492,0,0,1.3492,0,0) translate(157.83499999999995,23.220000000000002)"><image x="0" y="0" xmlns:xlink="http://www.w3.org/1999/xlink" xlink:href="/wp-content/themes/gentle/images/bg-white-mezotint-tile.gif" width="500" height="500"></image></pattern></defs><path fill="#3c3a32" stroke="#000000" d="M14.888,84.701H17.826999999999998L19.185,93.29599999999999H19.718999999999998L21.410999999999998,84.92399999999999H24.482999999999997L26.174999999999997,93.29599999999999H26.708999999999996L28.066999999999997,84.701H31.005999999999997L28.891,95.83399999999999H24.214999999999996L22.944999999999997,89.02099999999999L21.674999999999997,95.83399999999999H16.998999999999995L14.888,84.701Z" stroke-width="0" stroke-opacity="1" transform="matrix(0.7412,0,0,0.7412,0,0)" style=" stroke-opacity: 1;"></path><path fill="#3c3a32" stroke="#000000" d="M42.598,93.018C42.946999999999996,93.32300000000001,43.448,93.475,44.101,93.475C45.482,93.475,46.714,93.431,47.797,93.342L48.421,93.275L48.464999999999996,95.479C46.757999999999996,95.895,45.214,96.103,43.833999999999996,96.103C42.156,96.103,40.93899999999999,95.658,40.181999999999995,94.767C39.425,93.87599999999999,39.047,92.429,39.047,90.425C39.047,86.432,40.687,84.435,43.967999999999996,84.435C47.202999999999996,84.435,48.821999999999996,86.113,48.821999999999996,89.467L48.599,91.538H42.053C42.067,92.22,42.249,92.714,42.598,93.018ZM45.883,89.266C45.883,88.375,45.741,87.756,45.459,87.40700000000001S44.684000000000005,86.88400000000001,43.979000000000006,86.88400000000001S42.77700000000001,87.06600000000002,42.48700000000001,87.42900000000002C42.19800000000001,87.79300000000002,42.04600000000001,88.40600000000002,42.031000000000006,89.26600000000002H45.883Z" stroke-width="0" stroke-opacity="1" transform="matrix(0.7412,0,0,0.7412,0,0)" style=" stroke-opacity: 1;"></path><path fill="#3c3a32" stroke="#000000" d="M63.027,84.434C64.587,84.434,65.725,84.861,66.44500000000001,85.714C67.16600000000001,86.568,67.525,88.093,67.525,90.28999999999999C67.525,92.487,67.11,94.005,66.278,94.844C65.447,95.68299999999999,64.01400000000001,96.10199999999999,61.98100000000001,96.10199999999999C61.342000000000006,96.10199999999999,60.17700000000001,96.02799999999999,58.48500000000001,95.87899999999999L57.64,95.79V80.248H60.623V85.03500000000001C61.573,84.634,62.374,84.434,63.027,84.434ZM61.981,93.43C62.975,93.43,63.643,93.18900000000001,63.985,92.706C64.326,92.224,64.497,91.35900000000001,64.497,90.11200000000001C64.497,88.108,63.874,87.10600000000001,62.627,87.10600000000001C62.033,87.10600000000001,61.469,87.18100000000001,60.935,87.32900000000001L60.623000000000005,87.396V93.34100000000001C61.306,93.4,61.759,93.43,61.981,93.43Z" stroke-width="0" stroke-opacity="1" transform="matrix(0.7412,0,0,0.7412,0,0)" style=" stroke-opacity: 1;"></path><path fill="#3c3a32" stroke="#000000" d="M96.004,87.484C94.16300000000001,87.247,92.876,87.128,92.141,87.128C91.40700000000001,87.128,90.93100000000001,87.195,90.71600000000001,87.328C90.50000000000001,87.462,90.39300000000001,87.673,90.39300000000001,87.96300000000001S90.53900000000002,88.453,90.82800000000002,88.56400000000001S91.85900000000002,88.83900000000001,93.05500000000002,89.054C94.24900000000002,89.269,95.10000000000002,89.622,95.60500000000002,90.11200000000001C96.10900000000002,90.602,96.36200000000002,91.39600000000002,96.36200000000002,92.495C96.36200000000002,94.9,94.87000000000002,96.102,91.88600000000002,96.102C90.90700000000002,96.102,89.71800000000002,95.96900000000001,88.32400000000003,95.70100000000001L87.61100000000003,95.56800000000001L87.70000000000003,93.07400000000001C89.54100000000003,93.31200000000001,90.82100000000003,93.43,91.54200000000003,93.43C92.26200000000003,93.43,92.75100000000003,93.36000000000001,93.01100000000002,93.21900000000001S93.40100000000002,92.86600000000001,93.40100000000002,92.584C93.40100000000002,92.302,93.26400000000002,92.09400000000001,92.99000000000002,91.96000000000001C92.71500000000002,91.82700000000001,92.00300000000003,91.664,90.85200000000002,91.47000000000001C89.70200000000001,91.27700000000002,88.84400000000002,90.95000000000002,88.28000000000002,90.49100000000001S87.43400000000001,89.21000000000001,87.43400000000001,88.03100000000002C87.43400000000001,86.85100000000001,87.83400000000002,85.96000000000002,88.63600000000001,85.35900000000002C89.43800000000002,84.75800000000002,90.46900000000001,84.45700000000002,91.73100000000001,84.45700000000002C92.60700000000001,84.45700000000002,93.802,84.59900000000002,95.316,84.88000000000002L96.051,85.01400000000002L96.004,87.484Z" stroke-width="0" stroke-opacity="1" transform="matrix(0.7412,0,0,0.7412,0,0)" style=" stroke-opacity: 1;"></path><path fill="#3c3a32" stroke="#000000" d="M111.368,87.24H108.62899999999999V91.804C108.62899999999999,92.249,108.63999999999999,92.565,108.66199999999999,92.75C108.684,92.936,108.76599999999999,93.095,108.907,93.229C109.048,93.362,109.26599999999999,93.429,109.564,93.429L111.255,93.385L111.389,95.76700000000001C110.395,95.99000000000001,109.63799999999999,96.10100000000001,109.118,96.10100000000001C107.782,96.10100000000001,106.869,95.80100000000002,106.37899999999999,95.19900000000001C105.889,94.59800000000001,105.645,93.48900000000002,105.645,91.87000000000002V87.24H104.33099999999999V84.701H105.64499999999998V81.606H108.62799999999999V84.701H111.36699999999999V87.24Z" stroke-width="0" stroke-opacity="1" transform="matrix(0.7412,0,0,0.7412,0,0)" style=" stroke-opacity: 1;"></path><path fill="#3c3a32" stroke="#000000" d="M126.553,84.701H129.536V95.83399999999999H126.575V95.21C125.506,95.80399999999999,124.578,96.101,123.792,96.101C122.248,96.101,121.209,95.675,120.674,94.821C120.14,93.967,119.873,92.539,119.873,90.535V84.701H122.85600000000001V90.579C122.85600000000001,91.678,122.94500000000001,92.42699999999999,123.12400000000001,92.82799999999999C123.302,93.22899999999998,123.73200000000001,93.42899999999999,124.415,93.42899999999999C125.06800000000001,93.42899999999999,125.685,93.32499999999999,126.26400000000001,93.11699999999999L126.55300000000001,93.02799999999999V84.701Z" stroke-width="0" stroke-opacity="1" transform="matrix(0.7412,0,0,0.7412,0,0)" style=" stroke-opacity: 1;"></path><path fill="#3c3a32" stroke="#000000" d="M148.44,80.248V95.834H145.47899999999998V95.366C144.439,95.856,143.541,96.101,142.785,96.101C141.167,96.101,140.038,95.634,139.4,94.698C138.761,93.76299999999999,138.442,92.282,138.442,90.256S138.82500000000002,86.753,139.589,85.825C140.353,84.897,141.507,84.433,143.051,84.433C143.527,84.433,144.18699999999998,84.507,145.03199999999998,84.656L145.456,84.745V80.247H148.44ZM145.146,93.163L145.458,93.096V87.24C144.642,87.092,143.914,87.017,143.275,87.017C142.073,87.017,141.471,88.086,141.471,90.223C141.471,91.381,141.605,92.205,141.872,92.695C142.139,93.18499999999999,142.58,93.42999999999999,143.19600000000003,93.42999999999999S144.462,93.341,145.146,93.163Z" stroke-width="0" stroke-opacity="1" transform="matrix(0.7412,0,0,0.7412,0,0)" style=" stroke-opacity: 1;"></path><path fill="#3c3a32" stroke="#000000" d="M157.882,83.276V80.24799999999999H160.865V83.276H157.882ZM157.882,95.834V84.701H160.865V95.83399999999999H157.882Z" stroke-width="0" stroke-opacity="1" transform="matrix(0.7412,0,0,0.7412,0,0)" style=" stroke-opacity: 1;"></path><path fill="#3c3a32" stroke="#000000" d="M170.907,85.959C171.69400000000002,84.94200000000001,173.008,84.434,174.848,84.434S178.002,84.943,178.78900000000002,85.959C179.57500000000002,86.976,179.96900000000002,88.405,179.96900000000002,90.245C179.96900000000002,94.149,178.26200000000003,96.101,174.848,96.101S169.727,94.149,169.727,90.245C169.728,88.405,170.12,86.976,170.907,85.959ZM173.212,92.762C173.517,93.296,174.06199999999998,93.56400000000001,174.849,93.56400000000001S176.18099999999998,93.296,176.486,92.762C176.79,92.228,176.94199999999998,91.389,176.94199999999998,90.246S176.79,88.27199999999999,176.486,87.752C176.18099999999998,87.232,175.636,86.972,174.849,86.972S173.517,87.232,173.212,87.752S172.756,89.103,172.756,90.246S172.907,92.228,173.212,92.762Z" stroke-width="0" stroke-opacity="1" transform="matrix(0.7412,0,0,0.7412,0,0)" style=" stroke-opacity: 1;"></path><path fill="#3c3a32" stroke="#000000" d="M333.98,0H321.54200000000003H316V6.461V18.387999999999998C314,18.2,312.844,18.11,311.65,18.11C303.431,18.11,296.99899999999997,20.77,292.667,26.029C291.513,27.43,290.539,29.061,289.71299999999997,30.828C285.799,22.598,277.95899999999995,18.11,266.55299999999994,18.11C260.66799999999995,18.11,252.39699999999993,19.589,246.70699999999994,26.494L240.77299999999994,24.54L240.03299999999993,24.093C237.64399999999992,22.514,234.84599999999992,21.102,231.93999999999994,20.045C227.94999999999993,18.586000000000002,224.10499999999993,17.837000000000003,220.51899999999995,17.837000000000003C218.12999999999994,17.837000000000003,215.80999999999995,18.171000000000003,213.62599999999995,18.822000000000003C208.49899999999994,20.368000000000002,204.61399999999995,24.023000000000003,201.89599999999996,29.481C201.40399999999997,28.330000000000002,200.88399999999996,27.229000000000003,200.25699999999995,26.251C197.86199999999994,22.536,192.84499999999994,17.997,182.56399999999994,17.997C180.29799999999994,17.997,177.95899999999995,18.001,175.54799999999994,19.001H170.96199999999993H159H158.682L158.62699999999998,15.648000000000001C158.93599999999998,11.975000000000001,158.01799999999997,5.867000000000001,148.75599999999997,4.143000000000001C147.62099999999998,3.940000000000001,146.56499999999997,3.8530000000000006,145.58199999999997,3.8530000000000006L144.67499999999995,3.9630000000000005C144.11599999999996,4.008000000000001,143.58799999999997,4.103000000000001,143.08799999999997,4.207000000000001C142.21299999999997,4.390000000000001,141.35299999999995,4.6930000000000005,140.53699999999998,5.1160000000000005C140.05299999999997,5.364000000000001,139.56799999999998,5.630000000000001,139.18299999999996,5.939C138.47999999999996,6.477,137.86099999999996,7.141,137.09099999999995,8.199L136.45599999999996,9.153C135.75999999999996,10.436,135.39399999999995,11.700000000000001,135.10399999999996,13.235C134.969,13.963,135,15.22,135,15.22V19.092V19.561V22.482C132,20.082,127.55799999999999,18.11,120.72,18.11C118.892,18.11,117,18.351,115,18.826999999999998V6.461V0H108.868H96.434H91V6.461V22.475C88,20.073,83.391,17.996000000000002,76.553,17.996000000000002C74.28699999999999,17.996000000000002,71.764,18.000000000000004,69.354,19.000000000000004H64.769H52.424H52.107H46.625H46.308H33.871H28V25.028000000000002V55.345C27,55.533,25.98,55.616,24.925,55.616C24.810000000000002,55.616,24.59,55.616,24.491,55.606C24.317,54.642,24,52.799,24,49.533V25.028V19H18.461H6.02H0V25.028V49.352999999999994C0,58.901999999999994,1.49,65.75099999999999,4.339,70.297C7.686,75.63799999999999,13.768,78.22999999999999,22.305999999999997,78.22999999999999C24.479999999999997,78.22999999999999,26.808999999999997,77.999,29.211,76.999H33.961999999999996H46.306999999999995H46.623999999999995H52.105999999999995H52.422999999999995H64.859H71V71.442V41.081C72,40.925000000000004,72.575,40.855000000000004,73.481,40.855000000000004C73.708,40.855000000000004,73.56299999999999,40.873000000000005,73.699,40.882000000000005C73.948,41.643,74,43.326,74,46.653V71.443V77H80.27H90.634H92.711H96.434H98.512H108.868H115V71.443V41.053C116,40.925,116.596,40.855999999999995,117.485,40.855999999999995C117.713,40.855999999999995,117.566,40.873999999999995,117.701,40.882999999999996C117.951,41.632999999999996,118,43.30199999999999,118,46.56399999999999V71.44399999999999V77H124.28H134.652H136.72099999999998H140.45099999999996H142.51999999999995H152.81699999999995H152.88499999999996H158.61699999999996H158.68499999999997H171.04999999999998H177V71.443V41.081C178,40.925000000000004,178.672,40.855000000000004,179.58,40.855000000000004C179.805,40.855000000000004,180.11100000000002,40.873000000000005,180.246,40.882000000000005C180.496,41.642,181,43.325,181,46.653000000000006V71.44300000000001V77H185.467C185.79100000000003,80,187.08200000000002,83.693,189.56900000000002,86.316C193.13500000000002,90.053,198.47500000000002,93.244,205.924,95.958C211.172,97.877,216.053,98.874,220.428,98.874C222.344,98.874,224.213,98.702,225.965,98.341C232.651,96.94399999999999,237.508,92.59599999999999,240.008,85.73899999999999C242.5,78.90299999999999,242.192,73.178,239.078,68.68799999999999C237.898,66.98799999999999,236.244,65.40299999999999,234.053,63.886999999999986C234.502,63.78599999999999,234.932,63.68399999999998,235.35399999999998,63.554999999999986C237.612,62.874999999999986,239.59199999999998,61.573999999999984,241.39899999999997,59.92599999999999C242.38699999999997,64.30899999999998,243.97499999999997,67.94999999999999,246.33099999999996,70.73899999999999C250.62799999999996,75.79199999999999,257.239,78.35199999999999,265.98699999999997,78.35199999999999C272.17999999999995,78.35199999999999,279.13699999999994,77.42199999999998,286.65299999999996,75.59299999999999L291.17799999999994,74.49999999999999L291.08799999999997,69.84699999999998L291.07399999999996,69.19199999999998C291.234,69.43399999999998,291.33799999999997,69.74399999999999,291.49399999999997,69.97599999999998C295.289,75.53799999999998,301.64599999999996,78.23099999999998,310.404,78.23099999999998C312.65999999999997,78.23099999999998,315.049,77.99999999999999,317.61899999999997,76.99999999999999H321.633H333.981H340V71.44299999999998V6.461V0H333.98ZM226.428,41.527C226.17,42.235,225.944,42.663000000000004,225.793,42.92C225.42000000000002,42.886,224.787,42.75,223.793,42.399C222.799,42.042,222.227,41.71,221.92000000000002,41.51C221.959,41.211999999999996,222.06300000000002,40.726,222.31500000000003,40.041C222.56900000000002,39.339999999999996,222.79900000000004,38.907,222.96300000000002,38.637C223.371,38.69,223.99400000000003,38.819,224.96300000000002,39.158C225.95700000000002,39.533,226.52900000000002,39.849000000000004,226.836,40.065C226.797,40.363,226.682,40.832,226.428,41.527ZM316,55.328C315,55.526,313.438,55.623000000000005,312.29,55.623000000000005C311.915,55.623000000000005,311.719,55.571000000000005,311.719,55.571000000000005C311.662,55.300000000000004,310.836,53.285000000000004,310.836,47.81C310.836,41.63,312.195,40,312.213,40C312.27500000000003,40,312.348,40,312.41,40C313.52500000000003,40,315,40.561,316,40.668V55.328Z" stroke-width="0" stroke-opacity="1" transform="matrix(0.7412,0,0,0.7412,0,0)" style=" stroke-opacity: 1;"></path><path fill="#95e000" stroke="#000000" d="M152.832,14.176C153.066,11.42,152.244,9.449,147.697,8.604C146.941,8.468,146.23,8.418999999999999,145.568,8.418999999999999C144.80200000000002,8.540999999999999,144.53900000000002,8.599999999999998,144.28300000000002,8.659999999999998C143.888,8.740999999999998,143.526,8.878999999999998,143.179,9.051999999999998C142.469,9.495999999999999,142.226,9.787999999999998,141.94,10.186999999999998C141.154,11.417999999999997,140.877,12.243999999999998,140.701,13.180999999999997C140.60299999999998,13.687999999999997,140.519,13.986999999999998,140.49699999999999,14.454999999999998L140.452,19H152.887L152.832,14.176Z" stroke-width="0" stroke-opacity="1" transform="matrix(0.7412,0,0,0.7412,0,0)" style=" stroke-opacity: 1; fill-opacity: 1;" fill-opacity="1"></path><path fill="#95e000" stroke="#000000" d="M34,25V59.749L32.727,60.117000000000004C30.316999999999997,60.984,27.717,61.415000000000006,24.991999999999997,61.415000000000006C22.142999999999997,61.415000000000006,20.104999999999997,60.578,19.357,58.906000000000006C18.618,57.24,18,54.11,18,49.533V25H6V49.354C6,57.706,7.127,63.664,9.356,67.22C11.585,70.777,15.937000000000001,72.554,22.374000000000002,72.554C25.649,72.554,29.999000000000002,71.319,33.999,68.84400000000001V71H47.075L46.305,25H34Z" stroke-width="0" stroke-opacity="1" transform="matrix(0.7412,0,0,0.7412,0,0)" style=" stroke-opacity: 1; fill-opacity: 1;" fill-opacity="1"></path><path fill="#95e000" stroke="#000000" d="M140,25V31.5C142,35.498,142.296,40.335,142.296,46.286C142.296,46.286,144.003,67.598,136.608,63.709C137.96,62.036,137.048,46.286,137.048,46.286C137.048,38.669000000000004,135.513,33.041000000000004,133.163,29.393C130.806,25.740000000000002,126.62,23.911,120.433,23.911C117.03500000000001,23.911,112.99900000000001,25.028000000000002,108.99900000000001,27.257V6H96V31.479C98,35.476,98.295,40.317,98.295,46.286C98.295,46.286,99.129,67.557,92.987,63.709C93.65299999999999,61.755,93.041,46.286,93.041,46.286C93.041,38.669000000000004,91.505,33.041000000000004,89.15599999999999,29.393C86.79799999999999,25.740000000000002,82.66099999999999,23.911,76.472,23.911C72.94699999999999,23.911,67.999,25.028000000000002,64.999,28.398000000000003V25H52.424L51.653999999999996,71H65.62899999999999L64.859,36.501L65.976,36.244C68.326,35.373,70.773,34.999,73.31099999999999,34.999C76.092,34.999,77.949,35.97,78.87799999999999,37.861000000000004C79.80799999999999,39.745000000000005,80.26899999999999,42.46300000000001,80.26899999999999,46.418000000000006L79.498,71H88.72200000000001H92.71100000000001H96.43400000000001H102.501H109.63900000000001L108.86800000000001,36.321L110.078,36.053999999999995C112.494,35.315,114.904,34.998999999999995,117.321,34.998999999999995C120.101,34.998999999999995,121.961,35.96999999999999,122.888,37.861C123.81800000000001,39.745,124.28,42.425,124.28,46.327999999999996L123.508,71H133.488H136.721H140.451H147.266H153.655L152.885,25H140Z" stroke-width="0" stroke-opacity="1" transform="matrix(0.7412,0,0,0.7412,0,0)" style=" stroke-opacity: 1; fill-opacity: 1;" fill-opacity="1"></path><path fill="#95e000" stroke="#000000" d="M334.75,71L333.98,6H322V25.209L320.006,24.849C316.477,24.231,313.618,23.911,311.638,23.911C305.193,23.911,300.375,25.844,297.188,29.713C294.557,32.899,291.702,37.626000000000005,291.702,43.918C291.702,44.046,291.641,46.001,291.641,46.001H287.86400000000003L287.77400000000006,45.032C287.77400000000006,31.041999999999994,280.0300000000001,23.978999999999996,266.53800000000007,23.978999999999996C260.71600000000007,23.978999999999996,256.2100000000001,25.544999999999995,252.86600000000007,28.567999999999998L254.36200000000008,29.044999999999998L260.0440000000001,30.906999999999996L257.9930000000001,36.523999999999994L254.57900000000012,45.858999999999995L252.42700000000013,51.773999999999994L247.94300000000013,49.708999999999996C247.44500000000014,51.056,246.8450000000001,52.193999999999996,246.25700000000012,53.36C246.74500000000012,59.394,248.21000000000012,63.981,250.75900000000013,66.982C253.91500000000013,70.702,258.98900000000015,72.555,265.9880000000001,72.555C271.7340000000001,72.555,278.1740000000001,71.69500000000001,285.2910000000001,69.962L285.1070000000001,60.771L282.50700000000006,61.048C277.9890000000001,61.416000000000004,272.8550000000001,61.607,267.09700000000004,61.607C264.374,61.607,262.285,60.716,260.83500000000004,59.442C259.375,58.17,258.619,56,258.559,53H285.84400000000005H285.85600000000005H291.63500000000005C292.09400000000005,59,294.23300000000006,63.438,296.297,66.478C298.951,70.374,303.84000000000003,72.43599999999999,310.588,72.43599999999999C313.742,72.43599999999999,317,71.332,322,69.28899999999999V71H334.75ZM258.566,45C258.628,41,259.263,38.889,260.472,37.383C261.681,35.853,263.751,35.115,266.68699999999995,35.115C269.626,35.115,271.68699999999995,35.818000000000005,272.86699999999996,37.275000000000006C274.039,38.732000000000006,274.62699999999995,41.00000000000001,274.62699999999995,45.00000000000001H258.566ZM320.517,60.312C317.669,61.053999999999995,314.862,61.425,312.295,61.425C309.72700000000003,61.425,307.841,60.401999999999994,306.728,58.364999999999995C305.619,56.31699999999999,305.034,52.882,305.034,48.062C305.034,39.144,307.715,34.689,312.726,34.689C315.386,34.689,318,35.001,322,35.619V60.027L320.517,60.312Z" stroke-width="0" stroke-opacity="1" transform="matrix(0.7412,0,0,0.7412,0,0)" style=" stroke-opacity: 1; fill-opacity: 1;" fill-opacity="1"></path><path fill="#95e000" stroke="#000000" d="M249.052,43.449L253.16899999999998,32.397999999999996L239.069,30.497999999999998C239.069,30.497999999999998,238.637,29.836,236.96499999999997,28.653C234.73499999999999,27.075,232.37099999999998,25.985,229.87899999999996,25.079C228.31999999999996,24.514,226.82599999999996,24.104,225.37699999999995,23.795C224.90599999999995,23.694000000000003,224.46299999999997,23.66,224.00999999999996,23.584000000000003C223.02799999999996,23.431000000000004,222.06899999999996,23.327,221.13899999999995,23.296000000000003C220.91199999999995,23.289,220.66199999999995,23.220000000000002,220.43799999999996,23.220000000000002C220.23299999999995,23.220000000000002,220.05299999999997,23.296000000000003,219.84799999999996,23.306C218.23699999999997,23.355,216.66599999999997,23.525000000000002,215.20699999999997,23.962C210.95499999999996,25.246,207.80699999999996,28.66,205.77899999999997,34.205C203.74999999999997,39.765,204.19299999999996,44.684,207.11099999999996,48.97L205.88,49.9C203.161,51.946999999999996,201.591,53.543,201.165,54.705999999999996C200.077,57.672999999999995,200.34099999999998,60.282,201.958,62.51C195.003,64.262,194.73499999999999,57.531,195.37199999999999,54.077999999999996C195.47,53.76199999999999,195.48499999999999,53.483999999999995,195.60399999999998,53.153999999999996C196.249,51.398999999999994,197.52599999999998,49.705999999999996,199.731,47.76499999999999C198.983,45.599999999999994,198.62,43.336999999999996,198.63299999999998,40.98499999999999C198.63299999999998,40.98199999999999,198.61899999999997,40.98199999999999,198.61899999999997,40.974999999999994C198.20299999999997,35.803999999999995,197.10699999999997,31.786999999999992,195.29499999999996,28.974999999999994C192.93799999999996,25.321999999999996,188.73099999999997,23.492999999999995,182.54099999999997,23.492999999999995C179.01599999999996,23.492999999999995,174.99899999999997,25.116999999999994,170.99899999999997,27.594999999999995V25H158.60499999999996L157.83499999999995,71H172.51299999999995L170.96999999999994,36.292L172.08899999999994,35.93C174.43899999999994,35.059,176.88399999999993,34.632,179.42499999999995,34.632C182.20399999999995,34.632,184.06199999999995,35.576,184.99099999999996,37.467999999999996C185.92099999999996,39.352,186.37999999999997,42.266,186.37999999999997,46.221L185.63,71H191.792C190.312,76,190.909,79.081,193.694,82.019C196.581,85.039,201.28799999999998,87.75800000000001,207.827,90.14500000000001C209.891,90.89800000000001,211.833,91.421,213.714,91.84100000000001C214.23499999999999,91.959,214.749,92.05000000000001,215.253,92.141C216.75099999999998,92.408,218.177,92.55900000000001,219.55399999999997,92.604C219.80399999999997,92.615,220.09899999999996,92.687,220.34699999999998,92.687C220.45199999999997,92.687,220.53499999999997,92.66,220.63199999999998,92.66C222.05399999999997,92.642,223.41299999999998,92.52499999999999,224.69799999999998,92.258C229.403,91.273,232.66699999999997,88.3,234.47899999999998,83.33699999999999C236.291,78.365,236.21699999999998,74.448,234.231,71.582C232.243,68.723,227.60399999999998,65.91799999999999,220.301,63.184C216.65099999999998,61.793,214.40599999999998,60.738,213.539,60.027C212.68499999999997,59.315,212.43499999999997,58.486000000000004,212.783,57.529C213.131,56.564,213.869,55.432,215.004,54.134C215.971,54.752,217.117,55.304,218.44899999999998,55.793C220.367,56.497,222.12699999999998,56.983,223.81199999999998,57.368C224.302,57.479,224.76299999999998,57.556000000000004,225.23199999999997,57.639C226.44099999999997,57.858000000000004,227.58899999999997,57.993,228.66999999999996,58.032000000000004C228.92599999999996,58.050000000000004,229.24399999999997,58.129000000000005,229.49999999999997,58.129000000000005C229.64299999999997,58.129000000000005,229.74999999999997,58.077000000000005,229.89299999999997,58.077000000000005C231.23699999999997,58.050000000000004,232.49999999999997,57.91400000000001,233.60999999999999,57.577000000000005C237.38699999999997,56.446000000000005,240.33499999999998,52.986000000000004,242.456,47.17100000000001C243.183,45.190000000000005,243.265,42.983000000000004,242.706,40.53600000000001L249.052,43.449ZM215.64,72.951C218.99499999999998,74.234,221.117,75.29299999999999,221.999,76.10799999999999C222.892,76.92999999999999,223.042,78.11399999999999,222.47,79.689C222.183,80.46199999999999,221.685,81.02499999999999,221.04,81.43799999999999C220.831,81.56599999999999,220.511,81.60099999999998,220.265,81.698C219.749,81.886,219.206,82.059,218.527,82.08399999999999C218.414,82.091,218.351,82.14899999999999,218.238,82.14899999999999C217.756,82.14899999999999,217.15,82.02099999999999,216.599,81.948C216.24499999999998,81.89899999999999,215.93699999999998,81.89599999999999,215.55599999999998,81.81599999999999C214.39399999999998,81.573,213.12599999999998,81.222,211.68099999999998,80.692C205.54799999999997,78.44699999999999,202.94099999999997,76.077,203.855,73.579C204.48999999999998,71.83,205.88,70.463,208.017,69.467L215.64,72.951ZM230.938,42.998C230.588,43.958999999999996,230.14499999999998,44.711999999999996,229.643,45.367999999999995C229.508,45.556,229.35,45.714999999999996,229.2,45.885C228.784,46.326,228.321,46.684,227.82299999999998,46.954C227.659,47.044000000000004,227.50699999999998,47.158,227.33299999999997,47.228C226.70799999999997,47.484,226.02599999999998,47.644,225.27099999999996,47.644C225.22599999999997,47.644,225.17299999999994,47.613,225.12799999999996,47.613C224.15899999999996,47.599,223.09699999999995,47.408,221.92699999999996,46.971C217.47599999999997,45.354,216.03199999999995,42.407999999999994,217.59899999999996,38.132C217.94299999999996,37.175,218.39199999999997,36.418,218.88799999999995,35.759C219.02499999999995,35.571,219.17499999999995,35.412,219.33299999999994,35.245C219.74899999999994,34.800999999999995,220.20999999999995,34.44,220.70799999999994,34.163C220.87599999999995,34.083,221.01699999999994,33.968999999999994,221.19199999999995,33.901999999999994C221.82699999999994,33.641999999999996,222.49899999999994,33.48199999999999,223.25299999999996,33.48199999999999C223.29999999999995,33.48199999999999,223.35299999999995,33.51699999999999,223.39799999999997,33.51699999999999C224.37299999999996,33.53399999999999,225.43699999999995,33.72499999999999,226.60899999999998,34.15899999999999C231.052,35.784,232.493,38.727,230.938,42.998Z" stroke-width="0" stroke-opacity="1" transform="matrix(0.7412,0,0,0.7412,0,0)" style=" stroke-opacity: 1; fill-opacity: 1;" fill-opacity="1"></path><path fill="none" stroke="#000000" d="M152.832,14.176C153.066,11.42,152.244,9.449,147.697,8.604C146.941,8.468,146.23,8.418999999999999,145.568,8.418999999999999C144.80200000000002,8.540999999999999,144.53900000000002,8.599999999999998,144.28300000000002,8.659999999999998C143.888,8.740999999999998,143.526,8.878999999999998,143.179,9.051999999999998C142.469,9.495999999999999,142.226,9.787999999999998,141.94,10.186999999999998C141.154,11.417999999999997,140.877,12.243999999999998,140.701,13.180999999999997C140.60299999999998,13.687999999999997,140.519,13.986999999999998,140.49699999999999,14.454999999999998L140.452,19H152.887L152.832,14.176Z" fill-opacity="" opacity="0.1" stroke-width="0" stroke-opacity="1" transform="matrix(0.7412,0,0,0.7412,0,0)" style=" opacity: 0.1; stroke-opacity: 1;"></path><path fill="#000000" stroke="#000000" d="M34,25V59.749L32.727,60.117000000000004C30.316999999999997,60.984,27.717,61.415000000000006,24.991999999999997,61.415000000000006C22.142999999999997,61.415000000000006,20.104999999999997,60.578,19.357,58.906000000000006C18.618,57.24,18,54.11,18,49.533V25H6V49.354C6,57.706,7.127,63.664,9.356,67.22C11.585,70.777,15.937000000000001,72.554,22.374000000000002,72.554C25.649,72.554,29.999000000000002,71.319,33.999,68.84400000000001V71H47.075L46.305,25H34Z" fill-opacity="0" opacity="0" stroke-width="0" transform="matrix(0.7412,0,0,0.7412,0,0)" style=" opacity: 0;"></path><path fill="#000000" stroke="#000000" d="M140,25V31.5C142,35.498,142.296,40.335,142.296,46.286C142.296,46.286,144.003,67.598,136.608,63.709C137.96,62.036,137.048,46.286,137.048,46.286C137.048,38.669000000000004,135.513,33.041000000000004,133.163,29.393C130.806,25.740000000000002,126.62,23.911,120.433,23.911C117.03500000000001,23.911,112.99900000000001,25.028000000000002,108.99900000000001,27.257V6H96V31.479C98,35.476,98.295,40.317,98.295,46.286C98.295,46.286,99.129,67.557,92.987,63.709C93.65299999999999,61.755,93.041,46.286,93.041,46.286C93.041,38.669000000000004,91.505,33.041000000000004,89.15599999999999,29.393C86.79799999999999,25.740000000000002,82.66099999999999,23.911,76.472,23.911C72.94699999999999,23.911,67.999,25.028000000000002,64.999,28.398000000000003V25H52.424L51.653999999999996,71H65.62899999999999L64.859,36.501L65.976,36.244C68.326,35.373,70.773,34.999,73.31099999999999,34.999C76.092,34.999,77.949,35.97,78.87799999999999,37.861000000000004C79.80799999999999,39.745000000000005,80.26899999999999,42.46300000000001,80.26899999999999,46.418000000000006L79.498,71H88.72200000000001H92.71100000000001H96.43400000000001H102.501H109.63900000000001L108.86800000000001,36.321L110.078,36.053999999999995C112.494,35.315,114.904,34.998999999999995,117.321,34.998999999999995C120.101,34.998999999999995,121.961,35.96999999999999,122.888,37.861C123.81800000000001,39.745,124.28,42.425,124.28,46.327999999999996L123.508,71H133.488H136.721H140.451H147.266H153.655L152.885,25H140Z" fill-opacity="0" opacity="0" stroke-width="0" transform="matrix(0.7412,0,0,0.7412,0,0)" style=" opacity: 0;"></path><path fill="#000000" stroke="#000000" d="M334.75,71L333.98,6H322V25.209L320.006,24.849C316.477,24.231,313.618,23.911,311.638,23.911C305.193,23.911,300.375,25.844,297.188,29.713C294.557,32.899,291.702,37.626000000000005,291.702,43.918C291.702,44.046,291.641,46.001,291.641,46.001H287.86400000000003L287.77400000000006,45.032C287.77400000000006,31.041999999999994,280.0300000000001,23.978999999999996,266.53800000000007,23.978999999999996C260.71600000000007,23.978999999999996,256.2100000000001,25.544999999999995,252.86600000000007,28.567999999999998L254.36200000000008,29.044999999999998L260.0440000000001,30.906999999999996L257.9930000000001,36.523999999999994L254.57900000000012,45.858999999999995L252.42700000000013,51.773999999999994L247.94300000000013,49.708999999999996C247.44500000000014,51.056,246.8450000000001,52.193999999999996,246.25700000000012,53.36C246.74500000000012,59.394,248.21000000000012,63.981,250.75900000000013,66.982C253.91500000000013,70.702,258.98900000000015,72.555,265.9880000000001,72.555C271.7340000000001,72.555,278.1740000000001,71.69500000000001,285.2910000000001,69.962L285.1070000000001,60.771L282.50700000000006,61.048C277.9890000000001,61.416000000000004,272.8550000000001,61.607,267.09700000000004,61.607C264.374,61.607,262.285,60.716,260.83500000000004,59.442C259.375,58.17,258.619,56,258.559,53H285.84400000000005H285.85600000000005H291.63500000000005C292.09400000000005,59,294.23300000000006,63.438,296.297,66.478C298.951,70.374,303.84000000000003,72.43599999999999,310.588,72.43599999999999C313.742,72.43599999999999,317,71.332,322,69.28899999999999V71H334.75ZM258.566,45C258.628,41,259.263,38.889,260.472,37.383C261.681,35.853,263.751,35.115,266.68699999999995,35.115C269.626,35.115,271.68699999999995,35.818000000000005,272.86699999999996,37.275000000000006C274.039,38.732000000000006,274.62699999999995,41.00000000000001,274.62699999999995,45.00000000000001H258.566ZM320.517,60.312C317.669,61.053999999999995,314.862,61.425,312.295,61.425C309.72700000000003,61.425,307.841,60.401999999999994,306.728,58.364999999999995C305.619,56.31699999999999,305.034,52.882,305.034,48.062C305.034,39.144,307.715,34.689,312.726,34.689C315.386,34.689,318,35.001,322,35.619V60.027L320.517,60.312Z" fill-opacity="0" opacity="0" stroke-width="0" transform="matrix(0.7412,0,0,0.7412,0,0)" style=" opacity: 0;"></path><path fill="#000000" stroke="#000000" d="M249.052,43.449L253.16899999999998,32.397999999999996L239.069,30.497999999999998C239.069,30.497999999999998,238.637,29.836,236.96499999999997,28.653C234.73499999999999,27.075,232.37099999999998,25.985,229.87899999999996,25.079C228.31999999999996,24.514,226.82599999999996,24.104,225.37699999999995,23.795C224.90599999999995,23.694000000000003,224.46299999999997,23.66,224.00999999999996,23.584000000000003C223.02799999999996,23.431000000000004,222.06899999999996,23.327,221.13899999999995,23.296000000000003C220.91199999999995,23.289,220.66199999999995,23.220000000000002,220.43799999999996,23.220000000000002C220.23299999999995,23.220000000000002,220.05299999999997,23.296000000000003,219.84799999999996,23.306C218.23699999999997,23.355,216.66599999999997,23.525000000000002,215.20699999999997,23.962C210.95499999999996,25.246,207.80699999999996,28.66,205.77899999999997,34.205C203.74999999999997,39.765,204.19299999999996,44.684,207.11099999999996,48.97L205.88,49.9C203.161,51.946999999999996,201.591,53.543,201.165,54.705999999999996C200.077,57.672999999999995,200.34099999999998,60.282,201.958,62.51C195.003,64.262,194.73499999999999,57.531,195.37199999999999,54.077999999999996C195.47,53.76199999999999,195.48499999999999,53.483999999999995,195.60399999999998,53.153999999999996C196.249,51.398999999999994,197.52599999999998,49.705999999999996,199.731,47.76499999999999C198.983,45.599999999999994,198.62,43.336999999999996,198.63299999999998,40.98499999999999C198.63299999999998,40.98199999999999,198.61899999999997,40.98199999999999,198.61899999999997,40.974999999999994C198.20299999999997,35.803999999999995,197.10699999999997,31.786999999999992,195.29499999999996,28.974999999999994C192.93799999999996,25.321999999999996,188.73099999999997,23.492999999999995,182.54099999999997,23.492999999999995C179.01599999999996,23.492999999999995,174.99899999999997,25.116999999999994,170.99899999999997,27.594999999999995V25H158.60499999999996L157.83499999999995,71H172.51299999999995L170.96999999999994,36.292L172.08899999999994,35.93C174.43899999999994,35.059,176.88399999999993,34.632,179.42499999999995,34.632C182.20399999999995,34.632,184.06199999999995,35.576,184.99099999999996,37.467999999999996C185.92099999999996,39.352,186.37999999999997,42.266,186.37999999999997,46.221L185.63,71H191.792C190.312,76,190.909,79.081,193.694,82.019C196.581,85.039,201.28799999999998,87.75800000000001,207.827,90.14500000000001C209.891,90.89800000000001,211.833,91.421,213.714,91.84100000000001C214.23499999999999,91.959,214.749,92.05000000000001,215.253,92.141C216.75099999999998,92.408,218.177,92.55900000000001,219.55399999999997,92.604C219.80399999999997,92.615,220.09899999999996,92.687,220.34699999999998,92.687C220.45199999999997,92.687,220.53499999999997,92.66,220.63199999999998,92.66C222.05399999999997,92.642,223.41299999999998,92.52499999999999,224.69799999999998,92.258C229.403,91.273,232.66699999999997,88.3,234.47899999999998,83.33699999999999C236.291,78.365,236.21699999999998,74.448,234.231,71.582C232.243,68.723,227.60399999999998,65.91799999999999,220.301,63.184C216.65099999999998,61.793,214.40599999999998,60.738,213.539,60.027C212.68499999999997,59.315,212.43499999999997,58.486000000000004,212.783,57.529C213.131,56.564,213.869,55.432,215.004,54.134C215.971,54.752,217.117,55.304,218.44899999999998,55.793C220.367,56.497,222.12699999999998,56.983,223.81199999999998,57.368C224.302,57.479,224.76299999999998,57.556000000000004,225.23199999999997,57.639C226.44099999999997,57.858000000000004,227.58899999999997,57.993,228.66999999999996,58.032000000000004C228.92599999999996,58.050000000000004,229.24399999999997,58.129000000000005,229.49999999999997,58.129000000000005C229.64299999999997,58.129000000000005,229.74999999999997,58.077000000000005,229.89299999999997,58.077000000000005C231.23699999999997,58.050000000000004,232.49999999999997,57.91400000000001,233.60999999999999,57.577000000000005C237.38699999999997,56.446000000000005,240.33499999999998,52.986000000000004,242.456,47.17100000000001C243.183,45.190000000000005,243.265,42.983000000000004,242.706,40.53600000000001L249.052,43.449ZM215.64,72.951C218.99499999999998,74.234,221.117,75.29299999999999,221.999,76.10799999999999C222.892,76.92999999999999,223.042,78.11399999999999,222.47,79.689C222.183,80.46199999999999,221.685,81.02499999999999,221.04,81.43799999999999C220.831,81.56599999999999,220.511,81.60099999999998,220.265,81.698C219.749,81.886,219.206,82.059,218.527,82.08399999999999C218.414,82.091,218.351,82.14899999999999,218.238,82.14899999999999C217.756,82.14899999999999,217.15,82.02099999999999,216.599,81.948C216.24499999999998,81.89899999999999,215.93699999999998,81.89599999999999,215.55599999999998,81.81599999999999C214.39399999999998,81.573,213.12599999999998,81.222,211.68099999999998,80.692C205.54799999999997,78.44699999999999,202.94099999999997,76.077,203.855,73.579C204.48999999999998,71.83,205.88,70.463,208.017,69.467L215.64,72.951ZM230.938,42.998C230.588,43.958999999999996,230.14499999999998,44.711999999999996,229.643,45.367999999999995C229.508,45.556,229.35,45.714999999999996,229.2,45.885C228.784,46.326,228.321,46.684,227.82299999999998,46.954C227.659,47.044000000000004,227.50699999999998,47.158,227.33299999999997,47.228C226.70799999999997,47.484,226.02599999999998,47.644,225.27099999999996,47.644C225.22599999999997,47.644,225.17299999999994,47.613,225.12799999999996,47.613C224.15899999999996,47.599,223.09699999999995,47.408,221.92699999999996,46.971C217.47599999999997,45.354,216.03199999999995,42.407999999999994,217.59899999999996,38.132C217.94299999999996,37.175,218.39199999999997,36.418,218.88799999999995,35.759C219.02499999999995,35.571,219.17499999999995,35.412,219.33299999999994,35.245C219.74899999999994,34.800999999999995,220.20999999999995,34.44,220.70799999999994,34.163C220.87599999999995,34.083,221.01699999999994,33.968999999999994,221.19199999999995,33.901999999999994C221.82699999999994,33.641999999999996,222.49899999999994,33.48199999999999,223.25299999999996,33.48199999999999C223.29999999999995,33.48199999999999,223.35299999999995,33.51699999999999,223.39799999999997,33.51699999999999C224.37299999999996,33.53399999999999,225.43699999999995,33.72499999999999,226.60899999999998,34.15899999999999C231.052,35.784,232.493,38.727,230.938,42.998Z" fill-opacity="0" opacity="0" stroke-width="0" transform="matrix(0.7412,0,0,0.7412,0,0)" style=" opacity: 0;"></path></svg>
