<?xml version="1.0" encoding="UTF-8" standalone="no"?>
<!-- Created with Inkscape (http://www.inkscape.org/) -->

<svg
   xmlns:dc="http://purl.org/dc/elements/1.1/"
   xmlns:cc="http://creativecommons.org/ns#"
   xmlns:rdf="http://www.w3.org/1999/02/22-rdf-syntax-ns#"
   xmlns:svg="http://www.w3.org/2000/svg"
   xmlns="http://www.w3.org/2000/svg"
   xmlns:sodipodi="http://sodipodi.sourceforge.net/DTD/sodipodi-0.dtd"
   xmlns:inkscape="http://www.inkscape.org/namespaces/inkscape"
   width="798.36493"
   height="318.00858"
   id="svg2"
   version="1.1"
   inkscape:version="0.48.3.1 r9886"
   sodipodi:docname="long_Island.svg">
  <defs
     id="defs4" />
  <sodipodi:namedview
     id="base"
     pagecolor="#ffffff"
     bordercolor="#666666"
     borderopacity="1.0"
     inkscape:pageopacity="0.0"
     inkscape:pageshadow="2"
     inkscape:zoom="1"
     inkscape:cx="452.23477"
     inkscape:cy="152.34235"
     inkscape:document-units="px"
     inkscape:current-layer="layer1"
     showgrid="false"
     inkscape:window-width="1920"
     inkscape:window-height="1176"
     inkscape:window-x="0"
     inkscape:window-y="24"
     inkscape:window-maximized="1"
     fit-margin-top="0"
     fit-margin-left="0"
     fit-margin-right="0"
     fit-margin-bottom="0" />
  <metadata
     id="metadata7">
    <rdf:RDF>
      <cc:Work
         rdf:about="">
        <dc:format>image/svg+xml</dc:format>
        <dc:type
           rdf:resource="http://purl.org/dc/dcmitype/StillImage" />
        <dc:title />
      </cc:Work>
    </rdf:RDF>
  </metadata>
  <g
     inkscape:label="Layer 1"
     inkscape:groupmode="layer"
     id="layer1"
     transform="translate(1.4670221,-539.6585)">
    <path
       style="fill:#c8cbd5;fill-opacity:1"
       d="M 706.09375 9.03125 L 704.5625 9.625 C 703.70893 9.95255 703 10.37759 703 10.59375 C 703 11.40366 704.91274 10.95021 705.5 10 L 706.09375 9.03125 z M 689.03125 15.03125 C 688.49805 15.049191 687.86018 15.40984 687.4375 16.09375 L 686.78125 17.1875 L 683.5 16.5625 L 680.25 15.96875 L 676.125 18.65625 C 673.85705 20.14112 672 21.68817 672 22.09375 C 672 22.49933 672.9928 23.96741 674.21875 25.34375 C 675.44469 26.7201 676.73395 27.67181 677.0625 27.46875 C 677.39104 27.2657 678.44925 25.37226 679.40625 23.25 L 681.125 19.375 L 685.5625 18.1875 L 690 17 L 690 16 C 690 15.330325 689.56445 15.013309 689.03125 15.03125 z M 665.75 29.3125 L 661.625 29.5 L 657.5 29.6875 L 654.6875 31.0625 L 651.84375 32.40625 L 649.9375 31.21875 L 648.03125 30 L 644.03125 31.625 L 640 33.21875 L 640 34.125 L 640 35 L 638.40625 35 L 636.78125 35 L 634.8125 37.5 L 632.84375 40 L 630.5 40 L 628.125 40 L 627.59375 39.15625 L 627.0625 38.28125 L 624.4375 38.78125 L 621.84375 39.28125 L 620.84375 41.875 C 619.54615 45.28794 617.04514 48.01288 614.21875 49.09375 L 611.96875 49.96875 L 610.90625 52.75 C 609.39923 56.71377 607.14972 58.90259 601.78125 61.625 L 597.0625 64 L 593.125 64 L 589.1875 64 L 587.03125 68.15625 C 585.84319 70.4356 583.7049 73.82099 582.28125 75.6875 L 579.71875 79.09375 L 572.09375 82.53125 C 561.94338 87.1392 560.93987 87.77026 555.375 93 C 552.7414 95.475 550.32936 97.51615 550.03125 97.53125 C 549.73314 97.54639 547.925 99.07221 546 100.90625 L 542.5 104.21875 L 537 106.6875 C 533.975 108.03791 529.475 110.03607 527 111.125 L 522.5 113.09375 L 510 114 L 497.5 114.875 L 488 117.5625 L 478.5 120.25 L 470.34375 120.15625 L 462.21875 120.0625 L 457.9375 119.09375 L 453.65625 118.15625 L 444.09375 120.1875 L 434.5 122.21875 L 423 121.375 L 411.5 120.53125 L 393.25 120.8125 L 375 121.0625 L 370.0625 118.9375 L 365.15625 116.8125 L 363.3125 117.875 L 361.5 118.9375 L 363.5 119.09375 C 364.6 119.17595 365.85912 119.17255 366.3125 119.09375 L 367.15625 118.96875 L 366.5 120.03125 L 365.84375 121.0625 L 367.84375 124.46875 C 368.94171 126.32966 369.60609 128.05016 369.34375 128.3125 C 369.08141 128.57485 365.97948 127.18743 362.4375 125.21875 L 356 121.625 L 356 120.6875 L 356 119.75 L 359.0625 120.375 L 362.09375 120.96875 L 361.5 120 L 360.875 119 L 359.0625 119 L 357.28125 119 L 354.5625 116.875 L 351.875 114.75 L 349.125 117.375 L 346.375 120 L 342.1875 120 L 338 120 L 338 120.9375 C 338 121.44163 339.08878 122.67913 340.40625 123.6875 L 342.78125 125.5 L 342.28125 131.25 L 341.75 136.96875 L 336.25 139.5 C 333.22585 140.8845 330.24603 141.99957 329.625 142 C 329.00396 142.00043 325.66774 143.35357 322.1875 145 L 315.84375 148 L 308.6875 146.375 C 304.74274 145.48932 298.95595 143.70324 295.84375 142.40625 C 292.73155 141.10926 287.1415 139.44922 283.4375 138.6875 L 276.71875 137.28125 L 273.875 138.34375 L 271.03125 139.4375 L 266.5 137.21875 L 261.9375 135 L 261.375 136.5 L 260.78125 138 L 259.40625 138 L 258 138 L 258 137 L 258 136 L 259.4375 136 C 260.23004 136 261.1768 135.54226 261.53125 134.96875 L 262.15625 133.9375 L 258.53125 129.46875 L 254.875 125 L 253.4375 125 L 252.03125 125 L 251.5625 127.25 C 251.30786 128.4875 250.9164 132.875 250.6875 137 L 250.28125 144.5 L 251.21875 141.75 L 252.15625 139 L 253.5 139 L 254.84375 139 L 255.25 140.25 L 255.6875 141.5 L 257.28125 140.15625 L 258.90625 138.84375 L 259.96875 139.46875 L 261 140.125 L 261 139.0625 L 261 138 L 262.3125 138 C 263.02784 138 264.80129 138.5625 266.28125 139.25 L 268.96875 140.5 L 269 142.5625 L 269 144.59375 L 267.8125 145.78125 L 266.65625 146.96875 L 267.84375 149.53125 L 269 152.125 L 267.96875 154.09375 L 266.90625 156.0625 L 265.96875 155.5 L 265.03125 154.90625 L 266.25 153 L 267.4375 151.0625 L 264.375 148.0625 L 261.28125 145.0625 L 260.65625 145.6875 C 260.3019 146.04185 260 147.17916 260 148.1875 C 260 150.42421 259.5917 150.44278 256.53125 148.4375 L 254.125 146.875 L 251.96875 148.03125 L 249.8125 149.1875 L 243.9375 148.5 L 238.09375 147.8125 L 236.9375 146.4375 L 235.78125 145.03125 L 236.34375 143.53125 L 236.9375 142 L 238.46875 142 L 240 142 L 240 143.21875 L 240 144.40625 L 241.1875 143.21875 C 241.83891 142.56734 242.44975 141.1379 242.53125 140.03125 L 242.65625 138 L 240.84375 136.375 L 239 134.71875 L 236.25 134.5 C 234.73386 134.39303 232.53575 134.24235 231.375 134.15625 L 229.28125 134 L 225.71875 131.59375 L 222.15625 129.1875 L 220.71875 130.84375 L 219.25 132.5 L 218.5625 136.34375 L 217.875 140.15625 L 219.09375 141.625 C 219.75819 142.42561 221.81295 146.05509 223.65625 149.71875 L 227 156.40625 L 227 159.625 L 227 162.875 L 228.5 164.375 L 230 165.875 L 229.09375 166.4375 L 228.15625 167.03125 L 226.8125 165.6875 C 226.06931 164.94431 224.4449 163.78122 223.21875 163.125 L 221 161.9375 L 221 159.5625 C 221 158.25184 220.7401 156.46373 220.40625 155.59375 L 219.78125 154 L 216.90625 154 L 214 154 L 213.875 155.75 C 213.72077 158.02923 213.74293 158.10858 214.5 161.125 L 215.125 163.6875 L 212.3125 163.34375 C 210.762 163.15649 207.86597 162.73465 205.875 162.40625 L 202.25 161.8125 L 201.0625 157.875 L 199.90625 153.90625 L 200.5 151.96875 L 201.125 150 L 202.40625 150 L 203.6875 150 L 205.46875 148.03125 L 207.28125 146.0625 L 208.125 146.59375 L 209 147.125 L 209 149.4375 L 209 151.75 L 207 154.28125 C 205.9 155.67967 205 157.25677 205 157.78125 L 205 158.71875 L 207.5 158.25 L 210 157.78125 L 210 155.96875 C 210 154.97785 210.2599 153.46373 210.59375 152.59375 L 211.21875 151 L 213.09375 151 L 215 151 L 215 150 C 215 149.44499 213.71574 147.66311 212.15625 146.03125 L 209.34375 143.0625 L 205.4375 145.03125 C 200.72793 147.43232 199.60052 147.48342 196.03125 145.375 L 193.25 143.71875 L 190.90625 145.375 L 188.5625 147 L 186.40625 147 L 184.25 147 L 183 148.5 L 181.75 150 L 179.5625 150 L 177.40625 150 L 176.21875 151.1875 L 175.0625 152.34375 L 172.6875 151.28125 L 170.28125 150.1875 L 167.90625 154.21875 C 166.58869 156.4338 164.65178 159.14905 163.625 160.25 L 161.78125 162.25 L 162.4375 166.875 C 162.80232 169.42322 163.16929 174.31243 163.28125 177.75 L 163.5 184 L 162.8125 184 C 162.43048 183.99993 160.3395 181.0205 158.15625 177.375 L 154.15625 170.75 L 147.59375 167.96875 L 141 165.1875 L 140.4375 166.09375 L 139.875 167 L 137.8125 167 L 135.78125 167 L 136.25 169.59375 L 136.75 172.15625 L 134.84375 173.9375 L 132.9375 175.71875 L 134.46875 176.96875 L 136 178.25 L 136.125 180.875 L 136.21875 183.5 L 136.65625 181.90625 L 137.09375 180.3125 L 139.5625 180.78125 C 140.9209 181.04092 142.24677 181.63344 142.53125 182.09375 L 143.0625 182.90625 L 144.5625 182.34375 L 146.03125 181.78125 L 145 184.46875 L 144 187.1875 L 144.53125 188.0625 L 145.0625 188.9375 L 144.125 190.71875 C 143.61293 191.70363 142.72559 193.625 142.15625 195 L 141.125 197.5 L 141.0625 194.1875 L 141 190.875 L 139.96875 188.9375 C 139.3994 187.87366 138.4753 187 137.90625 187 C 137.3372 187 134.82986 185.61674 132.34375 183.90625 L 127.8125 180.78125 L 126.875 181.75 L 125.9375 182.6875 L 126.90625 185.21875 L 127.875 187.78125 L 125.5 189.8125 L 123.15625 191.875 L 123.6875 193.96875 L 124.25 196.0625 L 126.125 197.09375 L 128.03125 198.09375 L 127.8125 200.9375 L 127.59375 203.8125 L 128.96875 205.46875 L 130.34375 207.125 L 128.9375 206.8125 L 127.5625 206.5 L 127 210 L 126.4375 213.5 L 124.0625 209 C 122.76402 206.525 121.7229 204.275 121.75 204 C 121.77709 203.725 121.39012 202.7125 120.875 201.75 L 119.9375 200 L 118.46875 200 L 117 200 L 117 201 L 117 202 L 115.5 202 L 114 202 L 114 201 L 114 200 L 111.5625 200 C 110.2233 200 107.85577 199.52425 106.3125 198.9375 L 103.53125 197.875 L 101.46875 200.4375 C 100.34306 201.84925 99.11059 203 98.71875 203 L 98 203 L 98 201.0625 L 98 199.125 L 95 200.15625 L 92 201.21875 L 92 202.59375 L 92 204 L 90.8125 204 L 89.65625 204 L 91.8125 206.3125 L 94 208.625 L 94 211.3125 L 94 214 L 95.125 214 L 96.25 214 L 95.03125 215.5 L 93.78125 216.96875 L 91.875 215.9375 L 89.9375 214.90625 L 90.53125 213.9375 L 91.125 212.96875 L 92.3125 213.6875 L 93.5 214.40625 L 92.03125 212.4375 C 91.23002 211.36942 89.70732 209.77482 88.625 208.875 L 86.65625 207.25 L 86.40625 205.53125 C 86.26966 204.60062 85.89702 203.19656 85.59375 202.40625 L 85.0625 200.96875 L 82.375 199.96875 L 79.6875 198.9375 L 78.8125 199.8125 L 77.9375 200.6875 L 78.5625 202.34375 L 79.21875 204 L 82.34375 204.84375 L 85.5 205.6875 L 83.3125 206.375 L 81.125 207.09375 L 80.75 208.8125 L 80.40625 210.5 L 78.6875 207.28125 L 76.96875 204.0625 L 74.875 202.9375 L 72.78125 201.8125 L 69.0625 205.4375 L 65.375 209.0625 L 64.625 208.3125 L 63.90625 207.5625 L 63.09375 208.875 L 62.53125 210.15625 L 62.65625 210.96875 C 62.75447 210.9798 63 211.225 63 211.5 C 63 211.775 62.80625 212 62.53125 212 L 57.59375 219.875 L 55.625 222.125 L 54 224.4375 L 54 228.78125 L 54 233.09375 L 51.8125 237.28125 C 50.60132 239.59684 49.68769 241.89035 49.8125 242.34375 L 50.0625 243.15625 L 48.96875 242.46875 L 47.875 241.8125 L 44.53125 242.4375 L 41.21875 243.0625 L 40 246 L 38.78125 248.90625 L 36.09375 248.375 L 33.375 247.84375 L 32.09375 249.375 L 30.8125 250.90625 L 31.46875 251.96875 L 32.125 253 L 34.0625 251.96875 L 36 250.9375 L 36 251.875 C 36 252.3986 35.455563 253.0252 34.78125 253.25 L 33.5625 253.65625 L 33.8125 257.03125 L 34.0625 260.4375 L 35.0625 261.0625 L 36.0625 261.65625 L 32.40625 265.59375 L 28.78125 269.5 L 26.90625 273.5 L 25.03125 277.5 L 25.03125 280.375 L 25 283.28125 L 27.09375 286.625 L 29.15625 290 L 31.34375 290 L 33.5 290 L 36.75 292 L 40 293.96875 L 40.15625 295.21875 C 40.24002 295.91435 40.34335 297.175 40.40625 298 L 40.53125 299.5 L 38.59375 300.03125 L 36.65625 300.5625 L 36.25 301.71875 L 35.875 302.875 L 38.09375 304.0625 L 40.3125 305.25 L 52.65625 303.9375 L 65 302.65625 L 65 300.84375 L 65 299.0625 L 67.875 299.625 L 70.75 300.1875 L 73.25 298.5625 L 75.75 296.9375 L 76.375 298.5625 L 77.03125 300.21875 L 75.5 299.65625 C 73.27972 298.80425 73.67427 299.75305 76.0625 301.03125 L 78.125 302.125 L 81.0625 301.5 L 84 300.84375 L 84 298.875 C 84 297.7873 83.4941 294.86495 82.875 292.40625 L 81.75 287.9375 L 79.625 288.625 L 77.53125 289.28125 L 78.875 287.65625 L 80.25 286 L 79.03125 284.53125 L 77.84375 283.09375 L 78.5 281.03125 L 79.125 279 L 80.40625 279 L 81.65625 279 L 82.96875 276.53125 C 83.69055 275.18255 84.57262 274.18525 84.90625 274.28125 C 85.23988 274.37725 86.7375 273.60435 88.25 272.59375 L 91 270.78125 L 91 269.375 L 91 268 L 92 268 L 93 268 L 93 269.625 L 93 271.21875 L 95.75 270.5625 C 97.2625 270.1971 99.50361 269.65235 100.71875 269.34375 L 102.90625 268.78125 L 109.40625 272.40625 C 112.97944 274.40445 116.20944 276.52245 116.5625 277.09375 L 117.1875 278.125 L 115.4375 280.0625 L 113.6875 282 L 115.28125 282 L 116.90625 282 L 117.8125 280.34375 L 118.75 278.71875 L 119.9375 279.46875 L 121.125 280.1875 L 120.84375 282.84375 L 120.5625 285.5 L 121.28125 286.65625 L 122 287.8125 L 120 287.28125 L 118.03125 286.78125 L 117.4375 288.3125 L 116.84375 289.875 L 113.65625 290.53125 L 110.5 291.21875 L 108 293.5 C 106.625 294.7659 103.75465 296.53005 101.625 297.40625 L 97.75 299 L 95.03125 299 L 92.28125 299 L 87.90625 302.5 L 83.5 305.96875 L 80.8125 306 L 78.125 306 L 77.4375 307.09375 L 76.75 308.1875 L 73.90625 307.625 L 71.0625 307.0625 L 70.46875 308.03125 C 70.13997 308.56315 69.11754 309.01925 68.1875 309.03125 L 66.5 309.03125 L 64.3125 310.78125 L 62.125 312.5 L 61.4375 315.25 C 61.06953 316.7625 60.98465 318 61.25 318 C 61.51535 318 63.79369 316.85905 66.28125 315.46875 L 70.78125 312.9375 L 76.375 311.5 L 81.9375 310.03125 L 91.71875 305.46875 L 101.5 300.875 L 109 298.84375 C 113.125 297.73955 118.75 296.45625 121.5 295.96875 C 124.25 295.48115 127.625 294.8238 129 294.5 L 131.5 293.90625 L 129.25 295.5 C 128.0125 296.3869 127 297.4312 127 297.8125 L 127 298.5 L 133.25 298.53125 C 136.6875 298.54395 145.8 298.6667 153.5 298.8125 L 167.5 299.09375 L 179 298.28125 L 190.5 297.5 L 190.59375 294.90625 C 190.64813 293.47565 191.01475 291.78965 191.40625 291.15625 L 192.125 290 L 194 291 C 195.03046 291.5515 196.57634 292 197.4375 292 L 199 292 L 199 290.25 L 199.03125 288.5 L 200 290 C 200.53316 290.825 200.992 292.02825 201 292.65625 L 201 293.78125 L 198.40625 294.4375 L 195.8125 295.09375 L 193.40625 297.5 C 192.07862 298.8276 191 300.36965 191 300.90625 L 191 301.875 L 198.75 299.0625 C 203.0125 297.5143 209.2 295.68825 212.5 295.03125 C 221.56003 293.22745 226.85218 291.9633 233.90625 289.875 L 240.3125 287.96875 L 240.8125 288.5 L 241.3125 289 L 242.40625 288.125 C 243.00686 287.653 246.65 286.2481 250.5 285 C 254.35 283.7519 258.75647 282.11425 260.28125 281.34375 C 263.81873 279.55595 277.64707 276.05125 281.25 276.03125 L 284 276 L 284 274.6875 L 284 273.375 L 289.25 273.53125 C 292.1375 273.61525 296.15167 274.0232 298.15625 274.4375 L 301.78125 275.1875 L 303.8125 274.09375 L 305.84375 273.03125 L 307.0625 269.28125 C 307.73625 267.21455 308.78313 265.1951 309.375 264.8125 L 310.4375 264.125 L 309.65625 263.34375 L 308.90625 262.5625 L 308.125 263.8125 L 307.34375 265.0625 L 305.78125 264.46875 L 304.1875 263.875 L 303.46875 265.0625 L 302.75 266.21875 L 302.09375 265.1875 L 301.46875 264.125 L 296.71875 265.6875 L 292 267.25 L 292 268.625 L 292 270 L 294.75 270.03125 L 297.5 270.03125 L 296 271 C 295.175 271.5331 293.7125 271.99 292.75 272 L 291 272 L 291.09375 271.25 C 291.15323 270.8375 290.89863 269.4875 290.5 268.25 L 289.78125 266 L 288.84375 266 L 287.90625 266 L 288.21875 267.28125 L 288.5 268.5625 L 287.0625 270.09375 L 285.59375 271.65625 L 282.65625 270.1875 L 279.6875 268.71875 L 278.5 270.34375 C 277.83644 271.25125 276.95143 272 276.5625 272 L 275.875 272 L 276.46875 270.125 L 277.0625 268.25 L 274.96875 267.71875 L 272.875 267.15625 L 269.6875 268.5 L 266.5 269.84375 L 263.75 272.90625 C 260.58223 276.46155 260.4232 277 262.5625 277 L 264.125 277 L 263.59375 277.875 L 263.0625 278.75 L 260.46875 278.25 L 257.90625 277.75 L 258.21875 279.125 L 258.5 280.5 L 255.75 280.1875 L 253 279.875 L 253 280.6875 L 253 281.5 L 250 281.5 L 247 281.5 L 247 280.75 L 247 280 L 248.5625 280 L 250.15625 280 L 251.6875 278.46875 C 253.51591 276.64025 253.36141 276.37515 249.75 275.46875 L 247 274.78125 L 247 277 L 247 279.21875 L 245.40625 278.625 L 243.84375 278 L 240 278.625 L 236.1875 279.25 L 235.6875 281.125 L 235.1875 283 L 232.59375 283 L 230 283 L 230 284.5 C 230 285.325 229.82376 286 229.59375 286 C 229.36373 286 228.43872 286.2888 227.5625 286.625 L 225.96875 287.21875 L 226.65625 285.40625 L 227.375 283.625 L 224 286 L 220.625 288.40625 L 221.53125 286.96875 C 222.01891 286.17965 223.6821 284.4805 225.21875 283.1875 C 226.75539 281.8945 228 280.4085 228 279.875 L 228 278.875 L 227 279.5 L 226 280.125 L 224.9375 279.46875 L 223.875 278.8125 L 225.6875 277.5 L 227.5 276.15625 L 224.65625 275.0625 L 221.84375 274 L 220.875 274.59375 L 219.90625 275.1875 L 220.46875 276.9375 L 221.03125 278.71875 L 219.53125 280 L 218 281.25 L 218.15625 277.03125 L 218.34375 272.8125 L 220.15625 271.65625 L 222 270.53125 L 222 269.28125 L 222 268 L 224.5 268 L 227 268 L 227 266.90625 L 227 265.78125 L 228.8125 268.03125 L 230.625 270.25 L 232.34375 268.5 L 234.09375 266.78125 L 238.0625 267.40625 L 242 268.03125 L 242 266.59375 L 242 265.1875 L 247.75 265.4375 L 253.5 265.71875 L 254.5 265.15625 C 255.05 264.83625 255.95 264.51275 256.5 264.46875 C 259.03043 264.26685 263.72812 262.5554 266 261 L 268.5 259.28125 L 269.75 259.71875 L 271 260.1875 L 271 259.09375 L 271 258 L 272.3125 258 C 273.03379 258 274.60053 257.1 275.78125 256 L 277.90625 254 L 280.46875 254 L 283 254 L 282.75 252.75 L 282.5 251.5 L 288.6875 251.8125 L 294.84375 252.15625 L 300.34375 247.8125 L 305.84375 243.5 L 305.9375 242.40625 L 306 241.34375 L 308.5 240.1875 L 311 239.0625 L 311 238.03125 L 311 237 L 313 237 L 314.96875 237 L 314.75 239.25 L 314.5 241.5 L 316.8125 241.84375 L 319.125 242.15625 L 320.3125 241.15625 L 321.5 240.1875 L 323.40625 241.5625 L 325.28125 242.9375 L 326.09375 242.46875 L 326.875 241.96875 L 330.875 244.0625 L 334.875 246.15625 L 338.125 245.8125 L 341.375 245.5 L 342.1875 242.4375 L 342.96875 239.34375 L 345 237.53125 C 346.10831 236.52824 347 235.27846 347 234.78125 L 347 233.875 L 346.0625 234.46875 L 345.125 235.0625 L 341.8125 233.5625 L 338.5 232.09375 L 344.5625 232.40625 L 350.65625 232.71875 L 353.25 234.4375 L 355.875 236.15625 L 359.6875 235.5625 C 367.63345 234.33357 370.04182 233.76066 370.53125 232.96875 L 371.03125 232.15625 L 376.53125 231.46875 L 382 230.78125 L 382.03125 229.15625 L 382.03125 227.5 L 383.78125 225.375 L 385.5 223.25 L 392.375 222.65625 L 399.21875 222.0625 L 405.09375 224.03125 C 408.31472 225.11632 411.65644 226 412.53125 226 L 414.125 226 L 413.59375 225.15625 L 413.09375 224.34375 L 416.9375 220.5625 L 420.78125 216.8125 L 423.875 217.46875 L 426.96875 218.15625 L 428.9375 217.53125 L 430.90625 216.90625 L 431.59375 214.71875 L 432.28125 212.53125 L 433.28125 215.03125 C 433.83645 216.39722 434.5768 219.525 434.90625 222 L 435.5 226.5 L 437.8125 226.84375 L 440.125 227.15625 L 439.71875 228.34375 L 439.3125 229.5 L 437.90625 229.65625 C 437.1286 229.73031 435.28793 229.84285 433.8125 229.90625 L 431.125 230 L 430.53125 231.9375 L 429.90625 233.90625 L 425.96875 233.75 L 422.03125 233.59375 L 420.75 235.15625 C 420.05415 236.01288 417.925 237.29257 416 238.03125 C 414.075 238.76992 411.05851 240.44514 409.3125 241.75 L 406.15625 244.125 L 404.3125 243.8125 L 402.5 243.5 L 402.71875 244.6875 L 402.9375 245.875 L 399.75 246.5625 L 396.53125 247.28125 L 395.5 248.5625 C 393.2435 251.4315 378.62697 258.01975 371.15625 259.53125 C 369.31139 259.90445 365.93639 261.02525 363.65625 262.03125 L 359.5 263.875 L 352.5 265.0625 L 345.5 266.25 L 344.25 267.25 L 343 268.25 L 340.09375 267.6875 L 337.1875 267.09375 L 335.8125 269.1875 L 334.40625 271.25 L 328.96875 271.53125 L 323.5 271.78125 L 319.53125 273.90625 L 315.5625 276 L 313.25 276 C 311.97363 276 309.26359 276.7014 307.21875 277.5625 L 303.5 279.125 L 295.5 278.96875 C 291.1 278.87775 286.9375 278.85125 286.25 278.90625 L 285 279 L 285 280.65625 L 285 282.3125 L 295.25 281.6875 L 305.5 281.0625 L 314 278.6875 C 339.56541 271.5385 369.608 262.41346 377.5 259.375 C 382.45 257.4692 391.29234 253.45465 397.15625 250.46875 C 410.18274 243.83585 433.2148 233.53907 450 226.84375 C 456.875 224.10143 464.3 221.04243 466.5 220.0625 C 468.7 219.08257 475.9 216.45335 482.5 214.21875 C 500.12323 208.25195 522.788 200.1687 546 191.53125 C 557.275 187.3357 569.0875 182.96291 572.25 181.84375 L 578 179.8125 L 578 178.9375 L 578 178.0625 L 574.90625 178.6875 L 571.8125 179.3125 L 570.90625 177.90625 C 570.42034 177.13887 570.008 175.60815 570 174.5 L 570 172.46875 L 572 168.75 C 573.1 166.69763 574 164.61284 574 164.125 L 574 163.25 L 572 162.71875 L 570 162.1875 L 570 161.09375 L 570 160 L 575.09375 160 L 580.1875 160 L 585.59375 161.59375 L 591 163.15625 L 591 165.03125 L 591 166.90625 L 593.25 168.46875 L 595.5 170.0625 L 594 171.03125 C 593.175 171.55732 591.74254 171.992 590.8125 172 L 589.125 172 L 588.5 173 L 587.875 174 L 586.0625 174 L 584.28125 174 L 581.625 176.09375 C 580.17583 177.23367 579 178.52392 579 178.96875 L 579 179.78125 L 595.25 172.53125 C 612.18467 164.97261 623.39923 159.49182 663.5 139.3125 C 687.18473 127.39399 710.64388 116 711.5 116 C 712.55831 116 741.66159 102.60109 753.5 96.65625 C 765.91279 90.42307 774.03899 87.06275 776.75 87.03125 C 777.43805 87.02325 781.15596 85.5375 785 83.75 L 791.96875 80.5 L 792 79.25 C 792.00541 78.5625 792.3375 78.004 792.75 78 C 793.1625 77.99624 794.59963 76.40175 795.9375 74.4375 L 798.375 70.84375 L 796.9375 69.9375 C 795.47387 69.0113 791.63534 68.64748 786.75 68.96875 L 784.03125 69.15625 L 782.84375 66.59375 C 781.49436 63.63218 781.1987 63.53733 778.5625 65.53125 L 776.625 67 L 774.5625 67.0625 C 773.43012 67.09888 770.07308 67.93327 767.09375 68.90625 L 761.65625 70.6875 L 760.90625 72.75 L 760.125 74.8125 L 761.21875 78.375 L 762.3125 81.9375 L 761.03125 83.46875 L 759.75 85 L 757.34375 85 L 754.9375 85 L 754.375 83.5 L 753.78125 82 L 751.40625 82 L 749 82 L 748.96875 82.75 C 748.95404 83.1625 747.16079 85.525 744.96875 88 C 742.77671 90.475 740.47028 93.12156 739.84375 93.875 L 738.6875 95.25 L 733.28125 94.625 L 727.875 93.96875 L 726.625 95.25 C 725.93758 95.94593 725.09809 97.26766 724.75 98.1875 L 724.125 99.84375 L 721.8125 100.1875 L 719.5 100.5 L 718.125 103.65625 L 716.71875 106.8125 L 714.5 107.8125 L 712.28125 108.84375 L 709.9375 107.65625 L 707.5625 106.46875 L 705.34375 103 C 704.12072 101.08301 702.19348 98.30574 701.0625 96.84375 L 699 94.1875 L 699 90.21875 L 699 86.25 L 694.96875 82.59375 L 690.90625 78.9375 L 688 80.65625 L 685.09375 82.375 L 683.9375 85.125 L 682.8125 87.875 L 679.8125 88.9375 L 676.8125 89.96875 L 674.65625 88.84375 C 673.47302 88.22145 671.43667 86.86174 670.125 85.84375 L 667.71875 84 L 663.125 84.09375 C 660.58667 84.14857 657.375 84.58668 656 85.0625 L 653.5 85.9375 L 657.84375 85.375 L 662.21875 84.78125 L 661.5 90.15625 C 661.10203 93.10217 660.34978 96.2875 659.84375 97.25 L 658.9375 99 L 656.125 99 L 653.3125 99 L 652.125 101.625 L 650.9375 104.25 L 646.8125 103.59375 C 644.54632 103.23138 642.32194 102.71373 641.875 102.4375 L 641.0625 101.9375 L 641.65625 99.03125 L 642.21875 96.15625 L 640.625 93.875 L 639 91.5625 L 639 89.34375 L 639 87.09375 L 637.59375 86.3125 L 636.15625 85.5 L 635.46875 82.75 L 634.78125 80 L 636.84375 80 L 638.9375 80 L 640 82 L 641.0625 84 L 643.90625 85.46875 L 646.75 86.9375 L 647.5 86.21875 L 648.21875 85.5 L 647.5625 88.65625 L 646.875 91.8125 L 648 92.5 L 649.09375 93.1875 L 650.5625 92.625 L 652 92.0625 L 649.75 87.4375 L 647.53125 82.84375 L 649.15625 81.625 L 650.8125 80.4375 L 649.4375 77.96875 C 648.68734 76.6139 648.05075 74.68201 648.03125 73.65625 L 648 71.78125 L 645.75 73.25 L 643.5 74.6875 L 642.25 74.28125 L 641 73.84375 L 641.625 72.8125 L 642.25 71.8125 L 640.1875 72.90625 C 639.05728 73.51112 637.61862 74 637 74 L 635.875 74 L 636.53125 72.9375 L 637.1875 71.875 L 635.71875 70.1875 C 634.90493 69.25965 633.93962 67.4875 633.5625 66.25 L 632.875 64 L 633.5 64 C 633.84822 64 634.99866 64.4619 636.0625 65.03125 L 638 66.0625 L 638 68.03125 L 638 70 L 639 70 L 640 70 L 640 68.5 C 640 66.56368 640.99361 66.58787 642.4375 68.5625 L 643.5625 70.125 L 646.28125 70.4375 L 649 70.71875 L 649 69 L 649 67.25 L 645.1875 66.65625 C 643.09269 66.32128 639.93058 65.32265 638.15625 64.4375 L 634.9375 62.8125 L 633.21875 59.1875 L 631.5 55.53125 L 629.75 55.1875 L 628 54.875 L 627.3125 56.6875 C 626.94314 57.69065 626.04465 58.87089 625.3125 59.3125 L 624 60.125 L 624.59375 62.5625 L 625.21875 65 L 624.3125 65 C 623.81287 65 622.87669 64.47044 622.21875 63.8125 L 621 62.625 L 619.53125 64.5625 C 618.72168 65.63294 618.04875 67.25259 618.03125 68.15625 L 618 69.78125 L 616.25 70.5625 C 615.2875 70.98087 613.7125 71.21285 612.75 71.09375 L 611 70.875 L 611 71.78125 C 611 72.28058 611.9 73.50451 613 74.5 L 615 76.3125 L 615 78.65625 L 615 80.96875 L 618.9375 83.59375 L 622.875 86.1875 L 624.9375 85.53125 L 627 84.875 L 627 83.8125 L 627 82.75 L 625.4375 84.0625 L 623.84375 85.375 L 622.96875 83.9375 L 622.0625 82.5 L 623.78125 81.84375 C 624.72361 81.46978 626.05711 81.1012 626.75 81.0625 L 628.03125 81 L 629.71875 83 L 631.4375 85 L 633.21875 85 L 635 85 L 635 85.9375 L 635 86.875 L 632.84375 87.1875 L 630.71875 87.5 L 629.65625 89.15625 L 628.625 90.8125 L 631.6875 95.53125 L 634.75 100.21875 L 634.28125 102.0625 C 634.01828 103.06808 632.99866 104.62747 632 105.53125 L 630.15625 107.15625 L 627.53125 105.4375 L 624.90625 103.71875 L 623.75 104.84375 L 622.59375 106 L 619.8125 106 L 617 106 L 617 103.96875 C 617 101.62519 614.19212 94.49534 613.53125 95.15625 C 613.28783 95.39967 613.75975 97.57931 614.59375 100 L 616.125 104.375 L 615.53125 106.78125 C 615.20079 108.09791 613.07187 112.17757 610.8125 115.84375 C 608.55313 119.50992 606.06485 123.73793 605.28125 125.25 L 603.84375 128 L 601.6875 128.5 C 600.49007 128.76787 597.49732 129.10496 595.03125 129.25 L 590.53125 129.5 L 589.03125 136.1875 L 587.5 142.875 L 583.21875 147.40625 L 578.9375 151.9375 L 574.90625 153.15625 L 570.875 154.375 L 561.90625 149.6875 L 552.96875 145 L 551.03125 145 L 549.125 145 L 548.5 144 C 548.16008 143.45 547.54871 143 547.125 143 L 546.34375 143 L 546.40625 145.25 L 546.5 147.5 L 542 147.28125 L 537.53125 147.09375 L 536.40625 145.53125 L 535.28125 144 L 533.6875 144 L 532.0625 144 L 531 146.03125 L 529.90625 148.0625 L 528.9375 147.46875 C 527.56543 146.62077 527.76918 145.38707 529.5625 143.59375 L 531.15625 142 L 528.3125 141.9375 L 525.5 141.875 L 527.71875 140.8125 L 529.96875 139.71875 L 530.46875 138.0625 L 531 136.4375 L 533.15625 136.28125 C 534.34402 136.19177 536.10794 136.52038 537.0625 137.03125 L 538.78125 137.96875 L 540.03125 136.46875 L 541.28125 134.96875 L 542.4375 135.25 L 543.625 135.5 L 549.3125 129.65625 L 555 123.78125 L 555 122.4375 L 555 121.0625 L 558.09375 117.53125 L 561.21875 114 L 562.46875 114 C 563.15486 114 565.74844 112.92383 568.25 111.59375 L 572.8125 109.15625 L 576.90625 109.71875 L 581 110.28125 L 581 107.34375 L 581 104.40625 L 582.1875 103.21875 C 582.8475 102.55875 583.9725 102 584.6875 102 L 586 102 L 586 103.4375 L 586 104.84375 L 590 108 C 592.2 109.74243 594 110.89464 594 110.5625 C 594 110.23035 592.875 107.1964 591.5 103.8125 C 590.125 100.42861 589 96.78203 589 95.71875 L 589 93.78125 L 591.25 91.125 L 593.53125 88.4375 L 598 89.75 L 602.5 91.0625 L 606.4375 90.78125 L 610.40625 90.5 L 610.5 86.4375 L 610.59375 82.375 L 606.8125 81.1875 C 604.73126 80.53795 602.36491 80 601.53125 80 L 600 80 L 600 78.9375 C 600 78.34909 601.3364 75.93504 602.96875 73.5625 L 605.9375 69.25 L 608.5625 68.59375 L 611.15625 67.9375 L 613.09375 68.53125 L 615 69.15625 L 615 68.3125 C 615 67.84782 614.34614 66.50717 613.53125 65.34375 L 612.03125 63.21875 L 613.46875 62.03125 L 614.90625 60.84375 L 616.9375 61.5 L 619 62.15625 L 619 60.09375 L 619 58.0625 L 621.5 56.40625 L 624 54.78125 L 624 53.40625 L 624 52 L 625.40625 52 L 626.8125 52 L 629.375 47.75 C 632.65119 42.34688 635.52724 39 636.875 39 L 637.9375 39 L 638.9375 40.875 L 639.9375 42.71875 L 642.96875 44 C 646.65177 45.52555 646.69348 45.99988 643.5 49 C 639.5954 52.66818 641.31709 52.50621 646.75 48.6875 C 649.4647 46.77938 652.52324 45.04389 653.5625 44.84375 L 655.46875 44.5 L 658.375 39 C 659.96888 35.9806 662.26108 32.5575 663.5 31.40625 L 665.75 29.3125 z M 695.5 38 C 695.225 38 695 38.225 695 38.5 C 695 38.775 695.225 39 695.5 39 C 695.775 39 696 38.775 696 38.5 C 696 38.225 695.775 38 695.5 38 z M 701.40625 46.8125 L 701.40625 50.46875 L 701.40625 54.09375 L 698.46875 56.4375 L 695.5625 58.75 L 696.75 60.21875 L 697.96875 61.65625 L 700.84375 61.25 L 703.75 60.8125 L 706.875 62.4375 L 710 64.0625 L 711.4375 67.53125 L 712.90625 71 L 712.375 76.75 L 711.84375 82.46875 L 713.6875 79.96875 C 714.70749 78.60321 716.11453 75.91713 716.78125 73.96875 L 717.96875 70.40625 L 717.0625 67.25 L 716.15625 64.0625 L 718.15625 61.53125 L 720.125 59.03125 L 719.5 58 C 719.1568 57.44468 718.28513 57 717.5625 57 C 716.83988 57 714.05741 56.0592 711.375 54.90625 L 706.5 52.8125 L 703.9375 49.8125 L 701.40625 46.8125 z M 771.53125 71.125 C 771.9817 71.030384 772.78516 71.34053 774.4375 71.96875 L 777 72.9375 L 777 74.46875 L 777 76 L 777.90625 76 C 778.39741 76 779.01643 76.63471 779.3125 77.40625 L 779.875 78.8125 L 778.6875 80.3125 L 777.5 81.8125 L 775.40625 80.8125 L 773.34375 79.84375 L 771.84375 77.1875 L 770.34375 74.5 L 770.75 72.75 C 770.98424 71.725495 771.0808 71.219616 771.53125 71.125 z M 711.40625 83.15625 L 711.25 87.3125 L 711.09375 91.46875 L 710.03125 91.8125 C 709.45728 92.00383 709 92.69047 709 93.3125 L 709 94.4375 L 710.375 92.96875 L 711.78125 91.5 L 712.40625 87.8125 L 713.0625 84.15625 L 712.25 83.65625 L 711.40625 83.15625 z M 674.90625 90.71875 L 678.0625 91.375 C 679.81045 91.72459 681.64375 92 682.125 92 L 683 92 L 683 95.0625 L 683 98.125 L 681.96875 100.0625 C 681.3994 101.12634 680.4994 102 679.96875 102 L 679 102 L 679 100.5625 C 679 99.77678 678.38848 98.54473 677.65625 97.8125 C 676.92402 97.08026 676.02197 95.17539 675.625 93.59375 L 674.90625 90.71875 z M 696 91 L 696.78125 91 L 697.5625 91 L 697.71875 93 L 697.875 95 L 696.9375 95 L 696 95 L 696 93 L 696 91 z M 728.78125 95.0625 L 731.40625 97.5 L 734 99.90625 L 734 101.28125 L 734 102.6875 L 731.4375 103.84375 C 730.03662 104.48204 728.32789 105 727.625 105 L 726.34375 105 L 726.4375 101.25 L 726.5 97.5 L 727.65625 96.28125 L 728.78125 95.0625 z M 657 100 L 658.0625 100 L 659.125 100 L 658.5 101 C 658.16008 101.55 657.68004 102 657.4375 102 C 657.19496 102 657 101.55 657 101 L 657 100 z M 584.875 115.03125 L 582.4375 115.25 L 580 115.4375 L 580 116.28125 C 580 117.92534 582.2673 121.51145 584.375 123.21875 C 585.54813 124.16902 586.66254 124.95655 586.84375 124.96875 C 587.17637 124.9912 586.27526 119.98248 585.375 116.78125 L 584.875 115.03125 z M 351.21875 121.75 L 352.03125 123.0625 L 352.875 124.40625 L 352.375 125.1875 C 352.10383 125.62626 351.23004 126 350.4375 126 L 349 126 L 349 124.5625 C 349 123.76996 349.51351 122.81542 350.125 122.4375 L 351.21875 121.75 z M 381.1875 122 C 381.55733 121.9895 381.986 122 382.46875 122 L 385.9375 122 L 385.28125 123.75 C 384.92613 124.7125 384.15262 125.84592 383.5625 126.25 C 381.96631 127.34297 381.60881 127.1758 380.25 125 C 378.70262 122.52226 378.59868 122.07353 381.1875 122 z M 359.15625 125.5 L 358.75 126.9375 C 358.11707 129.27863 354 129.14142 354 126.78125 L 354 125.75 L 355.5625 127.0625 L 357.15625 128.375 L 358.15625 126.9375 L 359.15625 125.5 z M 664.1875 130 L 665 130 L 665.84375 130 L 666.53125 133.0625 L 667.1875 136.15625 L 666.625 136.71875 L 666.0625 137.28125 L 665.625 135.90625 C 665.38596 135.14003 664.95991 133.4875 664.6875 132.25 L 664.1875 130 z M 220.5 132 C 220.775 132 221 132.225 221 132.5 C 221 132.775 220.775 133 220.5 133 C 220.225 133 220 132.775 220 132.5 C 220 132.225 220.225 132 220.5 132 z M 523 142.65625 L 523.65625 143.34375 L 524.34375 144 L 523 144 L 521.65625 144 L 522.34375 143.34375 L 523 142.65625 z M 333.5 144.3125 L 333.625 149.15625 C 333.68691 151.81751 333.60491 154 333.46875 154 C 333.3326 154 332.51326 152.8869 331.625 151.53125 L 330 149.0625 L 330 147.15625 L 330 145.21875 L 331.75 144.78125 L 333.5 144.3125 z M 628 144.875 L 629 145.5 C 629.55 145.83992 630 146.31996 630 146.5625 C 630 146.80504 629.55 147 629 147 L 628 147 L 628 145.9375 L 628 144.875 z M 237.5 145 C 237.225 145 237 145.225 237 145.5 C 237 145.775 237.225 146 237.5 146 C 237.775 146 238 145.775 238 145.5 C 238 145.225 237.775 145 237.5 145 z M 642.875 146 L 644.5 146 L 646.125 146 L 645.5 147 C 645.16008 147.55 644.71008 148 644.5 148 C 644.28992 148 643.83992 147.55 643.5 147 L 642.875 146 z M 630.125 148 L 632.0625 149.03125 L 634 150.0625 L 634 151.3125 L 634 152.59375 L 630.5625 154.15625 L 627.09375 155.71875 L 626.0625 154.65625 C 625.48296 154.07671 625 152.87046 625 151.96875 L 625 150.3125 L 627.5625 149.15625 L 630.125 148 z M 240.5625 150 C 240.80504 150 241 150.45 241 151 L 241 152 L 239.9375 152 L 238.875 152 L 239.5 151 C 239.83992 150.45 240.31996 150 240.5625 150 z M 316.125 150.15625 L 319.46875 152.125 L 322.8125 154.09375 L 323.4375 155.6875 C 324.23952 157.77753 323.42588 158.54133 322.34375 156.71875 C 321.88084 155.93907 320.26956 154.52148 318.78125 153.5625 L 316.09375 151.8125 L 314.78125 152.59375 L 313.5 153.375 L 314.8125 151.75 L 316.125 150.15625 z M 242 150.65625 L 242.65625 151.34375 L 243.34375 152 L 242.65625 152.65625 L 242 153.34375 L 242 152 L 242 150.65625 z M 597 165.75 L 598.5 167 C 599.325 167.68469 600 168.35118 600 168.5 C 600 168.64881 599.325 169.05841 598.5 169.375 L 597 169.9375 L 597 167.84375 L 597 165.75 z M 556 167.6875 L 558 169.5 L 560 171.3125 L 558.84375 172.6875 L 557.6875 174.09375 L 558.59375 174.9375 C 559.09294 175.40237 560.62931 176.1151 562 176.53125 L 564.46875 177.28125 L 563.125 175.65625 L 561.75 174 L 563.875 174 L 566 174 L 568 176 L 570 178 L 570 179.5 L 570 181 L 566.125 181 L 562.25 181 L 560.875 183 L 559.5 185.03125 L 555 185.625 C 552.525 185.95536 548.25 187.08697 545.5 188.125 C 540.01618 190.19493 538.60548 190.4577 541.15625 188.96875 L 542.8125 188 L 542.28125 186 L 541.78125 184 L 543.375 184 L 545 184 L 545 180.96875 L 545 177.9375 L 546.9375 178.96875 C 548.00134 179.5381 549.80134 180 550.9375 180 L 553 180 L 553 177.125 L 553 174.25 L 554.5 173 L 556 171.75 L 556 169.71875 L 556 167.6875 z M 568 178.65625 L 567.34375 179.34375 L 566.65625 180 L 568 180 L 569.34375 180 L 568.65625 179.34375 L 568 178.65625 z M 163 186 L 164 186 L 165 186 L 165 190.5 C 165 192.975 164.8099 195 164.59375 195 C 163.83172 195 163 191.7902 163 188.90625 L 163 186 z M 526.5 191.125 C 526.92009 190.98875 527.59035 191.59035 528.90625 192.90625 L 530.8125 194.8125 L 529.6875 195.90625 C 528.31492 197.27883 527.76578 197.24681 526.46875 195.71875 L 525.4375 194.5 L 525.78125 192.75 C 525.97532 191.78533 526.17326 191.23097 526.5 191.125 z M 490.78125 192.03125 L 491.28125 193.90625 L 491.75 195.78125 L 494.125 197.34375 C 495.42864 198.18752 497.7375 199.15937 499.25 199.53125 L 502 200.21875 L 502 198.46875 L 502 196.75 L 505.09375 197.375 L 508.15625 197.96875 L 510.09375 196.9375 L 512.03125 195.90625 L 514.46875 197.71875 C 515.82157 198.70323 516.95145 199.8375 516.96875 200.25 L 517 201 L 515.0625 201 C 513.9983 201 511.8608 201.53004 510.3125 202.1875 C 508.76419 202.84497 507.05 203.41825 506.5 203.46875 C 505.95 203.51929 504.25175 204.41881 502.71875 205.4375 L 499.9375 207.28125 L 494.5625 207.53125 L 489.1875 207.75 L 486.84375 209.96875 C 485.55738 211.18066 483.74162 212.58722 482.8125 213.09375 L 481.125 214 L 480.5 213 L 479.875 212 L 477 213.5 L 474.09375 215 L 470.5 215 L 466.90625 215 L 465.40625 216.25 C 464.57806 216.9375 463.08431 218.30417 462.09375 219.28125 L 460.3125 221.0625 L 456.9375 222.03125 L 453.53125 223 L 451.78125 222.4375 L 450 221.875 L 450 223.46875 L 450 225.0625 L 447.4375 226.03125 C 446.0267 226.56764 444.0017 227 442.9375 227 L 441 227 L 441 225.65625 L 441 224.34375 L 443.9375 224.34375 L 446.90625 224.34375 L 450.15625 221.15625 L 453.375 218 L 455.53125 218 L 457.6875 218 L 459.4375 216.0625 L 461.1875 214.15625 L 460.46875 211.90625 C 460.07553 210.6673 458.45635 207.83923 456.875 205.65625 C 455.29366 203.47327 454 201.28802 454 200.78125 L 454 199.84375 L 455.5 201.34375 C 456.325 202.16875 457 203.25658 457 203.75 C 457 204.24341 458.08432 205.66437 459.40625 206.90625 L 461.8125 209.15625 L 462.78125 207.40625 L 463.78125 205.65625 L 467.625 205.8125 C 469.75128 205.90292 472.60518 206.20482 473.9375 206.46875 L 476.34375 206.9375 L 478.71875 206.34375 L 481.09375 205.75 L 479.40625 203.875 L 477.6875 202 L 478.78125 202 C 479.38403 202 480.16008 202.45 480.5 203 C 480.83992 203.55 481.76996 204 482.5625 204 L 484 204 L 484 202.59375 L 484 201.21875 L 482.5 200.625 L 481 200.0625 L 481 198.53125 L 481 197 L 482.3125 197 C 483.0275 197 484.09572 197.50197 484.71875 198.125 L 485.875 199.25 L 487.4375 198.65625 L 489 198.0625 L 489 195.59375 L 489 193.125 L 489.875 192.5625 L 490.78125 192.03125 z M 521.625 197 C 521.9 197 521.83992 197.45 521.5 198 C 521.16008 198.55 520.65 199 520.375 199 C 520.1 199 520.16008 198.55 520.5 198 C 520.83992 197.45 521.35 197 521.625 197 z M 485 206.875 L 485 207.9375 L 485 209 L 486 209 C 486.55 209 487 208.80504 487 208.5625 C 487 208.31996 486.55 207.83992 486 207.5 L 485 206.875 z M 478.875 209 L 479.5 210 C 479.83992 210.55 480.76996 211 481.5625 211 L 483 211 L 483 210 L 483 209 L 480.9375 209 L 478.875 209 z M 423.9375 230 C 423.41996 230 423 230.45 423 231 L 423 232 L 424.5625 232 L 426.125 232 L 425.5 231 C 425.16008 230.45 424.45504 230 423.9375 230 z M 322.125 263 L 321.53125 263.9375 L 320.96875 264.875 L 322.71875 265.875 L 324.5 266.875 L 325.40625 266 L 326.3125 265.09375 L 328.1875 266.09375 L 330.03125 267.09375 L 331.0625 266.46875 L 332.09375 265.8125 L 331.75 264.75 L 331.375 263.65625 L 328.6875 263.5625 L 326 263.4375 L 326 264.25 L 326 265.0625 L 324.0625 264.03125 L 322.125 263 z M 310.875 267 L 311.5 268 C 311.83992 268.55 312.8 269 313.625 269 L 315.125 269 L 314.5 268 C 314.16008 267.45 313.2 267 312.375 267 L 310.875 267 z M 202.8125 270.59375 L 204.46875 271.96875 L 206.15625 273.375 L 206.8125 272.40625 L 207.5 271.46875 L 211 273.21875 C 212.925 274.19095 214.3507 275.23075 214.15625 275.53125 C 213.96179 275.83175 214.3449 277.43675 215.03125 279.09375 L 216.28125 282.125 L 215.15625 283.25 L 214.03125 284.375 L 213.375 281.09375 L 212.71875 277.8125 L 209.9375 278.375 L 207.125 278.90625 L 206.65625 277.71875 L 206.15625 276.5 L 205.1875 277.875 L 204.25 279.25 L 202.3125 277.3125 L 200.375 275.375 L 199.3125 275.71875 L 198.25 276.09375 L 197.59375 274.40625 C 196.73204 272.16065 197.62131 271.42495 199.40625 272.90625 L 200.84375 274.125 L 201.8125 272.34375 L 202.8125 270.59375 z M 247.5 270.90625 L 247.15625 272.5625 L 246.8125 274.21875 L 248.15625 273.78125 L 249.5 273.34375 L 249.5 272.15625 L 249.5 271 L 248.5 270.9375 L 247.5 270.90625 z M 255.75 273 L 257 274.5 C 257.68469 275.325 258.64235 276 259.125 276 L 260 276 L 260 274.5 L 260 273 L 257.875 273 L 255.75 273 z M 102.40625 273.125 L 101.0625 273.96875 L 99.71875 274.8125 L 100.3125 277.8125 L 100.90625 280.8125 L 99.46875 281.375 L 98 281.9375 L 98 283.46875 L 98 285 L 99.875 285 L 101.75 285 L 102.84375 286.3125 L 103.90625 287.59375 L 102.5625 290.21875 L 101.1875 292.84375 L 101.75 293.4375 C 102.06388 293.7514 102.74018 294 103.25 294 L 104.1875 294 L 104.71875 291.90625 L 105.28125 289.84375 L 106.09375 291.125 L 106.90625 292.4375 L 107.59375 291.75 L 108.28125 291.0625 L 107.28125 289.78125 L 106.25 288.5 L 106.1875 285.3125 L 106.125 282.125 L 105.09375 280.1875 L 104.0625 278.25 L 104.625 277.6875 L 105.21875 277.125 L 103.8125 275.125 L 102.40625 273.125 z M 130.1875 274.9375 L 129.75 276.21875 C 129.51738 276.91665 127.8996 278.32555 126.15625 279.34375 L 123 281.1875 L 123 279.78125 L 123 278.375 L 126.59375 276.65625 L 130.1875 274.9375 z M 184 276 L 185.0625 276 L 186.125 276 L 185.53125 277.90625 L 184.90625 279.84375 L 185.9375 280.4375 L 186.9375 281.0625 L 184.96875 283.03125 L 183 285 L 183 286.4375 C 183 287.2233 183.675 288.51875 184.5 289.34375 C 185.325 290.16875 186 291.067 186 291.3125 C 186 291.5581 184.82436 291.75 183.40625 291.75 L 180.84375 291.75 L 180 289.625 C 179.53786 288.4562 178.92748 286.7125 178.625 285.75 L 178.0625 284 L 176.40625 284 L 174.71875 284 L 172.375 286.5625 L 170 289.09375 L 170 287.75 L 170 286.375 L 173 284.15625 L 176 281.9375 L 176.03125 279.71875 L 176.0625 277.5 L 177.09375 279.25 L 178.09375 281 L 181.0625 281 L 184 281 L 184 278.5 L 184 276 z M 88.15625 277.65625 L 85.84375 279.1875 L 83.5 280.75 L 83.15625 282.4375 L 82.8125 284.15625 L 85.15625 283.84375 L 87.5 283.5 L 87.84375 280.5625 L 88.15625 277.65625 z M 154.90625 277.75 L 156.46875 278.34375 L 158 278.9375 L 158 279.96875 C 158 281.23845 156.967 281.25545 155.03125 280.03125 L 153.5625 279.09375 L 154.25 278.4375 L 154.90625 277.75 z M 148.03125 281.5 L 147.78125 284.4375 L 147.5 287.34375 L 146.25 287.75 L 145 288.15625 L 145 286.78125 C 145 286.01555 145.6938 284.5051 146.53125 283.4375 L 148.03125 281.5 z M 207 281.65625 L 207.65625 282.34375 L 208.34375 283 L 207 283 L 205.65625 283 L 206.34375 282.34375 L 207 281.65625 z M 211.375 282.3125 C 211.64711 282.24037 212.05877 282.72614 212.34375 283.46875 C 213.01993 285.23095 212.4548 285.533 211.46875 283.9375 C 211.10622 283.351 211.01912 282.6371 211.28125 282.375 C 211.31401 282.34224 211.33613 282.3228 211.375 282.3125 z M 217.3125 283.09375 L 219.1875 284.09375 L 221.0625 285.09375 L 220.4375 286.09375 L 219.8125 287.09375 L 218.59375 286.09375 L 217.40625 285.09375 L 214.875 287.40625 C 213.49821 288.68295 211.34698 290.2668 210.09375 290.9375 L 207.84375 292.15625 L 207.28125 291.625 L 206.75 291.0625 L 204.875 292.0625 L 203 293.0625 L 203 292 L 203 290.96875 L 205.40625 289.875 L 207.78125 288.78125 L 208.90625 286.625 L 210.03125 284.5 L 209.5 287.25 L 208.96875 290 L 209.78125 290 C 210.23384 290 212.12747 288.43105 213.96875 286.53125 L 217.3125 283.09375 z M 155.96875 283.5 L 156 284.75 L 156 286 L 157.65625 286 L 159.34375 286 L 158.59375 286.75 C 158.18125 287.1625 157.31292 287.5 156.6875 287.5 L 155.5625 287.5 L 154.3125 290 L 153.0625 292.5 L 156.78125 293.03125 L 160.5 293.5625 L 156.5 294.375 C 155.31874 294.61055 153.18872 294.85757 150.8125 295.09375 L 151.46875 294.0625 L 152.1875 292.875 L 150.53125 291.03125 L 148.84375 289.15625 L 151.15625 288.84375 L 153.4375 288.5 L 154.71875 286 L 155.96875 283.5 z M 196.8125 284.125 L 197.375 284.71875 L 197.9375 285.28125 L 197.40625 286.125 C 197.11374 286.5982 196.23004 287 195.4375 287 L 194 287 L 194 286.09375 C 194 285.60255 194.63503 284.9834 195.40625 284.6875 L 196.8125 284.125 z M 191.5625 285.15625 C 191.8504 285.08687 192.28235 285.59469 192.59375 286.40625 C 192.94964 287.33365 193.025 288.31875 192.75 288.59375 C 192.475 288.86875 191.94964 288.33365 191.59375 287.40625 C 191.23786 286.47875 191.1625 285.49375 191.4375 285.21875 C 191.47188 285.18437 191.52137 285.16616 191.5625 285.15625 z M 120 288.65625 L 120.65625 289.34375 L 121.34375 290 L 120.65625 290.65625 L 120 291.34375 L 120 290 L 120 288.65625 z M 221.1875 288.78125 L 222.15625 289.75 L 223.125 290.71875 L 221.0625 291.28125 L 219 291.8125 L 219 290.96875 C 219 290.50265 219.49583 289.8071 220.09375 289.4375 L 221.1875 288.78125 z M 181 288.875 L 181 289.9375 L 181 291 L 182 291 C 182.55 291 183 290.805 183 290.5625 C 183 290.32 182.55 289.8399 182 289.5 L 181 288.875 z M 173.09375 289 L 174.5625 289 L 176 289 L 176 290 C 176 290.55 175.6625 290.94 175.25 290.875 C 174.8375 290.81 174.05 290.83225 173.5 290.90625 L 172.5 291.03125 L 173.84375 291.875 L 175.21875 292.75 L 174.34375 293.15625 C 173.87253 293.38195 171.475 293.2868 169 292.9375 L 164.5 292.3125 L 166.5 292 C 167.6 291.8312 169.17544 291.73325 170 291.78125 L 171.5 291.875 L 172.3125 290.4375 L 173.09375 289 z M 91.15625 290 C 90.14791 290 89.0494 290.29435 88.6875 290.65625 L 88.03125 291.3125 L 89.09375 292.59375 L 90.15625 293.875 L 91.5625 293.34375 L 93 292.78125 L 93 291.40625 L 93 290 L 91.15625 290 z M 179 291.65625 L 179.65625 292.34375 L 180.34375 293 L 179 293 L 177.65625 293 L 178.34375 292.34375 L 179 291.65625 z M 98.09375 292.75 L 96.46875 293.375 L 94.875 294 L 95.5 295 C 96.31058 296.311 97.70087 296.2811 98.53125 294.9375 L 99.1875 293.875 L 98.65625 293.3125 L 98.09375 292.75 z M 133.5 293.9375 L 142.125 294.59375 L 149.9375 295.1875 C 148.13363 295.35597 146.25192 295.49795 144.5 295.59375 L 136.5 296.03125 L 135 295 L 133.5 293.9375 z "
       id="path2998"
       transform="translate(-1.4670221,539.6585)" />
    <path
       sodipodi:nodetypes="cccssscccccccsscsccssscssscssscccccccsssccsccccccccccccsscccccccccccccccccccccccccsscsscsscccsscccccccccccccccccccsscccssccccccccccccccscsscsscscccccccccccccccccccccccccccccccccccccccccccccsscccccscscccccccccccccssccccccccccccccccscccccccccccccccccccccsscccccccccccccccsscccccccccccccssscccccccsscccsscccccccccccccccsscccccccccccccccccccsscccccssccccccccccccscsssccccccsccsscsscscscccccscccsccccccccccccssscccccccccccccccccccccccccccccsscccsscccccccccccsscccccccssssscccssssssssccccccccccccccccccccccccccccccccccccccccccccccccccccsssssccccccccccccccccccccsscccsccccccccccccccccccccssccscssscscccscssscccsccccccc"
       inkscape:connector-curvature="0"
       id="path2983"
       d="m 55.52393,759.35769 -2.36805,1.81992 -2.64639,1.73398 -0.56947,2.26895 c -0.31321,1.24792 -0.44992,3.1052 -0.3038,4.12729 0.34789,2.43349 -1.06185,8.52028 -2.34116,10.10835 l -1.00697,1.25 -2.74269,0 -2.7427,0 -2.66426,2.09574 -2.66426,2.0957 -1.570733,-0.6028 -1.570734,-0.6027 0.57019,-4.24298 c 0.313605,-2.33363 0.954593,-7.66174 1.42442,-11.84024 l 0.85423,-7.59728 3.815657,-6.90272 c 6.77511,-12.25655 8.53577,-15.6828 8.53577,-16.61068 l 0.92915,-1.29204 3.48306,-5.7842 c 1.91569,-3.18131 4.01255,-7.45631 4.65969,-9.5 0.64714,-2.04369 3.36785,-8.4408 6.04602,-14.2158 l 4.86939,-10.5 2.10588,-8 c 1.15824,-4.4 2.73215,-10.925 3.49759,-14.5 0.76543,-3.575 2.04002,-7.64261 2.83243,-9.03913 l 1.44073,-2.53912 1.57468,-10.46088 c 2.1561,-14.32331 3.51569,-21.91029 4.56259,-25.46087 0.48651,-1.65 1.19309,-6.25922 1.57017,-10.24271 l 0.6856,-7.24272 -1.07578,-1.29624 -1.07579,-1.29625 1.06095,-7.46104 1.06095,-7.46104 -0.60265,-11.70225 -0.60264,-11.70225 -1.61959,-4.04775 c -0.89078,-2.22626 -1.94229,-4.04775 -2.3367,-4.04775 -0.97672,0 -4.68289,4.14909 -5.3595,6 l -0.54834,1.5 -0.0926,-2.5 c -0.0509,-1.375 -0.36394,-3.5125 -0.69558,-4.75 l -0.60297,-2.25 1.64138,0 1.64138,0 0.96805,-2.54617 0.96805,-2.54617 -1.58226,-2.41483 -1.58226,-2.41484 -1.88456,-0.59814 -1.88456,-0.59813 -2.09407,-2.94086 -2.09408,-2.94086 324.17428,0 -0.65336,2.75 c -0.35935,1.5125 -1.30641,3.50296 -2.10458,4.42325 l -1.45122,1.67325 -3.28734,-0.53346 -3.28734,-0.53346 -0.73262,1.18541 -0.73263,1.18542 -2.43906,-2.29138 -2.43906,-2.29137 -3.40446,3.71617 -3.40446,3.71617 -1.51859,0 -1.51859,0 -4.15254,5.5 -4.15254,5.5 -1.42531,0 -1.42531,0 -2.45454,-2.45454 -2.45455,-2.45455 0,2.51356 0,2.51356 0.96353,-0.59549 0.96352,-0.59549 2.08763,2.08763 2.08762,2.08763 -0.6201,1.95377 -0.6201,1.95377 1.56895,0.60207 c 0.86292,0.33113 1.56895,1.00391 1.56895,1.49507 l 0,0.89301 -2.4349,0 c -1.3392,0 -3.67676,0.47215 -5.1946,1.04923 l -2.75969,1.04924 -5.55541,-2.41802 c -3.05547,-1.32992 -6.4554,-2.74663 -7.5554,-3.14825 l -2,-0.73023 1.62752,-1.06861 1.62751,-1.06861 -2.77187,-2.33237 c -1.52453,-1.28281 -3.09951,-2.33238 -3.49996,-2.33238 l -0.72809,0 1.37245,1.66262 1.37244,1.66262 -1.25,0.42071 -1.25,0.42072 0,1.41666 0,1.41667 -2.92327,0 -2.92328,0 -2.9885,2.51466 -2.98851,2.51466 -0.52092,-1.26466 -0.52092,-1.26466 -0.70399,2.32672 -0.704,2.32672 -2.385,0.90678 -2.38501,0.90678 -0.6033,3.0165 -0.6033,3.0165 -1.18644,0 c -0.65254,0 -2.18712,0.93228 -3.41018,2.07173 l -2.22374,2.07173 -2.96482,-0.65119 -2.96482,-0.65118 0,-0.85316 c 0,-0.46923 -0.83661,-1.11868 -1.85912,-1.44322 l -1.85913,-0.59006 -1.64087,0.62966 -1.64088,0.62967 0,1.22403 0,1.22403 -2.49849,1.33715 -2.4985,1.33716 -0.62829,-0.62829 -0.62829,-0.62829 -2.98092,1.54149 -2.98092,1.54149 -2.39229,-0.60043 -2.3923,-0.60042 -0.0318,0.76905 c -0.0175,0.42298 -0.6551,1.59142 -1.41691,2.59655 l -1.38511,1.82749 -2.83309,-1.8044 c -1.5582,-0.99241 -3.17059,-2.26479 -3.58309,-2.82749 l -0.75,-1.0231 -0.98469,1.5 c -0.54158,0.825 -0.99158,1.81094 -1,2.19098 -0.0184,0.83015 2.12019,2.27231 3.40136,2.29371 0.50416,0.008 1.10416,0.57781 1.33333,1.26531 l 0.41667,1.25 -3.0534,0 -3.0534,0 -2.23836,3.02755 -2.23836,3.02755 -2.04158,-0.27755 -2.04157,-0.27755 -0.31665,2.75232 -0.31664,2.75233 -2.41833,-0.60696 -2.41832,-0.60696 -1.01316,2.66481 -1.01315,2.66481 -1.00188,-0.61919 -1.00187,-0.61919 0,2.60433 0,2.60433 -3.38098,-0.63428 -3.38099,-0.63428 -1.53586,2.19276 -1.53587,2.19275 -0.33315,-2.27546 -0.33315,-2.27546 -1.40935,-0.46478 -1.40935,-0.46478 0.63447,1.6534 0.63446,1.65339 -2.15034,4.12552 -2.15034,4.12553 -0.87613,-2.3684 -0.87612,-2.3684 -0.83182,1.34591 -0.83181,1.34591 -0.96455,-1.72356 -0.96455,-1.72355 -2.15229,1.34412 -2.15228,1.34412 0,1.3819 0,1.3819 -1.5,-1.24489 -1.5,-1.24489 -1.45522,1.20772 -1.45521,1.20773 1.11303,1.78225 1.11304,1.78226 -0.60133,1.56705 c -0.33074,0.86188 -1.52676,2.06232 -2.65782,2.66765 l -2.05649,1.1006 0,-3.41855 0,-3.41856 -2.00138,-0.52337 -2.00138,-0.52337 0.4354,0.70449 c 0.53813,0.87071 -1.07197,3.59892 -2.14617,3.63652 -0.43256,0.0151 -2.27159,1.40671 -4.08674,3.09237 l -3.30028,3.06483 -0.16253,2.15764 -0.16253,2.15763 -2.78719,0 -2.7872,0 0,-1.56739 0,-1.56739 1.99922,0.63453 1.99923,0.63453 0.97272,-2.55846 0.97273,-2.55845 -0.62639,-1.63234 -0.62639,-1.63233 -2.94552,3.37365 c -3.26928,3.74446 -3.6285,3.83428 -5.0655,1.26651 l -0.99968,-1.78633 1.05363,-0.35121 1.05363,-0.35122 -0.51047,-1.95205 -0.51047,-1.95205 -0.88337,0 -0.88337,0 0,2.43191 0,2.4319 -2.84341,2.02469 -2.84341,2.02468 -1.0298,-1.0298 -1.02981,-1.02981 -0.63018,2.51081 -0.63017,2.51081 -2.24661,-0.11451 c -1.23564,-0.063 -2.80911,-0.54001 -3.49661,-1.06004 l -1.25,-0.94553 0,1.55102 0,1.55101 1.56376,1.56376 1.56376,1.56376 -0.7076,1.14491 -0.70759,1.14491 -1.19025,-2.88724 -1.19024,-2.88724 -1.70851,3.2827 -1.70851,3.28269 -0.95741,-0.59171 -0.95741,-0.59171 0,1.47568 0,1.47568 1.02344,0.34115 1.02343,0.34114 -0.66898,3.34495 -0.66899,3.34495 -2.71108,0.94508 -2.71107,0.94509 -1.08053,2.20215 c -0.59428,1.21119 -1.36413,3.21466 -1.71076,4.45216 l -0.63024,2.25 -1.34927,0 -1.34928,0 -0.44643,1.25 -0.44643,1.25 -0.71793,-0.66435 -0.71792,-0.66436 1.16204,-2.17129 1.16204,-2.17129 -0.50872,-0.50872 -0.50872,-0.50872 -2.0281,3.84437 -2.02811,3.84436 -0.0442,-1.75 -0.0442,-1.75 -1.41821,0 c -0.78002,0 -2.04955,0.24227 -2.82118,0.53837 l -1.40296,0.53837 0.44371,3.0232 0.44371,3.02321 -2.12253,0.55506 -2.12254,0.55505 -0.0153,1.13337 -0.0153,1.13337 -0.87288,-1.37812 -0.87288,-1.37811 -1.17998,0.72927 -1.17998,0.72926 0.52491,1.36788 0.5249,1.36787 -2.95673,1.74658 c -1.62623,0.96062 -2.95676,2.09956 -2.95676,2.53098 0,0.43141 -0.47656,0.78439 -1.05902,0.78439 l -1.05901,0 0.51502,-0.83333 0.51503,-0.83334 -1.34589,0 -1.34589,0 0.9823,2.81784 0.9823,2.81783 -3.09242,3.09242 c -1.70083,1.70084 -3.09242,3.55596 -3.09242,4.12249 l 0,1.03007 -1.5,-0.57561 -1.5,-0.5756 0,0.96861 c 0,0.53274 0.45,0.96862 1,0.96862 l 1,0 0,2.39301 0,2.39301 -1.5,0.57561 -1.5,0.5756 0,2 0,2 1.42704,-0.5476 1.42703,-0.54761 -0.51415,1.96613 -0.51416,1.96613 1.08712,0.67188 1.08712,0.67187 0,2.94099 0,2.94098 -0.96482,0 c -0.53065,0 -1.4653,-0.93516 -2.077,-2.07814 l -1.11219,-2.07814 0.48449,-1.26254 0.48448,-1.26255 -0.85613,-1.38524 -0.85613,-1.38525 -0.90776,2.45393 -0.90777,2.45393 -1.78717,-3.456 -1.78717,-3.456 -0.76947,2.08007 -0.76947,2.08007 0.21757,5.48075 0.21757,5.48075 2.64197,2.84925 2.64198,2.84926 -0.59031,0.95514 -0.59031,0.95514 2.39382,1.84055 2.39382,1.84055 -1.5,0 c -0.825,0 -2.625,-0.87999 -4,-1.95553 l -2.5,-1.95553 -2.25,-0.0222 -2.25,-0.0223 -2.11802,2.11803 -2.11804,2.11804 -0.86665,-1.36804 c -0.47666,-0.75241 -0.87355,-1.98563 -0.88197,-2.74047 l -0.0153,-1.37245 -1.5,1.24489 -1.5,1.24489 0,1.37755 0,1.37756 -1.57143,0 -1.57143,0 -1.65573,-1.65574 -1.65574,-1.65574 -0.56792,2.40574 -0.56792,2.40574 -0.95491,-0.0337 c -0.52521,-0.0186 -2.92221,-0.40486 -5.32668,-0.85847 l -4.37176,-0.82473 -2.41871,2.60847 c -1.33029,1.43462 -2.2161,2.60843 -1.96847,2.60843 0.24763,0 -0.711,1.32338 -2.1303,2.94084 l -2.58055,2.94085 -2.76493,-0.55299 -2.76493,-0.55298 0.57444,2.19667 0.51921,2.19668 0.13535,0.809 c -0.275,0 -0.35759,0.23928 -0.35759,0.51428 0,0.275 -0.0181,0.46741 -0.0423,0.58058 z M 217.3038,619.471 c -0.21771,-0.65312 -0.93051,-1.36573 -1.58401,-1.58356 l -1.18818,-0.39606 0.60767,1.58356 c 0.33422,0.87096 1.04702,1.58356 1.58401,1.58356 l 0.97635,0 z m 33.21386,-16.5625 c -0.008,-0.4125 -0.43396,-1.41197 -0.94563,-2.22104 l -0.93031,-1.47104 -0.67792,0.67791 -0.67791,0.67791 0.59216,1.54313 0.59215,1.54313 1.03139,0 c 0.56726,0 1.02449,-0.3375 1.01607,-0.75 z m 102.69942,-50.89922 -0.70477,-0.70478 -1.45787,1.927 c -0.80182,1.05985 -1.47217,2.3645 -1.48967,2.89922 l -0.0318,0.97222 2.19444,-2.19444 2.19445,-2.19444 z M 8.4696314,807.72913 l 1.3493415,-0.0703 1.4040301,0 1.682036,1.8586 1.682036,1.8587 -0.450213,3.6298 -0.450214,3.6299 0.842946,0.5209 c 1.18535,0.7325 6.003384,9.5072 6.003384,10.9334 0,1.3531 -8.085022,11.2794 -16.3460191,20.0686 l -5.639389,6.0001 -0.0073,-23.8091 8e-6,-2.4e-4 -0.0073,-23.8091 1.00000005,0.6181 1,0.618 0,-0.98166 2.48895445,0.74995 1.9277155,0.0348 1.916667,0.079 -0.557292,-0.56123 z m -2.2406291,1.25896 -0.051107,-0.0411 -0.5199149,-0.49695 -1.3125,0.5253 -1.3125,0.42576 -2.47790586,-0.761 -0.0220971,-0.98166 -1,0 -1.00000004,0 0,-267.99998 53.5000016,0.002 0.28866,4.24854 0.28866,4.24853 0.90516,0.31461 0.90516,0.31461 -0.5767,1.50285 -0.5767,1.50285 1.35663,2.68254 c 0.74614,1.4754 4.06923,5.38254 7.38463,8.68254 l 6.028,6 2.24825,4.3445 2.24825,4.3445 0,2.77977 c 0,1.52888 -0.675,4.69293 -1.5,7.03123 l -1.5,4.25145 0,3.81526 0,3.81526 1.00767,0.62277 1.00767,0.62278 -1.51326,1.51326 -1.51327,1.51326 0.43642,2.40671 0.43642,2.40672 -0.93083,0.57528 -0.93082,0.57528 0,4.31599 c 0,2.37379 0.28958,5.76392 0.64353,7.53363 l 0.64353,3.21765 3.45837,-0.40375 3.45837,-0.40374 -1.40316,1.06109 -1.40315,1.0611 0.41001,10.62421 0.41002,10.62422 -1.61597,6.87578 c -0.88879,3.78169 -2.51617,10.02579 -3.61639,13.87579 -1.10023,3.85 -2.44002,9.16221 -2.97732,11.80492 -0.86749,4.26676 -2.57859,9.4339 -7.68104,23.19508 -0.81572,2.2 -2.79796,6.8439 -4.40497,10.31977 l -2.92183,6.31977 0,1.96347 0,1.96348 -2.614,5.21675 c -1.4377,2.86922 -3.32698,6.02585 -4.19841,7.01473 -0.87142,0.98889 -1.67796,2.43542 -1.7923,3.21452 -0.11435,0.7791 -1.71257,3.94352 -3.5516,7.03203 -5.244153,8.80718 -6.018258,10.44583 -6.522523,13.80704 -0.259789,1.73164 -0.917972,4.94844 -1.462629,7.14844 -0.544657,2.2 -1.350608,5.575 -1.791001,7.5 -0.440393,1.925 -0.97325,4.175 -1.184127,5 l -0.383412,1.5 -1.75,0.71775 -1.75,0.7178 0,1.0912 0,1.0913 1,-0.6181 1,-0.618 0,1.166 0,1.166 -1.508975,-0.579 -1.508976,-0.5791 -1.231571,1.9721 -1.231572,1.972 -1.259453,0 -1.259453,0 0,-1.1224 0,-1.1224 -1.5,1.2448 -1.5,1.2449 0,3.2943 0,3.2942 -1.247337,0.4158 -1.247337,0.4157 2.247337,1.2028 2.247337,1.2027 0,1.0718 0,1.07176 -1.449072,-0.556 -1.449073,-0.55606 0.556061,1.44906 0.556062,1.449 -0.856989,-0.035 c -0.471344,-0.019 -1.981989,-0.6785 -3.356989,-1.4646 l -2.4999996,-1.42906 -2,0.081 -2,0.081 1.75,0.4573 1.75,0.4574 0,1.8676 0,1.8677 1.016312,0.6281 1.016312,0.6281 -0.575329,0.9309 -0.6026728,0.88793 z m 13.3039787,31.67029 0,-1.3333 0.666667,0.6667 0.666666,0.6666 -0.666666,0.6667 -0.666667,0.6667 z m 3,-51.49986 c 0,-0.275 0.225,-0.5 0.5,-0.5 0.275,0 0.5,0.225 0.5,0.5 0,0.275 -0.225,0.5 -0.5,0.5 -0.275,0 -0.5,-0.225 -0.5,-0.5 z m 51.999999,-51.50002 0,-1.33333 0.66667,0.66666 0.66666,0.66667 -0.66666,0.66667 -0.66667,0.66666 z m 44.99999,-24.62244 0,-3.62245 1.47899,1.22745 1.47898,1.22745 -0.9438,1.76351 -0.9438,1.76351 0.63148,0.63149 0.63148,0.63148 -1.16666,0 -1.16667,0 z m -0.26443,-12.97533 -0.59777,-0.59776 0.53809,-1.40224 c 0.29595,-0.77122 0.93994,-1.40223 1.4311,-1.40223 l 0.89301,0 0,2 0,2 -0.83333,0 c -0.45834,0 -1.10233,-0.26899 -1.4311,-0.59777 z m 50.99776,-47.52632 1.23334,-1.24258 0.55979,0.5598 0.5598,0.55979 -1.79313,0.68279 -1.79313,0.68278 z m 73.43079,-31.7671 1.31697,-2.10881 2.36645,0 2.36644,0 -0.56332,-1.46797 -0.56331,-1.46798 0.88723,-0.54834 0.88722,-0.54833 0.57235,0.92607 0.57234,0.92607 -0.52998,1.38109 -0.52997,1.3811 -3.22327,1.38183 c -1.7728,0.76 -3.59516,1.57808 -4.0497,1.81795 l -0.82642,0.43613 z m 11.24039,-4.26332 -0.71353,-1.15451 1.15451,0.71353 c 0.63498,0.39244 1.15451,0.91197 1.15451,1.15451 0,0.83414 -0.88305,0.43922 -1.59549,-0.71353 z m -2.3892,-2.59549 c 0.0293,-1.43318 1.49467,-2.75078 3.20803,-2.88445 l 1.72334,-0.13444 -1.00852,1.88444 -1.00853,1.88445 -1.46481,0 c -0.80565,0 -1.45793,-0.3375 -1.44951,-0.75 z m 12.48474,-9.25 c 0.33992,-0.55 1.04148,-1 1.55902,-1 0.51754,0 0.94098,0.45 0.94098,1 l 0,1 -1.55902,0 -1.55901,0 z m 107.5,-50 0,-1.33333 0.66667,0.66666 0.66666,0.66667 -0.66666,0.66667 -0.66667,0.66666 z"
       style="fill:#c8cbd5;fill-opacity:1" />
  </g>
</svg>
