<?xml version="1.0" encoding="utf-8"?>
<!-- Generator: Adobe Illustrator 16.0.4, SVG Export Plug-In . SVG Version: 6.00 Build 0)  -->
<!DOCTYPE svg PUBLIC "-//W3C//DTD SVG 1.1//EN" "http://www.w3.org/Graphics/SVG/1.1/DTD/svg11.dtd">
<svg version="1.1" id="Layer_1" xmlns="http://www.w3.org/2000/svg" xmlns:xlink="http://www.w3.org/1999/xlink" x="0px" y="0px"
	 width="106.704px" height="115.611px" viewBox="0 0 106.704 115.611" enable-background="new 0 0 106.704 115.611"
	 xml:space="preserve">
<g>
	<g>
		<rect x="10.6" y="103.671" fill="#95E000" width="9.265" height="11.94"/>
		<rect x="68.603" y="103.671" fill="#95E000" width="9.265" height="11.94"/>
	</g>
	<path fill="#95E000" d="M101.942,28.645c-0.808,0-1.566,0.202-2.231,0.557L81.027,13.355l2.609-3.727
		c0.901-1.287,0.586-3.076-0.7-3.978l-2.079-1.455l1.993-2.848c0.271-0.389,0.177-0.922-0.21-1.193
		c-0.389-0.271-0.923-0.178-1.194,0.211l-1.992,2.846l-2.079-1.454c-1.286-0.901-3.077-0.587-3.979,0.7l-2.714,3.876l3.346,2.345
		c0.387,0.271,0.48,0.805,0.209,1.192c-0.166,0.239-0.433,0.365-0.702,0.365c-0.17,0-0.342-0.05-0.491-0.155l-3.351-2.349
		c-1.667,0.146-3.742,0.425-5.608,0.96c-3.994,1.142-7.367,3.466-10.121,6.777c-0.899,1.08-0.959,1.992,0.29,2.866
		c0.272,0.19,20.736,14.521,21.01,14.711c1.249,0.875,2.085,0.507,2.793-0.708c2.17-3.72,3.2-7.685,2.907-11.828
		c-0.079-1.126-0.266-2.288-0.491-3.382l17.064,14.473c-0.229,0.557-0.355,1.165-0.355,1.804c0,0.769,0.186,1.491,0.508,2.134
		c0,0-8.422,7.703-14.85,13.643l1.083,4.607l16.114-16.021c0.584,0.256,1.228,0.399,1.905,0.399c2.63,0,4.762-2.132,4.762-4.762
		C106.704,30.776,104.572,28.645,101.942,28.645z"/>
	<g>
		<polygon fill="#95E000" points="0,92.028 0.255,100.671 88.876,100.671 89.13,92.028 		"/>
		<path fill="#95E000" d="M78.266,45.02H10.863L0.517,89.028h88.096L78.266,45.02z M34.107,51.313l1.31,3.045l-7.179,2.824
			L34.107,51.313z M25.685,81.229l2.416-22.442l7.849-3.075l1.396-0.55l-0.594-1.376l-1.109-2.576h25.096l3.231,30.02H25.685z"/>
	</g>
	<path fill="#95E000" d="M54.61,60.756L42.179,73.188l-1.007,2.784c-0.316,0.881-0.068,1.152,0.829,0.828l2.784-1.005l12.434-12.433
		C58.405,62.176,55.798,59.569,54.61,60.756z"/>
</g>
</svg>
