<?xml version="1.0" encoding="utf-8"?>
<!-- Generator: Adobe Illustrator 16.0.4, SVG Export Plug-In . SVG Version: 6.00 Build 0)  -->
<!DOCTYPE svg PUBLIC "-//W3C//DTD SVG 1.1//EN" "http://www.w3.org/Graphics/SVG/1.1/DTD/svg11.dtd">
<svg version="1.1" id="Layer_1" xmlns="http://www.w3.org/2000/svg" xmlns:xlink="http://www.w3.org/1999/xlink" x="0px" y="0px"
	 width="114.736px" height="64.504px" viewBox="0 0 114.736 64.504" enable-background="new 0 0 114.736 64.504"
	 xml:space="preserve">
<path fill="#89D1DF" d="M23.982,64.45c6.974,0,12.627-5.653,12.627-12.627s-5.653-12.627-12.627-12.627
	c-5.431,0-10.048,3.436-11.831,8.247c-0.111,0.301-0.214,0.605-0.304,0.916c-0.016,0.058-0.029,0.115-0.044,0.172
	c-0.083,0.307-0.159,0.616-0.22,0.931c-0.024,0.129-0.04,0.262-0.06,0.393c-0.04,0.25-0.082,0.5-0.107,0.756
	c-0.039,0.399-0.062,0.804-0.062,1.213c0,0.436,0.022,0.866,0.065,1.291C12.067,59.481,17.445,64.45,23.982,64.45z M23.983,45.893
	c0.009,0,0.018,0.001,0.027,0.001s0.018-0.001,0.027-0.001c3.269,0,5.928,2.66,5.928,5.93c0,3.268-2.659,5.93-5.928,5.93
	c-0.009,0-0.018-0.001-0.027-0.001s-0.018,0.001-0.027,0.001c-3.271,0-5.93-2.662-5.93-5.93
	C18.053,48.554,20.714,45.894,23.983,45.893z"/>
<path fill="#89D1DF" d="M67.232,39.196c-6.974,0-12.627,5.653-12.627,12.627S60.259,64.45,67.232,64.45s12.627-5.653,12.627-12.627
	S74.206,39.196,67.232,39.196z M67.251,57.752c-0.003,0-0.006,0-0.009,0s-0.006,0-0.009,0c-3.271,0-5.93-2.662-5.93-5.93
	c0-3.269,2.66-5.929,5.93-5.93c0.003,0,0.006,0,0.009,0s0.006,0,0.009,0c3.271,0,5.93,2.66,5.93,5.93
	C73.18,55.09,70.521,57.752,67.251,57.752z"/>
<path fill="#95E000" d="M33.322,19.262l-8.073,0.55L2.68,21.351v16.612L0,38.715v5.98h4.069l5.746,1.861
	c2.196-5.9,7.886-9.861,14.167-9.861c8.341,0,15.127,6.786,15.127,15.127c0,0.535-0.03,1.063-0.084,1.584h2.187H52.19
	c-0.055-0.521-0.084-1.049-0.084-1.584c0-8.341,6.786-15.127,15.127-15.127c7.698,0,14.059,5.785,14.995,13.233l7.604,3.114
	c0.615,6.431,6.029,11.461,12.62,11.461h12.285l-12.285-25.36c-2.394,0-4.626,0.676-6.537,1.83L80.373,26.893v-3.782h-4.721
	l-1.63,10.614l-5.916-4.071l-0.899-5.97l-2.478-0.568l-4.556,0.162l-7.9,2.325l-3.437,1.544H37.28l0.343-7.357L33.322,19.262z
	 M48.837,27.147H37.28 M60.174,23.278l-7.9,2.325 M91.371,45.661l-10.998-7.568v-6.566L93.21,43.157
	C92.501,43.913,91.879,44.749,91.371,45.661z"/>
<path opacity="0.5" fill="#95E000" d="M64.729,23.116c-1.021-5.91-2.559-13.602-2.871-15.297c-0.391-2.012-0.793-3.833-2.021-5.422
	c-1.244-1.629-3.376-2.441-5.698-2.395c-2.353,0-17.858,0-17.858,0h-2.062l-0.896,19.26l-3.844,0.262V8.614
	c0-1.169-0.947-2.114-2.113-2.114c-1.169,0-2.116,0.945-2.116,2.114V30.69l17.453-0.093L64.729,23.116z M48.837,27.147H37.281
	L38.342,4.32c2.536,0,6.935,0,10.495,0V27.147z M52.274,25.603V4.32c0.852,0,1.511,0,1.865,0c1.618,0.046,1.925,0.328,2.314,0.76
	c0.406,0.47,0.831,1.674,1.158,3.526c0.295,1.588,1.555,8.846,2.563,14.672L52.274,25.603z"/>
</svg>
