<?xml version="1.0" encoding="utf-8"?>
<!-- Generator: Adobe Illustrator 16.0.4, SVG Export Plug-In . SVG Version: 6.00 Build 0)  -->
<!DOCTYPE svg PUBLIC "-//W3C//DTD SVG 1.1//EN" "http://www.w3.org/Graphics/SVG/1.1/DTD/svg11.dtd">
<svg version="1.1" id="Layer_1" xmlns="http://www.w3.org/2000/svg" xmlns:xlink="http://www.w3.org/1999/xlink" x="0px" y="0px"
	 width="114.736px" height="64.505px" viewBox="0 0 114.736 64.505" enable-background="new 0 0 114.736 64.505"
	 xml:space="preserve">
<path fill="#95E000" d="M18.108,51.822c0,3.269,2.659,5.931,5.93,5.931c3.268,0,5.928-2.662,5.928-5.931s-2.66-5.929-5.928-5.929
	C20.768,45.894,18.108,48.554,18.108,51.822z M61.321,51.822c0,3.269,2.66,5.931,5.93,5.931s5.929-2.662,5.929-5.931
	s-2.659-5.929-5.929-5.929S61.321,48.554,61.321,51.822z M114.736,64.505h-12.285c-6.591,0-12.005-5.031-12.62-11.461l-10.267-4.205
	c0.231,0.959,0.368,1.954,0.368,2.983c0,7.004-5.678,12.683-12.682,12.683c-6.465,0-11.79-4.844-12.572-11.098H41.212h-4.603
	c-0.781,6.254-6.107,11.098-12.571,11.098c-7.005,0-12.683-5.679-12.683-12.683c0-1.585,0.304-3.096,0.835-4.495l-8.121-2.631H0
	v-5.98l2.68-0.752V21.351l22.569-1.539V8.614c0-1.169,0.947-2.114,2.116-2.114c1.166,0,2.113,0.945,2.113,2.114v10.91l3.844-0.262
	l0.896-19.26h2.062c0,0,15.506,0,17.858,0c2.322-0.046,4.454,0.766,5.698,2.395c1.229,1.589,1.631,3.41,2.021,5.422
	c0.314,1.695,1.85,9.387,2.872,15.297l2.478,0.568l0.899,5.97l5.916,4.071l1.63-10.614h4.721v3.782l15.541,14.081
	c1.911-1.154,4.143-1.83,6.537-1.83L114.736,64.505z M80.373,38.093l10.998,7.568c0.508-0.912,1.13-1.749,1.839-2.504L80.373,31.526
	V38.093z M54.138,4.32c-0.354,0-1.013,0-1.865,0v21.283l7.901-2.325c-1.008-5.826-2.268-13.084-2.563-14.672
	c-0.327-1.852-0.752-3.056-1.158-3.526C56.063,4.648,55.757,4.366,54.138,4.32z M38.342,4.32L37.28,27.147h11.557V4.32
	C45.276,4.32,40.878,4.32,38.342,4.32z"/>
</svg>
