<?xml version="1.0" encoding="utf-8"?>
<!DOCTYPE svg PUBLIC "-//W3C//DTD SVG 1.1//EN" "http://www.w3.org/Graphics/SVG/1.1/DTD/svg11.dtd">
<svg version="1.1"
	 id="svg2" xmlns:dc="http://purl.org/dc/elements/1.1/" xmlns:cc="http://creativecommons.org/ns#" xmlns:rdf="http://www.w3.org/1999/02/22-rdf-syntax-ns#" xmlns:svg="http://www.w3.org/2000/svg"
	 xmlns="http://www.w3.org/2000/svg" xmlns:xlink="http://www.w3.org/1999/xlink" x="0px" y="0px" width="798.365px"
	 height="308.96px" viewBox="0 9.031 798.365 308.96" enable-background="new 0 9.031 798.365 308.96" xml:space="preserve">
<g id="layer1" transform="translate(1.4670221,-539.6585)">
	<path id="path2998" fill="#C8CBD5" d="M704.627,548.69l-1.53,0.594c-0.854,0.328-1.562,0.752-1.562,0.97
		c0,0.81,1.913,0.355,2.5-0.595L704.627,548.69z M687.564,554.69c-0.533,0.019-1.171,0.379-1.594,1.062l-0.656,1.094l-3.281-0.625
		l-3.25-0.594l-4.125,2.688c-2.268,1.485-4.125,3.032-4.125,3.438c0,0.405,0.993,1.874,2.219,3.25
		c1.227,1.376,2.517,2.327,2.845,2.125c0.327-0.203,1.387-2.098,2.344-4.22l1.719-3.875l4.438-1.188l4.438-1.188v-1
		C688.533,554.989,688.097,554.672,687.564,554.69z M664.283,568.971l-4.125,0.188l-4.125,0.188l-2.812,1.375l-2.845,1.344
		l-1.905-1.188l-1.906-1.22l-4,1.625l-4.031,1.595v0.905v0.875h-1.594h-1.625l-1.969,2.5l-1.97,2.5h-2.344h-2.375l-0.531-0.844
		l-0.53-0.875l-2.625,0.5l-2.595,0.5l-1,2.594c-1.298,3.413-3.799,6.139-6.625,7.22l-2.25,0.875l-1.062,2.78
		c-1.507,3.964-3.757,6.153-9.125,8.875l-4.719,2.375h-3.938h-3.938l-2.156,4.156c-1.188,2.279-3.326,5.665-4.75,7.531l-2.562,3.406
		l-7.625,3.438c-10.149,4.608-11.153,5.239-16.719,10.469c-2.634,2.476-5.046,4.517-5.344,4.531s-2.106,1.541-4.031,3.375
		l-3.5,3.312l-5.5,2.469c-3.025,1.351-7.525,3.349-10,4.438l-4.5,1.97l-12.5,0.905l-12.5,0.875l-9.5,2.688l-9.5,2.688l-8.156-0.094
		l-8.125-0.094l-4.28-0.969l-4.281-0.938l-9.562,2.031l-9.594,2.031l-11.5-0.845l-11.5-0.844l-18.25,0.281l-18.25,0.25l-4.938-2.125
		l-4.906-2.125l-1.844,1.062l-1.812,1.062l2,0.156c1.1,0.082,2.359,0.078,2.812,0l0.844-0.125l-0.656,1.062l-0.656,1.031l2,3.406
		c1.099,1.86,1.764,3.582,1.5,3.844c-0.263,0.262-3.363-1.125-6.905-3.094l-6.438-3.595v-0.938v-0.938l3.062,0.625l3.03,0.595
		l-0.594-0.97l-0.625-1h-1.812h-1.781l-2.719-2.125l-2.688-2.125l-2.75,2.625l-2.75,2.625h-4.188h-4.188v0.938
		c0,0.504,1.089,1.742,2.406,2.75l2.375,1.812l-0.5,5.75l-0.531,5.72l-5.5,2.53c-3.024,1.386-6.004,2.5-6.625,2.5
		s-3.957,1.354-7.438,3l-6.345,3l-7.155-1.625c-3.945-0.886-9.731-2.672-12.844-3.969c-3.113-1.297-8.702-2.957-12.406-3.719
		l-6.719-1.406l-2.844,1.062l-2.844,1.094l-4.531-2.219l-4.562-2.22l-0.562,1.5l-0.594,1.5h-1.375h-1.406v-1v-1h1.438
		c0.792,0,1.739-0.458,2.094-1.03l0.625-1.031l-3.625-4.469l-3.656-4.47h-1.438h-1.406l-0.469,2.25
		c-0.255,1.237-0.646,5.625-0.875,9.75l-0.406,7.5l0.938-2.75l0.938-2.75h1.344h1.344l0.406,1.25l0.438,1.25l1.594-1.344
		l1.625-1.312l1.062,0.625l1.031,0.655v-1.062v-1.062h1.312c0.715,0,2.489,0.562,3.969,1.25l2.688,1.25l0.031,2.062v2.031
		l-1.188,1.188l-1.156,1.188l1.188,2.562l1.156,2.594l-1.031,1.97l-1.062,1.969l-0.938-0.562l-0.938-0.594l1.219-1.906l1.188-1.938
		l-3.062-3l-3.094-3l-0.625,0.625c-0.354,0.354-0.656,1.492-0.656,2.5c0,2.237-0.408,2.255-3.469,0.25l-2.406-1.562l-2.156,1.156
		l-2.156,1.156l-5.875-0.688l-5.844-0.688l-1.156-1.375l-1.156-1.406l0.562-1.5l0.594-1.531h1.531h1.531v1.22v1.188l1.188-1.188
		c0.651-0.651,1.262-2.081,1.344-3.188l0.125-2.031l-1.812-1.625l-1.844-1.655l-2.75-0.22c-1.516-0.106-3.714-0.258-4.875-0.344
		l-2.094-0.156l-3.562-2.405l-3.562-2.406l-1.438,1.656l-1.469,1.655l-0.688,3.845l-0.688,3.812l1.219,1.469
		c0.665,0.802,2.719,4.431,4.562,8.095l3.344,6.688v3.219v3.25l1.5,1.5l1.5,1.5l-0.906,0.562l-0.938,0.594l-1.344-1.344
		c-0.743-0.744-2.368-1.906-3.594-2.562l-2.219-1.188v-2.375c0-1.312-0.26-3.1-0.594-3.969l-0.625-1.595h-2.875h-2.906l-0.125,1.75
		c-0.154,2.279-0.132,2.358,0.625,5.375l0.625,2.562l-2.812-0.344c-1.55-0.188-4.446-0.609-6.438-0.938l-3.625-0.594l-1.188-3.938
		l-1.156-3.969l0.594-1.938l0.625-1.97h1.281h1.281l1.781-1.969l1.812-1.969l0.844,0.531l0.875,0.53v2.312v2.312l-2,2.531
		c-1.1,1.398-2,2.977-2,3.5v0.938l2.5-0.47l2.5-0.469v-1.812c0-0.991,0.26-2.506,0.594-3.375l0.625-1.595h1.875h1.906v-1
		c0-0.555-1.284-2.337-2.844-3.969l-2.812-2.969l-3.906,1.969c-4.709,2.401-5.837,2.452-9.406,0.344l-2.781-1.655l-2.344,1.655
		l-2.344,1.625h-2.156h-2.156l-1.25,1.5l-1.25,1.5h-2.188h-2.156l-1.188,1.188l-1.156,1.156l-2.375-1.062l-2.406-1.094l-2.375,4.031
		c-1.317,2.215-3.254,4.93-4.281,6.031l-1.844,2l0.656,4.625c0.365,2.548,0.732,7.438,0.844,10.875l0.219,6.25h-0.688
		c-0.382,0-2.473-2.979-4.656-6.625l-4-6.625l-6.562-2.78l-6.594-2.781l-0.562,0.906l-0.562,0.905h-2.062h-2.031l0.469,2.595
		l0.5,2.562l-1.906,1.781l-1.906,1.781l1.531,1.25l1.531,1.28l0.125,2.625l0.094,2.625l0.438-1.594l0.438-1.594l2.469,0.469
		c1.358,0.26,2.684,0.853,2.969,1.312l0.531,0.812l1.5-0.562l1.469-0.562l-1.031,2.688l-1,2.719l0.531,0.875l0.531,0.875
		l-0.938,1.781c-0.512,0.983-1.399,2.905-1.969,4.28l-1.031,2.5l-0.062-3.312l-0.062-3.312l-1.031-1.938
		c-0.569-1.064-1.494-1.938-2.062-1.938c-0.568,0-3.076-1.384-5.562-3.094l-4.531-3.125l-0.938,0.969l-0.938,0.938l0.969,2.531
		l0.969,2.562l-2.375,2.031l-2.344,2.062l0.531,2.095l0.562,2.094l1.875,1.031l1.906,1l-0.219,2.844l-0.219,2.875l1.375,1.656
		l1.375,1.655l-1.406-0.312l-1.375-0.312l-0.562,3.5l-0.562,3.5l-2.375-4.5c-1.298-2.476-2.34-4.726-2.312-5
		c0.027-0.274-0.36-1.288-0.875-2.25l-0.938-1.75h-1.469h-1.469v1v1h-1.5h-1.5v-1v-1H110.1c-1.339,0-3.707-0.477-5.25-1.062
		l-2.781-1.062l-2.062,2.562c-1.125,1.411-2.358,2.562-2.75,2.562h-0.719v-1.938v-1.938l-3,1.031l-3,1.062v1.375v1.405H89.35h-1.156
		l2.156,2.312l2.188,2.312v2.688v2.688h1.125h1.125l-1.219,1.5l-1.25,1.47l-1.906-1.031l-1.938-1.031l0.594-0.969l0.594-0.969
		l1.188,0.719l1.188,0.719l-1.469-1.969c-0.801-1.068-2.324-2.663-3.406-3.562l-1.969-1.625l-0.25-1.719
		c-0.137-0.932-0.509-2.335-0.812-3.125l-0.531-1.438l-2.688-1l-2.688-1.031l-0.875,0.875l-0.875,0.875l0.625,1.656l0.656,1.655
		l3.125,0.845l3.156,0.844l-2.188,0.688l-2.188,0.72l-0.375,1.719l-0.344,1.688l-1.719-3.219l-1.719-3.219l-2.094-1.125
		l-2.094-1.125l-3.719,3.625l-3.688,3.625l-0.75-0.75l-0.719-0.75l-0.812,1.312l-0.562,1.281l0.125,0.812
		c0.098,0.011,0.344,0.256,0.344,0.53s-0.194,0.5-0.469,0.5l-4.938,7.875l-1.969,2.25l-1.625,2.312v4.344v4.312l-2.188,4.188
		c-1.211,2.314-2.125,4.609-2,5.062l0.25,0.812l-1.094-0.688l-1.094-0.656l-3.344,0.625l-3.312,0.625l-1.219,2.938l-1.219,2.906
		l-2.688-0.531l-2.719-0.53l-1.281,1.53l-1.281,1.531l0.656,1.062l0.656,1.03l1.938-1.03l1.938-1.031v0.938
		c0,0.523-0.544,1.15-1.219,1.375l-1.219,0.406l0.25,3.375l0.25,3.406l1,0.625l1,0.594l-3.656,3.938l-3.625,3.905l-1.875,4l-1.875,4
		v2.875l-0.031,2.906l2.094,3.344l2.062,3.375h2.188h2.156l3.25,2l3.25,1.97l0.156,1.25c0.084,0.694,0.187,1.955,0.25,2.78
		l0.125,1.5l-1.938,0.531l-1.938,0.531l-0.406,1.156l-0.375,1.155l2.219,1.188l2.219,1.188l12.344-1.312l12.344-1.281v-1.812v-1.781
		l2.875,0.562l2.875,0.562l2.5-1.625l2.5-1.625l0.625,1.625l0.656,1.656l-1.531-0.562c-2.22-0.853-1.826,0.096,0.562,1.375
		l2.062,1.094l2.938-0.625l2.938-0.655v-1.97c0-1.088-0.506-4.01-1.125-6.469l-1.125-4.469l-2.125,0.688l-2.094,0.656l1.344-1.625
		l1.375-1.656l-1.219-1.469l-1.188-1.438l0.656-2.062l0.625-2.031h1.281h1.25l1.312-2.469c0.722-1.35,1.604-2.346,1.938-2.25
		s1.831-0.678,3.344-1.688l2.75-1.812v-1.406v-1.375h1h1v1.625v1.595l2.75-0.656c1.513-0.365,3.753-0.91,4.969-1.219l2.188-0.562
		l6.5,3.625c3.573,1.998,6.803,4.115,7.156,4.688l0.625,1.03l-1.75,1.938l-1.75,1.938h1.594h1.625l0.906-1.655l0.938-1.625
		l1.188,0.75l1.188,0.719l-0.281,2.656l-0.281,2.655l0.719,1.156l0.719,1.156l-2-0.531l-1.969-0.5l-0.594,1.531l-0.594,1.562
		l-3.188,0.656l-3.156,0.688l-2.5,2.28c-1.375,1.267-4.245,3.029-6.375,3.906l-3.875,1.594h-2.719h-2.75l-4.375,3.5l-4.406,3.47
		l-2.688,0.03h-2.688l-0.688,1.095l-0.688,1.094l-2.844-0.562l-2.844-0.562l-0.594,0.969c-0.329,0.531-1.351,0.988-2.281,1h-1.688
		l-2.188,1.75l-2.188,1.719l-0.688,2.75c-0.368,1.513-0.453,2.75-0.188,2.75c0.265,0,2.543-1.142,5.031-2.53l4.5-2.531l5.594-1.438
		l5.562-1.469l9.781-4.562l9.781-4.595l7.5-2.03c4.125-1.104,9.75-2.39,12.5-2.875c2.75-0.488,6.125-1.146,7.5-1.47l2.5-0.594
		l-2.25,1.594c-1.237,0.888-2.25,1.932-2.25,2.312v0.688l6.25,0.031c3.438,0.012,12.55,0.135,20.25,0.281l14,0.281l11.5-0.812
		l11.5-0.781l0.094-2.594c0.054-1.432,0.421-3.117,0.812-3.75l0.719-1.156l1.875,1c1.03,0.552,2.576,1,3.438,1h1.562v-1.75
		l0.031-1.75l0.969,1.5c0.533,0.824,0.992,2.027,1,2.656v1.125l-2.594,0.656l-2.594,0.656l-2.406,2.405
		c-1.328,1.327-2.406,2.869-2.406,3.406v0.969l7.75-2.812c4.263-1.549,10.45-3.375,13.75-4.031
		c9.06-1.805,14.352-3.068,21.406-5.156l6.406-1.905l0.5,0.53l0.5,0.5l1.094-0.875c0.601-0.473,4.244-1.877,8.094-3.125
		c3.85-1.248,8.256-2.887,9.781-3.655c3.538-1.788,17.366-5.293,20.969-5.312l2.75-0.031v-1.312v-1.312l5.25,0.156
		c2.888,0.084,6.902,0.492,8.906,0.906l3.625,0.75l2.031-1.094l2.031-1.062l1.219-3.75c0.674-2.065,1.722-4.086,2.312-4.469
		l1.062-0.688l-0.78-0.78l-0.75-0.781l-0.781,1.25l-0.781,1.25l-1.562-0.594l-1.594-0.595l-0.719,1.188l-0.719,1.156l-0.656-1.031
		l-0.625-1.062l-4.75,1.562l-4.719,1.562v1.375v1.375l2.75,0.031h2.75l-1.5,0.969c-0.825,0.533-2.288,0.99-3.25,1h-1.75l0.094-0.75
		c0.06-0.413-0.195-1.764-0.594-3l-0.719-2.25h-0.938h-0.938l0.312,1.281l0.281,1.281l-1.438,1.531l-1.469,1.562l-2.938-1.469
		l-2.969-1.469l-1.188,1.625c-0.664,0.906-1.549,1.655-1.938,1.655h-0.688l0.594-1.875l0.594-1.875l-2.094-0.53l-2.094-0.562
		l-3.188,1.344l-3.188,1.345l-2.75,3.062c-3.168,3.555-3.327,4.094-1.188,4.094h1.562l-0.531,0.875l-0.531,0.875l-2.594-0.5
		l-2.562-0.5l0.312,1.375l0.281,1.375l-2.75-0.312l-2.75-0.312v0.812v0.812h-3h-3v-0.75v-0.75h1.562h1.594l1.531-1.53
		c1.829-1.829,1.674-2.095-1.938-3l-2.75-0.688v2.219v2.22l-1.594-0.595l-1.562-0.625l-3.844,0.625l-3.812,0.625l-0.5,1.875
		l-0.5,1.875h-2.594h-2.594v1.5c0,0.824-0.176,1.5-0.406,1.5s-1.155,0.289-2.031,0.625l-1.594,0.595l0.688-1.812l0.719-1.781
		l-3.375,2.375l-3.375,2.406l0.906-1.438c0.488-0.789,2.151-2.488,3.688-3.781s2.781-2.779,2.781-3.312v-1l-1,0.625l-1,0.625
		l-1.062-0.655l-1.062-0.656l1.812-1.312l1.812-1.344l-2.844-1.094l-2.812-1.062l-0.969,0.595l-0.969,0.594l0.562,1.75l0.562,1.781
		l-1.5,1.28l-1.531,1.25l0.156-4.219l0.188-4.219l1.812-1.156l1.844-1.125v-1.25v-1.281h2.5h2.5v-1.094v-1.125l1.812,2.25
		l1.812,2.219l1.719-1.75l1.75-1.719l3.969,0.625l3.938,0.625v-1.438v-1.406l5.75,0.25l5.75,0.281l1-0.562
		c0.55-0.32,1.45-0.645,2-0.688c2.53-0.202,7.228-1.914,9.5-3.47l2.5-1.719l1.25,0.438l1.25,0.469v-1.094v-1.095h1.312
		c0.721,0,2.288-0.899,3.469-2l2.125-2h2.562h2.531l-0.25-1.25l-0.25-1.25l6.188,0.312l6.156,0.344l5.5-4.344l5.5-4.312l0.094-1.094
		l0.062-1.062l2.5-1.156l2.5-1.125v-1.031v-1.031h2h1.969l-0.219,2.25l-0.25,2.25l2.312,0.345l2.312,0.312l1.188-1l1.188-0.969
		l1.906,1.375l1.875,1.375l0.812-0.469l0.781-0.5l4,2.094l4,2.094l3.25-0.344l3.25-0.312l0.812-3.062l0.781-3.094l2.031-1.812
		c1.107-1.004,2-2.254,2-2.75v-0.906l-0.938,0.595l-0.938,0.594l-3.312-1.5l-3.312-1.469l6.062,0.312l6.095,0.312l2.594,1.719
		l2.625,1.719l3.812-0.594c7.946-1.229,10.354-1.803,10.845-2.594l0.5-0.812l5.5-0.688l5.469-0.688l0.031-1.625v-1.656l1.75-2.125
		l1.719-2.125l6.875-0.594l6.844-0.594l5.875,1.969c3.221,1.084,6.562,1.969,7.438,1.969h1.594l-0.531-0.844l-0.5-0.812l3.844-3.781
		l3.845-3.75l3.094,0.656l3.094,0.688l1.969-0.625l1.97-0.625l0.688-2.188l0.688-2.188l1,2.5c0.556,1.365,1.296,4.493,1.625,6.969
		l0.594,4.5l2.312,0.345l2.312,0.312l-0.406,1.188l-0.406,1.155l-1.405,0.156c-0.777,0.074-2.618,0.187-4.095,0.25l-2.688,0.094
		l-0.594,1.938l-0.625,1.969l-3.938-0.156l-3.938-0.155l-1.281,1.562c-0.696,0.855-2.825,2.136-4.75,2.875
		c-1.925,0.738-4.941,2.414-6.688,3.719l-3.155,2.375l-1.845-0.312l-1.812-0.312l0.219,1.188l0.219,1.188l-3.188,0.688l-3.219,0.719
		l-1.031,1.281c-2.257,2.869-16.873,9.457-24.344,10.969c-1.846,0.373-5.221,1.494-7.5,2.5l-4.156,1.844l-7,1.188l-7,1.188l-1.25,1
		l-1.25,1l-2.906-0.562l-2.906-0.594l-1.375,2.094l-1.405,2.062l-5.438,0.281l-5.469,0.25l-3.969,2.125l-3.97,2.094h-2.312
		c-1.276,0-3.986,0.701-6.031,1.562l-3.719,1.562l-8-0.155c-4.4-0.093-8.562-0.117-9.25-0.062l-1.25,0.094v1.656v1.656l10.25-0.625
		l10.25-0.625l8.5-2.375c25.564-7.149,55.607-16.274,63.5-19.312c4.95-1.905,13.792-5.921,19.656-8.905
		c13.025-6.634,36.059-16.931,52.844-23.625c6.875-2.742,14.3-5.803,16.5-6.781c2.2-0.98,9.399-3.609,16-5.844
		c17.623-5.968,40.288-14.052,63.5-22.688c11.274-4.195,23.088-8.568,26.25-9.688l5.75-2.031v-0.875v-0.875l-3.094,0.625
		l-3.095,0.625l-0.905-1.406c-0.486-0.768-0.898-2.299-0.906-3.406v-2.03l2-3.72c1.1-2.053,2-4.138,2-4.625v-0.875l-2-0.53l-2-0.531
		v-1.094v-1.095h5.094h5.094l5.406,1.595l5.406,1.562v1.875v1.875l2.25,1.562l2.25,1.594l-1.5,0.969
		c-0.825,0.525-2.258,0.961-3.188,0.969h-1.688l-0.625,1l-0.625,1h-1.812h-1.78l-2.656,2.095c-1.449,1.14-2.625,2.43-2.625,2.875
		v0.812l16.25-7.25c16.935-7.559,28.148-13.04,68.25-33.219c23.685-11.918,47.144-23.312,48-23.312c1.059,0,30.161-13.398,42-19.344
		c12.413-6.232,20.539-9.593,23.25-9.625c0.688-0.008,4.406-1.494,8.25-3.281l6.969-3.25l0.031-1.25
		c0.006-0.688,0.338-1.246,0.75-1.25s1.85-1.598,3.188-3.562l2.438-3.594l-1.438-0.906c-1.464-0.926-5.302-1.29-10.188-0.969
		l-2.719,0.188l-1.188-2.562c-1.35-2.961-1.645-3.057-4.281-1.062l-1.938,1.469l-2.062,0.062c-1.133,0.037-4.488,0.871-7.469,1.844
		l-5.438,1.781l-0.75,2.062l-0.781,2.062l1.094,3.562l1.094,3.562l-1.28,1.531l-1.281,1.53h-2.406h-2.406l-0.562-1.5l-0.594-1.5
		h-2.375h-2.406l-0.031,0.75c-0.015,0.413-1.808,2.775-4,5.25c-2.192,2.476-4.498,5.122-5.125,5.875l-1.156,1.375l-5.405-0.625
		l-5.406-0.655l-1.25,1.28c-0.688,0.696-1.527,2.019-1.875,2.938l-0.625,1.656l-2.312,0.344l-2.312,0.312l-1.375,3.156l-1.406,3.156
		l-2.219,1l-2.219,1.031l-2.345-1.188l-2.375-1.188l-2.219-3.47c-1.223-1.917-3.15-4.693-4.281-6.155l-2.062-2.656v-3.969v-3.97
		l-4.031-3.655l-4.062-3.656l-2.906,1.719l-2.906,1.719l-1.156,2.75l-1.125,2.75l-3,1.062l-3,1.031l-2.155-1.125
		c-1.185-0.622-3.221-1.982-4.531-3l-2.406-1.845l-4.594,0.095c-2.538,0.055-5.75,0.492-7.125,0.969l-2.5,0.875l4.344-0.562
		l4.375-0.594l-0.719,5.375c-0.398,2.946-1.15,6.131-1.656,7.094l-0.906,1.75h-2.812h-2.812l-1.188,2.625l-1.188,2.625l-4.125-0.655
		c-2.267-0.362-4.489-0.881-4.938-1.156l-0.812-0.5l0.595-2.906l0.562-2.875l-1.594-2.281l-1.625-2.312V629v-2.25l-1.406-0.781
		l-1.438-0.812l-0.688-2.75l-0.688-2.75h2.062h2.094l1.062,2l1.062,2l2.845,1.47l2.844,1.469l0.75-0.719l0.719-0.72l-0.656,3.156
		l-0.688,3.156l1.125,0.688l1.094,0.688l1.469-0.562l1.438-0.562l-2.25-4.625l-2.219-4.594l1.625-1.22l1.655-1.188l-1.375-2.469
		c-0.75-1.355-1.387-3.287-1.405-4.312l-0.031-1.875l-2.25,1.469l-2.25,1.438l-1.25-0.406l-1.25-0.438l0.625-1.031l0.625-1
		l-2.062,1.094c-1.13,0.605-2.568,1.094-3.188,1.094h-1.125l0.656-1.062l0.655-1.062l-1.469-1.688
		c-0.812-0.928-1.779-2.7-2.156-3.938l-0.688-2.25h0.625c0.349,0,1.499,0.462,2.562,1.031l1.938,1.031v1.969v1.969h1h1v-1.5
		c0-1.937,0.993-1.912,2.438,0.062l1.125,1.562l2.72,0.312l2.719,0.281v-1.72v-1.75l-3.812-0.594
		c-2.095-0.335-5.257-1.333-7.03-2.219l-3.22-1.625l-1.719-3.625l-1.719-3.656l-1.75-0.344l-1.75-0.312l-0.688,1.812
		c-0.369,1.003-1.268,2.184-2,2.625l-1.312,0.812l0.594,2.438l0.625,2.438h-0.906c-0.5,0-1.436-0.528-2.094-1.188l-1.219-1.188
		l-1.469,1.938c-0.811,1.07-1.482,2.689-1.5,3.594l-0.031,1.625l-1.75,0.781c-0.963,0.418-2.537,0.649-3.5,0.531l-1.75-0.22v0.906
		c0,0.5,0.899,1.723,2,2.719l2,1.812v2.344v2.312l3.938,2.625l3.938,2.594l2.062-0.656l2.062-0.656v-1.062v-1.062l-1.562,1.312
		l-1.594,1.312l-0.875-1.438l-0.906-1.438l1.72-0.655c0.941-0.374,2.274-0.743,2.969-0.781l1.281-0.062l1.688,2l1.719,2h1.781h1.781
		v0.938v0.938l-2.156,0.312l-2.125,0.312l-1.062,1.656l-1.031,1.656l3.062,4.719l3.062,4.688l-0.469,1.844
		c-0.264,1.006-1.282,2.564-2.281,3.469l-1.844,1.625l-2.625-1.719l-2.625-1.719l-1.156,1.125l-1.156,1.155h-2.781h-2.812v-2.03
		c0-2.345-2.809-9.474-3.469-8.812c-0.243,0.244,0.229,2.423,1.062,4.844l1.531,4.375l-0.594,2.406
		c-0.33,1.317-2.459,5.396-4.72,9.062c-2.26,3.666-4.748,7.894-5.53,9.405l-1.438,2.75l-2.156,0.5
		c-1.196,0.269-4.189,0.605-6.655,0.75l-4.5,0.25l-1.5,6.688l-1.531,6.688l-4.281,4.531l-4.281,4.531l-4.03,1.219l-4.031,1.219
		l-8.969-4.688l-8.938-4.688h-1.938h-1.906l-0.625-1c-0.34-0.55-0.951-1-1.375-1h-0.781l0.062,2.25l0.094,2.25l-4.5-0.219
		l-4.469-0.188l-1.125-1.562l-1.125-1.531h-1.595h-1.625l-1.062,2.031l-1.094,2.031l-0.97-0.594
		c-1.372-0.849-1.168-2.082,0.625-3.875l1.595-1.595l-2.845-0.062l-2.812-0.062l2.219-1.062l2.25-1.094l0.5-1.656l0.531-1.625
		l2.156-0.156c1.188-0.089,2.95,0.239,3.905,0.75l1.72,0.938l1.25-1.5l1.25-1.5l1.155,0.28l1.188,0.25l5.688-5.844l5.688-5.875
		v-1.344v-1.375l3.094-3.531l3.125-3.531h1.25c0.688,0,3.279-1.075,5.781-2.405l4.562-2.438l4.095,0.562l4.094,0.562V647v-2.938
		l1.188-1.188c0.66-0.66,1.785-1.22,2.5-1.22h1.312v1.438v1.406l4,3.155c2.2,1.743,4,2.896,4,2.562s-1.125-3.366-2.5-6.75
		s-2.5-7.03-2.5-8.094v-1.938l2.25-2.656l2.281-2.688l4.469,1.312l4.5,1.312l3.938-0.281l3.97-0.281l0.094-4.062l0.094-4.062
		l-3.781-1.188c-2.081-0.649-4.446-1.188-5.28-1.188h-1.531v-1.062c0-0.588,1.336-3.002,2.969-5.375l2.969-4.312l2.625-0.655
		l2.595-0.656l1.938,0.594l1.906,0.625v-0.844c0-0.465-0.654-1.805-1.469-2.969l-1.5-2.125l1.438-1.188l1.438-1.188l2.03,0.655
		l2.062,0.656v-2.062v-2.031l2.5-1.656l2.5-1.625v-1.375v-1.406h1.406h1.405l2.562-4.25c3.275-5.402,6.151-8.75,7.5-8.75h1.062
		l1,1.875l1,1.845l3.031,1.28c3.683,1.525,3.725,2,0.531,5c-3.904,3.668-2.184,3.506,3.25-0.312
		c2.715-1.908,5.772-3.645,6.812-3.844l1.906-0.345l2.906-5.5c1.594-3.02,3.886-6.441,5.125-7.594L664.283,568.971z
		 M694.033,577.658c-0.275,0-0.5,0.226-0.5,0.5c0,0.275,0.225,0.5,0.5,0.5s0.5-0.225,0.5-0.5
		C694.533,577.883,694.308,577.658,694.033,577.658z M699.939,586.471v3.656v3.625l-2.938,2.344l-2.905,2.312l1.188,1.47
		l1.219,1.438l2.875-0.406l2.906-0.438l3.125,1.625l3.125,1.625l1.438,3.469l1.469,3.469l-0.531,5.75l-0.531,5.72l1.845-2.5
		c1.02-1.365,2.427-4.053,3.094-6l1.188-3.562l-0.905-3.156l-0.906-3.188l2-2.531l1.969-2.5l-0.625-1.031
		c-0.343-0.555-1.215-1-1.938-1c-0.724,0-3.506-0.94-6.188-2.094l-4.875-2.094l-2.562-3L699.939,586.471z M770.064,610.783
		c0.45-0.095,1.254,0.217,2.906,0.845l2.562,0.969v1.531v1.53h0.906c0.491,0,1.109,0.636,1.406,1.406l0.562,1.406l-1.188,1.5
		l-1.188,1.5l-2.094-1l-2.062-0.969l-1.5-2.656l-1.5-2.688l0.406-1.75C769.517,611.384,769.614,610.878,770.064,610.783z
		 M709.939,622.815l-0.156,4.156l-0.156,4.156l-1.062,0.344c-0.574,0.19-1.031,0.878-1.031,1.5v1.125l1.375-1.469l1.406-1.47
		l0.625-3.688l0.656-3.656l-0.812-0.5L709.939,622.815z M673.439,630.377l3.156,0.655c1.748,0.351,3.58,0.625,4.062,0.625h0.875
		v3.062v3.062l-1.031,1.938c-0.568,1.063-1.47,1.938-2,1.938h-0.969v-1.438c0-0.786-0.611-2.019-1.344-2.75
		c-0.733-0.732-1.635-2.637-2.031-4.219L673.439,630.377z M694.533,630.658h0.781h0.781l0.155,2l0.156,2h-0.938h-0.938v-2v-2
		H694.533z M727.314,634.721l2.625,2.438l2.594,2.406v1.375v1.406l-2.562,1.156c-1.4,0.638-3.109,1.155-3.812,1.155h-1.281
		l0.095-3.75l0.062-3.75l1.156-1.219L727.314,634.721z M655.533,639.658h1.062h1.062l-0.625,1c-0.34,0.551-0.82,1-1.062,1
		c-0.242,0-0.438-0.449-0.438-1L655.533,639.658L655.533,639.658z M583.408,654.69l-2.438,0.219l-2.438,0.188v0.844
		c0,1.645,2.269,5.23,4.375,6.938c1.173,0.949,2.287,1.737,2.469,1.75c0.333,0.021-0.567-4.986-1.469-8.188L583.408,654.69z
		 M349.752,661.408l0.812,1.312l0.844,1.344l-0.5,0.781c-0.271,0.438-1.145,0.812-1.938,0.812h-1.438v-1.438
		c0-0.792,0.514-1.747,1.125-2.125L349.752,661.408z M379.72,661.658c0.369-0.01,0.799,0,1.28,0h3.47l-0.656,1.75
		c-0.355,0.962-1.129,2.097-1.719,2.5c-1.597,1.094-1.954,0.927-3.312-1.25C377.235,662.181,377.132,661.732,379.72,661.658z
		 M357.689,665.158l-0.406,1.438c-0.633,2.341-4.75,2.204-4.75-0.156v-1.031l1.562,1.312l1.594,1.312l1-1.438L357.689,665.158z
		 M662.72,669.658h0.812h0.844l0.688,3.062l0.656,3.094l-0.562,0.562l-0.562,0.562l-0.438-1.375
		c-0.239-0.766-0.665-2.419-0.938-3.656L662.72,669.658z M219.033,671.658c0.275,0,0.5,0.226,0.5,0.5c0,0.275-0.225,0.5-0.5,0.5
		s-0.5-0.225-0.5-0.5C218.533,671.883,218.758,671.658,219.033,671.658z M521.533,682.315l0.656,0.688l0.688,0.655h-1.344h-1.344
		l0.688-0.655L521.533,682.315z M332.033,683.971l0.125,4.844c0.062,2.661-0.021,4.844-0.156,4.844s-0.955-1.112-1.844-2.469
		l-1.625-2.469v-1.906v-1.938l1.75-0.438L332.033,683.971z M626.533,684.533l1,0.625c0.55,0.341,1,0.82,1,1.062s-0.45,0.438-1,0.438
		h-1v-1.062V684.533z M236.033,684.658c-0.275,0-0.5,0.226-0.5,0.5c0,0.275,0.225,0.5,0.5,0.5s0.5-0.225,0.5-0.5
		C236.533,684.883,236.308,684.658,236.033,684.658z M641.408,685.658h1.625h1.625l-0.625,1c-0.34,0.551-0.79,1-1,1s-0.66-0.449-1-1
		L641.408,685.658z M628.658,687.658l1.938,1.031l1.938,1.031v1.25v1.281l-3.438,1.562l-3.47,1.562l-1.03-1.062
		c-0.579-0.58-1.062-1.786-1.062-2.688v-1.656l2.562-1.156L628.658,687.658z M239.095,689.658c0.243,0,0.438,0.45,0.438,1v1h-1.062
		h-1.062l0.625-1C238.373,690.109,238.853,689.658,239.095,689.658z M314.658,689.815l3.344,1.969l3.344,1.97l0.625,1.594
		c0.803,2.09-0.012,2.854-1.094,1.031c-0.463-0.78-2.074-2.197-3.562-3.156l-2.688-1.75l-1.312,0.781l-1.281,0.78l1.312-1.625
		L314.658,689.815z M240.533,690.315l0.656,0.688l0.688,0.655l-0.688,0.656l-0.656,0.688v-1.345V690.315z M595.533,705.409l1.5,1.25
		c0.825,0.685,1.5,1.352,1.5,1.5s-0.675,0.56-1.5,0.875l-1.5,0.562v-2.094V705.409z M554.533,707.346l2,1.812l2,1.812l-1.156,1.375
		l-1.155,1.406l0.905,0.844c0.499,0.465,2.035,1.178,3.406,1.594l2.469,0.75l-1.344-1.625l-1.375-1.656h2.125h2.125l2,2l2,2v1.5v1.5
		h-3.875h-3.875l-1.375,2l-1.375,2.031l-4.5,0.594c-2.475,0.33-6.75,1.461-9.5,2.5c-5.482,2.069-6.895,2.332-4.344,0.845l1.656-0.97
		l-0.531-2l-0.5-2h1.594h1.625v-3.03v-3.031l1.938,1.031c1.062,0.567,2.863,1.03,4,1.03h2.062v-2.875v-2.875l1.5-1.25l1.5-1.25
		v-2.03V707.346z M566.533,718.315l-0.656,0.688l-0.688,0.655h1.344h1.344l-0.688-0.655L566.533,718.315z M161.533,725.659h1h1v4.5
		c0,2.476-0.19,4.5-0.406,4.5c-0.762,0-1.594-3.211-1.594-6.094V725.659z M525.033,730.784c0.42-0.137,1.09,0.466,2.406,1.781
		l1.906,1.906l-1.125,1.094c-1.373,1.372-1.923,1.34-3.22-0.188l-1.03-1.22l0.344-1.75
		C524.509,731.444,524.706,730.889,525.033,730.784z M489.314,731.69l0.5,1.875l0.469,1.875l2.375,1.562
		c1.304,0.844,3.612,1.813,5.125,2.188l2.75,0.688v-1.75v-1.72l3.094,0.625l3.062,0.595l1.938-1.031l1.938-1.031l2.438,1.812
		c1.354,0.983,2.482,2.117,2.5,2.53l0.031,0.75h-1.938c-1.064,0-3.202,0.529-4.75,1.188c-1.549,0.657-3.264,1.229-3.812,1.281
		c-0.549,0.051-2.248,0.948-3.781,1.969l-2.78,1.844l-5.375,0.25l-5.375,0.219l-2.345,2.22c-1.286,1.211-3.103,2.617-4.03,3.125
		l-1.688,0.905l-0.625-1l-0.625-1l-2.875,1.5l-2.906,1.5h-3.594h-3.594l-1.5,1.25c-0.828,0.688-2.322,2.055-3.312,3.031l-1.78,1.781
		l-3.375,0.969l-3.406,0.969l-1.75-0.562l-1.781-0.562v1.595v1.594l-2.562,0.969c-1.411,0.536-3.437,0.969-4.5,0.969h-1.938v-1.344
		v-1.312h2.938h2.969l3.25-3.188l3.219-3.156h2.156h2.156l1.75-1.938l1.75-1.906l-0.72-2.25c-0.394-1.239-2.013-4.067-3.594-6.25
		c-1.581-2.184-2.875-4.369-2.875-4.875v-0.938l1.5,1.5c0.825,0.823,1.5,1.911,1.5,2.405c0,0.493,1.084,1.914,2.406,3.156
		l2.406,2.25l0.969-1.75l1-1.75l3.844,0.156c2.126,0.09,4.98,0.393,6.312,0.656l2.405,0.469l2.375-0.594l2.375-0.595l-1.688-1.875
		l-1.719-1.875h1.094c0.603,0,1.379,0.449,1.719,1c0.34,0.55,1.271,1,2.062,1h1.438v-1.405v-1.375l-1.5-0.595l-1.5-0.562v-1.531
		v-1.531h1.312c0.715,0,1.782,0.502,2.405,1.125l1.156,1.125l1.562-0.594l1.562-0.594v-2.469v-2.47l0.875-0.562L489.314,731.69z
		 M520.158,736.659c0.275,0,0.215,0.449-0.125,1c-0.34,0.55-0.85,1-1.125,1s-0.215-0.45,0.125-1
		C519.373,737.108,519.883,736.659,520.158,736.659z M483.533,746.534v1.062v1.062h1c0.55,0,1-0.194,1-0.438s-0.45-0.724-1-1.062
		L483.533,746.534z M477.408,748.659l0.625,1c0.34,0.55,1.27,1,2.062,1h1.438v-1v-1h-2.062H477.408z M422.47,769.659
		c-0.519,0-0.938,0.449-0.938,1v1h1.562h1.562l-0.625-1C423.693,770.108,422.988,769.659,422.47,769.659z M320.658,802.659
		l-0.594,0.938l-0.562,0.938l1.75,1l1.781,1l0.906-0.875l0.906-0.905l1.875,1l1.844,1l1.031-0.625l1.03-0.656l-0.344-1.062
		l-0.375-1.094l-2.688-0.094l-2.688-0.125v0.812v0.812l-1.938-1.031L320.658,802.659z M309.408,806.659l0.625,1
		c0.34,0.55,1.3,1,2.125,1h1.5l-0.625-1c-0.34-0.551-1.3-1-2.125-1H309.408z M201.345,810.253l1.656,1.375l1.688,1.405l0.656-0.969
		l0.688-0.938l3.5,1.75c1.925,0.972,3.351,2.012,3.156,2.312c-0.195,0.3,0.188,1.904,0.875,3.562l1.25,3.03l-1.125,1.125
		l-1.125,1.125l-0.656-3.28l-0.656-3.281l-2.781,0.562l-2.812,0.531l-0.469-1.188l-0.5-1.22l-0.969,1.375l-0.938,1.375l-1.938-1.938
		l-1.938-1.938l-1.062,0.345l-1.062,0.375l-0.656-1.688c-0.862-2.246,0.027-2.981,1.812-1.5l1.438,1.219l0.969-1.78L201.345,810.253
		z M246.033,810.565l-0.344,1.656l-0.344,1.656l1.344-0.438l1.344-0.438v-1.188v-1.156l-1-0.062L246.033,810.565z M254.283,812.659
		l1.25,1.5c0.685,0.824,1.643,1.5,2.125,1.5h0.875v-1.5v-1.5h-2.125H254.283z M100.939,812.784l-1.344,0.845l-1.344,0.844l0.594,3
		l0.594,3l-1.438,0.562l-1.469,0.562v1.531v1.53h1.875h1.875l1.094,1.312l1.062,1.281l-1.344,2.625l-1.375,2.625l0.562,0.594
		c0.314,0.312,0.99,0.562,1.5,0.562h0.938l0.531-2.094l0.562-2.062l0.812,1.28l0.812,1.312l0.688-0.688l0.688-0.688l-1-1.281
		l-1.031-1.281l-0.062-3.188l-0.062-3.188l-1.031-1.938l-1.031-1.938l0.562-0.562l0.594-0.562l-1.406-2L100.939,812.784z
		 M128.72,814.596l-0.438,1.281c-0.232,0.696-1.851,2.105-3.594,3.125l-3.156,1.844v-1.406v-1.406l3.594-1.719L128.72,814.596z
		 M182.533,815.659h1.062h1.062l-0.594,1.906l-0.625,1.938l1.031,0.594l1,0.625l-1.969,1.969l-1.969,1.969v1.438
		c0,0.785,0.675,2.08,1.5,2.906c0.825,0.823,1.5,1.723,1.5,1.969c0,0.245-1.176,0.438-2.594,0.438h-2.562l-0.844-2.125
		c-0.462-1.17-1.073-2.913-1.375-3.875l-0.562-1.75h-1.656h-1.688l-2.344,2.562l-2.375,2.531v-1.345v-1.375l3-2.219l3-2.219
		l0.031-2.219l0.031-2.22l1.031,1.75l1,1.75h2.969h2.938v-2.5v-2.5H182.533z M86.689,817.315l-2.312,1.531l-2.344,1.562
		l-0.344,1.688l-0.344,1.719l2.344-0.312l2.344-0.345l0.344-2.938L86.689,817.315z M153.439,817.409l1.562,0.595l1.531,0.594v1.031
		c0,1.27-1.033,1.285-2.969,0.062l-1.469-0.938l0.688-0.656L153.439,817.409z M146.564,821.159l-0.25,2.938l-0.281,2.906
		l-1.25,0.405l-1.25,0.406v-1.375c0-0.766,0.694-2.276,1.531-3.344L146.564,821.159z M205.533,821.315l0.656,0.688l0.688,0.655
		h-1.344h-1.344l0.688-0.655L205.533,821.315z M209.908,821.971c0.272-0.072,0.684,0.413,0.969,1.156
		c0.676,1.762,0.111,2.063-0.875,0.469c-0.362-0.587-0.45-1.301-0.188-1.562C209.847,822.001,209.869,821.981,209.908,821.971z
		 M215.845,822.753l1.875,1l1.875,1l-0.625,1l-0.625,1l-1.219-1l-1.188-1l-2.531,2.312c-1.377,1.276-3.528,2.86-4.781,3.531
		l-2.25,1.219l-0.562-0.531l-0.531-0.562l-1.875,1l-1.875,1v-1.062v-1.03l2.406-1.095l2.375-1.094l1.125-2.156l1.125-2.125
		l-0.531,2.75l-0.531,2.75h0.812c0.453,0,2.346-1.568,4.188-3.469L215.845,822.753z M154.502,823.159l0.031,1.25v1.25h1.656h1.688
		l-0.75,0.75c-0.413,0.412-1.281,0.75-1.906,0.75h-1.125l-1.25,2.5l-1.25,2.5l3.719,0.531l3.719,0.531l-4,0.812
		c-1.181,0.235-3.312,0.482-5.688,0.72l0.656-1.031l0.719-1.188l-1.656-1.844l-1.688-1.875l2.312-0.312l2.281-0.345l1.281-2.5
		L154.502,823.159z M195.345,823.784l0.562,0.595l0.562,0.562l-0.531,0.844c-0.292,0.474-1.176,0.875-1.969,0.875h-1.438v-0.905
		c0-0.492,0.635-1.111,1.406-1.406L195.345,823.784z M190.095,824.815c0.288-0.07,0.72,0.438,1.031,1.25
		c0.356,0.927,0.431,1.912,0.156,2.188c-0.275,0.273-0.8-0.262-1.156-1.188c-0.356-0.928-0.431-1.913-0.156-2.188
		C190.005,824.843,190.054,824.825,190.095,824.815z M118.533,828.315l0.656,0.688l0.688,0.655l-0.688,0.656l-0.656,0.688v-1.345
		V828.315z M219.72,828.44l0.969,0.969l0.969,0.97l-2.062,0.562l-2.062,0.531v-0.844c0-0.468,0.496-1.162,1.094-1.531L219.72,828.44
		z M179.533,828.534v1.062v1.062h1c0.55,0,1-0.194,1-0.438s-0.45-0.724-1-1.062L179.533,828.534z M171.627,828.659h1.469h1.438v1
		c0,0.55-0.337,0.939-0.75,0.875s-1.2-0.043-1.75,0.031l-1,0.125l1.344,0.844l1.375,0.875l-0.875,0.406
		c-0.471,0.225-2.869,0.131-5.344-0.219l-4.5-0.625l2-0.312c1.1-0.17,2.675-0.268,3.5-0.219l1.5,0.094l0.812-1.438L171.627,828.659z
		 M89.689,829.659c-1.008,0-2.107,0.294-2.469,0.656l-0.656,0.656l1.062,1.281l1.062,1.28l1.406-0.53l1.438-0.562v-1.375v-1.406
		H89.689z M177.533,831.315l0.656,0.688l0.688,0.655h-1.344h-1.344l0.688-0.655L177.533,831.315z M96.627,832.409l-1.625,0.625
		l-1.594,0.625l0.625,1c0.811,1.312,2.201,1.281,3.031-0.062l0.656-1.062l-0.531-0.562L96.627,832.409z M132.033,833.596
		l8.625,0.656l7.812,0.594c-1.804,0.168-3.686,0.311-5.438,0.406l-8,0.438l-1.5-1.031L132.033,833.596z"/>
</g>
</svg>
