<svg xmlns="http://www.w3.org/2000/svg" viewBox="0 9.031 798.365 308.96"><path fill="#C8CBD5" d="M706.09402 9.0315l-1.53.594c-.854.328-1.562.752-1.562.97 0 .81 1.913.355 2.5-.595l.592-.969zm-17.063 6c-.533.019-1.171.379-1.594 1.062l-.656 1.094-3.281-.625-3.25-.594-4.125 2.688c-2.268 1.485-4.125 3.032-4.125 3.438 0 .405.993 1.874 2.219 3.25 1.227 1.376 2.517 2.327 2.845 2.125.327-.203 1.387-2.098 2.344-4.22l1.719-3.875 4.438-1.188 4.438-1.188v-1c-.003-.668-.439-.985-.972-.967zm-23.281 14.281l-4.125.188-4.125.188-2.812 1.375-2.845 1.344-1.905-1.188-1.906-1.22-4 1.625-4.031 1.595v1.78H636.78202l-1.969 2.5-1.97 2.5H628.12402l-.531-.844-.53-.875-2.625.5-2.595.5-1 2.594c-1.298 3.413-3.799 6.139-6.625 7.22l-2.25.875-1.062 2.78c-1.507 3.964-3.757 6.153-9.125 8.875l-4.719 2.375h-7.876l-2.156 4.156c-1.188 2.279-3.326 5.665-4.75 7.531l-2.562 3.406-7.625 3.438c-10.149 4.608-11.153 5.239-16.719 10.469-2.634 2.476-5.046 4.517-5.344 4.531s-2.106 1.541-4.031 3.375l-3.5 3.312-5.5 2.469c-3.025 1.351-7.525 3.349-10 4.438l-4.5 1.97-12.5.905-12.5.875-9.5 2.688-9.5 2.688-8.156-.094-8.125-.094-4.28-.969-4.281-.938-9.562 2.031-9.594 2.031-11.5-.845-11.5-.844-18.25.281-18.25.25-4.938-2.125-4.906-2.125-1.844 1.062-1.812 1.062 2 .156c1.1.082 2.359.078 2.812 0l.844-.125-.656 1.062-.656 1.031 2 3.406c1.099 1.86 1.764 3.582 1.5 3.844-.263.262-3.363-1.125-6.905-3.094l-6.438-3.595v-1.876l3.062.625 3.03.595-.594-.97-.625-1h-3.593l-2.719-2.125-2.688-2.125-2.75 2.625-2.75 2.625h-8.376v.938c0 .504 1.089 1.742 2.406 2.75l2.375 1.812-.5 5.75-.531 5.72-5.5 2.53c-3.024 1.386-6.004 2.5-6.625 2.5s-3.957 1.354-7.438 3l-6.345 3-7.155-1.625c-3.945-.886-9.731-2.672-12.844-3.969-3.113-1.297-8.702-2.957-12.406-3.719l-6.719-1.406-2.844 1.062-2.844 1.094-4.531-2.219-4.562-2.22-.562 1.5-.594 1.5H257.99902v-2h1.438c.792 0 1.739-.458 2.094-1.03l.625-1.031-3.625-4.469-3.656-4.47h-2.844l-.469 2.25c-.255 1.237-.646 5.625-.875 9.75l-.406 7.5.938-2.75.938-2.75h2.688l.406 1.25.438 1.25 1.594-1.344 1.625-1.312 1.062.625 1.031.655v-2.124h1.312c.715 0 2.489.562 3.969 1.25l2.688 1.25.031 2.062v2.031l-1.188 1.188-1.156 1.188 1.188 2.562 1.156 2.594-1.031 1.97-1.062 1.969-.938-.562-.938-.594 1.219-1.906 1.188-1.938-3.062-3-3.094-3-.625.625c-.354.354-.656 1.492-.656 2.5 0 2.237-.408 2.255-3.469.25l-2.406-1.562-2.156 1.156-2.156 1.156-5.875-.688-5.844-.688-1.156-1.375-1.156-1.406.562-1.5.594-1.531h3.062v2.408l1.188-1.188c.651-.651 1.262-2.081 1.344-3.188l.125-2.031-1.812-1.625-1.844-1.655-2.75-.22c-1.516-.106-3.714-.258-4.875-.344l-2.094-.156-3.562-2.405-3.562-2.406-1.438 1.656-1.469 1.655-.688 3.845-.688 3.812 1.219 1.469c.665.802 2.719 4.431 4.562 8.095l3.344 6.688V162.8705l1.5 1.5 1.5 1.5-.906.562-.938.594-1.344-1.344c-.743-.744-2.368-1.906-3.594-2.562l-2.219-1.188v-2.375c0-1.312-.26-3.1-.594-3.969l-.625-1.595H214.00102l-.125 1.75c-.154 2.279-.132 2.358.625 5.375l.625 2.562-2.812-.344c-1.55-.188-4.446-.609-6.438-.938l-3.625-.594-1.188-3.938-1.156-3.969.594-1.938.625-1.97h2.562l1.781-1.969 1.812-1.969.844.531.875.53v4.624l-2 2.531c-1.1 1.398-2 2.977-2 3.5v.938l2.5-.47 2.5-.469v-1.812c0-.991.26-2.506.594-3.375l.625-1.595H215.00002v-1c0-.555-1.284-2.337-2.844-3.969l-2.812-2.969-3.906 1.969c-4.709 2.401-5.837 2.452-9.406.344l-2.781-1.655-2.344 1.655-2.344 1.625h-4.312l-1.25 1.5-1.25 1.5h-4.344l-1.188 1.188-1.156 1.156-2.375-1.062-2.406-1.094-2.375 4.031c-1.317 2.215-3.254 4.93-4.281 6.031l-1.844 2 .656 4.625c.365 2.548.732 7.438.844 10.875l.219 6.25h-.688c-.382 0-2.473-2.979-4.656-6.625l-4-6.625-6.562-2.78-6.594-2.781-.562.906-.562.905h-4.093l.469 2.595.5 2.562-1.906 1.781-1.906 1.781 1.531 1.25 1.531 1.28.125 2.625.094 2.625.438-1.594.438-1.594 2.469.469c1.358.26 2.684.853 2.969 1.312l.531.812 1.5-.562 1.469-.562-1.031 2.688-1 2.719.531.875.531.875-.938 1.781c-.512.983-1.399 2.905-1.969 4.28l-1.031 2.5-.062-3.312-.062-3.312-1.031-1.938c-.569-1.064-1.494-1.938-2.062-1.938-.568 0-3.076-1.384-5.562-3.094l-4.531-3.125-.938.969-.938.938.969 2.531.969 2.562-2.375 2.031-2.344 2.062.531 2.095.562 2.094 1.875 1.031 1.906 1-.219 2.844-.219 2.875 1.375 1.656 1.375 1.655-1.406-.312-1.375-.312-.562 3.5-.562 3.5-2.375-4.5c-1.298-2.476-2.34-4.726-2.312-5 .027-.274-.36-1.288-.875-2.25l-.938-1.75h-2.938v2h-3v-2h-2.438c-1.339 0-3.707-.477-5.25-1.062l-2.781-1.062-2.062 2.562c-1.125 1.411-2.358 2.562-2.75 2.562h-.719v-3.876l-3 1.031-3 1.062V203.9795h-2.344l2.156 2.312 2.188 2.312v5.376h2.25l-1.219 1.5-1.25 1.47-1.906-1.031-1.938-1.031.594-.969.594-.969 1.188.719 1.188.719-1.469-1.969c-.801-1.068-2.324-2.663-3.406-3.562l-1.969-1.625-.25-1.719c-.137-.932-.509-2.335-.812-3.125l-.531-1.438-2.688-1-2.688-1.031-.875.875-.875.875.625 1.656.656 1.655 3.125.845 3.156.844-2.188.688-2.188.72-.375 1.719-.344 1.688-1.719-3.219-1.719-3.219-2.094-1.125-2.094-1.125-3.719 3.625-3.688 3.625-.75-.75-.719-.75-.812 1.312-.562 1.281.125.812c.098.011.344.256.344.53s-.194.5-.469.5l-4.938 7.875-1.969 2.25-1.625 2.312v8.656l-2.188 4.188c-1.211 2.314-2.125 4.609-2 5.062l.25.812-1.094-.688-1.094-.656-3.344.625-3.312.625-1.219 2.938-1.219 2.906-2.688-.531-2.719-.53-1.281 1.53-1.281 1.531.656 1.062.656 1.03 1.938-1.03 1.938-1.031v.938c0 .523-.544 1.15-1.219 1.375l-1.219.406.25 3.375.25 3.406 1 .625 1 .594-3.656 3.938-3.625 3.905-1.875 4-1.875 4v2.875l-.031 2.906 2.094 3.344 2.062 3.375h4.344l3.25 2 3.25 1.97.156 1.25c.084.694.187 1.955.25 2.78l.125 1.5-1.938.531-1.938.531-.406 1.156-.375 1.155 2.219 1.188 2.219 1.188 12.344-1.312 12.344-1.281v-3.593l2.875.562 2.875.562 2.5-1.625 2.5-1.625.625 1.625.656 1.656-1.531-.562c-2.22-.853-1.826.096.562 1.375l2.062 1.094 2.938-.625 2.938-.655v-1.97c0-1.088-.506-4.01-1.125-6.469l-1.125-4.469-2.125.688-2.094.656 1.344-1.625 1.375-1.656-1.219-1.469-1.188-1.438.656-2.062.625-2.031H81.65602l1.312-2.469c.722-1.35 1.604-2.346 1.938-2.25s1.831-.678 3.344-1.688l2.75-1.812V267.9785h2V271.1985l2.75-.656c1.513-.365 3.753-.91 4.969-1.219l2.188-.562 6.5 3.625c3.573 1.998 6.803 4.115 7.156 4.688l.625 1.03-1.75 1.938-1.75 1.938H116.90702l.906-1.655.938-1.625 1.188.75 1.188.719-.281 2.656-.281 2.655.719 1.156.719 1.156-2-.531-1.969-.5-.594 1.531-.594 1.562-3.188.656-3.156.688-2.5 2.28c-1.375 1.267-4.245 3.029-6.375 3.906l-3.875 1.594H92.28302l-4.375 3.5-4.406 3.47-2.688.03h-2.688l-.688 1.095-.688 1.094-2.844-.562-2.844-.562-.594.969c-.329.531-1.351.988-2.281 1h-1.688l-2.188 1.75-2.188 1.719-.688 2.75c-.368 1.513-.453 2.75-.188 2.75s2.543-1.142 5.031-2.53l4.5-2.531 5.594-1.438 5.562-1.469 9.781-4.562 9.781-4.595 7.5-2.03c4.125-1.104 9.75-2.39 12.5-2.875 2.75-.488 6.125-1.146 7.5-1.47l2.5-.594-2.25 1.594c-1.237.888-2.25 1.932-2.25 2.312v.688l6.25.031c3.438.012 12.55.135 20.25.281l14 .281 11.5-.812 11.5-.781.094-2.594c.054-1.432.421-3.117.812-3.75l.719-1.156 1.875 1c1.03.552 2.576 1 3.438 1h1.562v-1.75l.031-1.75.969 1.5c.533.824.992 2.027 1 2.656v1.125l-2.594.656-2.594.656-2.406 2.405c-1.328 1.327-2.406 2.869-2.406 3.406v.969l7.75-2.812c4.263-1.549 10.45-3.375 13.75-4.031 9.06-1.805 14.352-3.068 21.406-5.156l6.406-1.905.5.53.5.5 1.094-.875c.601-.473 4.244-1.877 8.094-3.125 3.85-1.248 8.256-2.887 9.781-3.655 3.538-1.788 17.366-5.293 20.969-5.312l2.75-.031v-2.624l5.25.156c2.888.084 6.902.492 8.906.906l3.625.75 2.031-1.094 2.031-1.062 1.219-3.75c.674-2.065 1.722-4.086 2.312-4.469l1.062-.688-.78-.78-.75-.781-.781 1.25-.781 1.25-1.562-.594-1.594-.595-.719 1.188-.719 1.156-.656-1.031-.625-1.062-4.75 1.562-4.719 1.562v2.75l2.75.031h2.75l-1.5.969c-.825.533-2.288.99-3.25 1h-1.75l.094-.75c.06-.413-.195-1.764-.594-3l-.719-2.25h-1.876l.312 1.281.281 1.281-1.438 1.531-1.469 1.562-2.938-1.469-2.969-1.469-1.188 1.625c-.664.906-1.549 1.655-1.938 1.655h-.688l.594-1.875.594-1.875-2.094-.53-2.094-.562-3.188 1.344-3.188 1.345-2.75 3.062c-3.168 3.555-3.327 4.094-1.188 4.094h1.562l-.531.875-.531.875-2.594-.5-2.562-.5.312 1.375.281 1.375-2.75-.312-2.75-.312v1.624h-6v-1.5h3.156l1.531-1.53c1.829-1.829 1.674-2.095-1.938-3l-2.75-.688v4.439l-1.594-.595-1.562-.625-3.844.625-3.812.625-.5 1.875-.5 1.875h-5.188v1.5c0 .824-.176 1.5-.406 1.5s-1.155.289-2.031.625l-1.594.595.688-1.812.719-1.781-3.375 2.375-3.375 2.406.906-1.438c.488-.789 2.151-2.488 3.688-3.781s2.781-2.779 2.781-3.312v-1l-1 .625-1 .625-1.062-.655-1.062-.656 1.812-1.312 1.812-1.344-2.844-1.094-2.812-1.062-.969.595-.969.594.562 1.75.562 1.781-1.5 1.28-1.531 1.25.156-4.219.188-4.219 1.812-1.156 1.844-1.125V267.9875h5V265.7685l1.812 2.25 1.812 2.219 1.719-1.75 1.75-1.719 3.969.625 3.938.625v-2.844l5.75.25 5.75.281 1-.562c.55-.32 1.45-.645 2-.688 2.53-.202 7.228-1.914 9.5-3.47l2.5-1.719 1.25.438 1.25.469v-2.189h1.312c.721 0 2.288-.899 3.469-2l2.125-2h5.093l-.25-1.25-.25-1.25 6.188.312 6.156.344 5.5-4.344 5.5-4.312.094-1.094.062-1.062 2.5-1.156 2.5-1.125v-2.062H314.95602l-.219 2.25-.25 2.25 2.312.345 2.312.312 1.188-1 1.188-.969 1.906 1.375 1.875 1.375.812-.469.781-.5 4 2.094 4 2.094 3.25-.344 3.25-.312.812-3.062.781-3.094 2.031-1.812c1.107-1.004 2-2.254 2-2.75v-.906l-.938.595-.938.594-3.312-1.5-3.312-1.469 6.062.312 6.095.312 2.594 1.719 2.625 1.719 3.812-.594c7.946-1.229 10.354-1.803 10.845-2.594l.5-.812 5.5-.688 5.469-.688.031-1.625v-1.656l1.75-2.125 1.719-2.125 6.875-.594 6.844-.594 5.875 1.969c3.221 1.084 6.562 1.969 7.438 1.969h1.594l-.531-.844-.5-.812 3.844-3.781 3.845-3.75 3.094.656 3.094.688 1.969-.625 1.97-.625.688-2.188.688-2.188 1 2.5c.556 1.365 1.296 4.493 1.625 6.969l.594 4.5 2.312.345 2.312.312-.406 1.188-.406 1.155-1.405.156c-.777.074-2.618.187-4.095.25l-2.688.094-.594 1.938-.625 1.969-3.938-.156-3.938-.155-1.281 1.562c-.696.855-2.825 2.136-4.75 2.875-1.925.738-4.941 2.414-6.688 3.719l-3.155 2.375-1.845-.312-1.812-.312.219 1.188.219 1.188-3.188.688-3.219.719-1.031 1.281c-2.257 2.869-16.873 9.457-24.344 10.969-1.846.373-5.221 1.494-7.5 2.5l-4.156 1.844-7 1.188-7 1.188-1.25 1-1.25 1-2.906-.562-2.906-.594-1.375 2.094-1.405 2.062-5.438.281-5.469.25-3.969 2.125-3.97 2.094h-2.312c-1.276 0-3.986.701-6.031 1.562l-3.719 1.562-8-.155c-4.4-.093-8.562-.117-9.25-.062l-1.25.094v3.312l10.25-.625 10.25-.625 8.5-2.375c25.564-7.149 55.607-16.274 63.5-19.312 4.95-1.905 13.792-5.921 19.656-8.905 13.025-6.634 36.059-16.931 52.844-23.625 6.875-2.742 14.3-5.803 16.5-6.781 2.2-.98 9.399-3.609 16-5.844 17.623-5.968 40.288-14.052 63.5-22.688 11.274-4.195 23.088-8.568 26.25-9.688l5.75-2.031v-1.75l-3.094.625-3.095.625-.905-1.406c-.486-.768-.898-2.299-.906-3.406v-2.03l2-3.72c1.1-2.053 2-4.138 2-4.625v-.875l-2-.53-2-.531v-2.189h10.188l5.406 1.595 5.406 1.562v3.75l2.25 1.562 2.25 1.594-1.5.969c-.825.525-2.258.961-3.188.969h-1.688l-.625 1-.625 1h-3.592l-2.656 2.095c-1.449 1.14-2.625 2.43-2.625 2.875v.812l16.25-7.25c16.935-7.559 28.148-13.04 68.25-33.219 23.685-11.918 47.144-23.312 48-23.312 1.059 0 30.161-13.398 42-19.344 12.413-6.232 20.539-9.593 23.25-9.625.688-.008 4.406-1.494 8.25-3.281l6.969-3.25.031-1.25c.006-.688.338-1.246.75-1.25s1.85-1.598 3.188-3.562l2.438-3.594-1.438-.906c-1.464-.926-5.302-1.29-10.188-.969l-2.719.188-1.188-2.562c-1.35-2.961-1.645-3.057-4.281-1.062l-1.938 1.469-2.062.062c-1.133.037-4.488.871-7.469 1.844l-5.438 1.781-.75 2.062-.781 2.062 1.094 3.562 1.094 3.562-1.28 1.531-1.281 1.53h-4.812l-.562-1.5-.594-1.5H748.99402l-.031.75c-.015.413-1.808 2.775-4 5.25-2.192 2.476-4.498 5.122-5.125 5.875l-1.156 1.375-5.405-.625-5.406-.655-1.25 1.28c-.688.696-1.527 2.019-1.875 2.938l-.625 1.656-2.312.344-2.312.312-1.375 3.156-1.406 3.156-2.219 1-2.219 1.031-2.345-1.188-2.375-1.188-2.219-3.47c-1.223-1.917-3.15-4.693-4.281-6.155l-2.062-2.656v-7.939l-4.031-3.655-4.062-3.656-2.906 1.719-2.906 1.719-1.156 2.75-1.125 2.75-3 1.062-3 1.031-2.155-1.125c-1.185-.622-3.221-1.982-4.531-3l-2.406-1.845-4.594.095c-2.538.055-5.75.492-7.125.969l-2.5.875 4.344-.562 4.375-.594-.719 5.375c-.398 2.946-1.15 6.131-1.656 7.094l-.906 1.75h-5.624l-1.188 2.625-1.188 2.625-4.125-.655c-2.267-.362-4.489-.881-4.938-1.156l-.812-.5.595-2.906.562-2.875-1.594-2.281-1.625-2.312v-4.468l-1.406-.781-1.438-.812-.688-2.75-.688-2.75h4.156l1.062 2 1.062 2 2.845 1.47 2.844 1.469.75-.719.719-.72-.656 3.156-.688 3.156 1.125.688 1.094.688 1.469-.562 1.438-.562-2.25-4.625-2.219-4.594 1.625-1.22 1.655-1.188-1.375-2.469c-.75-1.355-1.387-3.287-1.405-4.312l-.031-1.875-2.25 1.469-2.25 1.438-1.25-.406-1.25-.438.625-1.031.625-1-2.062 1.094c-1.13.605-2.568 1.094-3.188 1.094h-1.125l.656-1.062.655-1.062-1.469-1.688c-.812-.928-1.779-2.7-2.156-3.938l-.688-2.25h.625c.349 0 1.499.462 2.562 1.031l1.938 1.031v3.938h2v-1.5c0-1.937.993-1.912 2.438.062l1.125 1.562 2.72.312 2.719.281V67.2465l-3.812-.594c-2.095-.335-5.257-1.333-7.03-2.219l-3.22-1.625-1.719-3.625-1.719-3.656-1.75-.344-1.75-.312-.688 1.812c-.369 1.003-1.268 2.184-2 2.625l-1.312.812.594 2.438.625 2.438h-.906c-.5 0-1.436-.528-2.094-1.188l-1.219-1.188-1.469 1.938c-.811 1.07-1.482 2.689-1.5 3.594l-.031 1.625-1.75.781c-.963.418-2.537.649-3.5.531l-1.75-.22v.906c0 .5.899 1.723 2 2.719l2 1.812v4.656l3.938 2.625 3.938 2.594 2.062-.656 2.062-.656v-2.124l-1.562 1.312-1.594 1.312-.875-1.438-.906-1.438 1.72-.655c.941-.374 2.274-.743 2.969-.781l1.281-.062 1.688 2 1.719 2h3.562v1.876l-2.156.312-2.125.312-1.062 1.656-1.031 1.656 3.062 4.719 3.062 4.688-.469 1.844c-.264 1.006-1.282 2.564-2.281 3.469l-1.844 1.625-2.625-1.719-2.625-1.719-1.156 1.125-1.156 1.155h-5.593v-2.03c0-2.345-2.809-9.474-3.469-8.812-.243.244.229 2.423 1.062 4.844l1.531 4.375-.594 2.406c-.33 1.317-2.459 5.396-4.72 9.062-2.26 3.666-4.748 7.894-5.53 9.405l-1.438 2.75-2.156.5c-1.196.269-4.189.605-6.655.75l-4.5.25-1.5 6.688-1.531 6.688-4.281 4.531-4.281 4.531-4.03 1.219-4.031 1.219-8.969-4.688-8.938-4.688h-3.844l-.625-1c-.34-.55-.951-1-1.375-1h-.781l.062 2.25.094 2.25-4.5-.219-4.469-.188-1.125-1.562-1.125-1.531H532.06502l-1.062 2.031-1.094 2.031-.97-.594c-1.372-.849-1.168-2.082.625-3.875l1.595-1.595-2.845-.062-2.812-.062 2.219-1.062 2.25-1.094.5-1.656.531-1.625 2.156-.156c1.188-.089 2.95.239 3.905.75l1.72.938 1.25-1.5 1.25-1.5 1.155.28 1.188.25 5.688-5.844 5.688-5.875V121.0555l3.094-3.531 3.125-3.531h1.25c.688 0 3.279-1.075 5.781-2.405l4.562-2.438 4.095.562 4.094.562v-5.871l1.188-1.188c.66-.66 1.785-1.22 2.5-1.22h1.312v2.844l4 3.155c2.2 1.743 4 2.896 4 2.562s-1.125-3.366-2.5-6.75-2.5-7.03-2.5-8.094v-1.938l2.25-2.656 2.281-2.688 4.469 1.312 4.5 1.312 3.938-.281 3.97-.281.094-4.062.094-4.062-3.781-1.188c-2.081-.649-4.446-1.188-5.28-1.188h-1.531v-1.062c0-.588 1.336-3.002 2.969-5.375l2.969-4.312 2.625-.655 2.595-.656 1.938.594 1.906.625v-.844c0-.465-.654-1.805-1.469-2.969l-1.5-2.125 1.438-1.188 1.438-1.188 2.03.655 2.062.656v-4.093l2.5-1.656 2.5-1.625V51.9935h2.811l2.562-4.25c3.275-5.402 6.151-8.75 7.5-8.75h1.062l1 1.875 1 1.845 3.031 1.28c3.683 1.525 3.725 2 .531 5-3.904 3.668-2.184 3.506 3.25-.312 2.715-1.908 5.772-3.645 6.812-3.844l1.906-.345 2.906-5.5c1.594-3.02 3.886-6.441 5.125-7.594l2.246-2.086zm29.75 8.687c-.275 0-.5.226-.5.5 0 .275.225.5.5.5s.5-.225.5-.5-.225-.5-.5-.5zm5.906 8.813V54.0935l-2.938 2.344-2.905 2.312 1.188 1.47 1.219 1.438 2.875-.406 2.906-.438 3.125 1.625 3.125 1.625 1.438 3.469 1.469 3.469-.531 5.75-.531 5.72 1.845-2.5c1.02-1.365 2.427-4.053 3.094-6l1.188-3.562-.905-3.156-.906-3.188 2-2.531 1.969-2.5-.625-1.031c-.343-.555-1.215-1-1.938-1-.724 0-3.506-.94-6.188-2.094l-4.875-2.094-2.562-3-2.537-3.003zm70.125 24.312c.45-.095 1.254.217 2.906.845l2.562.969v3.061h.906c.491 0 1.109.636 1.406 1.406l.562 1.406-1.188 1.5-1.188 1.5-2.094-1-2.062-.969-1.5-2.656-1.5-2.688.406-1.75c.237-1.023.334-1.529.784-1.624zm-60.125 12.032l-.156 4.156-.156 4.156-1.062.344c-.574.19-1.031.878-1.031 1.5v1.125l1.375-1.469 1.406-1.47.625-3.688.656-3.656-.812-.5-.845-.498zm-36.5 7.562l3.156.655c1.748.351 3.58.625 4.062.625h.875v6.124l-1.031 1.938c-.568 1.063-1.47 1.938-2 1.938h-.969v-1.438c0-.786-.611-2.019-1.344-2.75-.733-.732-1.635-2.637-2.031-4.219l-.718-2.873zm21.094.281h1.562l.155 2 .156 2h-1.876v-4h.003zm32.781 4.063l2.625 2.438 2.594 2.406V102.6875l-2.562 1.156c-1.4.638-3.109 1.155-3.812 1.155h-1.281l.095-3.75.062-3.75 1.156-1.219 1.123-1.217zm-71.781 4.937h2.124l-.625 1c-.34.551-.82 1-1.062 1-.242 0-.438-.449-.438-1l.001-1zm-72.125 15.032l-2.438.219-2.438.188v.844c0 1.645 2.269 5.23 4.375 6.938 1.173.949 2.287 1.737 2.469 1.75.333.021-.567-4.986-1.469-8.188l-.499-1.751zm-233.656 6.718l.812 1.312.844 1.344-.5.781c-.271.438-1.145.812-1.938.812h-1.438v-1.438c0-.792.514-1.747 1.125-2.125l1.095-.686zm29.968.25c.369-.01.799 0 1.28 0h3.47l-.656 1.75c-.355.962-1.129 2.097-1.719 2.5-1.597 1.094-1.954.927-3.312-1.25-1.548-2.477-1.651-2.926.937-3zm-22.031 3.5l-.406 1.438c-.633 2.341-4.75 2.204-4.75-.156v-1.031l1.562 1.312 1.594 1.312 1-1.438 1-1.437zm305.031 4.5H665.84302l.688 3.062.656 3.094-.562.562-.562.562-.438-1.375c-.239-.766-.665-2.419-.938-3.656l-.5-2.249zm-443.687 2c.275 0 .5.226.5.5 0 .275-.225.5-.5.5s-.5-.225-.5-.5.225-.5.5-.5zm302.5 10.657l.656.688.688.655h-2.688l.688-.655.656-.688zm-189.5 1.656l.125 4.844c.062 2.661-.021 4.844-.156 4.844s-.955-1.112-1.844-2.469l-1.625-2.469v-3.844l1.75-.438 1.75-.468zm294.5.562l1 .625c.55.341 1 .82 1 1.062s-.45.438-1 .438h-1v-2.125zm-390.5.125c-.275 0-.5.226-.5.5 0 .275.225.5.5.5s.5-.225.5-.5-.225-.5-.5-.5zm405.375 1h3.25l-.625 1c-.34.551-.79 1-1 1s-.66-.449-1-1l-.625-1zm-12.75 2l1.938 1.031 1.938 1.031V152.5925l-3.438 1.562-3.47 1.562-1.03-1.062c-.579-.58-1.062-1.786-1.062-2.688v-1.656l2.562-1.156 2.562-1.155zm-389.563 2c.243 0 .438.45.438 1v1h-2.124l.625-1c.339-.549.819-1 1.061-1zm75.563.157l3.344 1.969 3.344 1.97.625 1.594c.803 2.09-.012 2.854-1.094 1.031-.463-.78-2.074-2.197-3.562-3.156l-2.688-1.75-1.312.781-1.281.78 1.312-1.625 1.312-1.594zm-74.125.5l.656.688.688.655-.688.656-.656.688V150.6565zm355 15.094l1.5 1.25c.825.685 1.5 1.352 1.5 1.5s-.675.56-1.5.875l-1.5.562V165.7505zm-41 1.937l2 1.812 2 1.812-1.156 1.375-1.155 1.406.905.844c.499.465 2.035 1.178 3.406 1.594l2.469.75-1.344-1.625-1.375-1.656h4.25l2 2 2 2v3h-7.75l-1.375 2-1.375 2.031-4.5.594c-2.475.33-6.75 1.461-9.5 2.5-5.482 2.069-6.895 2.332-4.344.845l1.656-.97-.531-2-.5-2H545.00002v-6.061l1.938 1.031c1.062.567 2.863 1.03 4 1.03h2.062v-5.75l1.5-1.25 1.5-1.25V167.6875zm12 10.969l-.656.688-.688.655h2.688l-.688-.655-.656-.688zm-405 7.344h2v4.5c0 2.476-.19 4.5-.406 4.5-.762 0-1.594-3.211-1.594-6.094v-2.906zm363.5 5.125c.42-.137 1.09.466 2.406 1.781l1.906 1.906-1.125 1.094c-1.373 1.372-1.923 1.34-3.22-.188l-1.03-1.22.344-1.75c.195-.963.392-1.518.719-1.623zm-35.719.906l.5 1.875.469 1.875 2.375 1.562c1.304.844 3.612 1.813 5.125 2.188l2.75.688V196.7495l3.094.625 3.062.595 1.938-1.031 1.938-1.031 2.438 1.812c1.354.983 2.482 2.117 2.5 2.53l.031.75h-1.938c-1.064 0-3.202.529-4.75 1.188-1.549.657-3.264 1.229-3.812 1.281-.549.051-2.248.948-3.781 1.969l-2.78 1.844-5.375.25-5.375.219-2.345 2.22c-1.286 1.211-3.103 2.617-4.03 3.125l-1.688.905-.625-1-.625-1-2.875 1.5-2.906 1.5h-7.188l-1.5 1.25c-.828.688-2.322 2.055-3.312 3.031l-1.78 1.781-3.375.969-3.406.969-1.75-.562-1.781-.562v3.189l-2.562.969c-1.411.536-3.437.969-4.5.969h-1.938v-2.656h5.907l3.25-3.188 3.219-3.156h4.312l1.75-1.938 1.75-1.906-.72-2.25c-.394-1.239-2.013-4.067-3.594-6.25-1.581-2.184-2.875-4.369-2.875-4.875v-.938l1.5 1.5c.825.823 1.5 1.911 1.5 2.405 0 .493 1.084 1.914 2.406 3.156l2.406 2.25.969-1.75 1-1.75 3.844.156c2.126.09 4.98.393 6.312.656l2.405.469 2.375-.594 2.375-.595-1.688-1.875-1.719-1.875h1.094c.603 0 1.379.449 1.719 1 .34.55 1.271 1 2.062 1h1.438V201.2195l-1.5-.595-1.5-.562v-3.062h1.312c.715 0 1.782.502 2.405 1.125l1.156 1.125 1.562-.594 1.562-.594v-4.939l.875-.562.908-.53zm30.844 4.969c.275 0 .215.449-.125 1-.34.55-.85 1-1.125 1s-.215-.45.125-1c.34-.551.85-1 1.125-1zm-36.625 9.875v2.124h1c.55 0 1-.194 1-.438s-.45-.724-1-1.062l-1-.624zm-6.125 2.125l.625 1c.34.55 1.27 1 2.062 1h1.438v-2h-4.125zm-54.938 21c-.519 0-.938.449-.938 1v1h3.124l-.625-1c-.338-.551-1.043-1-1.561-1zm-101.812 33l-.594.938-.562.938 1.75 1 1.781 1 .906-.875.906-.905 1.875 1 1.844 1 1.031-.625 1.03-.656-.344-1.062-.375-1.094-2.688-.094-2.688-.125v1.624l-1.938-1.031-1.934-1.033zm-11.25 4l.625 1c.34.55 1.3 1 2.125 1h1.5l-.625-1c-.34-.551-1.3-1-2.125-1h-1.5zm-108.063 3.594l1.656 1.375 1.688 1.405.656-.969.688-.938 3.5 1.75c1.925.972 3.351 2.012 3.156 2.312-.195.3.188 1.904.875 3.562l1.25 3.03-1.125 1.125-1.125 1.125-.656-3.28-.656-3.281-2.781.562-2.812.531-.469-1.188-.5-1.22-.969 1.375-.938 1.375-1.938-1.938-1.938-1.938-1.062.345-1.062.375-.656-1.688c-.862-2.246.027-2.981 1.812-1.5l1.438 1.219.969-1.78.999-1.746zm44.688.312l-.344 1.656-.344 1.656 1.344-.438 1.344-.438v-2.344l-1-.062-1-.03zm8.25 2.094l1.25 1.5c.685.824 1.643 1.5 2.125 1.5h.875v-3h-4.25zm-153.344.125l-1.344.845-1.344.844.594 3 .594 3-1.438.562-1.469.562v3.061h3.75l1.094 1.312 1.062 1.281-1.344 2.625-1.375 2.625.562.594c.314.312.99.562 1.5.562h.938l.531-2.094.562-2.062.812 1.28.812 1.312.688-.688.688-.688-1-1.281-1.031-1.281-.062-3.188-.062-3.188-1.031-1.938-1.031-1.938.562-.562.594-.562-1.406-2-1.406-1.995zm27.781 1.812l-.438 1.281c-.232.696-1.851 2.105-3.594 3.125l-3.156 1.844v-2.812l3.594-1.719 3.594-1.719zm53.813 1.063h2.124l-.594 1.906-.625 1.938 1.031.594 1 .625-1.969 1.969-1.969 1.969v1.438c0 .785.675 2.08 1.5 2.906.825.823 1.5 1.723 1.5 1.969 0 .245-1.176.438-2.594.438h-2.562l-.844-2.125c-.462-1.17-1.073-2.913-1.375-3.875l-.562-1.75h-3.344l-2.344 2.562-2.375 2.531V286.3755l3-2.219 3-2.219.031-2.219.031-2.22 1.031 1.75 1 1.75h5.907v-5h.002zm-95.844 1.656l-2.312 1.531-2.344 1.562-.344 1.688-.344 1.719 2.344-.312 2.344-.345.344-2.938.312-2.905zm66.75.094l1.562.595 1.531.594v1.031c0 1.27-1.033 1.285-2.969.062l-1.469-.938.688-.656.657-.688zm-6.875 3.75l-.25 2.938-.281 2.906-1.25.405-1.25.406v-1.375c0-.766.694-2.276 1.531-3.344l1.5-1.936zm58.969.156l.656.688.688.655h-2.688l.688-.655.656-.688zm4.375.656c.272-.072.684.413.969 1.156.676 1.762.111 2.063-.875.469-.362-.587-.45-1.301-.188-1.562.033-.033.055-.053.094-.063zm5.937.782l1.875 1 1.875 1-.625 1-.625 1-1.219-1-1.188-1-2.531 2.312c-1.377 1.276-3.528 2.86-4.781 3.531l-2.25 1.219-.562-.531-.531-.562-1.875 1-1.875 1v-2.092l2.406-1.095 2.375-1.094 1.125-2.156 1.125-2.125-.531 2.75-.531 2.75h.812c.453 0 2.346-1.568 4.188-3.469l3.343-3.438zm-61.343.406l.031 1.25v1.25h3.344l-.75.75c-.413.412-1.281.75-1.906.75h-1.125l-1.25 2.5-1.25 2.5 3.719.531 3.719.531-4 .812c-1.181.235-3.312.482-5.688.72l.656-1.031.719-1.188-1.656-1.844-1.688-1.875 2.312-.312 2.281-.345 1.281-2.5 1.251-2.499zm40.843.625l.562.595.562.562-.531.844c-.292.474-1.176.875-1.969.875h-1.438v-.905c0-.492.635-1.111 1.406-1.406l1.408-.565zm-5.25 1.031c.288-.07.72.438 1.031 1.25.356.927.431 1.912.156 2.188-.275.273-.8-.262-1.156-1.188-.356-.928-.431-1.913-.156-2.188.035-.034.084-.052.125-.062zm-71.562 3.5l.656.688.688.655-.688.656-.656.688V288.6565zm101.187.125l.969.969.969.97-2.062.562-2.062.531v-.844c0-.468.496-1.162 1.094-1.531l1.092-.657zm-40.187.094v2.124h1c.55 0 1-.194 1-.438s-.45-.724-1-1.062l-1-.624zm-7.906.125h2.907v1c0 .55-.337.939-.75.875s-1.2-.043-1.75.031l-1 .125 1.344.844 1.375.875-.875.406c-.471.225-2.869.131-5.344-.219l-4.5-.625 2-.312c1.1-.17 2.675-.268 3.5-.219l1.5.094.812-1.438.781-1.437zm-81.938 1c-1.008 0-2.107.294-2.469.656l-.656.656 1.062 1.281 1.062 1.28 1.406-.53 1.438-.562V290.0005h-1.843zm87.844 1.656l.656.688.688.655h-2.688l.688-.655.656-.688zm-80.906 1.094l-1.625.625-1.594.625.625 1c.811 1.312 2.201 1.281 3.031-.062l.656-1.062-.531-.562-.562-.564zm35.406 1.187l8.625.656 7.812.594c-1.804.168-3.686.311-5.438.406l-8 .438-1.5-1.031-1.499-1.063z"/></svg>