<?xml version="1.0" encoding="utf-8"?>
<!-- Generator: Adobe Illustrator 16.0.4, SVG Export Plug-In . SVG Version: 6.00 Build 0)  -->
<!DOCTYPE svg PUBLIC "-//W3C//DTD SVG 1.1//EN" "http://www.w3.org/Graphics/SVG/1.1/DTD/svg11.dtd">
<svg version="1.1" id="Layer_1" xmlns="http://www.w3.org/2000/svg" xmlns:xlink="http://www.w3.org/1999/xlink" x="0px" y="0px"
	 width="97.514px" height="98.773px" viewBox="0 0 97.514 98.773" enable-background="new 0 0 97.514 98.773" xml:space="preserve">
<path fill="#89D1DF" d="M0.001,51.314h23.332V24.648H0.001V51.314z"/>
<path opacity="0.5" fill="#95E000" d="M94.989,10.637c-2.203-1.047-4.838-0.108-5.885,2.096L82.09,27.505l-51.25-2.88
	c-2.438-0.136-4.522,1.729-4.658,4.165c-0.138,2.436,1.728,4.521,4.164,4.658l-0.002-0.003l20.743,1.166v27.701l-1.688,30.394
	c-0.3,3.035,1.914,5.737,4.95,6.041c0.186,0.019,0.368,0.026,0.551,0.026c2.807,0.001,5.206-2.128,5.49-4.979l2.273-22.911
	l2.272,22.911c0.285,2.85,2.688,4.979,5.491,4.979c0.183,0,0.366-0.009,0.551-0.026c3.033-0.304,5.251-3.006,4.95-6.041
	l-2.175-38.051V35.887l13.771,0.773l9.562-20.14C98.132,14.317,97.194,11.684,94.989,10.637z"/>
<path fill="#95E000" d="M62.351,22.118c6.115,0,11.064-4.928,11.064-11.062C73.415,4.92,68.466,0,62.351,0
	c-6.11,0-11.057,4.92-11.057,11.057C51.294,17.191,56.239,22.118,62.351,22.118z"/>
</svg>
