<?xml version="1.0" encoding="utf-8"?>
<!DOCTYPE svg PUBLIC "-//W3C//DTD SVG 1.1//EN" "http://www.w3.org/Graphics/SVG/1.1/DTD/svg11.dtd">
<svg version="1.1" id="Layer_1" xmlns="http://www.w3.org/2000/svg" xmlns:xlink="http://www.w3.org/1999/xlink" x="0px" y="0px"
	 width="94.967px" height="103.533px" viewBox="0 0 94.967 103.533" enable-background="new 0 0 94.967 103.533"
	 xml:space="preserve" preserveAspectRatio="xMidYMid meet">
<g>
	<g>
		<path opacity="0.5" fill="#95E000" d="M66.103,89.257c1.715,2.745,2.274,5.113,2.274,7.034c0,0.842-0.119,1.578-0.284,2.242
			c8.662,0,16.551,0,18.07,0c2.449-3.998,3.804-8.522,3.804-13.25c0-1.015-0.079-2.013-0.194-3h-28.06
			C64.272,86.351,66.103,89.257,66.103,89.257z"/>
		<g>
			<path fill="#95E000" d="M74.967,56.719c0-1.838,0-28.75,0-29.562c0.39-0.621,2.64-4.202,2.64-4.202
				c0.691-1.107,0.918-2.066,0.918-2.846c0-0.798-0.236-1.408-0.453-1.799c-0.711-1.282-2.166-2.048-3.896-2.048H54.757
				c-1.729,0-3.184,0.765-3.895,2.047c-0.217,0.391-0.453,1.001-0.453,1.8c0,0.779,0.226,1.738,0.918,2.846
				c0,0,1.977,3.145,2.64,4.201c0,0.661,0,19.167,0,26.825c1.104-0.433,2.155-0.75,3-0.848V26.292l-3.095-4.925
				c-0.303-0.484-0.462-0.929-0.462-1.262c0-0.132,0.024-0.248,0.075-0.34c0.17-0.305,0.668-0.502,1.271-0.502h19.419
				c0.604,0,1.103,0.197,1.271,0.502c0.053,0.093,0.078,0.208,0.078,0.34c0,0.333-0.16,0.778-0.463,1.261
				c0,0.001-3.094,4.926-3.094,4.926l-0.001,32.511l1.034,0.337c11.344,3.703,18.966,14.209,18.966,26.146
				c0,5.476-1.643,10.719-4.678,15.25c-0.729,0-9.965,0-19.942,0c-0.025,0.049-0.051,0.112-0.076,0.159
				c-0.621,1.119-1.483,2.068-2.519,2.841h24.157l0.447-0.634c3.67-5.176,5.609-11.268,5.609-17.616
				C94.967,72.424,86.955,61.121,74.967,56.719z"/>
			<g>
				<path fill="#95E000" d="M40.367,72.032c0.98-1.78,2.153-3.446,3.499-4.967l-1.642-2.607c-2.113,2.242-3.869,4.798-5.216,7.574
					H40.367z"/>
			</g>
			<path fill="#95E000" d="M47.64,59.92c0.464,0.737,0.989,1.572,1.57,2.496c4.624-2.76,7.757-3.614,7.757-3.614s0-2.494,0-2.906
				C54.543,56.291,49.78,58.509,47.64,59.92z"/>
		</g>
		<path opacity="0.5" fill="#95E000" d="M60.166,92.967L48.565,74.533c-4.374,0-14.552,0-22.44,0l-8.784,13.969
			c-0.585,0.933-1.637,1.335-2.336,0.897c-0.699-0.438-0.792-1.557-0.207-2.487l7.783-12.379c-1.919,0-3.568,0-4.774,0L6.205,92.967
			c-0.797,1.275-1.211,2.433-1.211,3.33c0,0.386,0.076,0.724,0.23,1.002c0.477,0.858,1.833,1.414,3.458,1.414h49.006
			c1.625,0,2.981-0.555,3.457-1.414c0.155-0.278,0.231-0.616,0.231-1.002C61.378,95.397,60.963,94.242,60.166,92.967z"/>
		<path fill="#95E000" d="M64.405,90.315c0,0-20.267-32.205-20.719-32.924c0-0.811,0-18.427,0-19.235
			c0.39-0.621,2.639-4.202,2.639-4.202c0.692-1.107,0.918-2.066,0.918-2.845c0-0.798-0.237-1.409-0.453-1.8
			c-0.711-1.282-2.167-2.047-3.895-2.047H23.477c-1.729,0-3.185,0.766-3.896,2.048c-0.216,0.391-0.453,1-0.453,1.798
			c0,0.78,0.227,1.739,0.92,2.848c0,0,2.249,3.58,2.639,4.2c0,0.612,0,10.826,0,16.127h2.999l0.001-16.991l-3.095-4.925
			c-0.423-0.677-0.567-1.276-0.386-1.603c0.168-0.305,0.667-0.502,1.271-0.502h19.419c0.603,0,1.102,0.197,1.271,0.502
			c0.181,0.327,0.037,0.925-0.386,1.602c0,0.001-3.093,4.925-3.093,4.925l-0.001,20.967l21.175,33.648
			c1.559,2.493,1.926,4.754,1.033,6.362c-0.848,1.529-2.793,2.443-5.205,2.443H8.683c-2.412,0-4.359-0.914-5.207-2.445
			c-0.892-1.607-0.524-3.867,1.033-6.36L25.686,58.26v-0.885c0,0-2.999-0.022-2.999,0c-0.453,0.719-20.722,32.94-20.722,32.94
			C0.478,92.697,0,94.702,0,96.297c0,1.533,0.441,2.687,0.852,3.427c1.385,2.498,4.312,3.989,7.831,3.989H57.69
			c3.519,0,6.445-1.491,7.83-3.989C66.356,98.213,67.323,94.983,64.405,90.315z"/>
		<circle fill="#89D1DF" cx="71.903" cy="71.778" r="5.004"/>
		<g>
			<rect x="64.931" y="51.783" fill="#95E000" width="2.549" height="3"/>
		</g>
		<g>
			<rect x="64.931" y="42.95" fill="#95E000" width="2.549" height="3"/>
		</g>
		<g>
			<rect x="64.931" y="34.116" fill="#95E000" width="2.549" height="3"/>
		</g>
		<g>
			<rect x="62.931" y="25.283" fill="#95E000" width="5.549" height="3"/>
		</g>
		<g>
			<rect x="32.431" y="35.783" fill="#95E000" width="5.701" height="3"/>
		</g>
	</g>
	<circle fill="#89D1DF" cx="32.556" cy="16.175" r="4.156"/>
	<circle fill="#89D1DF" cx="32.553" cy="2.889" r="2.889"/>
</g>
</svg>
