<?xml version="1.0" encoding="utf-8"?>
<!-- Generator: Adobe Illustrator 16.0.4, SVG Export Plug-In . SVG Version: 6.00 Build 0)  -->
<!DOCTYPE svg PUBLIC "-//W3C//DTD SVG 1.1//EN" "http://www.w3.org/Graphics/SVG/1.1/DTD/svg11.dtd">
<svg version="1.1" id="Layer_1" xmlns="http://www.w3.org/2000/svg" xmlns:xlink="http://www.w3.org/1999/xlink" x="0px" y="0px"
	 width="764.1px" height="616.631px" viewBox="-8.853 0 764.1 616.631" enable-background="new -8.853 0 764.1 616.631"
	 xml:space="preserve">
<g opacity="0.5">
	<path fill="#95E000" d="M739.073,573.953L621.106,455.987C609,467.938,595.86,478.46,581.877,487.47l121.836,121.835
		c4.881,4.886,11.279,7.322,17.678,7.322c6.4,0,12.799-2.438,17.682-7.322C748.834,599.546,748.834,583.716,739.073,573.953z"/>
	<path fill="#95E000" d="M162.532,573.953c-9.763,9.763-9.763,25.593,0,35.354c4.882,4.886,11.28,7.322,17.678,7.322
		s12.796-2.438,17.678-7.322L319.879,487.32c-13.964-9.029-27.094-19.562-39.185-31.526L162.532,573.953z"/>
	<path fill="#95E000" d="M425.606,524.488v67.143c0,13.807,11.189,25,25,25c13.807,0,25-11.193,25-25v-67.056
		c-8.123,0.812-16.332,1.229-24.605,1.229C442.458,525.808,433.987,525.355,425.606,524.488z"/>
	<path fill="#95E000" d="M391.174,242.616c13.098-19.043,35.018-31.567,59.822-31.567c40.02,0,72.58,32.56,72.58,72.581
		c0,40.021-32.562,72.581-72.58,72.581c-40.021,0-72.58-32.56-72.58-72.581c0-9.139,1.715-17.881,4.811-25.943
		c-13.8-6.463-29.171-13.673-45.351-21.27c-6.091,14.539-9.462,30.489-9.462,47.213c0,67.592,54.991,122.581,122.581,122.581
		c67.592,0,122.58-54.989,122.58-122.581c0-67.591-54.988-122.581-122.58-122.581c-44.16,0-82.939,23.477-104.519,58.602l-2.2,3.958
		l43.19,24.785L391.174,242.616z"/>
	<path fill="#95E000" d="M424.531,269.666l26.595,15.262c-1.301,1.537-2.809,1.562-5.545,1.658
		c-0.256,0.009-9.039-4.023-23.545-10.772c-0.672,2.493-1.035,5.111-1.035,7.816c0,16.568,13.43,30,30,30c16.568,0,30-13.432,30-30
		c0-16.569-13.432-30-30-30c-8.297,0-16.139,3.453-21.227,8.819S424.531,269.666,424.531,269.666z"/>
	<path fill="#95E000" d="M304.092,197.873c29.562-50.444,84.333-84.404,146.903-84.404c93.828,0,170.162,76.334,170.162,170.161
		S544.829,453.791,451,453.791c-93.828,0-170.162-76.334-170.162-170.161c0-23.955,4.985-46.763,13.957-67.458
		c-15.188-7.141-30.494-14.341-45.377-21.345c-12.176,27.615-18.58,57.716-18.58,88.803c0,58.807,22.901,114.095,64.483,155.678
		c41.583,41.583,96.874,64.483,155.679,64.483s114.096-22.9,155.678-64.483c41.584-41.583,64.484-96.871,64.484-155.678
		s-22.9-114.095-64.484-155.678C565.094,86.37,509.805,63.469,451,63.469c-58.807,0-114.095,22.901-155.679,64.483
		c-14.195,14.195-26.201,29.994-35.873,46.978l43.382,24.896L304.092,197.873z"/>
</g>
<g>
	<path fill="#89D1DF" d="M424.334,269.666l26.595,15.263c-1.301,1.536-2.809,1.562-5.545,1.657
		c-0.256,0.009-9.039-4.022-23.545-10.772c-0.672,2.494-1.035,5.111-1.035,7.816c0,16.568,13.43,30,30,30c16.568,0,30-13.432,30-30
		s-13.432-30-30-30c-8.297,0-16.139,3.453-21.227,8.819S424.334,269.666,424.334,269.666z"/>
</g>
<g>
	<path fill="#95E000" d="M346.476,219.151l-42.384-21.778"/>
	<path fill="#95E000" d="M429.774,261.949l-38.6-19.833"/>
	<path fill="#95E000" d="M259.449,174.43l-19.614-10.078l-44.679-22.958c-15.015-7.843-29.924-13.494-37.818-29.107
		c-8.06-16.057-7.438-42.888-0.922-59.739l-11.619-6.069c-0.129,0.421-0.29,0.837-0.497,1.243c-1.922,3.76-6.529,5.25-10.29,3.329
		c-3.76-1.922-5.25-6.529-3.328-10.29c0.228-0.447,0.497-0.858,0.795-1.239l-8.843-4.62c-0.136,0.494-0.324,0.981-0.566,1.456
		c-1.922,3.76-6.529,5.25-10.29,3.329c-3.76-1.922-5.25-6.529-3.329-10.29c0.264-0.517,0.583-0.985,0.939-1.413l-8.937-4.668
		c-0.139,0.57-0.337,1.133-0.616,1.678c-1.922,3.76-6.529,5.25-10.289,3.329c-3.761-1.922-5.251-6.529-3.329-10.29
		c0.3-0.587,0.672-1.112,1.089-1.583l-9.038-4.721c-0.137,0.646-0.351,1.285-0.666,1.901c-1.922,3.76-6.529,5.25-10.29,3.329
		c-3.76-1.922-5.25-6.529-3.329-10.29c0.336-0.658,0.759-1.241,1.24-1.754L54.862-0.5c-11.399,27.693-8.66,61.251,12.311,84.052
		c-0.011-0.001-0.021-0.001-0.031-0.003C35.683,80.133,9.026,96.027-8.853,121.474L3.39,127.87c0.138-0.545,0.333-1.084,0.6-1.607
		c1.922-3.76,6.529-5.25,10.29-3.329c3.76,1.922,5.251,6.529,3.329,10.29c-0.289,0.564-0.644,1.071-1.041,1.529l9.005,4.704
		c0.138-0.622,0.347-1.237,0.65-1.83c1.922-3.76,6.529-5.25,10.29-3.329c3.76,1.922,5.25,6.529,3.328,10.29
		c-0.325,0.635-0.731,1.199-1.191,1.699l9.106,4.757c0.133-0.697,0.36-1.389,0.7-2.053c1.922-3.76,6.529-5.25,10.29-3.329
		c3.76,1.922,5.25,6.529,3.329,10.29c-0.361,0.706-0.816,1.332-1.343,1.87l9.216,4.812c0.124-0.775,0.365-1.544,0.741-2.281
		c1.922-3.76,6.529-5.25,10.289-3.329c3.761,1.922,5.251,6.529,3.329,10.29c-0.398,0.779-0.917,1.455-1.515,2.029l9.911,5.177
		c9.509-14.534,27.198-28.629,43.632-32.274c0.573-0.139,1.136-0.263,1.696-0.381c19.992-4.221,32.177,4.549,49.717,13.711
		l263.377,128.852c0,0-3.301-17.576-18.243-24.907S259.449,174.43,259.449,174.43z"/>
</g>
</svg>
